<svg xmlns="http://www.w3.org/2000/svg" xmlns:xlink="http://www.w3.org/1999/xlink" width="24" height="24" viewBox="0 0 24 24">
  <defs>
    <clipPath id="clip-path">
      <rect id="Rectangle_274" data-name="Rectangle 274" width="24" height="24" transform="translate(48 788)" fill="#212121" stroke="#707070" stroke-width="1" opacity="0"/>
    </clipPath>
  </defs>
  <g id="Mask_Group_2" data-name="Mask Group 2" transform="translate(-48 -788)" clip-path="url(#clip-path)">
    <g id="apple-logo" transform="translate(47.999 788)">
      <g id="Group_13223" data-name="Group 13223">
        <path id="Path_17" data-name="Path 17" d="M16.619,0h.171A5.139,5.139,0,0,1,15.5,3.873a4.012,4.012,0,0,1-3.532,1.658,4.985,4.985,0,0,1,1.317-3.753A5.69,5.69,0,0,1,16.619,0Z" fill="#212121"/>
        <path id="Path_18" data-name="Path 18" d="M21.784,17.617v.047a13.964,13.964,0,0,1-2,3.852c-.762,1.049-1.7,2.46-3.363,2.46-1.441,0-2.4-.926-3.874-.952C10.987,23,10.128,23.8,8.7,24H8.213A4.349,4.349,0,0,1,5.7,22.27a15.161,15.161,0,0,1-3.484-8.722V12.474A7.033,7.033,0,0,1,5.288,6.7,5.186,5.186,0,0,1,8.77,5.894a8.759,8.759,0,0,1,1.706.489,4.711,4.711,0,0,0,1.705.511,4.093,4.093,0,0,0,1.2-.366,7.36,7.36,0,0,1,3.849-.683,5.34,5.34,0,0,1,3.924,2.34,5.035,5.035,0,0,0-2.558,5A5.157,5.157,0,0,0,21.784,17.617Z" fill="#212121"/>
      </g>
    </g>
  </g>
</svg>
