<svg width="219" height="78" viewBox="0 0 219 78" fill="none" xmlns="http://www.w3.org/2000/svg">
<path d="M211 0H8C3.58172 0 0 3.58172 0 8V70C0 74.4183 3.58172 78 8 78H211C215.418 78 219 74.4183 219 70V8C219 3.58172 215.418 0 211 0Z" fill="white"/>
<path d="M53.0231 37.4581C53.0422 35.9805 53.4347 34.5317 54.1641 33.2467C54.8935 31.9616 55.9362 30.8819 57.1951 30.1081C56.3951 28.9661 55.34 28.0262 54.1135 27.3631C52.8869 26.7 51.5227 26.3319 50.1291 26.2881C47.1571 25.9751 44.2731 28.0671 42.7591 28.0671C41.2151 28.0671 38.8831 26.3191 36.3701 26.3671C34.7455 26.4195 33.1622 26.892 31.7745 27.7385C30.3869 28.585 29.2422 29.7766 28.4521 31.1971C25.0281 37.1251 27.5821 45.8371 30.8621 50.6291C32.5031 52.9771 34.4211 55.5961 36.9311 55.5041C39.3871 55.4041 40.3041 53.9401 43.2671 53.9401C46.2031 53.9401 47.0671 55.5041 49.6241 55.4451C52.2601 55.4041 53.9191 53.0881 55.5031 50.7201C56.6825 49.0484 57.5898 47.2005 58.1911 45.2451C56.6612 44.5967 55.3556 43.5128 54.4367 42.1283C53.5179 40.7438 53.0263 39.1197 53.0231 37.4581V37.4581ZM48.1871 23.1351C49.6243 21.4108 50.3324 19.1941 50.1611 16.9561C47.9662 17.1871 45.9387 18.236 44.4821 19.8941C43.77 20.7042 43.2247 21.6468 42.8772 22.668C42.5297 23.6891 42.387 24.7687 42.4571 25.8451C43.5549 25.8565 44.641 25.6186 45.6336 25.1494C46.6261 24.6801 47.4992 23.9917 48.1871 23.1361V23.1351Z" fill="#312F30"/>
<path d="M88.6472 55.1699H85.2152L83.3352 49.2629H76.8012L75.0092 55.1699H71.6692L78.1442 35.0599H82.1442L88.6472 55.1699ZM82.7692 46.7849L81.0692 41.5339C80.8892 41.0006 80.5512 39.7379 80.0552 37.7459H79.9952C79.7952 38.6013 79.4769 39.8639 79.0402 41.5339L77.3692 46.7849H82.7692ZM105.269 47.7419C105.387 49.8784 104.665 51.9762 103.259 53.5889C102.693 54.2069 102.001 54.6969 101.23 55.0263C100.459 55.3557 99.6273 55.5168 98.7892 55.4989C97.9771 55.5656 97.1622 55.4092 96.4324 55.0467C95.7026 54.6842 95.0857 54.1293 94.6482 53.4419V61.0509H91.4262V45.4329C91.4262 43.8836 91.3865 42.2949 91.3072 40.6669H94.1402L94.3202 42.9669H94.3802C94.8681 42.2193 95.5241 41.5959 96.2956 41.1466C97.0672 40.6974 97.933 40.4346 98.8241 40.3792C99.7152 40.3238 100.607 40.4774 101.428 40.8278C102.249 41.1781 102.977 41.7154 103.554 42.3969C104.749 43.9135 105.357 45.8102 105.266 47.7389L105.269 47.7419ZM101.987 47.8599C102.037 46.6252 101.704 45.4053 101.032 44.3679C100.721 43.9153 100.302 43.5474 99.8136 43.2975C99.3246 43.0476 98.7811 42.9237 98.2322 42.9369C97.4409 42.9367 96.6749 43.2165 96.0702 43.7269C95.4237 44.2541 94.9764 44.9861 94.8022 45.8019C94.7137 46.1219 94.6634 46.4512 94.6522 46.7829V49.2019C94.6259 50.1833 94.9725 51.1381 95.6222 51.8739C95.9361 52.2301 96.3249 52.5124 96.7608 52.7007C97.1966 52.8889 97.6687 52.9785 98.1432 52.9629C98.6948 52.9852 99.2432 52.8687 99.7381 52.6241C100.233 52.3795 100.659 52.0146 100.976 51.5629C101.698 50.4662 102.051 49.168 101.984 47.8569L101.987 47.8599ZM121.948 47.7419C122.066 49.8784 121.344 51.9763 119.938 53.5889C119.371 54.2067 118.68 54.6965 117.909 55.0259C117.138 55.3552 116.305 55.5165 115.467 55.4989C114.655 55.5654 113.841 55.4089 113.111 55.0464C112.381 54.6839 111.765 54.1292 111.327 53.4419V61.0509H108.105V45.4329C108.105 43.8836 108.066 42.2949 107.986 40.6669H110.819L110.999 42.9669H111.059C111.547 42.2192 112.203 41.5959 112.975 41.1466C113.747 40.6974 114.613 40.4346 115.504 40.3792C116.395 40.3238 117.287 40.4774 118.109 40.8278C118.93 41.1781 119.658 41.7154 120.235 42.3969C121.429 43.914 122.036 45.8106 121.945 47.7389L121.948 47.7419ZM118.664 47.8599C118.714 46.625 118.379 45.405 117.707 44.3679C117.396 43.9153 116.978 43.5474 116.489 43.2975C116 43.0476 115.456 42.9237 114.907 42.9369C114.115 42.9372 113.348 43.2169 112.742 43.7269C112.096 44.2544 111.65 44.9864 111.476 45.8019C111.388 46.122 111.337 46.4512 111.325 46.7829V49.2019C111.3 50.1829 111.646 51.1372 112.294 51.8739C112.609 52.23 112.998 52.5122 113.434 52.7004C113.87 52.8887 114.342 52.9783 114.817 52.9629C115.369 52.9852 115.917 52.8687 116.412 52.6241C116.907 52.3795 117.333 52.0146 117.65 51.5629C118.373 50.4666 118.727 49.1684 118.661 47.8569L118.664 47.8599ZM140.595 49.5299C140.621 50.3147 140.474 51.0955 140.165 51.8173C139.856 52.5392 139.392 53.1845 138.807 53.7079C137.266 54.9603 135.311 55.5884 133.329 55.4679C131.51 55.5548 129.703 55.1201 128.122 54.2149L128.867 51.5299C130.275 52.365 131.884 52.7987 133.521 52.7839C134.532 52.8451 135.533 52.5551 136.354 51.9629C136.683 51.7024 136.946 51.3682 137.123 50.9873C137.299 50.6064 137.383 50.1894 137.369 49.7699C137.377 49.3877 137.307 49.0078 137.163 48.6536C137.019 48.2993 136.805 47.9782 136.532 47.7099C135.724 47.0076 134.78 46.4798 133.758 46.1599C130.237 44.8466 128.476 42.9266 128.475 40.3999C128.457 39.6264 128.616 38.8589 128.939 38.1558C129.262 37.4528 129.741 36.8328 130.34 36.3429C131.741 35.235 133.496 34.6728 135.279 34.7609C136.856 34.7056 138.422 35.0333 139.844 35.7159L139.036 38.3419C137.847 37.7129 136.518 37.3947 135.172 37.4169C134.211 37.3596 133.262 37.6571 132.506 38.2529C132.248 38.4806 132.042 38.7612 131.903 39.0756C131.763 39.39 131.693 39.7309 131.697 40.0749C131.69 40.4521 131.77 40.8258 131.931 41.1672C132.091 41.5086 132.328 41.8086 132.623 42.0439C133.509 42.7127 134.496 43.236 135.546 43.5939C136.991 44.1028 138.298 44.9397 139.365 46.0389C140.196 47.0072 140.634 48.2517 140.592 49.5269L140.595 49.5299ZM151.275 43.0879H147.724V50.1279C147.724 51.9186 148.351 52.8133 149.604 52.8119C150.086 52.823 150.566 52.7725 151.035 52.6619L151.124 55.1089C150.316 55.373 149.469 55.4938 148.619 55.4659C148.067 55.4966 147.515 55.4085 147.001 55.2075C146.486 55.0065 146.02 54.6974 145.635 54.3009C144.811 53.173 144.429 51.7824 144.561 50.3919V43.0829H142.445V40.6649H144.561V38.0099L147.725 37.0549V40.6649H151.276L151.275 43.0879ZM167.265 47.8009C167.344 49.8064 166.662 51.7674 165.355 53.2909C164.685 54.0241 163.862 54.6017 162.945 54.9831C162.027 55.3646 161.038 55.5406 160.045 55.4989C159.094 55.5411 158.145 55.3734 157.265 55.0077C156.386 54.6421 155.598 54.0873 154.957 53.3829C153.669 51.9086 152.99 49.9996 153.057 48.0429C152.977 46.0208 153.676 44.0449 155.011 42.5239C155.681 41.8051 156.499 41.2406 157.409 40.8695C158.318 40.4984 159.298 40.3296 160.279 40.3749C161.237 40.3362 162.191 40.5056 163.077 40.8714C163.962 41.2372 164.758 41.7908 165.409 42.4939C166.681 43.9609 167.344 45.8582 167.263 47.7979L167.265 47.8009ZM163.925 47.8749C163.959 46.6768 163.66 45.4927 163.062 44.4539C162.789 43.9236 162.372 43.4806 161.859 43.1753C161.347 42.87 160.759 42.7147 160.162 42.7269C159.558 42.7099 158.96 42.8626 158.438 43.1679C157.916 43.4732 157.49 43.9187 157.208 44.4539C156.604 45.5125 156.304 46.7177 156.343 47.9359C156.309 49.135 156.608 50.3201 157.208 51.3589C157.492 51.8852 157.914 52.3243 158.428 52.6294C158.943 52.9344 159.53 53.094 160.128 53.091C160.726 53.0881 161.312 52.9226 161.824 52.6125C162.335 52.3023 162.752 51.859 163.031 51.3299C163.645 50.2822 163.954 49.0838 163.923 47.8699L163.925 47.8749ZM177.741 43.5029C177.406 43.4425 177.067 43.4127 176.726 43.4139C176.216 43.3902 175.708 43.4954 175.249 43.72C174.79 43.9446 174.395 44.2813 174.1 44.6989C173.539 45.5459 173.26 46.548 173.3 47.5629V55.1699H170.078V45.2359C170.078 43.5693 170.047 42.0476 169.984 40.6709H172.79L172.908 43.4449H172.997C173.302 42.5395 173.861 41.741 174.608 41.1449C175.281 40.642 176.097 40.3695 176.937 40.3679C177.207 40.3666 177.476 40.3863 177.742 40.4269L177.741 43.5029ZM192.151 47.2339C192.159 47.7236 192.12 48.2129 192.033 48.6949H182.368C182.346 49.3117 182.46 49.9257 182.702 50.4934C182.944 51.0611 183.308 51.5686 183.768 51.9799C184.668 52.6824 185.789 53.0412 186.929 52.9919C188.264 53.0099 189.591 52.7775 190.84 52.3069L191.34 54.5419C189.799 55.1735 188.144 55.4799 186.479 55.4419C185.507 55.4956 184.534 55.347 183.621 55.0057C182.709 54.6644 181.878 54.1377 181.179 53.4589C180.522 52.7432 180.013 51.9038 179.683 50.9896C179.353 50.0754 179.208 49.1047 179.256 48.1339C179.185 46.1594 179.821 44.2242 181.048 42.6759C181.651 41.9176 182.425 41.3119 183.306 40.9078C184.186 40.5038 185.15 40.3126 186.118 40.3499C187.042 40.2984 187.964 40.4853 188.795 40.8926C189.626 41.2999 190.339 41.914 190.864 42.6759C191.752 44.0253 192.201 45.6164 192.149 47.2309L192.151 47.2339ZM189.079 46.3979C189.122 45.5283 188.904 44.6656 188.453 43.9209C188.188 43.4851 187.809 43.1298 187.357 42.8929C186.905 42.6559 186.397 42.5464 185.887 42.5759C185.385 42.567 184.888 42.6821 184.441 42.9111C183.993 43.1402 183.61 43.476 183.323 43.8889C182.775 44.6168 182.444 45.4855 182.37 46.3939L189.079 46.3979Z" fill="#312F30"/>
<path d="M81.2141 27.8611H79.5261L78.6031 24.9611H75.3921L74.5111 27.8611H72.8681L76.0511 17.9771H78.0151L81.2141 27.8611ZM78.3251 23.7401L77.4891 21.1591C77.4011 20.8951 77.2401 20.2801 76.9891 19.2971H76.9591C76.8591 19.7221 76.7091 20.3381 76.4891 21.1591L75.6681 23.7401H78.3251ZM89.1721 20.7341L86.4721 27.8611H84.9321L82.3211 20.7341H84.0211L85.2391 24.5031C85.4451 25.1331 85.6201 25.7351 85.7511 26.3031H85.7951C85.9131 25.7911 86.0881 25.1891 86.3071 24.5031L87.5071 20.7341H89.1721ZM94.9171 27.8611L94.7991 27.0401H94.7551C94.5163 27.3631 94.2011 27.6219 93.8378 27.7932C93.4744 27.9646 93.0743 28.0432 92.6731 28.0221C92.3893 28.0373 92.1055 27.9941 91.8392 27.895C91.5728 27.796 91.3296 27.6433 91.1248 27.4464C90.9199 27.2495 90.7576 27.0126 90.6481 26.7503C90.5386 26.4881 90.4841 26.2062 90.4881 25.9221C90.4881 24.1631 92.0131 23.2531 94.6531 23.2531V23.1281C94.6531 22.1901 94.1531 21.7201 93.1721 21.7201C92.5127 21.7079 91.8646 21.8921 91.3101 22.2491L90.9881 21.2081C91.7304 20.7759 92.5797 20.5621 93.4381 20.5911C95.3001 20.5911 96.2381 21.5731 96.2381 23.5391V26.1641C96.2257 26.7325 96.2592 27.301 96.3381 27.8641L94.9171 27.8611ZM94.6961 24.3111C92.9361 24.3111 92.0561 24.7371 92.0561 25.7481C92.0401 25.8957 92.057 26.0451 92.1055 26.1856C92.1539 26.326 92.2328 26.454 92.3365 26.5604C92.4401 26.6668 92.566 26.749 92.7051 26.8012C92.8442 26.8533 92.9931 26.8741 93.1411 26.8621C93.5389 26.8726 93.9248 26.7265 94.2158 26.455C94.5067 26.1835 94.6792 25.8086 94.6961 25.4111V24.3111ZM99.7661 19.5601C99.5817 19.5497 99.4044 19.4857 99.2559 19.3758C99.1075 19.266 98.9944 19.1152 98.9305 18.9419C98.8667 18.7686 98.8549 18.5804 98.8967 18.4005C98.9384 18.2206 99.0318 18.0568 99.1655 17.9293C99.2991 17.8019 99.4671 17.7162 99.6487 17.683C99.8304 17.6498 100.018 17.6704 100.188 17.7423C100.358 17.8142 100.503 17.9343 100.606 18.0878C100.709 18.2412 100.764 18.4214 100.766 18.6061C100.77 18.7363 100.746 18.8659 100.697 18.9864C100.647 19.1069 100.573 19.2157 100.478 19.3056C100.384 19.3956 100.272 19.4647 100.149 19.5085C100.027 19.5524 99.896 19.5699 99.7661 19.5601V19.5601ZM100.588 27.8601H99.0041V20.7341H100.588V27.8601ZM104.988 27.8601H103.404V17.4601H104.988V27.8601ZM111.719 27.8601L111.601 27.0391H111.558C111.319 27.3621 111.004 27.6209 110.641 27.7922C110.277 27.9636 109.877 28.0422 109.476 28.0211C109.192 28.0363 108.909 27.9931 108.642 27.894C108.376 27.795 108.133 27.6423 107.928 27.4454C107.723 27.2485 107.561 27.0116 107.451 26.7493C107.342 26.4871 107.287 26.2052 107.291 25.9211C107.291 24.1621 108.816 23.2521 111.455 23.2521V23.1281C111.455 22.1901 110.955 21.7201 109.974 21.7201C109.315 21.7079 108.667 21.8921 108.112 22.2491L107.789 21.2061C108.531 20.7738 109.381 20.56 110.239 20.5891C112.101 20.5891 113.039 21.5711 113.039 23.5371V26.1621C113.028 26.7305 113.062 27.2988 113.139 27.8621H111.717L111.719 27.8601ZM111.498 24.3101C109.738 24.3101 108.858 24.7361 108.858 25.7471C108.842 25.8947 108.859 26.0441 108.907 26.1846C108.956 26.325 109.035 26.453 109.138 26.5594C109.242 26.6658 109.368 26.748 109.507 26.8002C109.646 26.8523 109.795 26.8731 109.943 26.8611C110.341 26.8716 110.727 26.7255 111.018 26.454C111.309 26.1825 111.481 25.8076 111.498 25.4101V24.3101ZM119.456 28.0211C119.002 28.0427 118.55 27.9358 118.154 27.7126C117.758 27.4893 117.432 27.1589 117.215 26.7591H117.18L117.089 27.8591H115.74C115.784 27.2881 115.799 26.6411 115.799 25.9381V17.4641H117.384V21.7771H117.414C117.646 21.388 117.981 21.0709 118.382 20.8611C118.784 20.6513 119.235 20.5572 119.687 20.5891C121.404 20.5891 122.606 22.0561 122.606 24.1961C122.607 26.4081 121.272 28.0221 119.454 28.0221L119.456 28.0211ZM119.132 21.8281C118.65 21.8481 118.196 22.0585 117.868 22.4132C117.541 22.7679 117.368 23.2379 117.387 23.7201V24.9671C117.381 25.1976 117.421 25.427 117.505 25.642C117.588 25.857 117.713 26.0533 117.873 26.2196C118.033 26.386 118.224 26.519 118.435 26.6111C118.647 26.7032 118.875 26.7524 119.105 26.7561C120.291 26.7561 120.997 25.7891 120.997 24.2491C120.995 22.8161 120.261 21.8281 119.132 21.8281ZM126.532 27.8561H124.95V17.4561H126.532V27.8561ZM135.153 24.6741H130.399C130.388 24.9657 130.44 25.2563 130.551 25.5263C130.662 25.7963 130.829 26.0394 131.042 26.2394C131.254 26.4394 131.507 26.5915 131.783 26.6856C132.059 26.7798 132.353 26.8137 132.643 26.7851C133.299 26.7915 133.95 26.6773 134.564 26.4481L134.81 27.5481C134.053 27.8577 133.239 28.0075 132.421 27.9881C131.942 28.025 131.46 27.957 131.01 27.7889C130.56 27.6209 130.151 27.3567 129.814 27.0148C129.476 26.673 129.216 26.2616 129.054 25.8094C128.891 25.3571 128.829 24.8748 128.871 24.3961C128.871 22.2111 130.222 20.5681 132.242 20.5681C134.06 20.5681 135.205 21.9171 135.205 23.9561C135.217 24.1979 135.2 24.4404 135.153 24.6781V24.6741ZM133.701 23.5451C133.701 22.4451 133.143 21.6681 132.131 21.6681C131.659 21.7056 131.219 21.9196 130.898 22.2675C130.577 22.6155 130.399 23.0717 130.399 23.5451H133.701ZM144.753 28.0181C144.28 28.0252 143.811 27.9334 143.376 27.7485C142.941 27.5636 142.549 27.2898 142.226 26.9446C141.903 26.5994 141.655 26.1904 141.499 25.744C141.344 25.2975 141.283 24.8234 141.321 24.3521C141.279 23.865 141.34 23.3745 141.501 22.9128C141.661 22.451 141.918 22.0284 142.253 21.6726C142.588 21.3168 142.995 21.0358 143.446 20.848C143.897 20.6603 144.383 20.57 144.872 20.5831C145.345 20.5721 145.815 20.6608 146.251 20.8434C146.687 21.0261 147.079 21.2985 147.403 21.6431C147.727 21.9876 147.975 22.3965 148.13 22.8431C148.285 23.2897 148.344 23.764 148.304 24.2351C148.345 24.7228 148.284 25.2138 148.123 25.6761C147.962 26.1385 147.706 26.562 147.372 26.919C147.037 27.2761 146.631 27.5588 146.18 27.7488C145.728 27.9388 145.242 28.0319 144.753 28.0221V28.0181ZM144.813 21.7411C143.669 21.7411 142.936 22.8111 142.936 24.3071C142.936 25.7741 143.684 26.8441 144.798 26.8441C145.912 26.8441 146.658 25.7001 146.658 24.2771C146.66 22.8281 145.927 21.7451 144.813 21.7451V21.7411ZM156.813 27.8571H155.231V23.7691C155.231 22.5091 154.747 21.8771 153.794 21.8771C153.575 21.8848 153.359 21.9364 153.159 22.0289C152.96 22.1213 152.781 22.2527 152.634 22.4153C152.486 22.578 152.372 22.7685 152.299 22.9758C152.226 23.183 152.196 23.4028 152.209 23.6221V27.8611H150.63V22.7711C150.63 22.1411 150.613 21.4651 150.571 20.7321H151.964L152.038 21.8321H152.082C152.314 21.4427 152.646 21.1221 153.042 20.903C153.439 20.6839 153.887 20.5741 154.34 20.5851C155.835 20.5851 156.817 21.7291 156.817 23.5911V27.8601L156.813 27.8571ZM167.18 21.9221H165.438V25.3831C165.438 26.2644 165.745 26.7047 166.36 26.7041C166.595 26.7058 166.83 26.6809 167.06 26.6301L167.104 27.8301C166.708 27.9614 166.291 28.0213 165.874 28.0071C164.626 28.0071 163.881 27.3181 163.881 25.5141V21.9221H162.841V20.7341H163.881V19.4281L165.435 18.9581V20.7281H167.18V21.9221ZM175.567 27.8611H173.98V23.7991C173.98 22.5241 173.497 21.8781 172.543 21.8781C172.325 21.8729 172.108 21.9138 171.907 21.9981C171.706 22.0824 171.524 22.2082 171.375 22.3673C171.226 22.5265 171.112 22.7153 171.04 22.9215C170.969 23.1277 170.942 23.3467 170.961 23.5641V27.8641H169.38V17.4641H170.965V21.7451H170.995C171.216 21.3785 171.531 21.0777 171.908 20.8739C172.284 20.6701 172.708 20.5708 173.136 20.5861C174.646 20.5861 175.569 21.7591 175.569 23.6221L175.567 27.8611ZM183.659 24.6791H178.907C178.896 24.9707 178.947 25.2613 179.058 25.5314C179.169 25.8015 179.336 26.0447 179.548 26.2448C179.761 26.4448 180.014 26.5969 180.29 26.691C180.566 26.7851 180.86 26.8188 181.15 26.7901C181.806 26.7966 182.457 26.6823 183.071 26.4531L183.319 27.5531C182.561 27.8627 181.747 28.0125 180.928 27.9931C180.449 28.0299 179.967 27.962 179.517 27.7939C179.067 27.6259 178.658 27.3617 178.321 27.0198C177.983 26.678 177.723 26.2666 177.561 25.8144C177.398 25.3621 177.336 24.8798 177.378 24.4011C177.378 22.2161 178.729 20.5731 180.749 20.5731C182.567 20.5731 183.712 21.9221 183.712 23.9611C183.722 24.2013 183.704 24.442 183.658 24.6781L183.659 24.6791ZM182.207 23.5501C182.207 22.4501 181.651 21.6731 180.638 21.6731C180.166 21.7101 179.725 21.924 179.404 22.2721C179.083 22.6201 178.905 23.0765 178.906 23.5501H182.207Z" fill="#312F30"/>
</svg>
