<svg width="28" height="24" viewBox="0 0 28 24" fill="none" xmlns="http://www.w3.org/2000/svg">
<path d="M11.03 23.8281C16.6544 23.8281 21.2139 19.2686 21.2139 13.6442C21.2139 8.01985 16.6544 3.46039 11.03 3.46039C5.40562 3.46039 0.846161 8.01985 0.846161 13.6442C0.846161 19.2686 5.40562 23.8281 11.03 23.8281Z" fill="#B2B2F1"/>
<path d="M11.1452 21.5156L11.016 21.2955C9.0429 17.9338 3.79971 10.7997 3.74675 10.728L3.67111 10.6253L5.45744 8.85988L11.112 12.8083C14.6722 8.18834 17.9937 5.01515 20.1603 3.16213C22.5303 1.13511 24.0731 0.20194 24.0887 0.192997L24.1237 0.171997H27.1539L26.8644 0.429766C19.4204 7.06011 11.3519 21.1523 11.2716 21.2938L11.1452 21.5156Z" fill="#4824D6"/>
</svg>
