<svg width="64" height="64" viewBox="0 0 64 64" fill="none" xmlns="http://www.w3.org/2000/svg">
<rect width="63.6361" height="63.6361" rx="31.8181" fill="#E5E5E5"/>
<path d="M20.9096 20.9084L20.9082 20.9098C20.4189 21.3992 20.4189 22.1926 20.9082 22.682L40.9541 42.7279C41.4435 43.2172 42.2369 43.2172 42.7263 42.7279L42.7277 42.7265C43.217 42.2371 43.217 41.4437 42.7277 40.9543L22.6818 20.9084C22.1924 20.4191 21.399 20.4191 20.9096 20.9084Z" fill="#8D8D8D"/>
<path d="M42.7278 20.9098L42.7264 20.9084C42.237 20.419 41.4436 20.419 40.9543 20.9084L20.9084 40.9543C20.419 41.4437 20.419 42.2371 20.9084 42.7265L20.9097 42.7279C21.3991 43.2172 22.1925 43.2172 22.6819 42.7279L42.7278 22.682C43.2172 22.1926 43.2172 21.3992 42.7278 20.9098Z" fill="#8D8D8D"/>
</svg>
