<svg width="194" height="111" viewBox="0 0 194 111" fill="none" xmlns="http://www.w3.org/2000/svg">
<path d="M96.7229 77.6165L170.044 4.34199C171.319 2.99379 172.852 1.91489 174.552 1.16926C176.252 0.423629 178.085 0.0264514 179.941 0.00127676C181.798 -0.0238979 183.641 0.323447 185.361 1.02271C187.08 1.72197 188.642 2.75891 189.953 4.07206C191.264 5.3852 192.297 6.9478 192.992 8.66723C193.687 10.3867 194.029 12.2279 193.998 14.0818C193.967 15.9356 193.563 17.7644 192.811 19.4597C192.059 21.1549 190.974 22.6821 189.62 23.9507L106.542 106.968C104.023 109.477 100.632 110.92 97.0745 110.997C93.5171 111.074 90.067 109.778 87.4415 107.38L3.78479 23.9507C1.30937 21.3326 -0.0476799 17.8549 0.00127893 14.2547C0.0502378 10.6545 1.50136 7.21485 4.04706 4.66487C6.59275 2.11489 10.0329 0.655038 13.6382 0.594765C17.2436 0.534492 20.7307 1.87853 23.3605 4.34199L96.7229 77.6165Z" fill="#13120B"/>
</svg>
