<svg width="371" height="123" viewBox="0 0 371 123" fill="none" xmlns="http://www.w3.org/2000/svg">
<path d="M132.137 45.2138C132.137 52.042 128.81 58.132 123.728 62.0075C122.25 63.1148 120.679 64.2221 119.016 65.2371C114.118 68.2821 108.667 70.4966 102.845 71.8807C98.6869 72.8957 94.344 73.3571 89.9086 73.3571C88.7074 73.3571 87.4137 73.3571 86.2125 73.2648C72.4443 72.3421 60.0623 66.4366 50.8219 57.3016C49.8979 60.4389 49.3435 63.853 49.3435 67.2671C49.3435 81.7539 58.2142 94.2108 70.8735 99.4704C75.0316 101.224 79.467 102.146 84.272 102.146C86.6745 102.146 89.077 101.869 91.3871 101.408C93.4199 100.947 95.4528 100.393 97.3933 99.5626C97.5781 99.4704 97.6705 99.4704 97.8553 99.3781C97.8553 99.3781 97.9477 99.3781 97.9477 99.2858C100.35 98.3631 102.937 97.8095 105.617 97.8095C112.917 97.8095 119.385 101.593 123.081 107.221C113.194 116.725 99.8882 122.723 85.1036 122.908C84.8264 122.908 84.5492 122.908 84.272 122.908C77.8037 122.908 71.5203 121.8 65.7913 119.77C60.3395 117.833 55.3497 115.157 50.8219 111.743C37.2386 101.593 28.5527 85.3526 28.5527 67.1748C28.5527 57.9475 30.7704 49.1815 34.8361 41.5229C31.2324 42.2611 27.5362 42.6302 23.6553 42.6302C15.2466 42.6302 7.29988 40.7847 0.184814 37.4629C3.60374 31.8342 8.31632 26.7592 13.7681 22.6992C10.1644 19.2851 6.93027 15.3173 4.34297 10.9805C12.5669 6.27457 22.0844 3.50638 32.2488 3.50638C33.4501 3.50638 34.7437 3.50638 35.945 3.59865C47.0334 4.42911 57.2902 8.39685 65.6065 14.6714C68.009 13.841 70.4115 13.1951 72.9064 12.6414C76.5101 11.9032 80.2062 11.5341 84.0872 11.5341C88.9846 11.5341 93.6971 12.18 98.2249 13.3796C109.221 16.2401 118.923 22.4224 126.223 30.7269C126.87 31.4651 127.517 32.2033 128.071 33.0338C130.751 36.5401 132.137 40.6924 132.137 45.2138Z" fill="url(#paint0_linear_571_52)"/>
<path d="M160.32 119.401V56.4711H145.073V40.1388H160.32V15.4096H179.91V40.1388H195.341V56.4711H179.91V119.401H160.32Z" fill="#250D78"/>
<path d="M207.631 119.401V0H227.405V50.3811C232.395 42.7224 241.728 37.7397 253.093 37.7397C272.683 37.7397 282.939 50.1043 282.939 70.5889V119.401H263.35V75.2948C263.35 62.0075 256.789 55.5484 246.81 55.5484C234.428 55.5484 227.22 64.2221 227.22 76.1253V119.401H207.631Z" fill="#250D78"/>
<path d="M298.74 96.7944C298.74 82.2153 309.367 73.0803 328.125 71.6039L351.872 69.8507V68.0975C351.872 57.3016 345.404 53.057 335.517 53.057C323.967 53.057 317.498 57.8552 317.498 66.2521H300.773C300.773 49.0893 314.911 37.832 336.441 37.832C357.786 37.832 371 49.3661 371 71.3271V119.494H353.813L352.335 107.775C348.916 115.987 338.197 121.616 325.815 121.616C308.997 121.431 298.74 111.65 298.74 96.7944ZM352.057 87.2903V83.138L335.517 84.4299C323.32 85.5371 318.607 89.5971 318.607 95.964C318.607 103.161 323.412 106.76 332.283 106.76C344.295 106.668 352.057 99.4704 352.057 87.2903Z" fill="#250D78"/>
<defs>
<linearGradient id="paint0_linear_571_52" x1="7.48984e-06" y1="63.2919" x2="132.158" y2="63.2919" gradientUnits="userSpaceOnUse">
<stop offset="5.94866e-07" stop-color="#B1B1D5"/>
<stop offset="0.0120756" stop-color="#A9A7D0"/>
<stop offset="0.0636143" stop-color="#8A83BC"/>
<stop offset="0.1215" stop-color="#6E63AA"/>
<stop offset="0.1856" stop-color="#57479B"/>
<stop offset="0.2579" stop-color="#45318F"/>
<stop offset="0.3424" stop-color="#362086"/>
<stop offset="0.4468" stop-color="#2C1580"/>
<stop offset="0.5933" stop-color="#270E7C"/>
<stop offset="1" stop-color="#250C7B"/>
</linearGradient>
</defs>
</svg>
