<svg width="128" height="45" viewBox="0 0 128 45" fill="none" xmlns="http://www.w3.org/2000/svg">
<g clip-path="url(#clip0_281_225)">
<path d="M49.1404 44.8307V21.212H43.4316V15.0554H49.1404V5.76465H56.4722V15.0554H62.237V21.212H56.4722V44.8307H49.1404Z" fill="#250D78"/>
<path d="M66.8264 44.8308V0H74.2143V18.9174C76.0612 16.007 79.5872 14.16 83.8408 14.16C91.1727 14.16 95.0345 18.8054 95.0345 26.5291V44.8308H87.7027V28.2641C87.7027 23.2829 85.2401 20.8763 81.4902 20.8763C76.8448 20.8763 74.1583 24.1224 74.1583 28.5999V44.8867H66.8264V44.8308Z" fill="#250D78"/>
<path d="M100.967 36.3237C100.967 30.8388 104.941 27.4247 111.993 26.865L120.892 26.1934V25.5218C120.892 21.492 118.485 19.8689 114.735 19.8689C110.426 19.8689 107.963 21.6599 107.963 24.7942H101.695C101.695 18.3578 107.012 14.1602 115.071 14.1602C123.075 14.1602 128 18.4697 128 26.7531V44.8309H121.564L121.004 40.4094C119.717 43.4877 115.687 45.6145 111.042 45.6145C104.829 45.6145 100.967 41.9205 100.967 36.3237ZM121.004 32.7417V31.1746L114.791 31.6783C110.202 32.126 108.467 33.5812 108.467 35.9879C108.467 38.6744 110.258 40.0176 113.56 40.0176C118.094 40.0736 121.004 37.3311 121.004 32.7417Z" fill="#250D78"/>
<path d="M0 25.7454C0 13.9361 7.72365 5.76465 18.7495 5.76465C30.0551 5.76465 37.2191 13.3204 37.2191 25.0738V27.8722L8.84303 27.9841C9.51465 34.6444 13.0407 38.0025 19.1972 38.0025C24.2903 38.0025 27.6484 36.0436 28.7118 32.4616H37.331C35.7079 40.689 28.8798 45.6702 19.0293 45.6702C7.83559 45.6142 0 37.4428 0 25.7454ZM9.0669 22.0515H27.9843C27.9843 16.8464 24.4023 13.4323 18.8614 13.4323C13.3205 13.4323 10.0184 16.3987 9.0669 22.0515Z" fill="url(#paint0_linear_281_225)"/>
</g>
<defs>
<linearGradient id="paint0_linear_281_225" x1="34.2189" y1="41.5346" x2="6.98812" y2="13.3312" gradientUnits="userSpaceOnUse">
<stop offset="5.94866e-07" stop-color="#B1B1D5"/>
<stop offset="0.0120756" stop-color="#A9A7D0"/>
<stop offset="0.0636143" stop-color="#8A83BC"/>
<stop offset="0.1215" stop-color="#6E63AA"/>
<stop offset="0.1856" stop-color="#57479B"/>
<stop offset="0.2579" stop-color="#45318F"/>
<stop offset="0.3424" stop-color="#362086"/>
<stop offset="0.4468" stop-color="#2C1580"/>
<stop offset="0.5933" stop-color="#270E7C"/>
<stop offset="1" stop-color="#250C7B"/>
</linearGradient>
<clipPath id="clip0_281_225">
<rect width="128" height="45" fill="white"/>
</clipPath>
</defs>
</svg>
