<svg width="148" height="54" viewBox="0 0 148 54" fill="none" xmlns="http://www.w3.org/2000/svg">
<g clip-path="url(#clip0_94_130)">
<path d="M69.1404 48.8307V25.212H63.4316V19.0554H69.1404V9.76465H76.4722V19.0554H82.237V25.212H76.4722V48.8307H69.1404V48.8307Z" fill="#250D78"/>
<path d="M86.8264 48.8308V4H94.2143V22.9174C96.0612 20.007 99.5872 18.16 103.841 18.16C111.173 18.16 115.035 22.8054 115.035 30.5291V48.8308H107.703V32.2641C107.703 27.2829 105.24 24.8763 101.49 24.8763C96.8448 24.8763 94.1583 28.1224 94.1583 32.5999V48.8867H86.8264V48.8308Z" fill="#250D78"/>
<path d="M120.967 40.3237C120.967 34.8388 124.941 31.4247 131.993 30.865L140.892 30.1934V29.5218C140.892 25.492 138.485 23.8689 134.735 23.8689C130.426 23.8689 127.963 25.6599 127.963 28.7942H121.695C121.695 22.3578 127.012 18.1602 135.071 18.1602C143.075 18.1602 148 22.4697 148 30.7531V48.8309H141.564L141.004 44.4094C139.717 47.4877 135.687 49.6145 131.042 49.6145C124.829 49.6145 120.967 45.9205 120.967 40.3237ZM141.004 36.7417V35.1746L134.791 35.6783C130.202 36.126 128.467 37.5812 128.467 39.9879C128.467 42.6744 130.258 44.0176 133.56 44.0176C138.094 44.0736 141.004 41.3311 141.004 36.7417Z" fill="#250D78"/>
</g>
<path d="M60 18.8624C60 21.9505 58.4874 24.7048 56.1765 26.4575C55.5042 26.9583 54.7899 27.459 54.0336 27.9181C51.8067 29.2952 49.3277 30.2968 46.6807 30.9227C44.7899 31.3818 42.8151 31.5904 40.7983 31.5904C40.2521 31.5904 39.6639 31.5904 39.1176 31.5487C32.8571 31.1314 27.2269 28.4606 23.0252 24.3292C22.605 25.7481 22.3529 27.2921 22.3529 28.8362C22.3529 35.3879 26.3866 41.0216 32.1429 43.4003C34.0336 44.1932 36.0504 44.6105 38.2353 44.6105C39.3277 44.6105 40.4202 44.4853 41.4706 44.2767C42.395 44.068 43.3193 43.8176 44.2017 43.442C44.2857 43.4003 44.3277 43.4003 44.4118 43.3586C44.4118 43.3586 44.4538 43.3586 44.4538 43.3168C45.5462 42.8995 46.7227 42.6492 47.9412 42.6492C51.2605 42.6492 54.2017 44.3601 55.8824 46.9057C51.3866 51.204 45.3361 53.9165 38.6134 54C38.4874 54 38.3613 54 38.2353 54C35.2941 54 32.437 53.4992 29.8319 52.5811C27.3529 51.7048 25.084 50.4946 23.0252 48.9505C16.8487 44.3601 12.8992 37.0155 12.8992 28.7944C12.8992 24.6213 13.9076 20.6569 15.7563 17.1932C14.1176 17.527 12.437 17.694 10.6723 17.694C6.84874 17.694 3.23529 16.8594 0 15.357C1.55462 12.8114 3.69748 10.5162 6.17647 8.68006C4.53782 7.13601 3.06723 5.34158 1.89076 3.38022C5.63025 1.25193 9.95798 0 14.5798 0C15.1261 0 15.7143 5.58794e-08 16.2605 0.0417311C21.3025 0.417311 25.9664 2.21175 29.7479 5.04946C30.8403 4.67388 31.9328 4.38176 33.0672 4.13138C34.7059 3.79753 36.3866 3.6306 38.1513 3.6306C40.3782 3.6306 42.521 3.92272 44.5798 4.46522C49.5798 5.75889 53.9916 8.55487 57.3109 12.3107C57.605 12.6445 57.8992 12.9784 58.1513 13.3539C59.3698 14.9397 60 16.8176 60 18.8624Z" fill="url(#paint0_linear_94_130)"/>
<defs>
<linearGradient id="paint0_linear_94_130" x1="-0.0840336" y1="27.0384" x2="60.0096" y2="27.0384" gradientUnits="userSpaceOnUse">
<stop offset="5.94866e-07" stop-color="#B1B1D5"/>
<stop offset="0.0120756" stop-color="#A9A7D0"/>
<stop offset="0.0636143" stop-color="#8A83BC"/>
<stop offset="0.1215" stop-color="#6E63AA"/>
<stop offset="0.1856" stop-color="#57479B"/>
<stop offset="0.2579" stop-color="#45318F"/>
<stop offset="0.3424" stop-color="#362086"/>
<stop offset="0.4468" stop-color="#2C1580"/>
<stop offset="0.5933" stop-color="#270E7C"/>
<stop offset="1" stop-color="#250C7B"/>
</linearGradient>
<clipPath id="clip0_94_130">
<rect width="128" height="45" fill="white" transform="translate(20 4)"/>
</clipPath>
</defs>
</svg>
