<svg width="218" height="78" viewBox="0 0 218 78" fill="none" xmlns="http://www.w3.org/2000/svg">
<path d="M210 0H8C3.58172 0 0 3.58172 0 8V70C0 74.4183 3.58172 78 8 78H210C214.418 78 218 74.4183 218 70V8C218 3.58172 214.418 0 210 0Z" fill="white"/>
<path d="M79.014 23.452C79.0484 24.0007 78.9725 24.5507 78.7908 25.0696C78.6091 25.5885 78.3252 26.0657 77.956 26.473C77.0692 27.3443 75.8757 27.8326 74.6325 27.8326C73.3893 27.8326 72.1958 27.3443 71.309 26.473C70.8634 26.0441 70.5123 25.527 70.2781 24.9546C70.0439 24.3822 69.9318 23.7672 69.949 23.149C69.9322 22.5311 70.0446 21.9164 70.279 21.3444C70.5133 20.7724 70.8645 20.2555 71.31 19.827C71.7388 19.3815 72.2558 19.0305 72.828 18.7963C73.4002 18.5621 74.015 18.4499 74.633 18.467C75.2645 18.4736 75.8856 18.6288 76.446 18.92C76.9853 19.1456 77.4547 19.5108 77.806 19.978L77.051 20.733C76.7651 20.3727 76.3954 20.088 75.974 19.9035C75.5527 19.7191 75.0926 19.6406 74.634 19.675C74.1772 19.6559 73.7221 19.7413 73.3032 19.9247C72.8844 20.108 72.5129 20.3845 72.217 20.733C71.8538 21.0499 71.5692 21.4468 71.3856 21.8924C71.202 22.3381 71.1245 22.8203 71.159 23.301C71.1247 23.7813 71.2022 24.2631 71.3856 24.7083C71.5691 25.1536 71.8533 25.5502 72.216 25.867C72.8738 26.4905 73.7287 26.8647 74.633 26.925C75.1123 26.9451 75.5902 26.861 76.0338 26.6783C76.4773 26.4956 76.8759 26.2188 77.202 25.867C77.4437 25.6314 77.6352 25.3493 77.765 25.0377C77.8948 24.7262 77.9601 24.3915 77.957 24.054H74.633V22.848H79.014V23.452ZM85.963 19.675H81.885V22.545H85.662V23.603H81.885V26.473H85.964V27.682H80.676V18.618H85.964L85.963 19.675ZM90.95 27.682H89.741V19.676H87.172V18.618H93.517V19.676H90.95V27.682ZM97.899 27.682V18.618H99.108V27.682H97.899ZM104.244 27.682H103.035V19.676H100.467V18.618H106.661V19.676H104.093V27.683L104.244 27.682ZM118.596 26.473C117.709 27.3443 116.516 27.8326 115.273 27.8326C114.029 27.8326 112.836 27.3443 111.949 26.473C111.503 26.0441 111.152 25.527 110.918 24.9546C110.684 24.3822 110.572 23.7672 110.589 23.149C110.572 22.5311 110.685 21.9164 110.919 21.3444C111.153 20.7724 111.504 20.2555 111.95 19.827C112.837 18.9557 114.03 18.4674 115.274 18.4674C116.517 18.4674 117.71 18.9557 118.597 19.827C119.043 20.2559 119.394 20.773 119.628 21.3454C119.862 21.9178 119.974 22.5328 119.957 23.151C119.974 23.7691 119.862 24.3839 119.627 24.9562C119.393 25.5284 119.042 26.0453 118.596 26.474V26.473ZM112.85 25.719C113.491 26.3678 114.356 26.7464 115.267 26.777C115.724 26.7961 116.179 26.7107 116.598 26.5273C117.017 26.344 117.388 26.0675 117.684 25.719C118.365 25.0372 118.748 24.1136 118.75 23.15C118.785 22.6693 118.707 22.1871 118.523 21.7414C118.34 21.2958 118.055 20.8989 117.692 20.582C117.051 19.9332 116.186 19.5546 115.275 19.524C114.817 19.5037 114.36 19.5885 113.94 19.7719C113.52 19.9552 113.147 20.2324 112.85 20.582C112.172 21.2648 111.792 22.1879 111.792 23.15C111.757 23.6309 111.835 24.1133 112.018 24.5591C112.202 25.0049 112.487 25.402 112.85 25.719ZM121.612 27.683V18.618H122.972L127.353 25.718V18.618H128.562V27.682H127.358L122.675 20.282V27.682L121.612 27.683Z" fill="#312F30" stroke="white" stroke-width="0.2" stroke-miterlimit="10"/>
<path d="M110.287 40.976C109.428 40.9563 108.574 41.111 107.776 41.4307C106.979 41.7503 106.255 42.2284 105.647 42.836C105.039 43.4435 104.561 44.1679 104.242 44.9654C103.922 45.763 103.767 46.617 103.787 47.476C103.78 48.3315 103.943 49.1799 104.268 49.9716C104.592 50.7634 105.07 51.4827 105.675 52.0876C106.28 52.6926 107 53.1711 107.791 53.4953C108.583 53.8195 109.431 53.9829 110.287 53.976C111.146 53.9957 112 53.841 112.798 53.5213C113.595 53.2017 114.319 52.7236 114.927 52.116C115.535 51.5085 116.013 50.7841 116.332 49.9865C116.652 49.189 116.807 48.335 116.787 47.476C116.82 46.6137 116.674 45.7539 116.359 44.9506C116.043 44.1472 115.566 43.4176 114.956 42.8074C114.345 42.1972 113.616 41.7196 112.812 41.4044C112.009 41.0893 111.149 40.9434 110.287 40.976ZM110.287 51.249C109.79 51.2331 109.301 51.1184 108.848 50.9117C108.396 50.7049 107.989 50.4101 107.651 50.0445C107.314 49.6789 107.052 49.2499 106.882 48.7823C106.712 48.3147 106.637 47.818 106.661 47.321C106.637 46.824 106.712 46.3273 106.882 45.8597C107.052 45.3921 107.314 44.9631 107.651 44.5975C107.989 44.2319 108.396 43.9371 108.848 43.7303C109.301 43.5236 109.79 43.4089 110.287 43.393C110.788 43.3963 111.283 43.5025 111.742 43.705C112.2 43.9076 112.612 44.2021 112.952 44.5704C113.292 44.9386 113.553 45.3728 113.718 45.8459C113.883 46.3191 113.95 46.8212 113.913 47.321C113.937 47.818 113.862 48.3147 113.692 48.7823C113.522 49.2499 113.26 49.6789 112.923 50.0445C112.585 50.4101 112.178 50.7049 111.726 50.9117C111.273 51.1184 110.784 51.2331 110.287 51.249ZM96.237 40.976C95.378 40.9563 94.524 41.111 93.7265 41.4307C92.9289 41.7503 92.2045 42.2284 91.597 42.836C90.9894 43.4435 90.5114 44.1679 90.1917 44.9654C89.872 45.763 89.7173 46.617 89.737 47.476C89.7301 48.3315 89.8935 49.1799 90.2177 49.9716C90.5419 50.7634 91.0204 51.4827 91.6254 52.0876C92.2303 52.6926 92.9496 53.1711 93.7414 53.4953C94.5331 53.8195 95.3815 53.9829 96.237 53.976C97.096 53.9957 97.95 53.841 98.7476 53.5213C99.5451 53.2017 100.27 52.7236 100.877 52.116C101.485 51.5085 101.963 50.7841 102.282 49.9865C102.602 49.189 102.757 48.335 102.737 47.476C102.77 46.6137 102.624 45.7539 102.309 44.9506C101.993 44.1472 101.516 43.4176 100.906 42.8074C100.295 42.1972 99.5658 41.7196 98.7625 41.4044C97.9591 41.0893 97.0993 40.9434 96.237 40.976ZM96.237 51.249C95.7397 51.2331 95.2506 51.1184 94.7981 50.9117C94.3456 50.7049 93.9387 50.4101 93.6012 50.0445C93.2638 49.6789 93.0024 49.2499 92.8324 48.7823C92.6624 48.3147 92.5871 47.818 92.611 47.321C92.5871 46.824 92.6624 46.3273 92.8324 45.8597C93.0024 45.3921 93.2638 44.9631 93.6012 44.5975C93.9387 44.2319 94.3456 43.9371 94.7981 43.7303C95.2506 43.5236 95.7397 43.4089 96.237 43.393C96.7382 43.3963 97.2333 43.5025 97.6918 43.705C98.1502 43.9076 98.5622 44.2021 98.9022 44.5704C99.2421 44.9386 99.5028 45.3728 99.6681 45.8459C99.8334 46.3191 99.8997 46.8212 99.863 47.321C99.8869 47.818 99.8116 48.3147 99.6416 48.7823C99.4716 49.2499 99.2103 49.6789 98.8728 50.0445C98.5353 50.4101 98.1285 50.7049 97.6759 50.9117C97.2234 51.1184 96.7343 51.2331 96.237 51.249ZM79.468 42.94V45.659H85.968C85.8744 46.9555 85.3414 48.1813 84.457 49.134C83.8064 49.7874 83.0277 50.2991 82.1698 50.6371C81.3119 50.9751 80.3934 51.132 79.472 51.098C78.5241 51.1073 77.5841 50.925 76.7085 50.5619C75.8328 50.1989 75.0396 49.6625 74.3764 48.9852C73.7133 48.3078 73.1939 47.5034 72.8494 46.6203C72.505 45.7371 72.3426 44.7935 72.372 43.846C72.3553 42.9018 72.5264 41.9638 72.8754 41.0863C73.2244 40.2089 73.7444 39.4095 74.405 38.7348C75.0656 38.06 75.8537 37.5233 76.7236 37.1558C77.5935 36.7882 78.5277 36.5973 79.472 36.594C81.319 36.6117 83.0943 37.3111 84.457 38.558L86.421 36.594C84.5978 34.8322 82.1563 33.856 79.621 33.875C76.9673 33.8918 74.4249 34.9431 72.5342 36.8054C70.6436 38.6676 69.554 41.1939 69.497 43.847C69.5542 46.4996 70.6437 49.0253 72.5339 50.8873C74.424 52.7493 76.9658 53.8006 79.619 53.818C80.9182 53.8901 82.2171 53.6697 83.4198 53.173C84.6225 52.6763 85.6983 51.9159 86.568 50.948C88.1626 49.2244 89.0287 46.9507 88.985 44.603C89.017 44.0446 88.9661 43.4845 88.834 42.941L79.468 42.94ZM148.055 45.055C147.684 43.8949 146.961 42.8791 145.987 42.1482C145.012 41.4174 143.835 41.0077 142.617 40.976C139.293 40.976 136.574 43.544 136.574 47.476C136.55 48.323 136.697 49.1662 137.005 49.9554C137.314 50.7446 137.778 51.4638 138.37 52.0701C138.961 52.6765 139.669 53.1576 140.451 53.4851C141.232 53.8125 142.072 53.9794 142.919 53.976C143.972 53.9858 145.009 53.7275 145.934 53.2254C146.86 52.7233 147.642 51.9939 148.207 51.106L146.092 49.595C145.767 50.1472 145.303 50.605 144.746 50.9229C144.19 51.2409 143.56 51.4081 142.919 51.408C142.253 51.4422 141.593 51.2725 141.026 50.9216C140.459 50.5707 140.012 50.0552 139.746 49.444L148.357 45.818L148.055 45.055ZM139.297 47.17C139.266 46.2355 139.592 45.3242 140.21 44.6222C140.828 43.9203 141.69 43.4806 142.621 43.393C143.11 43.3768 143.594 43.4951 144.02 43.7349C144.446 43.9747 144.798 44.3268 145.038 44.753L139.297 47.17ZM132.197 53.364H135.067V34.476H132.197V53.364ZM127.66 42.336C126.746 41.3936 125.497 40.8504 124.185 40.825C122.514 40.9015 120.937 41.6203 119.783 42.8313C118.629 44.0423 117.987 45.6522 117.991 47.325C117.979 48.1488 118.13 48.9668 118.436 49.7321C118.741 50.4974 119.194 51.1948 119.77 51.7844C120.345 52.3739 121.032 52.844 121.789 53.1676C122.547 53.4912 123.361 53.6619 124.185 53.67C124.816 53.6749 125.44 53.5422 126.014 53.2813C126.588 53.0203 127.098 52.6373 127.509 52.159H127.66V53.065C127.66 55.482 126.3 56.842 124.185 56.842C123.486 56.8416 122.805 56.623 122.236 56.2168C121.668 55.8105 121.24 55.2369 121.013 54.576L118.597 55.631C119.078 56.754 119.879 57.7108 120.9 58.3823C121.921 59.0539 123.116 59.4105 124.338 59.408C127.662 59.408 130.381 57.444 130.381 52.761V41.276H127.66V42.336ZM124.337 51.249C123.84 51.2331 123.351 51.1184 122.898 50.9117C122.446 50.7049 122.039 50.4101 121.701 50.0445C121.364 49.6789 121.102 49.2499 120.932 48.7823C120.762 48.3147 120.687 47.818 120.711 47.321C120.687 46.824 120.762 46.3273 120.932 45.8597C121.102 45.3921 121.364 44.9631 121.701 44.5975C122.039 44.2319 122.446 43.9371 122.898 43.7303C123.351 43.5236 123.84 43.4089 124.337 43.393C124.826 43.4129 125.307 43.5316 125.749 43.7418C126.192 43.9521 126.587 44.2496 126.912 44.6164C127.236 44.9833 127.483 45.412 127.638 45.8768C127.793 46.3415 127.852 46.8328 127.812 47.321C127.852 47.8092 127.793 48.3005 127.638 48.7652C127.483 49.23 127.236 49.6587 126.912 50.0256C126.587 50.3924 126.192 50.6899 125.749 50.9002C125.307 51.1104 124.826 51.2291 124.337 51.249ZM161.197 34.476H154.397V53.364H157.267V46.264H161.197C161.997 46.3057 162.796 46.1842 163.547 45.9069C164.299 45.6296 164.985 45.2024 165.566 44.6511C166.147 44.0999 166.609 43.4363 166.925 42.7006C167.241 41.9649 167.404 41.1727 167.404 40.372C167.404 39.5713 167.241 38.7791 166.925 38.0434C166.609 37.3077 166.147 36.6441 165.566 36.0929C164.985 35.5416 164.299 35.1144 163.547 34.8371C162.796 34.5598 161.997 34.4383 161.197 34.48V34.476ZM161.348 43.54H157.269V37.04H161.348C162.204 37.0376 163.029 37.3665 163.648 37.9579C164.268 38.5493 164.635 39.3573 164.672 40.213C164.639 41.0841 164.278 41.9106 163.662 42.5269C163.046 43.1433 162.219 43.5041 161.348 43.537V43.54ZM178.721 40.821C176.606 40.821 174.491 41.727 173.736 43.691L176.304 44.749C176.555 44.2984 176.931 43.9302 177.387 43.6889C177.842 43.4475 178.358 43.3434 178.872 43.389C179.588 43.3353 180.297 43.5548 180.858 44.0032C181.418 44.4517 181.788 45.0958 181.893 45.806V45.957C181.015 45.4687 180.028 45.209 179.023 45.202C176.304 45.202 173.584 46.713 173.584 49.432C173.609 50.0188 173.751 50.5948 174 51.1264C174.25 51.6579 174.603 52.1345 175.039 52.5282C175.475 52.9219 175.985 53.2249 176.539 53.4196C177.093 53.6142 177.681 53.6966 178.267 53.662C178.975 53.6856 179.677 53.5322 180.31 53.2156C180.943 52.899 181.487 52.4292 181.893 51.849H182.044V53.36H184.763V46.113C184.653 44.6148 183.958 43.2201 182.827 42.2306C181.697 41.241 180.223 40.7361 178.723 40.825L178.721 40.821ZM178.421 51.245C177.515 51.245 176.155 50.792 176.155 49.583C176.155 48.072 177.817 47.619 179.176 47.619C180.067 47.6207 180.945 47.8259 181.744 48.219C181.631 49.0325 181.237 49.7809 180.63 50.3343C180.023 50.8877 179.242 51.2113 178.421 51.249V51.245ZM194.284 41.276L191.111 49.434H190.96L187.636 41.276H184.615L189.597 52.76L186.727 59.105H189.597L197.297 41.278L194.284 41.276ZM168.904 53.362H171.774V34.476H168.904V53.362Z" fill="#312F30"/>
<path d="M23.113 19.374C22.6483 19.9755 22.4334 20.7331 22.513 21.489V54.874C22.4802 55.6503 22.751 56.4089 23.268 56.989L23.419 57.14L42.153 38.409V38.109L23.113 19.374Z" fill="url(#paint0_linear_750_236)"/>
<path d="M48.1949 44.7539L42.0009 38.5599V38.1069L48.1949 31.9129L48.3459 32.0639L55.7459 36.2939C57.8609 37.5029 57.8609 39.4669 55.7459 40.6749L48.1949 44.7539Z" fill="url(#paint1_linear_750_236)"/>
<path d="M48.3459 44.6031L42.0009 38.2581L23.1169 57.1421C23.8719 57.8971 24.9299 57.8971 26.2899 57.2931L48.3459 44.6031Z" fill="url(#paint2_linear_750_236)"/>
<path d="M48.3459 31.913L26.2899 19.374C24.9299 18.619 23.8729 18.774 23.1169 19.525L42.0009 38.258L48.3459 31.913Z" fill="url(#paint3_linear_750_236)"/>
<defs>
<linearGradient id="paint0_linear_750_236" x1="40.3446" y1="58.3485" x2="10.2981" y2="50.2083" gradientUnits="userSpaceOnUse">
<stop stop-color="#00A0FF"/>
<stop offset="0.007" stop-color="#00A1FF"/>
<stop offset="0.26" stop-color="#00BEFF"/>
<stop offset="0.512" stop-color="#00D2FF"/>
<stop offset="0.76" stop-color="#00DFFF"/>
<stop offset="1" stop-color="#00E3FF"/>
</linearGradient>
<linearGradient id="paint1_linear_750_236" x1="58.5127" y1="41.274" x2="21.963" y2="41.274" gradientUnits="userSpaceOnUse">
<stop stop-color="#FFE000"/>
<stop offset="0.409" stop-color="#FFBD00"/>
<stop offset="0.775" stop-color="#FFA500"/>
<stop offset="1" stop-color="#FF9C00"/>
</linearGradient>
<linearGradient id="paint2_linear_750_236" x1="44.9147" y1="37.8103" x2="20.7917" y2="-2.68873" gradientUnits="userSpaceOnUse">
<stop stop-color="#FF3A44"/>
<stop offset="1" stop-color="#C31162"/>
</linearGradient>
<linearGradient id="paint3_linear_750_236" x1="18.4243" y1="71.2217" x2="29.1187" y2="53.1152" gradientUnits="userSpaceOnUse">
<stop stop-color="#32A071"/>
<stop offset="0.069" stop-color="#2DA771"/>
<stop offset="0.476" stop-color="#15CF74"/>
<stop offset="0.801" stop-color="#06E775"/>
<stop offset="1" stop-color="#00F076"/>
</linearGradient>
</defs>
</svg>
