<?xml version="1.0" encoding="UTF-8"?>
<svg viewBox="0 0 1149 566" xmlns="http://www.w3.org/2000/svg">
<path d="m263.78 6.4706h-180.04c-46.23 0-83.738 36.718-83.738 81.993v389.78c0 45.278 37.508 81.971 83.738 81.971h71.278c0.558 1.591 1.599 2.969 2.978 3.944s3.028 1.498 4.719 1.496h28.461c1.694 7e-3 3.349-0.512 4.734-1.485 1.386-0.974 2.432-2.354 2.995-3.948h33.148c0.563 1.595 1.611 2.975 2.996 3.948 1.386 0.974 3.041 1.493 4.737 1.485h72.285c1.692 7e-3 3.343-0.513 4.724-1.487s2.423-2.353 2.98-3.946h21.182c0.562 1.594 1.607 2.974 2.991 3.947 1.384 0.974 3.038 1.493 4.732 1.486h72.285c1.695 7e-3 3.35-0.512 4.735-1.485 1.385-0.974 2.432-2.354 2.995-3.948h636.06c46.25 0 83.74-36.7 83.74-81.97v-389.79c0-45.283-37.5-81.993-83.76-81.993h-664.05c-0.488-1.6983-1.52-3.1907-2.937-4.25-1.418-1.0593-3.144-1.6272-4.916-1.6174h-121.2c-1.771-0.009826-3.497 0.5581-4.915 1.6174-1.418 1.0593-2.449 2.5518-2.938 4.25zm801.97 10.841c40.09 0 72.59 31.817 72.59 71.057v389.96c0 39.262-32.5 71.084-72.59 71.084h-983c-40.084 0-72.59-31.817-72.59-71.084v-389.96c0-39.24 32.503-71.057 72.59-71.057h983z"/>
<rect transform="rotate(-90 10.492 550.51)" x="10.492" y="550.51" width="531" height="1125" rx="70" fill="#FFFFFE"/>
<path d="m3.7718 86.319v393.6c0 39.622 32.85 71.742 73.34 71.742h993.33c40.51 0 73.34-32.115 73.34-71.742v-393.6c0-39.605-32.85-71.717-73.34-71.717h-993.33c-40.508 0-73.34 32.112-73.34 71.715zm1068.7-56.224c6.98-0.0681 13.9 1.2347 20.36 3.834 6.47 2.5994 12.37 6.4441 17.35 11.315s8.95 10.673 11.68 17.074c2.73 6.4008 4.17 13.276 4.24 20.232v401.16c-0.14 14.045-5.87 27.459-15.93 37.292-10.06 9.832-23.62 15.278-37.7 15.139h-997.35c-14.082 0.139-27.642-5.307-37.698-15.139-10.056-9.833-15.785-23.247-15.926-37.292v-54.022h0.4508c0.0282-2.01 0.8517-3.928 2.2913-5.335 1.4396-1.408 3.3785-2.19 5.3942-2.178 8.5667 0.022 16.8-3.308 22.932-9.276 3-2.913 5.3851-6.395 7.0147-10.242 1.6295-3.846 2.4706-7.979 2.4737-12.155v-213.37c-0.0432-4.203-0.9161-8.356-2.5689-12.223-1.6527-3.866-4.0529-7.37-7.0634-10.311-3.0106-2.941-6.5726-5.262-10.483-6.83-3.9099-1.568-8.0911-2.353-12.305-2.309-2.0332-5e-3 -3.9833-0.804-5.4318-2.227-0.7113-0.691-1.277-1.517-1.664-2.429s-0.5875-1.892-0.5897-2.882h-0.4508v-55.371c0.0676-6.9562 1.5083-13.831 4.2398-20.232 2.7316-6.4009 6.7004-12.202 11.68-17.073s10.872-8.716 17.342-11.315 13.389-3.9021 20.363-3.834l997.35-0.0025z" fill="#010003"/>
<path d="m422.5 565.66h-75.627c-0.792 0.01-1.577-0.136-2.312-0.429-0.735-0.294-1.405-0.728-1.972-1.28-0.566-0.551-1.018-1.208-1.33-1.934s-0.477-1.505-0.486-2.295h87.828c-0.01 0.79-0.175 1.569-0.487 2.295s-0.764 1.383-1.33 1.934c-0.567 0.552-1.237 0.986-1.971 1.28-0.735 0.293-1.521 0.439-2.313 0.429zm-159.56-559.13c0.01-0.78936 0.175-1.5691 0.487-2.2947 0.311-0.72562 0.763-1.3829 1.33-1.9343 0.566-0.5514 1.236-0.98612 1.971-1.2793 0.735-0.29321 1.521-0.43919 2.312-0.42957h125.24c1.598-0.018095 3.138 0.59724 4.28 1.7107 1.143 1.1134 1.796 2.6339 1.816 4.2272h-137.44zm49.811 559.13h-75.627c-1.598 0.019-3.138-0.596-4.282-1.71-1.143-1.113-1.797-2.634-1.816-4.228h87.826c-0.01 0.79-0.175 1.569-0.487 2.295s-0.764 1.383-1.33 1.934c-0.567 0.552-1.236 0.986-1.971 1.28-0.735 0.293-1.521 0.439-2.313 0.429zm-121.13 0h-31.97c-0.791 0.01-1.577-0.136-2.312-0.429-0.735-0.294-1.404-0.728-1.971-1.28-0.566-0.551-1.018-1.208-1.33-1.934s-0.477-1.505-0.487-2.295h44.167c-0.019 1.594-0.672 3.115-1.815 4.228-1.144 1.114-2.684 1.729-4.282 1.71z"/>
<path d="m50.25 402.76c-2.4721 0.801-5.1616 0.596-7.4823-0.572-2.3208-1.168-4.0845-3.203-4.907-5.662-0.3972-1.216-0.5492-2.498-0.4473-3.772 0.1019-1.275 0.4557-2.517 1.041-3.654 0.5853-1.138 1.3906-2.149 2.3694-2.974 0.9787-0.826 2.1117-1.451 3.3335-1.838 2.4721-0.801 5.1616-0.595 7.4823 0.572 2.3207 1.168 4.0845 3.203 4.907 5.663 0.321 0.972 0.4842 1.99 0.4836 3.014-0.0081 2.054-0.6685 4.054-1.8866 5.711s-2.9313 2.886-4.8936 3.512zm-3.9569-169.25c-1.9463 0.017-3.8538-0.543-5.4803-1.609-1.6266-1.066-2.8989-2.59-3.6555-4.379-0.7566-1.788-0.9634-3.76-0.5941-5.666s1.298-3.659 2.6682-5.038c1.3703-1.379 3.1203-2.32 5.0281-2.705 1.9077-0.385 3.8871-0.196 5.687 0.543 1.7998 0.739 3.339 1.994 4.4222 3.607s1.6615 3.51 1.6616 5.451c0.0107 2.587-1.009 5.072-2.8349 6.909-1.826 1.837-4.3087 2.875-6.9023 2.887zm3.8888 80.75c0 1.209-0.4816 2.369-1.3389 3.224s-2.02 1.335-3.2324 1.335-2.3752-0.48-3.2325-1.335c-0.8572-0.855-1.3389-2.015-1.3389-3.224v-59.613c0-1.209 0.4817-2.369 1.3389-3.224 0.8573-0.855 2.0201-1.335 3.2325-1.335s2.3751 0.48 3.2324 1.335 1.3389 2.015 1.3389 3.224v59.613zm-15.548 0.678c-0.0459 1.602-0.7162 3.123-1.8684 4.239-1.1522 1.117-2.6956 1.742-4.3023 1.742s-3.1501-0.625-4.3024-1.742c-1.1522-1.116-1.8224-2.637-1.8683-4.239v-60.969c0.0459-1.602 0.7161-3.123 1.8683-4.239 1.1523-1.117 2.6957-1.742 4.3024-1.742s3.1501 0.625 4.3023 1.742c1.1522 1.116 1.8225 2.637 1.8684 4.239v60.969z" fill="#484450"/>
<rect transform="translate(125 113)" width="913" height="100" fill="#F2FFF4"/>
<rect x="145" y="133" width="60" height="60" rx="5" fill="#CBF3D2"/>
<rect x="165" y="153" width="20" height="20" rx="3" fill="#36C14D"/>
<path d="m226.7 182.5h3.662v-17.615h-3.662l-4.554 3.162v3.284l4.468-3.052h0.086v14.221zm14.66 0.33c1.481 0 2.755-0.371 3.821-1.111 1.066-0.749 1.884-1.803 2.454-3.162 0.578-1.367 0.866-2.987 0.866-4.858v-0.025c0-1.871-0.288-3.487-0.866-4.846-0.57-1.367-1.388-2.421-2.454-3.161-1.066-0.741-2.34-1.111-3.821-1.111-1.489 0-2.767 0.37-3.833 1.111-1.066 0.74-1.888 1.794-2.466 3.161-0.569 1.359-0.854 2.975-0.854 4.846v0.025c0 1.871 0.285 3.491 0.854 4.858 0.578 1.359 1.4 2.413 2.466 3.162 1.066 0.74 2.344 1.111 3.833 1.111zm0-2.942c-0.732 0-1.355-0.244-1.867-0.733-0.505-0.496-0.891-1.204-1.16-2.124-0.269-0.927-0.403-2.038-0.403-3.332v-0.025c0-1.294 0.134-2.4 0.403-3.32s0.655-1.624 1.16-2.112c0.512-0.488 1.135-0.732 1.867-0.732 0.725 0 1.339 0.244 1.844 0.732 0.512 0.488 0.903 1.192 1.171 2.112 0.269 0.92 0.403 2.026 0.403 3.32v0.025c0 1.294-0.134 2.405-0.403 3.332-0.268 0.92-0.659 1.628-1.171 2.124-0.505 0.489-1.119 0.733-1.844 0.733zm16.504 2.942c1.481 0 2.755-0.371 3.821-1.111 1.066-0.749 1.884-1.803 2.454-3.162 0.577-1.367 0.866-2.987 0.866-4.858v-0.025c0-1.871-0.289-3.487-0.866-4.846-0.57-1.367-1.388-2.421-2.454-3.161-1.066-0.741-2.34-1.111-3.821-1.111-1.489 0-2.767 0.37-3.833 1.111-1.066 0.74-1.888 1.794-2.466 3.161-0.569 1.359-0.854 2.975-0.854 4.846v0.025c0 1.871 0.285 3.491 0.854 4.858 0.578 1.359 1.4 2.413 2.466 3.162 1.066 0.74 2.344 1.111 3.833 1.111zm0-2.942c-0.732 0-1.355-0.244-1.867-0.733-0.505-0.496-0.892-1.204-1.16-2.124-0.269-0.927-0.403-2.038-0.403-3.332v-0.025c0-1.294 0.134-2.4 0.403-3.32 0.268-0.92 0.655-1.624 1.16-2.112 0.512-0.488 1.135-0.732 1.867-0.732 0.725 0 1.339 0.244 1.843 0.732 0.513 0.488 0.904 1.192 1.172 2.112 0.269 0.92 0.403 2.026 0.403 3.32v0.025c0 1.294-0.134 2.405-0.403 3.332-0.268 0.92-0.659 1.628-1.172 2.124-0.504 0.489-1.118 0.733-1.843 0.733zm13.44-5.847c1.278 0 2.279-0.42 3.003-1.258s1.087-1.973 1.087-3.406v-0.012c0-1.44-0.363-2.575-1.087-3.406-0.724-0.83-1.725-1.245-3.003-1.245-1.269 0-2.27 0.415-3.003 1.245-0.724 0.831-1.086 1.966-1.086 3.406v0.012c0 1.433 0.362 2.568 1.086 3.406 0.733 0.838 1.734 1.258 3.003 1.258zm0-2.027c-0.496 0-0.879-0.224-1.147-0.671-0.269-0.456-0.403-1.111-0.403-1.966v-0.012c0-0.854 0.134-1.505 0.403-1.953 0.268-0.447 0.651-0.671 1.147-0.671 0.497 0 0.879 0.224 1.148 0.671 0.268 0.448 0.402 1.099 0.402 1.953v0.012c0 0.855-0.134 1.51-0.402 1.966-0.269 0.447-0.651 0.671-1.148 0.671zm1.941 10.486l11.231-17.615h-2.723l-11.242 17.615h2.734zm10.437 0.171c1.27 0 2.267-0.415 2.991-1.245 0.732-0.838 1.098-1.978 1.098-3.418v-0.012c0-1.433-0.366-2.564-1.098-3.394-0.724-0.838-1.721-1.257-2.991-1.257-1.269 0-2.27 0.419-3.003 1.257-0.732 0.83-1.098 1.961-1.098 3.394v0.012c0 1.44 0.366 2.58 1.098 3.418 0.733 0.83 1.734 1.245 3.003 1.245zm0-2.014c-0.496 0-0.879-0.228-1.147-0.684-0.269-0.456-0.403-1.107-0.403-1.953v-0.012c0-0.855 0.134-1.506 0.403-1.953 0.268-0.456 0.651-0.684 1.147-0.684 0.497 0 0.875 0.228 1.135 0.684 0.269 0.447 0.403 1.098 0.403 1.953v0.012c0 0.846-0.134 1.497-0.403 1.953-0.26 0.456-0.638 0.684-1.135 0.684z"/>
<path d="m223 147.13h3.076c0.647 0 1.215-0.135 1.702-0.403 0.492-0.274 0.878-0.654 1.156-1.142 0.278-0.492 0.417-1.06 0.417-1.702v-0.014c0-0.642-0.139-1.205-0.417-1.688-0.278-0.488-0.664-0.866-1.156-1.135-0.487-0.274-1.055-0.41-1.702-0.41h-3.076v1.292h2.693c0.666 0 1.181 0.171 1.545 0.512 0.369 0.342 0.554 0.823 0.554 1.443v0.013c0 0.611-0.185 1.09-0.554 1.436-0.364 0.342-0.879 0.513-1.545 0.513h-2.693v1.285zm-0.766 3.37h1.532v-9.864h-1.532v9.864zm11.861 0.144c0.729 0 1.353-0.155 1.873-0.465 0.524-0.31 0.927-0.752 1.21-1.326 0.287-0.579 0.43-1.265 0.43-2.058v-0.014c0-0.797-0.143-1.483-0.43-2.057-0.283-0.579-0.686-1.021-1.21-1.327-0.524-0.309-1.149-0.464-1.873-0.464-0.72 0-1.345 0.155-1.873 0.464-0.524 0.31-0.93 0.752-1.217 1.327-0.283 0.574-0.424 1.26-0.424 2.057v0.014c0 0.793 0.141 1.479 0.424 2.058 0.282 0.574 0.686 1.016 1.21 1.326 0.528 0.31 1.155 0.465 1.88 0.465zm0-1.245c-0.424 0-0.784-0.102-1.08-0.307-0.297-0.21-0.525-0.508-0.684-0.896-0.155-0.387-0.232-0.854-0.232-1.401v-0.014c0-0.551 0.077-1.021 0.232-1.408 0.159-0.387 0.387-0.684 0.684-0.889 0.296-0.209 0.656-0.314 1.08-0.314 0.423 0 0.784 0.105 1.08 0.314 0.296 0.205 0.522 0.502 0.676 0.889 0.155 0.387 0.233 0.857 0.233 1.408v0.014c0 0.547-0.078 1.014-0.233 1.401-0.154 0.388-0.38 0.686-0.676 0.896-0.296 0.205-0.657 0.307-1.08 0.307zm7.977 1.245c0.593 0 1.119-0.096 1.579-0.288 0.465-0.196 0.832-0.467 1.101-0.813 0.269-0.351 0.403-0.754 0.403-1.21v-0.014c0-0.537-0.175-0.966-0.526-1.285-0.347-0.319-0.875-0.563-1.586-0.731l-1.183-0.267c-0.414-0.1-0.713-0.225-0.895-0.376-0.183-0.15-0.274-0.342-0.274-0.574v-0.014c0-0.2 0.06-0.373 0.178-0.519 0.123-0.151 0.289-0.267 0.499-0.349 0.21-0.086 0.449-0.13 0.718-0.13 0.419 0 0.756 0.087 1.012 0.26 0.259 0.173 0.423 0.39 0.492 0.649v0.014h1.422v-7e-3c-0.046-0.405-0.192-0.761-0.438-1.066-0.246-0.31-0.581-0.552-1.005-0.725-0.419-0.178-0.911-0.266-1.476-0.266-0.561 0-1.06 0.095-1.497 0.287-0.433 0.187-0.773 0.449-1.019 0.786-0.246 0.333-0.369 0.715-0.369 1.148v7e-3c0 0.542 0.166 0.98 0.499 1.313 0.337 0.328 0.854 0.572 1.552 0.731l1.189 0.274c0.429 0.1 0.736 0.23 0.923 0.389 0.187 0.16 0.28 0.356 0.28 0.588v0.014c0 0.2-0.066 0.378-0.198 0.533s-0.314 0.276-0.547 0.362c-0.228 0.087-0.494 0.13-0.8 0.13-0.442 0-0.797-0.086-1.066-0.26-0.269-0.173-0.451-0.398-0.547-0.676v-0.014h-1.49v0.014c0.045 0.414 0.198 0.779 0.458 1.093 0.26 0.31 0.611 0.554 1.053 0.732 0.442 0.173 0.961 0.26 1.558 0.26zm7.595-0.096c0.146 0 0.287-9e-3 0.424-0.027 0.136-0.014 0.264-0.03 0.383-0.048v-1.19c-0.105 9e-3 -0.199 0.016-0.281 0.021-0.077 4e-3 -0.171 7e-3 -0.28 7e-3 -0.369 0-0.633-0.087-0.793-0.26-0.159-0.178-0.239-0.467-0.239-0.868v-3.938h1.593v-1.169h-1.593v-1.873h-1.518v1.873h-1.162v1.169h1.162v4.3c0 0.711 0.18 1.224 0.54 1.538 0.365 0.31 0.953 0.465 1.764 0.465zm6.528-0.048h1.402v-7.232h0.752l-1.593-2.359 3.835 9.591h1.135l3.841-9.591-1.599 2.359h0.758v7.232h1.402v-9.864h-1.771l-3.137 7.861h-0.117l-3.137-7.861h-1.771v9.864zm12.25 0h1.49v-7.424h-1.49v7.424zm0.752-8.75c0.255 0 0.474-0.091 0.656-0.273 0.183-0.183 0.274-0.401 0.274-0.657 0-0.255-0.091-0.471-0.274-0.649-0.182-0.182-0.401-0.274-0.656-0.274s-0.474 0.092-0.656 0.274c-0.182 0.178-0.273 0.394-0.273 0.649 0 0.256 0.091 0.474 0.273 0.657 0.182 0.182 0.401 0.273 0.656 0.273zm5.592 8.894c0.592 0 1.119-0.096 1.579-0.288 0.465-0.196 0.832-0.467 1.101-0.813 0.269-0.351 0.403-0.754 0.403-1.21v-0.014c0-0.537-0.175-0.966-0.526-1.285-0.347-0.319-0.875-0.563-1.586-0.731l-1.183-0.267c-0.415-0.1-0.713-0.225-0.895-0.376-0.183-0.15-0.274-0.342-0.274-0.574v-0.014c0-0.2 0.059-0.373 0.178-0.519 0.123-0.151 0.289-0.267 0.499-0.349 0.21-0.086 0.449-0.13 0.718-0.13 0.419 0 0.756 0.087 1.011 0.26 0.26 0.173 0.424 0.39 0.493 0.649v0.014h1.421v-7e-3c-0.045-0.405-0.191-0.761-0.437-1.066-0.246-0.31-0.581-0.552-1.005-0.725-0.419-0.178-0.911-0.266-1.477-0.266-0.56 0-1.059 0.095-1.497 0.287-0.433 0.187-0.772 0.449-1.018 0.786-0.246 0.333-0.369 0.715-0.369 1.148v7e-3c0 0.542 0.166 0.98 0.499 1.313 0.337 0.328 0.854 0.572 1.552 0.731l1.189 0.274c0.428 0.1 0.736 0.23 0.923 0.389 0.187 0.16 0.28 0.356 0.28 0.588v0.014c0 0.2-0.066 0.378-0.198 0.533s-0.315 0.276-0.547 0.362c-0.228 0.087-0.494 0.13-0.8 0.13-0.442 0-0.797-0.086-1.066-0.26-0.269-0.173-0.451-0.398-0.547-0.676v-0.014h-1.49v0.014c0.045 0.414 0.198 0.779 0.458 1.093 0.259 0.31 0.61 0.554 1.052 0.732 0.442 0.173 0.962 0.26 1.559 0.26zm4.867-0.144h1.49v-7.424h-1.49v7.424zm0.752-8.75c0.255 0 0.474-0.091 0.656-0.273 0.183-0.183 0.274-0.401 0.274-0.657 0-0.255-0.091-0.471-0.274-0.649-0.182-0.182-0.401-0.274-0.656-0.274s-0.474 0.092-0.656 0.274c-0.182 0.178-0.274 0.394-0.274 0.649 0 0.256 0.092 0.474 0.274 0.657 0.182 0.182 0.401 0.273 0.656 0.273zm2.892 8.75h1.483v-4.354c0-0.402 0.071-0.746 0.212-1.033 0.146-0.291 0.351-0.515 0.615-0.67 0.265-0.159 0.577-0.239 0.937-0.239 0.547 0 0.948 0.153 1.203 0.458 0.26 0.301 0.39 0.761 0.39 1.381v4.457h1.49v-4.806c0-0.884-0.221-1.565-0.663-2.044-0.442-0.478-1.08-0.717-1.914-0.717-0.543 0-0.992 0.111-1.347 0.335-0.355 0.223-0.624 0.533-0.807 0.929h-0.116v-1.121h-1.483v7.424zm8.921 0h1.483v-6.255h1.627v-1.169h-1.641v-0.711c0-0.373 0.087-0.658 0.26-0.854 0.178-0.196 0.472-0.294 0.882-0.294 0.114 0 0.219 4e-3 0.314 0.013 0.101 5e-3 0.185 0.014 0.253 0.028v-1.094c-0.132-0.023-0.271-0.039-0.417-0.048-0.141-0.013-0.294-0.02-0.458-0.02-0.774 0-1.353 0.182-1.736 0.547-0.378 0.364-0.567 0.916-0.567 1.654v0.779h-1.224v1.169h1.224v6.255zm7.635 0.144c0.73 0 1.354-0.155 1.873-0.465 0.525-0.31 0.928-0.752 1.21-1.326 0.287-0.579 0.431-1.265 0.431-2.058v-0.014c0-0.797-0.144-1.483-0.431-2.057-0.282-0.579-0.685-1.021-1.21-1.327-0.524-0.309-1.148-0.464-1.873-0.464-0.72 0-1.344 0.155-1.873 0.464-0.524 0.31-0.929 0.752-1.216 1.327-0.283 0.574-0.424 1.26-0.424 2.057v0.014c0 0.793 0.141 1.479 0.424 2.058 0.282 0.574 0.685 1.016 1.209 1.326 0.529 0.31 1.156 0.465 1.88 0.465zm0-1.245c-0.423 0-0.783-0.102-1.08-0.307-0.296-0.21-0.524-0.508-0.683-0.896-0.155-0.387-0.233-0.854-0.233-1.401v-0.014c0-0.551 0.078-1.021 0.233-1.408 0.159-0.387 0.387-0.684 0.683-0.889 0.297-0.209 0.657-0.314 1.08-0.314 0.424 0 0.784 0.105 1.08 0.314 0.297 0.205 0.522 0.502 0.677 0.889s0.233 0.857 0.233 1.408v0.014c0 0.547-0.078 1.014-0.233 1.401-0.155 0.388-0.38 0.686-0.677 0.896-0.296 0.205-0.656 0.307-1.08 0.307zm5.278 1.101h1.483v-4.437c0-0.36 0.08-0.669 0.239-0.929 0.164-0.265 0.388-0.47 0.67-0.615 0.287-0.146 0.62-0.219 0.998-0.219 0.142 0 0.276 7e-3 0.404 0.02 0.132 0.014 0.264 0.034 0.396 0.062v-1.367c-0.073-0.019-0.168-0.035-0.287-0.048-0.118-0.014-0.239-0.021-0.362-0.021-0.492 0-0.907 0.11-1.244 0.328-0.333 0.219-0.566 0.527-0.698 0.923h-0.116v-1.121h-1.483v7.424zm5.728 0h1.484v-4.56c0-0.323 0.068-0.615 0.205-0.875 0.136-0.264 0.321-0.474 0.553-0.628 0.237-0.155 0.504-0.233 0.8-0.233 0.438 0 0.784 0.125 1.039 0.376 0.26 0.246 0.39 0.581 0.39 1.005v4.915h1.483v-4.696c0-0.301 0.064-0.57 0.192-0.807 0.132-0.241 0.314-0.433 0.547-0.574 0.237-0.146 0.512-0.219 0.827-0.219 0.483 0 0.841 0.128 1.073 0.383 0.237 0.255 0.355 0.638 0.355 1.148v4.765h1.484v-5.12c0-0.515-0.094-0.955-0.28-1.319-0.187-0.365-0.458-0.643-0.814-0.834-0.355-0.196-0.784-0.294-1.285-0.294-0.337 0-0.656 0.054-0.957 0.164-0.296 0.109-0.556 0.264-0.779 0.465-0.224 0.195-0.397 0.428-0.52 0.697h-0.116c-0.109-0.269-0.262-0.502-0.458-0.697-0.192-0.201-0.422-0.356-0.691-0.465-0.268-0.11-0.571-0.164-0.909-0.164-0.487 0-0.907 0.111-1.258 0.335-0.346 0.223-0.601 0.54-0.765 0.95h-0.116v-1.142h-1.484v7.424zm14.547 0.123c0.328 0 0.631-0.046 0.909-0.137s0.527-0.223 0.745-0.396c0.219-0.178 0.401-0.392 0.547-0.643h0.11v1.053h1.476v-5.079c0-0.52-0.114-0.964-0.342-1.333-0.223-0.374-0.553-0.659-0.991-0.855-0.433-0.2-0.961-0.3-1.586-0.3-0.56 0-1.059 0.084-1.497 0.253-0.433 0.168-0.784 0.405-1.053 0.71-0.264 0.301-0.426 0.657-0.485 1.067l-7e-3 0.048h1.429l0.014-0.021c0.086-0.264 0.259-0.469 0.519-0.615 0.265-0.146 0.604-0.219 1.019-0.219 0.496 0 0.87 0.11 1.121 0.328 0.255 0.215 0.383 0.527 0.383 0.937v2.338c0 0.319-0.082 0.606-0.246 0.861-0.165 0.251-0.392 0.451-0.684 0.602-0.287 0.146-0.615 0.218-0.984 0.218-0.397 0-0.725-0.095-0.985-0.287-0.26-0.196-0.389-0.462-0.389-0.799v-0.014c0-0.333 0.12-0.59 0.362-0.773 0.241-0.186 0.617-0.296 1.128-0.328l2.536-0.164v-1.046l-2.741 0.164c-0.884 0.055-1.568 0.272-2.051 0.65-0.479 0.373-0.718 0.893-0.718 1.558v0.014c0 0.447 0.107 0.836 0.321 1.169 0.215 0.333 0.506 0.59 0.875 0.772 0.374 0.178 0.796 0.267 1.265 0.267zm8.682-0.075c0.146 0 0.287-9e-3 0.424-0.027 0.136-0.014 0.264-0.03 0.382-0.048v-1.19c-0.104 9e-3 -0.198 0.016-0.28 0.021-0.077 4e-3 -0.171 7e-3 -0.28 7e-3 -0.369 0-0.634-0.087-0.793-0.26-0.16-0.178-0.239-0.467-0.239-0.868v-3.938h1.592v-1.169h-1.592v-1.873h-1.518v1.873h-1.162v1.169h1.162v4.3c0 0.711 0.18 1.224 0.54 1.538 0.365 0.31 0.953 0.465 1.764 0.465zm2.563-0.048h1.49v-7.424h-1.49v7.424zm0.752-8.75c0.255 0 0.474-0.091 0.656-0.273 0.183-0.183 0.274-0.401 0.274-0.657 0-0.255-0.091-0.471-0.274-0.649-0.182-0.182-0.401-0.274-0.656-0.274s-0.474 0.092-0.656 0.274c-0.182 0.178-0.274 0.394-0.274 0.649 0 0.256 0.092 0.474 0.274 0.657 0.182 0.182 0.401 0.273 0.656 0.273zm6.036 8.894c0.729 0 1.354-0.155 1.873-0.465 0.524-0.31 0.928-0.752 1.21-1.326 0.287-0.579 0.431-1.265 0.431-2.058v-0.014c0-0.797-0.144-1.483-0.431-2.057-0.282-0.579-0.686-1.021-1.21-1.327-0.524-0.309-1.148-0.464-1.873-0.464-0.72 0-1.344 0.155-1.873 0.464-0.524 0.31-0.929 0.752-1.217 1.327-0.282 0.574-0.423 1.26-0.423 2.057v0.014c0 0.793 0.141 1.479 0.423 2.058 0.283 0.574 0.686 1.016 1.21 1.326 0.529 0.31 1.156 0.465 1.88 0.465zm0-1.245c-0.424 0-0.784-0.102-1.08-0.307-0.296-0.21-0.524-0.508-0.683-0.896-0.155-0.387-0.233-0.854-0.233-1.401v-0.014c0-0.551 0.078-1.021 0.233-1.408 0.159-0.387 0.387-0.684 0.683-0.889 0.296-0.209 0.656-0.314 1.08-0.314s0.784 0.105 1.08 0.314c0.297 0.205 0.522 0.502 0.677 0.889s0.233 0.857 0.233 1.408v0.014c0 0.547-0.078 1.014-0.233 1.401-0.155 0.388-0.38 0.686-0.677 0.896-0.296 0.205-0.656 0.307-1.08 0.307zm5.278 1.101h1.483v-4.354c0-0.402 0.071-0.746 0.212-1.033 0.146-0.291 0.351-0.515 0.615-0.67 0.265-0.159 0.577-0.239 0.937-0.239 0.547 0 0.948 0.153 1.203 0.458 0.26 0.301 0.389 0.761 0.389 1.381v4.457h1.491v-4.806c0-0.884-0.221-1.565-0.663-2.044-0.442-0.478-1.08-0.717-1.914-0.717-0.543 0-0.992 0.111-1.347 0.335-0.356 0.223-0.624 0.533-0.807 0.929h-0.116v-1.121h-1.483v7.424zm12.38 0h6.159v-1.326h-4.628v-8.538h-1.531v9.864zm10.698 0.144c0.478 0 0.9-0.062 1.264-0.185 0.37-0.123 0.684-0.285 0.944-0.485 0.264-0.201 0.476-0.422 0.636-0.663 0.159-0.247 0.271-0.493 0.334-0.739l0.014-0.061h-1.435l-0.028 0.054c-0.054 0.128-0.157 0.258-0.307 0.39-0.146 0.132-0.335 0.244-0.568 0.335-0.228 0.087-0.501 0.13-0.82 0.13-0.415 0-0.775-0.091-1.08-0.274-0.301-0.182-0.533-0.446-0.697-0.792-0.164-0.347-0.246-0.764-0.246-1.251v-0.595c0-0.511 0.082-0.941 0.246-1.292 0.168-0.351 0.396-0.615 0.683-0.793 0.292-0.182 0.622-0.274 0.991-0.274 0.37 0 0.695 0.087 0.978 0.26s0.504 0.435 0.663 0.786c0.164 0.347 0.246 0.784 0.246 1.313v0.595l0.711-0.985h-5.264v1.06h6.002v-0.52c0-0.747-0.134-1.399-0.403-1.955-0.269-0.56-0.654-0.996-1.155-1.306-0.497-0.309-1.092-0.464-1.784-0.464-0.689 0-1.29 0.161-1.805 0.485-0.511 0.324-0.907 0.775-1.19 1.353-0.278 0.579-0.417 1.256-0.417 2.031v7e-3c0 0.783 0.139 1.462 0.417 2.037 0.283 0.574 0.684 1.018 1.204 1.333 0.519 0.31 1.141 0.465 1.866 0.465zm6.911-0.144h1.586l2.68-7.424h-1.566l-1.846 5.92h-0.109l-1.853-5.92h-1.579l2.687 7.424zm8.593 0.144c0.478 0 0.9-0.062 1.264-0.185 0.369-0.123 0.684-0.285 0.944-0.485 0.264-0.201 0.476-0.422 0.635-0.663 0.16-0.247 0.272-0.493 0.335-0.739l0.014-0.061h-1.435l-0.028 0.054c-0.055 0.128-0.157 0.258-0.307 0.39-0.146 0.132-0.335 0.244-0.568 0.335-0.228 0.087-0.501 0.13-0.82 0.13-0.415 0-0.775-0.091-1.08-0.274-0.301-0.182-0.533-0.446-0.697-0.792-0.165-0.347-0.247-0.764-0.247-1.251v-0.595c0-0.511 0.082-0.941 0.247-1.292 0.168-0.351 0.396-0.615 0.683-0.793 0.292-0.182 0.622-0.274 0.991-0.274s0.695 0.087 0.978 0.26c0.282 0.173 0.503 0.435 0.663 0.786 0.164 0.347 0.246 0.784 0.246 1.313v0.595l0.711-0.985h-5.264v1.06h6.002v-0.52c0-0.747-0.134-1.399-0.403-1.955-0.269-0.56-0.654-0.996-1.155-1.306-0.497-0.309-1.092-0.464-1.785-0.464-0.688 0-1.289 0.161-1.804 0.485-0.511 0.324-0.907 0.775-1.19 1.353-0.278 0.579-0.417 1.256-0.417 2.031v7e-3c0 0.783 0.139 1.462 0.417 2.037 0.283 0.574 0.684 1.018 1.203 1.333 0.52 0.31 1.142 0.465 1.867 0.465zm5.099-0.144h1.484v-10.336h-1.484v10.336z" fill="#707070"/>
<rect transform="translate(194 233)" width="844" height="117" fill="#FFEDAD"/>
<rect x="214" y="261.5" width="60" height="60" rx="5" fill="#FFB762"/>
<rect x="234" y="281.5" width="20" height="20" rx="3" fill="#FF8B03"/>
<path d="m298.41 311.33c1.31 0 2.474-0.265 3.491-0.794 1.025-0.529 1.831-1.257 2.417-2.185s0.879-1.994 0.879-3.198v-0.025c0-1.106-0.244-2.087-0.733-2.941-0.48-0.863-1.151-1.543-2.014-2.039-0.854-0.496-1.855-0.745-3.003-0.745-0.789 0-1.501 0.126-2.136 0.379-0.635 0.244-1.176 0.578-1.624 1.001-0.439 0.415-0.777 0.891-1.013 1.428h-0.28v3.015h0.744v-0.012c0-0.602 0.143-1.135 0.427-1.599 0.293-0.464 0.684-0.826 1.172-1.087 0.497-0.268 1.05-0.403 1.66-0.403 0.611 0 1.156 0.135 1.636 0.403 0.488 0.269 0.871 0.639 1.148 1.111 0.276 0.464 0.415 1.005 0.415 1.624v0.024c0 0.578-0.147 1.103-0.44 1.575-0.285 0.472-0.671 0.846-1.159 1.123-0.489 0.277-1.034 0.415-1.636 0.415s-1.148-0.138-1.636-0.415c-0.488-0.285-0.875-0.667-1.16-1.148-0.284-0.48-0.427-1.017-0.427-1.611l-0.549-2.93v-0.366c0-0.122 4e-3 -0.24 0.012-0.354 0.049-1.05 0.212-1.994 0.488-2.832 0.277-0.846 0.688-1.518 1.233-2.014 0.554-0.496 1.258-0.745 2.112-0.745 0.48 0 0.907 0.078 1.282 0.232 0.374 0.147 0.692 0.354 0.952 0.623 0.269 0.268 0.472 0.582 0.61 0.94l0.049 0.097h3.638l-0.025-0.109c-0.179-0.912-0.565-1.722-1.159-2.43s-1.351-1.265-2.271-1.672c-0.911-0.407-1.937-0.61-3.076-0.61-1.522 0-2.836 0.37-3.943 1.111-1.098 0.74-1.945 1.802-2.539 3.186-0.594 1.383-0.891 3.043-0.891 4.98v0.024c0 1.498 0.183 2.808 0.549 3.931 0.367 1.123 0.879 2.059 1.538 2.808 0.668 0.74 1.445 1.298 2.332 1.672 0.895 0.374 1.872 0.562 2.93 0.562zm16.064 0c1.343 0 2.523-0.261 3.54-0.782 1.026-0.52 1.823-1.245 2.393-2.173 0.578-0.935 0.866-2.014 0.866-3.234v-0.025c0-1.115-0.248-2.103-0.744-2.966-0.497-0.863-1.176-1.538-2.039-2.026-0.862-0.497-1.851-0.745-2.966-0.745-0.887 0-1.677 0.171-2.368 0.513-0.684 0.333-1.209 0.797-1.575 1.391h-0.098l0.44-4.968h8.276v-2.93h-11.206l-0.806 10.352h3.199c0.106-0.187 0.228-0.362 0.366-0.525 0.146-0.163 0.305-0.313 0.476-0.452 0.301-0.244 0.643-0.427 1.025-0.549 0.383-0.13 0.798-0.195 1.246-0.195 0.634 0 1.196 0.134 1.684 0.402 0.488 0.269 0.871 0.643 1.148 1.124 0.284 0.472 0.427 1.017 0.427 1.635v0.025c0 0.626-0.143 1.184-0.427 1.672-0.277 0.48-0.66 0.855-1.148 1.123-0.488 0.269-1.054 0.403-1.697 0.403-0.561 0-1.066-0.102-1.513-0.305-0.448-0.212-0.818-0.493-1.111-0.843-0.285-0.358-0.472-0.756-0.562-1.196l-0.012-0.085h-3.406l0.013 0.183c0.073 0.976 0.386 1.855 0.939 2.637 0.562 0.781 1.323 1.399 2.283 1.855s2.079 0.684 3.357 0.684zm12.891-8.789c1.277 0 2.278-0.42 3.003-1.258 0.724-0.838 1.086-1.973 1.086-3.406v-0.012c0-1.44-0.362-2.575-1.086-3.406-0.725-0.83-1.726-1.245-3.003-1.245-1.27 0-2.271 0.415-3.003 1.245-0.724 0.831-1.087 1.966-1.087 3.406v0.012c0 1.433 0.363 2.568 1.087 3.406 0.732 0.838 1.733 1.258 3.003 1.258zm0-2.027c-0.497 0-0.879-0.224-1.148-0.671-0.268-0.456-0.403-1.111-0.403-1.966v-0.012c0-0.854 0.135-1.505 0.403-1.953 0.269-0.447 0.651-0.671 1.148-0.671 0.496 0 0.879 0.224 1.147 0.671 0.269 0.448 0.403 1.099 0.403 1.953v0.012c0 0.855-0.134 1.51-0.403 1.966-0.268 0.447-0.651 0.671-1.147 0.671zm1.941 10.486l11.23-17.615h-2.722l-11.243 17.615h2.735zm10.437 0.171c1.269 0 2.266-0.415 2.99-1.245 0.733-0.838 1.099-1.978 1.099-3.418v-0.012c0-1.433-0.366-2.564-1.099-3.394-0.724-0.838-1.721-1.257-2.99-1.257-1.27 0-2.271 0.419-3.003 1.257-0.733 0.83-1.099 1.961-1.099 3.394v0.012c0 1.44 0.366 2.58 1.099 3.418 0.732 0.83 1.733 1.245 3.003 1.245zm0-2.014c-0.497 0-0.879-0.228-1.148-0.684-0.268-0.456-0.403-1.107-0.403-1.953v-0.012c0-0.855 0.135-1.506 0.403-1.953 0.269-0.456 0.651-0.684 1.148-0.684 0.496 0 0.874 0.228 1.135 0.684 0.268 0.447 0.403 1.098 0.403 1.953v0.012c0 0.846-0.135 1.497-0.403 1.953-0.261 0.456-0.639 0.684-1.135 0.684z"/>
<path d="m292 275.63h3.076c0.647 0 1.215-0.135 1.702-0.403 0.492-0.274 0.878-0.654 1.156-1.142 0.278-0.492 0.417-1.06 0.417-1.702v-0.014c0-0.642-0.139-1.205-0.417-1.688-0.278-0.488-0.664-0.866-1.156-1.135-0.487-0.274-1.055-0.41-1.702-0.41h-3.076v1.292h2.693c0.666 0 1.181 0.171 1.545 0.512 0.369 0.342 0.554 0.823 0.554 1.443v0.013c0 0.611-0.185 1.09-0.554 1.436-0.364 0.342-0.879 0.513-1.545 0.513h-2.693v1.285zm-0.766 3.37h1.532v-9.864h-1.532v9.864zm11.861 0.144c0.729 0 1.353-0.155 1.873-0.465 0.524-0.31 0.927-0.752 1.21-1.326 0.287-0.579 0.43-1.265 0.43-2.058v-0.014c0-0.797-0.143-1.483-0.43-2.057-0.283-0.579-0.686-1.021-1.21-1.327-0.524-0.309-1.149-0.464-1.873-0.464-0.72 0-1.345 0.155-1.873 0.464-0.524 0.31-0.93 0.752-1.217 1.327-0.283 0.574-0.424 1.26-0.424 2.057v0.014c0 0.793 0.141 1.479 0.424 2.058 0.282 0.574 0.686 1.016 1.21 1.326 0.528 0.31 1.155 0.465 1.88 0.465zm0-1.245c-0.424 0-0.784-0.102-1.08-0.307-0.297-0.21-0.525-0.508-0.684-0.896-0.155-0.387-0.232-0.854-0.232-1.401v-0.014c0-0.551 0.077-1.021 0.232-1.408 0.159-0.387 0.387-0.684 0.684-0.889 0.296-0.209 0.656-0.314 1.08-0.314 0.423 0 0.784 0.105 1.08 0.314 0.296 0.205 0.522 0.502 0.676 0.889 0.155 0.387 0.233 0.857 0.233 1.408v0.014c0 0.547-0.078 1.014-0.233 1.401-0.154 0.388-0.38 0.686-0.676 0.896-0.296 0.205-0.657 0.307-1.08 0.307zm7.977 1.245c0.593 0 1.119-0.096 1.579-0.288 0.465-0.196 0.832-0.467 1.101-0.813 0.269-0.351 0.403-0.754 0.403-1.21v-0.014c0-0.537-0.175-0.966-0.526-1.285-0.347-0.319-0.875-0.563-1.586-0.731l-1.183-0.267c-0.414-0.1-0.713-0.225-0.895-0.376-0.183-0.15-0.274-0.342-0.274-0.574v-0.014c0-0.2 0.06-0.373 0.178-0.519 0.123-0.151 0.289-0.267 0.499-0.349 0.21-0.086 0.449-0.13 0.718-0.13 0.419 0 0.756 0.087 1.012 0.26 0.259 0.173 0.423 0.39 0.492 0.649v0.014h1.422v-7e-3c-0.046-0.405-0.192-0.761-0.438-1.066-0.246-0.31-0.581-0.552-1.005-0.725-0.419-0.178-0.911-0.266-1.476-0.266-0.561 0-1.06 0.095-1.497 0.287-0.433 0.187-0.773 0.449-1.019 0.786-0.246 0.333-0.369 0.715-0.369 1.148v7e-3c0 0.542 0.166 0.98 0.499 1.313 0.337 0.328 0.854 0.572 1.552 0.731l1.189 0.274c0.429 0.1 0.736 0.23 0.923 0.389 0.187 0.16 0.28 0.356 0.28 0.588v0.014c0 0.2-0.066 0.378-0.198 0.533s-0.314 0.276-0.547 0.362c-0.228 0.087-0.494 0.13-0.8 0.13-0.442 0-0.797-0.086-1.066-0.26-0.269-0.173-0.451-0.398-0.547-0.676v-0.014h-1.49v0.014c0.045 0.414 0.198 0.779 0.458 1.093 0.26 0.31 0.611 0.554 1.053 0.732 0.442 0.173 0.961 0.26 1.558 0.26zm7.595-0.096c0.146 0 0.287-9e-3 0.424-0.027 0.136-0.014 0.264-0.03 0.383-0.048v-1.19c-0.105 9e-3 -0.199 0.016-0.281 0.021-0.077 4e-3 -0.171 7e-3 -0.28 7e-3 -0.369 0-0.633-0.087-0.793-0.26-0.159-0.178-0.239-0.467-0.239-0.868v-3.938h1.593v-1.169h-1.593v-1.873h-1.518v1.873h-1.162v1.169h1.162v4.3c0 0.711 0.18 1.224 0.54 1.538 0.365 0.31 0.953 0.465 1.764 0.465zm6.528-0.048h1.402v-7.232h0.752l-1.593-2.359 3.835 9.591h1.135l3.841-9.591-1.599 2.359h0.758v7.232h1.402v-9.864h-1.771l-3.137 7.861h-0.117l-3.137-7.861h-1.771v9.864zm12.25 0h1.49v-7.424h-1.49v7.424zm0.752-8.75c0.255 0 0.474-0.091 0.656-0.273 0.183-0.183 0.274-0.401 0.274-0.657 0-0.255-0.091-0.471-0.274-0.649-0.182-0.182-0.401-0.274-0.656-0.274s-0.474 0.092-0.656 0.274c-0.182 0.178-0.273 0.394-0.273 0.649 0 0.256 0.091 0.474 0.273 0.657 0.182 0.182 0.401 0.273 0.656 0.273zm5.592 8.894c0.592 0 1.119-0.096 1.579-0.288 0.465-0.196 0.832-0.467 1.101-0.813 0.269-0.351 0.403-0.754 0.403-1.21v-0.014c0-0.537-0.175-0.966-0.526-1.285-0.347-0.319-0.875-0.563-1.586-0.731l-1.183-0.267c-0.415-0.1-0.713-0.225-0.895-0.376-0.183-0.15-0.274-0.342-0.274-0.574v-0.014c0-0.2 0.059-0.373 0.178-0.519 0.123-0.151 0.289-0.267 0.499-0.349 0.21-0.086 0.449-0.13 0.718-0.13 0.419 0 0.756 0.087 1.011 0.26 0.26 0.173 0.424 0.39 0.493 0.649v0.014h1.421v-7e-3c-0.045-0.405-0.191-0.761-0.437-1.066-0.246-0.31-0.581-0.552-1.005-0.725-0.419-0.178-0.911-0.266-1.477-0.266-0.56 0-1.059 0.095-1.497 0.287-0.433 0.187-0.772 0.449-1.018 0.786-0.246 0.333-0.369 0.715-0.369 1.148v7e-3c0 0.542 0.166 0.98 0.499 1.313 0.337 0.328 0.854 0.572 1.552 0.731l1.189 0.274c0.428 0.1 0.736 0.23 0.923 0.389 0.187 0.16 0.28 0.356 0.28 0.588v0.014c0 0.2-0.066 0.378-0.198 0.533s-0.315 0.276-0.547 0.362c-0.228 0.087-0.494 0.13-0.8 0.13-0.442 0-0.797-0.086-1.066-0.26-0.269-0.173-0.451-0.398-0.547-0.676v-0.014h-1.49v0.014c0.045 0.414 0.198 0.779 0.458 1.093 0.259 0.31 0.61 0.554 1.052 0.732 0.442 0.173 0.962 0.26 1.559 0.26zm4.867-0.144h1.49v-7.424h-1.49v7.424zm0.752-8.75c0.255 0 0.474-0.091 0.656-0.273 0.183-0.183 0.274-0.401 0.274-0.657 0-0.255-0.091-0.471-0.274-0.649-0.182-0.182-0.401-0.274-0.656-0.274s-0.474 0.092-0.656 0.274c-0.182 0.178-0.274 0.394-0.274 0.649 0 0.256 0.092 0.474 0.274 0.657 0.182 0.182 0.401 0.273 0.656 0.273zm2.892 8.75h1.483v-4.354c0-0.402 0.071-0.746 0.212-1.033 0.146-0.291 0.351-0.515 0.615-0.67 0.265-0.159 0.577-0.239 0.937-0.239 0.547 0 0.948 0.153 1.203 0.458 0.26 0.301 0.39 0.761 0.39 1.381v4.457h1.49v-4.806c0-0.884-0.221-1.565-0.663-2.044-0.442-0.478-1.08-0.717-1.914-0.717-0.543 0-0.992 0.111-1.347 0.335-0.355 0.223-0.624 0.533-0.807 0.929h-0.116v-1.121h-1.483v7.424zm8.921 0h1.483v-6.255h1.627v-1.169h-1.641v-0.711c0-0.373 0.087-0.658 0.26-0.854 0.178-0.196 0.472-0.294 0.882-0.294 0.114 0 0.219 4e-3 0.314 0.013 0.101 5e-3 0.185 0.014 0.253 0.028v-1.094c-0.132-0.023-0.271-0.039-0.417-0.048-0.141-0.013-0.294-0.02-0.458-0.02-0.774 0-1.353 0.182-1.736 0.547-0.378 0.364-0.567 0.916-0.567 1.654v0.779h-1.224v1.169h1.224v6.255zm7.635 0.144c0.73 0 1.354-0.155 1.873-0.465 0.525-0.31 0.928-0.752 1.21-1.326 0.287-0.579 0.431-1.265 0.431-2.058v-0.014c0-0.797-0.144-1.483-0.431-2.057-0.282-0.579-0.685-1.021-1.21-1.327-0.524-0.309-1.148-0.464-1.873-0.464-0.72 0-1.344 0.155-1.873 0.464-0.524 0.31-0.929 0.752-1.216 1.327-0.283 0.574-0.424 1.26-0.424 2.057v0.014c0 0.793 0.141 1.479 0.424 2.058 0.282 0.574 0.685 1.016 1.209 1.326 0.529 0.31 1.156 0.465 1.88 0.465zm0-1.245c-0.423 0-0.783-0.102-1.08-0.307-0.296-0.21-0.524-0.508-0.683-0.896-0.155-0.387-0.233-0.854-0.233-1.401v-0.014c0-0.551 0.078-1.021 0.233-1.408 0.159-0.387 0.387-0.684 0.683-0.889 0.297-0.209 0.657-0.314 1.08-0.314 0.424 0 0.784 0.105 1.08 0.314 0.297 0.205 0.522 0.502 0.677 0.889s0.233 0.857 0.233 1.408v0.014c0 0.547-0.078 1.014-0.233 1.401-0.155 0.388-0.38 0.686-0.677 0.896-0.296 0.205-0.656 0.307-1.08 0.307zm5.278 1.101h1.483v-4.437c0-0.36 0.08-0.669 0.239-0.929 0.164-0.265 0.388-0.47 0.67-0.615 0.287-0.146 0.62-0.219 0.998-0.219 0.142 0 0.276 7e-3 0.404 0.02 0.132 0.014 0.264 0.034 0.396 0.062v-1.367c-0.073-0.019-0.168-0.035-0.287-0.048-0.118-0.014-0.239-0.021-0.362-0.021-0.492 0-0.907 0.11-1.244 0.328-0.333 0.219-0.566 0.527-0.698 0.923h-0.116v-1.121h-1.483v7.424zm5.728 0h1.484v-4.56c0-0.323 0.068-0.615 0.205-0.875 0.136-0.264 0.321-0.474 0.553-0.628 0.237-0.155 0.504-0.233 0.8-0.233 0.438 0 0.784 0.125 1.039 0.376 0.26 0.246 0.39 0.581 0.39 1.005v4.915h1.483v-4.696c0-0.301 0.064-0.57 0.192-0.807 0.132-0.241 0.314-0.433 0.547-0.574 0.237-0.146 0.512-0.219 0.827-0.219 0.483 0 0.841 0.128 1.073 0.383 0.237 0.255 0.355 0.638 0.355 1.148v4.765h1.484v-5.12c0-0.515-0.094-0.955-0.28-1.319-0.187-0.365-0.458-0.643-0.814-0.834-0.355-0.196-0.784-0.294-1.285-0.294-0.337 0-0.656 0.054-0.957 0.164-0.296 0.109-0.556 0.264-0.779 0.465-0.224 0.195-0.397 0.428-0.52 0.697h-0.116c-0.109-0.269-0.262-0.502-0.458-0.697-0.192-0.201-0.422-0.356-0.691-0.465-0.268-0.11-0.571-0.164-0.909-0.164-0.487 0-0.907 0.111-1.258 0.335-0.346 0.223-0.601 0.54-0.765 0.95h-0.116v-1.142h-1.484v7.424zm14.547 0.123c0.328 0 0.631-0.046 0.909-0.137s0.527-0.223 0.745-0.396c0.219-0.178 0.401-0.392 0.547-0.643h0.11v1.053h1.476v-5.079c0-0.52-0.114-0.964-0.342-1.333-0.223-0.374-0.553-0.659-0.991-0.855-0.433-0.2-0.961-0.3-1.586-0.3-0.56 0-1.059 0.084-1.497 0.253-0.433 0.168-0.784 0.405-1.053 0.71-0.264 0.301-0.426 0.657-0.485 1.067l-7e-3 0.048h1.429l0.014-0.021c0.086-0.264 0.259-0.469 0.519-0.615 0.265-0.146 0.604-0.219 1.019-0.219 0.496 0 0.87 0.11 1.121 0.328 0.255 0.215 0.383 0.527 0.383 0.937v2.338c0 0.319-0.082 0.606-0.246 0.861-0.165 0.251-0.392 0.451-0.684 0.602-0.287 0.146-0.615 0.218-0.984 0.218-0.397 0-0.725-0.095-0.985-0.287-0.26-0.196-0.389-0.462-0.389-0.799v-0.014c0-0.333 0.12-0.59 0.362-0.773 0.241-0.186 0.617-0.296 1.128-0.328l2.536-0.164v-1.046l-2.741 0.164c-0.884 0.055-1.568 0.272-2.051 0.65-0.479 0.373-0.718 0.893-0.718 1.558v0.014c0 0.447 0.107 0.836 0.321 1.169 0.215 0.333 0.506 0.59 0.875 0.772 0.374 0.178 0.796 0.267 1.265 0.267zm8.682-0.075c0.146 0 0.287-9e-3 0.424-0.027 0.136-0.014 0.264-0.03 0.382-0.048v-1.19c-0.104 9e-3 -0.198 0.016-0.28 0.021-0.077 4e-3 -0.171 7e-3 -0.28 7e-3 -0.369 0-0.634-0.087-0.793-0.26-0.16-0.178-0.239-0.467-0.239-0.868v-3.938h1.592v-1.169h-1.592v-1.873h-1.518v1.873h-1.162v1.169h1.162v4.3c0 0.711 0.18 1.224 0.54 1.538 0.365 0.31 0.953 0.465 1.764 0.465zm2.563-0.048h1.49v-7.424h-1.49v7.424zm0.752-8.75c0.255 0 0.474-0.091 0.656-0.273 0.183-0.183 0.274-0.401 0.274-0.657 0-0.255-0.091-0.471-0.274-0.649-0.182-0.182-0.401-0.274-0.656-0.274s-0.474 0.092-0.656 0.274c-0.182 0.178-0.274 0.394-0.274 0.649 0 0.256 0.092 0.474 0.274 0.657 0.182 0.182 0.401 0.273 0.656 0.273zm6.036 8.894c0.729 0 1.354-0.155 1.873-0.465 0.524-0.31 0.928-0.752 1.21-1.326 0.287-0.579 0.431-1.265 0.431-2.058v-0.014c0-0.797-0.144-1.483-0.431-2.057-0.282-0.579-0.686-1.021-1.21-1.327-0.524-0.309-1.148-0.464-1.873-0.464-0.72 0-1.344 0.155-1.873 0.464-0.524 0.31-0.929 0.752-1.217 1.327-0.282 0.574-0.423 1.26-0.423 2.057v0.014c0 0.793 0.141 1.479 0.423 2.058 0.283 0.574 0.686 1.016 1.21 1.326 0.529 0.31 1.156 0.465 1.88 0.465zm0-1.245c-0.424 0-0.784-0.102-1.08-0.307-0.296-0.21-0.524-0.508-0.683-0.896-0.155-0.387-0.233-0.854-0.233-1.401v-0.014c0-0.551 0.078-1.021 0.233-1.408 0.159-0.387 0.387-0.684 0.683-0.889 0.296-0.209 0.656-0.314 1.08-0.314s0.784 0.105 1.08 0.314c0.297 0.205 0.522 0.502 0.677 0.889s0.233 0.857 0.233 1.408v0.014c0 0.547-0.078 1.014-0.233 1.401-0.155 0.388-0.38 0.686-0.677 0.896-0.296 0.205-0.656 0.307-1.08 0.307zm5.278 1.101h1.483v-4.354c0-0.402 0.071-0.746 0.212-1.033 0.146-0.291 0.351-0.515 0.615-0.67 0.265-0.159 0.577-0.239 0.937-0.239 0.547 0 0.948 0.153 1.203 0.458 0.26 0.301 0.389 0.761 0.389 1.381v4.457h1.491v-4.806c0-0.884-0.221-1.565-0.663-2.044-0.442-0.478-1.08-0.717-1.914-0.717-0.543 0-0.992 0.111-1.347 0.335-0.356 0.223-0.624 0.533-0.807 0.929h-0.116v-1.121h-1.483v7.424zm12.38 0h6.159v-1.326h-4.628v-8.538h-1.531v9.864zm10.698 0.144c0.478 0 0.9-0.062 1.264-0.185 0.37-0.123 0.684-0.285 0.944-0.485 0.264-0.201 0.476-0.422 0.636-0.663 0.159-0.247 0.271-0.493 0.334-0.739l0.014-0.061h-1.435l-0.028 0.054c-0.054 0.128-0.157 0.258-0.307 0.39-0.146 0.132-0.335 0.244-0.568 0.335-0.228 0.087-0.501 0.13-0.82 0.13-0.415 0-0.775-0.091-1.08-0.274-0.301-0.182-0.533-0.446-0.697-0.792-0.164-0.347-0.246-0.764-0.246-1.251v-0.595c0-0.511 0.082-0.941 0.246-1.292 0.168-0.351 0.396-0.615 0.683-0.793 0.292-0.182 0.622-0.274 0.991-0.274 0.37 0 0.695 0.087 0.978 0.26s0.504 0.435 0.663 0.786c0.164 0.347 0.246 0.784 0.246 1.313v0.595l0.711-0.985h-5.264v1.06h6.002v-0.52c0-0.747-0.134-1.399-0.403-1.955-0.269-0.56-0.654-0.996-1.155-1.306-0.497-0.309-1.092-0.464-1.784-0.464-0.689 0-1.29 0.161-1.805 0.485-0.511 0.324-0.907 0.775-1.19 1.353-0.278 0.579-0.417 1.256-0.417 2.031v7e-3c0 0.783 0.139 1.462 0.417 2.037 0.283 0.574 0.684 1.018 1.204 1.333 0.519 0.31 1.141 0.465 1.866 0.465zm6.911-0.144h1.586l2.68-7.424h-1.566l-1.846 5.92h-0.109l-1.853-5.92h-1.579l2.687 7.424zm8.593 0.144c0.478 0 0.9-0.062 1.264-0.185 0.369-0.123 0.684-0.285 0.944-0.485 0.264-0.201 0.476-0.422 0.635-0.663 0.16-0.247 0.272-0.493 0.335-0.739l0.014-0.061h-1.435l-0.028 0.054c-0.055 0.128-0.157 0.258-0.307 0.39-0.146 0.132-0.335 0.244-0.568 0.335-0.228 0.087-0.501 0.13-0.82 0.13-0.415 0-0.775-0.091-1.08-0.274-0.301-0.182-0.533-0.446-0.697-0.792-0.165-0.347-0.247-0.764-0.247-1.251v-0.595c0-0.511 0.082-0.941 0.247-1.292 0.168-0.351 0.396-0.615 0.683-0.793 0.292-0.182 0.622-0.274 0.991-0.274s0.695 0.087 0.978 0.26c0.282 0.173 0.503 0.435 0.663 0.786 0.164 0.347 0.246 0.784 0.246 1.313v0.595l0.711-0.985h-5.264v1.06h6.002v-0.52c0-0.747-0.134-1.399-0.403-1.955-0.269-0.56-0.654-0.996-1.155-1.306-0.497-0.309-1.092-0.464-1.785-0.464-0.688 0-1.289 0.161-1.804 0.485-0.511 0.324-0.907 0.775-1.19 1.353-0.278 0.579-0.417 1.256-0.417 2.031v7e-3c0 0.783 0.139 1.462 0.417 2.037 0.283 0.574 0.684 1.018 1.203 1.333 0.52 0.31 1.142 0.465 1.867 0.465zm5.099-0.144h1.484v-10.336h-1.484v10.336z" fill="#707070"/>
<rect transform="translate(290 364)" width="748" height="111" fill="#FFF2F2"/>
<rect x="310" y="389.5" width="60" height="60" rx="5" fill="#F3CECB"/>
<rect x="330" y="409.5" width="20" height="20" rx="3" fill="#C13636"/>
<path d="m391.7 439h3.662v-17.615h-3.662l-4.554 3.162v3.284l4.468-3.052h0.086v14.221zm14.66 0.33c1.481 0 2.755-0.371 3.821-1.111 1.066-0.749 1.884-1.803 2.454-3.162 0.578-1.367 0.866-2.987 0.866-4.858v-0.025c0-1.871-0.288-3.487-0.866-4.846-0.57-1.367-1.388-2.421-2.454-3.161-1.066-0.741-2.34-1.111-3.821-1.111-1.489 0-2.767 0.37-3.833 1.111-1.066 0.74-1.888 1.794-2.466 3.161-0.569 1.359-0.854 2.975-0.854 4.846v0.025c0 1.871 0.285 3.491 0.854 4.858 0.578 1.359 1.4 2.413 2.466 3.162 1.066 0.74 2.344 1.111 3.833 1.111zm0-2.942c-0.732 0-1.355-0.244-1.867-0.733-0.505-0.496-0.891-1.204-1.16-2.124-0.269-0.927-0.403-2.038-0.403-3.332v-0.025c0-1.294 0.134-2.4 0.403-3.32s0.655-1.624 1.16-2.112c0.512-0.488 1.135-0.732 1.867-0.732 0.725 0 1.339 0.244 1.844 0.732 0.512 0.488 0.903 1.192 1.171 2.112 0.269 0.92 0.403 2.026 0.403 3.32v0.025c0 1.294-0.134 2.405-0.403 3.332-0.268 0.92-0.659 1.628-1.171 2.124-0.505 0.489-1.119 0.733-1.844 0.733zm16.504 2.942c1.481 0 2.755-0.371 3.821-1.111 1.066-0.749 1.884-1.803 2.454-3.162 0.577-1.367 0.866-2.987 0.866-4.858v-0.025c0-1.871-0.289-3.487-0.866-4.846-0.57-1.367-1.388-2.421-2.454-3.161-1.066-0.741-2.34-1.111-3.821-1.111-1.489 0-2.767 0.37-3.833 1.111-1.066 0.74-1.888 1.794-2.466 3.161-0.569 1.359-0.854 2.975-0.854 4.846v0.025c0 1.871 0.285 3.491 0.854 4.858 0.578 1.359 1.4 2.413 2.466 3.162 1.066 0.74 2.344 1.111 3.833 1.111zm0-2.942c-0.732 0-1.355-0.244-1.867-0.733-0.505-0.496-0.892-1.204-1.16-2.124-0.269-0.927-0.403-2.038-0.403-3.332v-0.025c0-1.294 0.134-2.4 0.403-3.32 0.268-0.92 0.655-1.624 1.16-2.112 0.512-0.488 1.135-0.732 1.867-0.732 0.725 0 1.339 0.244 1.843 0.732 0.513 0.488 0.904 1.192 1.172 2.112 0.269 0.92 0.403 2.026 0.403 3.32v0.025c0 1.294-0.134 2.405-0.403 3.332-0.268 0.92-0.659 1.628-1.172 2.124-0.504 0.489-1.118 0.733-1.843 0.733zm13.44-5.847c1.278 0 2.279-0.42 3.003-1.258s1.087-1.973 1.087-3.406v-0.012c0-1.44-0.363-2.575-1.087-3.406-0.724-0.83-1.725-1.245-3.003-1.245-1.269 0-2.27 0.415-3.003 1.245-0.724 0.831-1.086 1.966-1.086 3.406v0.012c0 1.433 0.362 2.568 1.086 3.406 0.733 0.838 1.734 1.258 3.003 1.258zm0-2.027c-0.496 0-0.879-0.224-1.147-0.671-0.269-0.456-0.403-1.111-0.403-1.966v-0.012c0-0.854 0.134-1.505 0.403-1.953 0.268-0.447 0.651-0.671 1.147-0.671 0.497 0 0.879 0.224 1.148 0.671 0.268 0.448 0.402 1.099 0.402 1.953v0.012c0 0.855-0.134 1.51-0.402 1.966-0.269 0.447-0.651 0.671-1.148 0.671zm1.941 10.486l11.231-17.615h-2.723l-11.242 17.615h2.734zm10.437 0.171c1.27 0 2.267-0.415 2.991-1.245 0.732-0.838 1.098-1.978 1.098-3.418v-0.012c0-1.433-0.366-2.564-1.098-3.394-0.724-0.838-1.721-1.257-2.991-1.257-1.269 0-2.27 0.419-3.003 1.257-0.732 0.83-1.098 1.961-1.098 3.394v0.012c0 1.44 0.366 2.58 1.098 3.418 0.733 0.83 1.734 1.245 3.003 1.245zm0-2.014c-0.496 0-0.879-0.228-1.147-0.684-0.269-0.456-0.403-1.107-0.403-1.953v-0.012c0-0.855 0.134-1.506 0.403-1.953 0.268-0.456 0.651-0.684 1.147-0.684 0.497 0 0.875 0.228 1.135 0.684 0.269 0.447 0.403 1.098 0.403 1.953v0.012c0 0.846-0.134 1.497-0.403 1.953-0.26 0.456-0.638 0.684-1.135 0.684z"/>
<path d="m388 403.63h3.076c0.647 0 1.215-0.135 1.702-0.403 0.492-0.274 0.878-0.654 1.156-1.142 0.278-0.492 0.417-1.06 0.417-1.702v-0.014c0-0.642-0.139-1.205-0.417-1.688-0.278-0.488-0.664-0.866-1.156-1.135-0.487-0.274-1.055-0.41-1.702-0.41h-3.076v1.292h2.693c0.666 0 1.181 0.171 1.545 0.512 0.369 0.342 0.554 0.823 0.554 1.443v0.013c0 0.611-0.185 1.09-0.554 1.436-0.364 0.342-0.879 0.513-1.545 0.513h-2.693v1.285zm-0.766 3.37h1.532v-9.864h-1.532v9.864zm11.861 0.144c0.729 0 1.353-0.155 1.873-0.465 0.524-0.31 0.927-0.752 1.21-1.326 0.287-0.579 0.43-1.265 0.43-2.058v-0.014c0-0.797-0.143-1.483-0.43-2.057-0.283-0.579-0.686-1.021-1.21-1.327-0.524-0.309-1.149-0.464-1.873-0.464-0.72 0-1.345 0.155-1.873 0.464-0.524 0.31-0.93 0.752-1.217 1.327-0.283 0.574-0.424 1.26-0.424 2.057v0.014c0 0.793 0.141 1.479 0.424 2.058 0.282 0.574 0.686 1.016 1.21 1.326 0.528 0.31 1.155 0.465 1.88 0.465zm0-1.245c-0.424 0-0.784-0.102-1.08-0.307-0.297-0.21-0.525-0.508-0.684-0.896-0.155-0.387-0.232-0.854-0.232-1.401v-0.014c0-0.551 0.077-1.021 0.232-1.408 0.159-0.387 0.387-0.684 0.684-0.889 0.296-0.209 0.656-0.314 1.08-0.314 0.423 0 0.784 0.105 1.08 0.314 0.296 0.205 0.522 0.502 0.676 0.889 0.155 0.387 0.233 0.857 0.233 1.408v0.014c0 0.547-0.078 1.014-0.233 1.401-0.154 0.388-0.38 0.686-0.676 0.896-0.296 0.205-0.657 0.307-1.08 0.307zm7.977 1.245c0.593 0 1.119-0.096 1.579-0.288 0.465-0.196 0.832-0.467 1.101-0.813 0.269-0.351 0.403-0.754 0.403-1.21v-0.014c0-0.537-0.175-0.966-0.526-1.285-0.347-0.319-0.875-0.563-1.586-0.731l-1.183-0.267c-0.414-0.1-0.713-0.225-0.895-0.376-0.183-0.15-0.274-0.342-0.274-0.574v-0.014c0-0.2 0.06-0.373 0.178-0.519 0.123-0.151 0.289-0.267 0.499-0.349 0.21-0.086 0.449-0.13 0.718-0.13 0.419 0 0.756 0.087 1.012 0.26 0.259 0.173 0.423 0.39 0.492 0.649v0.014h1.422v-7e-3c-0.046-0.405-0.192-0.761-0.438-1.066-0.246-0.31-0.581-0.552-1.005-0.725-0.419-0.178-0.911-0.266-1.476-0.266-0.561 0-1.06 0.095-1.497 0.287-0.433 0.187-0.773 0.449-1.019 0.786-0.246 0.333-0.369 0.715-0.369 1.148v7e-3c0 0.542 0.166 0.98 0.499 1.313 0.337 0.328 0.854 0.572 1.552 0.731l1.189 0.274c0.429 0.1 0.736 0.23 0.923 0.389 0.187 0.16 0.28 0.356 0.28 0.588v0.014c0 0.2-0.066 0.378-0.198 0.533s-0.314 0.276-0.547 0.362c-0.228 0.087-0.494 0.13-0.8 0.13-0.442 0-0.797-0.086-1.066-0.26-0.269-0.173-0.451-0.398-0.547-0.676v-0.014h-1.49v0.014c0.045 0.414 0.198 0.779 0.458 1.093 0.26 0.31 0.611 0.554 1.053 0.732 0.442 0.173 0.961 0.26 1.558 0.26zm7.595-0.096c0.146 0 0.287-9e-3 0.424-0.027 0.136-0.014 0.264-0.03 0.383-0.048v-1.19c-0.105 9e-3 -0.199 0.016-0.281 0.021-0.077 4e-3 -0.171 7e-3 -0.28 7e-3 -0.369 0-0.633-0.087-0.793-0.26-0.159-0.178-0.239-0.467-0.239-0.868v-3.938h1.593v-1.169h-1.593v-1.873h-1.518v1.873h-1.162v1.169h1.162v4.3c0 0.711 0.18 1.224 0.54 1.538 0.365 0.31 0.953 0.465 1.764 0.465zm6.528-0.048h1.402v-7.232h0.752l-1.593-2.359 3.835 9.591h1.135l3.841-9.591-1.599 2.359h0.758v7.232h1.402v-9.864h-1.771l-3.137 7.861h-0.117l-3.137-7.861h-1.771v9.864zm12.25 0h1.49v-7.424h-1.49v7.424zm0.752-8.75c0.255 0 0.474-0.091 0.656-0.273 0.183-0.183 0.274-0.401 0.274-0.657 0-0.255-0.091-0.471-0.274-0.649-0.182-0.182-0.401-0.274-0.656-0.274s-0.474 0.092-0.656 0.274c-0.182 0.178-0.273 0.394-0.273 0.649 0 0.256 0.091 0.474 0.273 0.657 0.182 0.182 0.401 0.273 0.656 0.273zm5.592 8.894c0.592 0 1.119-0.096 1.579-0.288 0.465-0.196 0.832-0.467 1.101-0.813 0.269-0.351 0.403-0.754 0.403-1.21v-0.014c0-0.537-0.175-0.966-0.526-1.285-0.347-0.319-0.875-0.563-1.586-0.731l-1.183-0.267c-0.415-0.1-0.713-0.225-0.895-0.376-0.183-0.15-0.274-0.342-0.274-0.574v-0.014c0-0.2 0.059-0.373 0.178-0.519 0.123-0.151 0.289-0.267 0.499-0.349 0.21-0.086 0.449-0.13 0.718-0.13 0.419 0 0.756 0.087 1.011 0.26 0.26 0.173 0.424 0.39 0.493 0.649v0.014h1.421v-7e-3c-0.045-0.405-0.191-0.761-0.437-1.066-0.246-0.31-0.581-0.552-1.005-0.725-0.419-0.178-0.911-0.266-1.477-0.266-0.56 0-1.059 0.095-1.497 0.287-0.433 0.187-0.772 0.449-1.018 0.786-0.246 0.333-0.369 0.715-0.369 1.148v7e-3c0 0.542 0.166 0.98 0.499 1.313 0.337 0.328 0.854 0.572 1.552 0.731l1.189 0.274c0.428 0.1 0.736 0.23 0.923 0.389 0.187 0.16 0.28 0.356 0.28 0.588v0.014c0 0.2-0.066 0.378-0.198 0.533s-0.315 0.276-0.547 0.362c-0.228 0.087-0.494 0.13-0.8 0.13-0.442 0-0.797-0.086-1.066-0.26-0.269-0.173-0.451-0.398-0.547-0.676v-0.014h-1.49v0.014c0.045 0.414 0.198 0.779 0.458 1.093 0.259 0.31 0.61 0.554 1.052 0.732 0.442 0.173 0.962 0.26 1.559 0.26zm4.867-0.144h1.49v-7.424h-1.49v7.424zm0.752-8.75c0.255 0 0.474-0.091 0.656-0.273 0.183-0.183 0.274-0.401 0.274-0.657 0-0.255-0.091-0.471-0.274-0.649-0.182-0.182-0.401-0.274-0.656-0.274s-0.474 0.092-0.656 0.274c-0.182 0.178-0.274 0.394-0.274 0.649 0 0.256 0.092 0.474 0.274 0.657 0.182 0.182 0.401 0.273 0.656 0.273zm2.892 8.75h1.483v-4.354c0-0.402 0.071-0.746 0.212-1.033 0.146-0.291 0.351-0.515 0.615-0.67 0.265-0.159 0.577-0.239 0.937-0.239 0.547 0 0.948 0.153 1.203 0.458 0.26 0.301 0.39 0.761 0.39 1.381v4.457h1.49v-4.806c0-0.884-0.221-1.565-0.663-2.044-0.442-0.478-1.08-0.717-1.914-0.717-0.543 0-0.992 0.111-1.347 0.335-0.355 0.223-0.624 0.533-0.807 0.929h-0.116v-1.121h-1.483v7.424zm8.921 0h1.483v-6.255h1.627v-1.169h-1.641v-0.711c0-0.373 0.087-0.658 0.26-0.854 0.178-0.196 0.472-0.294 0.882-0.294 0.114 0 0.219 4e-3 0.314 0.013 0.101 5e-3 0.185 0.014 0.253 0.028v-1.094c-0.132-0.023-0.271-0.039-0.417-0.048-0.141-0.013-0.294-0.02-0.458-0.02-0.774 0-1.353 0.182-1.736 0.547-0.378 0.364-0.567 0.916-0.567 1.654v0.779h-1.224v1.169h1.224v6.255zm7.635 0.144c0.73 0 1.354-0.155 1.873-0.465 0.525-0.31 0.928-0.752 1.21-1.326 0.287-0.579 0.431-1.265 0.431-2.058v-0.014c0-0.797-0.144-1.483-0.431-2.057-0.282-0.579-0.685-1.021-1.21-1.327-0.524-0.309-1.148-0.464-1.873-0.464-0.72 0-1.344 0.155-1.873 0.464-0.524 0.31-0.929 0.752-1.216 1.327-0.283 0.574-0.424 1.26-0.424 2.057v0.014c0 0.793 0.141 1.479 0.424 2.058 0.282 0.574 0.685 1.016 1.209 1.326 0.529 0.31 1.156 0.465 1.88 0.465zm0-1.245c-0.423 0-0.783-0.102-1.08-0.307-0.296-0.21-0.524-0.508-0.683-0.896-0.155-0.387-0.233-0.854-0.233-1.401v-0.014c0-0.551 0.078-1.021 0.233-1.408 0.159-0.387 0.387-0.684 0.683-0.889 0.297-0.209 0.657-0.314 1.08-0.314 0.424 0 0.784 0.105 1.08 0.314 0.297 0.205 0.522 0.502 0.677 0.889s0.233 0.857 0.233 1.408v0.014c0 0.547-0.078 1.014-0.233 1.401-0.155 0.388-0.38 0.686-0.677 0.896-0.296 0.205-0.656 0.307-1.08 0.307zm5.278 1.101h1.483v-4.437c0-0.36 0.08-0.669 0.239-0.929 0.164-0.265 0.388-0.47 0.67-0.615 0.287-0.146 0.62-0.219 0.998-0.219 0.142 0 0.276 7e-3 0.404 0.02 0.132 0.014 0.264 0.034 0.396 0.062v-1.367c-0.073-0.019-0.168-0.035-0.287-0.048-0.118-0.014-0.239-0.021-0.362-0.021-0.492 0-0.907 0.11-1.244 0.328-0.333 0.219-0.566 0.527-0.698 0.923h-0.116v-1.121h-1.483v7.424zm5.728 0h1.484v-4.56c0-0.323 0.068-0.615 0.205-0.875 0.136-0.264 0.321-0.474 0.553-0.628 0.237-0.155 0.504-0.233 0.8-0.233 0.438 0 0.784 0.125 1.039 0.376 0.26 0.246 0.39 0.581 0.39 1.005v4.915h1.483v-4.696c0-0.301 0.064-0.57 0.192-0.807 0.132-0.241 0.314-0.433 0.547-0.574 0.237-0.146 0.512-0.219 0.827-0.219 0.483 0 0.841 0.128 1.073 0.383 0.237 0.255 0.355 0.638 0.355 1.148v4.765h1.484v-5.12c0-0.515-0.094-0.955-0.28-1.319-0.187-0.365-0.458-0.643-0.814-0.834-0.355-0.196-0.784-0.294-1.285-0.294-0.337 0-0.656 0.054-0.957 0.164-0.296 0.109-0.556 0.264-0.779 0.465-0.224 0.195-0.397 0.428-0.52 0.697h-0.116c-0.109-0.269-0.262-0.502-0.458-0.697-0.192-0.201-0.422-0.356-0.691-0.465-0.268-0.11-0.571-0.164-0.909-0.164-0.487 0-0.907 0.111-1.258 0.335-0.346 0.223-0.601 0.54-0.765 0.95h-0.116v-1.142h-1.484v7.424zm14.547 0.123c0.328 0 0.631-0.046 0.909-0.137s0.527-0.223 0.745-0.396c0.219-0.178 0.401-0.392 0.547-0.643h0.11v1.053h1.476v-5.079c0-0.52-0.114-0.964-0.342-1.333-0.223-0.374-0.553-0.659-0.991-0.855-0.433-0.2-0.961-0.3-1.586-0.3-0.56 0-1.059 0.084-1.497 0.253-0.433 0.168-0.784 0.405-1.053 0.71-0.264 0.301-0.426 0.657-0.485 1.067l-7e-3 0.048h1.429l0.014-0.021c0.086-0.264 0.259-0.469 0.519-0.615 0.265-0.146 0.604-0.219 1.019-0.219 0.496 0 0.87 0.11 1.121 0.328 0.255 0.215 0.383 0.527 0.383 0.937v2.338c0 0.319-0.082 0.606-0.246 0.861-0.165 0.251-0.392 0.451-0.684 0.602-0.287 0.146-0.615 0.218-0.984 0.218-0.397 0-0.725-0.095-0.985-0.287-0.26-0.196-0.389-0.462-0.389-0.799v-0.014c0-0.333 0.12-0.59 0.362-0.773 0.241-0.186 0.617-0.296 1.128-0.328l2.536-0.164v-1.046l-2.741 0.164c-0.884 0.055-1.568 0.272-2.051 0.65-0.479 0.373-0.718 0.893-0.718 1.558v0.014c0 0.447 0.107 0.836 0.321 1.169 0.215 0.333 0.506 0.59 0.875 0.772 0.374 0.178 0.796 0.267 1.265 0.267zm8.682-0.075c0.146 0 0.287-9e-3 0.424-0.027 0.136-0.014 0.264-0.03 0.382-0.048v-1.19c-0.104 9e-3 -0.198 0.016-0.28 0.021-0.077 4e-3 -0.171 7e-3 -0.28 7e-3 -0.369 0-0.634-0.087-0.793-0.26-0.16-0.178-0.239-0.467-0.239-0.868v-3.938h1.592v-1.169h-1.592v-1.873h-1.518v1.873h-1.162v1.169h1.162v4.3c0 0.711 0.18 1.224 0.54 1.538 0.365 0.31 0.953 0.465 1.764 0.465zm2.563-0.048h1.49v-7.424h-1.49v7.424zm0.752-8.75c0.255 0 0.474-0.091 0.656-0.273 0.183-0.183 0.274-0.401 0.274-0.657 0-0.255-0.091-0.471-0.274-0.649-0.182-0.182-0.401-0.274-0.656-0.274s-0.474 0.092-0.656 0.274c-0.182 0.178-0.274 0.394-0.274 0.649 0 0.256 0.092 0.474 0.274 0.657 0.182 0.182 0.401 0.273 0.656 0.273zm6.036 8.894c0.729 0 1.354-0.155 1.873-0.465 0.524-0.31 0.928-0.752 1.21-1.326 0.287-0.579 0.431-1.265 0.431-2.058v-0.014c0-0.797-0.144-1.483-0.431-2.057-0.282-0.579-0.686-1.021-1.21-1.327-0.524-0.309-1.148-0.464-1.873-0.464-0.72 0-1.344 0.155-1.873 0.464-0.524 0.31-0.929 0.752-1.217 1.327-0.282 0.574-0.423 1.26-0.423 2.057v0.014c0 0.793 0.141 1.479 0.423 2.058 0.283 0.574 0.686 1.016 1.21 1.326 0.529 0.31 1.156 0.465 1.88 0.465zm0-1.245c-0.424 0-0.784-0.102-1.08-0.307-0.296-0.21-0.524-0.508-0.683-0.896-0.155-0.387-0.233-0.854-0.233-1.401v-0.014c0-0.551 0.078-1.021 0.233-1.408 0.159-0.387 0.387-0.684 0.683-0.889 0.296-0.209 0.656-0.314 1.08-0.314s0.784 0.105 1.08 0.314c0.297 0.205 0.522 0.502 0.677 0.889s0.233 0.857 0.233 1.408v0.014c0 0.547-0.078 1.014-0.233 1.401-0.155 0.388-0.38 0.686-0.677 0.896-0.296 0.205-0.656 0.307-1.08 0.307zm5.278 1.101h1.483v-4.354c0-0.402 0.071-0.746 0.212-1.033 0.146-0.291 0.351-0.515 0.615-0.67 0.265-0.159 0.577-0.239 0.937-0.239 0.547 0 0.948 0.153 1.203 0.458 0.26 0.301 0.389 0.761 0.389 1.381v4.457h1.491v-4.806c0-0.884-0.221-1.565-0.663-2.044-0.442-0.478-1.08-0.717-1.914-0.717-0.543 0-0.992 0.111-1.347 0.335-0.356 0.223-0.624 0.533-0.807 0.929h-0.116v-1.121h-1.483v7.424zm12.38 0h6.159v-1.326h-4.628v-8.538h-1.531v9.864zm10.698 0.144c0.478 0 0.9-0.062 1.264-0.185 0.37-0.123 0.684-0.285 0.944-0.485 0.264-0.201 0.476-0.422 0.636-0.663 0.159-0.247 0.271-0.493 0.334-0.739l0.014-0.061h-1.435l-0.028 0.054c-0.054 0.128-0.157 0.258-0.307 0.39-0.146 0.132-0.335 0.244-0.568 0.335-0.228 0.087-0.501 0.13-0.82 0.13-0.415 0-0.775-0.091-1.08-0.274-0.301-0.182-0.533-0.446-0.697-0.792-0.164-0.347-0.246-0.764-0.246-1.251v-0.595c0-0.511 0.082-0.941 0.246-1.292 0.168-0.351 0.396-0.615 0.683-0.793 0.292-0.182 0.622-0.274 0.991-0.274 0.37 0 0.695 0.087 0.978 0.26s0.504 0.435 0.663 0.786c0.164 0.347 0.246 0.784 0.246 1.313v0.595l0.711-0.985h-5.264v1.06h6.002v-0.52c0-0.747-0.134-1.399-0.403-1.955-0.269-0.56-0.654-0.996-1.155-1.306-0.497-0.309-1.092-0.464-1.784-0.464-0.689 0-1.29 0.161-1.805 0.485-0.511 0.324-0.907 0.775-1.19 1.353-0.278 0.579-0.417 1.256-0.417 2.031v7e-3c0 0.783 0.139 1.462 0.417 2.037 0.283 0.574 0.684 1.018 1.204 1.333 0.519 0.31 1.141 0.465 1.866 0.465zm6.911-0.144h1.586l2.68-7.424h-1.566l-1.846 5.92h-0.109l-1.853-5.92h-1.579l2.687 7.424zm8.593 0.144c0.478 0 0.9-0.062 1.264-0.185 0.369-0.123 0.684-0.285 0.944-0.485 0.264-0.201 0.476-0.422 0.635-0.663 0.16-0.247 0.272-0.493 0.335-0.739l0.014-0.061h-1.435l-0.028 0.054c-0.055 0.128-0.157 0.258-0.307 0.39-0.146 0.132-0.335 0.244-0.568 0.335-0.228 0.087-0.501 0.13-0.82 0.13-0.415 0-0.775-0.091-1.08-0.274-0.301-0.182-0.533-0.446-0.697-0.792-0.165-0.347-0.247-0.764-0.247-1.251v-0.595c0-0.511 0.082-0.941 0.247-1.292 0.168-0.351 0.396-0.615 0.683-0.793 0.292-0.182 0.622-0.274 0.991-0.274s0.695 0.087 0.978 0.26c0.282 0.173 0.503 0.435 0.663 0.786 0.164 0.347 0.246 0.784 0.246 1.313v0.595l0.711-0.985h-5.264v1.06h6.002v-0.52c0-0.747-0.134-1.399-0.403-1.955-0.269-0.56-0.654-0.996-1.155-1.306-0.497-0.309-1.092-0.464-1.785-0.464-0.688 0-1.289 0.161-1.804 0.485-0.511 0.324-0.907 0.775-1.19 1.353-0.278 0.579-0.417 1.256-0.417 2.031v7e-3c0 0.783 0.139 1.462 0.417 2.037 0.283 0.574 0.684 1.018 1.203 1.333 0.52 0.31 1.142 0.465 1.867 0.465zm5.099-0.144h1.484v-10.336h-1.484v10.336z" fill="#707070"/>
</svg>
