<svg width="1149" height="566" viewBox="0 0 1149 566" fill="none" xmlns="http://www.w3.org/2000/svg">
<path d="M263.776 6.47061H83.7378C37.5078 6.47061 0 43.1884 0 88.4637L0 478.246C0 523.524 37.5078 560.217 83.7378 560.217H155.016C155.574 561.808 156.615 563.186 157.994 564.161C159.373 565.136 161.022 565.659 162.713 565.657H191.174C192.868 565.664 194.523 565.145 195.908 564.172C197.294 563.198 198.34 561.818 198.903 560.224H232.051C232.614 561.819 233.662 563.199 235.047 564.172C236.433 565.146 238.088 565.665 239.784 565.657L312.069 565.657C313.761 565.664 315.412 565.144 316.793 564.17C318.174 563.196 319.216 561.817 319.773 560.224H340.955C341.517 561.818 342.562 563.198 343.946 564.171C345.33 565.145 346.984 565.664 348.678 565.657H420.963C422.658 565.664 424.313 565.145 425.698 564.172C427.083 563.198 428.13 561.818 428.693 560.224L1064.75 560.224C1111 560.224 1148.49 523.524 1148.49 478.254V88.4637C1148.49 43.1809 1110.99 6.47061 1064.73 6.47061L400.68 6.47061C400.192 4.77233 399.16 3.27989 397.743 2.22058C396.325 1.16128 394.599 0.593351 392.827 0.603177H271.629C269.858 0.593351 268.132 1.16128 266.714 2.22058C265.296 3.27989 264.265 4.77233 263.776 6.47061ZM1065.75 17.3117C1105.84 17.3117 1138.34 49.1289 1138.34 88.3684V478.329C1138.34 517.591 1105.84 549.413 1065.75 549.413L82.7479 549.413C42.6635 549.413 10.1578 517.596 10.1578 478.329L10.1578 88.3684C10.1578 49.1289 42.661 17.3117 82.7479 17.3117L1065.75 17.3117Z" fill="black"/>
<rect x="10.4917" y="550.508" width="531" height="1125" rx="70" transform="rotate(-90 10.4917 550.508)" fill="#FFFFFE"/>
<path d="M3.77176 86.3192L3.77176 479.919C3.77176 519.541 36.622 551.661 77.112 551.661L1070.44 551.661C1110.95 551.661 1143.78 519.546 1143.78 479.919V86.3217C1143.78 46.7166 1110.93 14.6045 1070.44 14.6045L77.112 14.6045C36.6042 14.6045 3.77176 46.7167 3.77176 86.3192ZM1072.46 30.0955C1079.44 30.0274 1086.36 31.3302 1092.82 33.9295C1099.29 36.5289 1105.19 40.3736 1110.17 45.2445C1115.15 50.1154 1119.12 55.9171 1121.85 62.318C1124.58 68.7188 1126.02 75.5937 1126.09 82.5499V483.711C1125.95 497.756 1120.22 511.17 1110.16 521.003C1100.1 530.835 1086.54 536.281 1072.46 536.142L75.1104 536.142C61.0286 536.281 47.4683 530.835 37.4119 521.003C27.3555 511.17 21.6266 497.756 21.4854 483.711L21.4854 429.689H21.9362C21.9644 427.679 22.7879 425.761 24.2275 424.354C25.6671 422.946 27.606 422.164 29.6217 422.176C38.1884 422.198 46.4221 418.868 52.5532 412.9C55.5532 409.987 57.9383 406.505 59.5679 402.658C61.1974 398.812 62.0385 394.679 62.0416 390.503L62.0416 177.134C61.9984 172.931 61.1255 168.778 59.4727 164.911C57.82 161.045 55.4198 157.541 52.4093 154.6C49.3987 151.659 45.8367 149.338 41.9267 147.77C38.0168 146.202 33.8356 145.417 29.6217 145.461C27.5885 145.456 25.6384 144.657 24.1899 143.234C23.4786 142.543 22.9129 141.717 22.5259 140.805C22.1389 139.893 21.9384 138.913 21.9362 137.923H21.4854L21.4854 82.5524C21.553 75.5962 22.9937 68.7213 25.7252 62.3205C28.4568 55.9196 32.4256 50.1182 37.4052 45.2473C42.3848 40.3764 48.2776 36.5313 54.7471 33.932C61.2166 31.3327 68.136 30.0299 75.1104 30.098L1072.46 30.0955Z" fill="#010003"/>
<path d="M422.499 565.662H346.872C346.08 565.672 345.295 565.526 344.56 565.233C343.825 564.939 343.155 564.505 342.588 563.953C342.022 563.402 341.57 562.745 341.258 562.019C340.946 561.293 340.781 560.514 340.772 559.724H428.6C428.59 560.514 428.425 561.293 428.113 562.019C427.801 562.745 427.349 563.402 426.783 563.953C426.216 564.505 425.546 564.939 424.812 565.233C424.077 565.526 423.291 565.672 422.499 565.662ZM262.935 6.53357C262.945 5.74421 263.11 4.96447 263.422 4.23885C263.733 3.51323 264.185 2.85595 264.752 2.30456C265.318 1.75316 265.988 1.31844 266.723 1.02523C267.458 0.732023 268.244 0.586039 269.035 0.595663H394.28C395.878 0.577568 397.418 1.1929 398.56 2.30636C399.703 3.41981 400.356 4.94026 400.376 6.53357H262.935ZM312.746 565.662L237.119 565.662C235.521 565.681 233.981 565.066 232.837 563.952C231.694 562.839 231.04 561.318 231.021 559.724H318.847C318.837 560.514 318.672 561.293 318.36 562.019C318.048 562.745 317.596 563.402 317.03 563.953C316.463 564.505 315.794 564.939 315.059 565.233C314.324 565.526 313.538 565.672 312.746 565.662V565.662ZM191.617 565.662H159.647C158.856 565.672 158.07 565.526 157.335 565.233C156.6 564.939 155.931 564.505 155.364 563.953C154.798 563.402 154.346 562.745 154.034 562.019C153.722 561.293 153.557 560.514 153.547 559.724H197.714C197.695 561.318 197.042 562.839 195.899 563.952C194.755 565.066 193.215 565.681 191.617 565.662V565.662Z" fill="black"/>
<path d="M50.2497 402.759C47.7776 403.56 45.0881 403.355 42.7674 402.187C40.4466 401.019 38.6829 398.984 37.8604 396.525C37.4632 395.309 37.3112 394.027 37.4131 392.753C37.515 391.478 37.8688 390.236 38.4541 389.099C39.0394 387.961 39.8447 386.95 40.8235 386.125C41.8022 385.299 42.9352 384.674 44.157 384.287C46.6291 383.486 49.3186 383.692 51.6393 384.859C53.96 386.027 55.7238 388.062 56.5463 390.522C56.8673 391.494 57.0305 392.512 57.0299 393.536C57.0218 395.59 56.3614 397.59 55.1433 399.247C53.9252 400.904 52.212 402.133 50.2497 402.759V402.759ZM46.2928 233.513C44.3465 233.53 42.439 232.97 40.8125 231.904C39.1859 230.838 37.9136 229.314 37.157 227.525C36.4004 225.737 36.1936 223.765 36.5629 221.859C36.9322 219.953 37.8609 218.2 39.2311 216.821C40.6014 215.442 42.3514 214.501 44.2592 214.116C46.1669 213.731 48.1463 213.92 49.9462 214.659C51.746 215.398 53.2852 216.653 54.3684 218.266C55.4516 219.879 56.0299 221.776 56.03 223.717C56.0407 226.304 55.021 228.789 53.1951 230.626C51.3691 232.463 48.8864 233.501 46.2928 233.513ZM50.1816 314.263C50.1816 315.472 49.7 316.632 48.8427 317.487C47.9854 318.342 46.8227 318.822 45.6103 318.822C44.3979 318.822 43.2351 318.342 42.3778 317.487C41.5206 316.632 41.0389 315.472 41.0389 314.263L41.0389 254.65C41.0389 253.441 41.5206 252.281 42.3778 251.426C43.2351 250.571 44.3979 250.091 45.6103 250.091C46.8227 250.091 47.9854 250.571 48.8427 251.426C49.7 252.281 50.1816 253.441 50.1816 254.65L50.1816 314.263ZM34.634 314.941C34.5881 316.543 33.9178 318.064 32.7656 319.18C31.6134 320.297 30.07 320.922 28.4633 320.922C26.8566 320.922 25.3132 320.297 24.1609 319.18C23.0087 318.064 22.3385 316.543 22.2926 314.941L22.2926 253.972C22.3385 252.37 23.0087 250.849 24.1609 249.733C25.3132 248.616 26.8566 247.991 28.4633 247.991C30.07 247.991 31.6134 248.616 32.7656 249.733C33.9178 250.849 34.5881 252.37 34.634 253.972V314.941Z" fill="#484450"/>
<rect width="913" height="100" transform="translate(125 113)" fill="#F2FFF4"/>
<rect x="145" y="133" width="60" height="60" rx="5" fill="#CBF3D2"/>
<rect x="165" y="153" width="20" height="20" rx="3" fill="#36C14D"/>
<path d="M226.701 182.5H230.363V164.885H226.701L222.147 168.047V171.331L226.615 168.279H226.701V182.5ZM241.361 182.83C242.842 182.83 244.116 182.459 245.182 181.719C246.248 180.97 247.066 179.916 247.636 178.557C248.214 177.19 248.502 175.57 248.502 173.699V173.674C248.502 171.803 248.214 170.187 247.636 168.828C247.066 167.461 246.248 166.407 245.182 165.667C244.116 164.926 242.842 164.556 241.361 164.556C239.872 164.556 238.594 164.926 237.528 165.667C236.462 166.407 235.64 167.461 235.062 168.828C234.493 170.187 234.208 171.803 234.208 173.674V173.699C234.208 175.57 234.493 177.19 235.062 178.557C235.64 179.916 236.462 180.97 237.528 181.719C238.594 182.459 239.872 182.83 241.361 182.83ZM241.361 179.888C240.629 179.888 240.006 179.644 239.494 179.155C238.989 178.659 238.603 177.951 238.334 177.031C238.065 176.104 237.931 174.993 237.931 173.699V173.674C237.931 172.38 238.065 171.274 238.334 170.354C238.603 169.434 238.989 168.73 239.494 168.242C240.006 167.754 240.629 167.51 241.361 167.51C242.086 167.51 242.7 167.754 243.205 168.242C243.717 168.73 244.108 169.434 244.376 170.354C244.645 171.274 244.779 172.38 244.779 173.674V173.699C244.779 174.993 244.645 176.104 244.376 177.031C244.108 177.951 243.717 178.659 243.205 179.155C242.7 179.644 242.086 179.888 241.361 179.888ZM257.865 182.83C259.346 182.83 260.62 182.459 261.686 181.719C262.752 180.97 263.57 179.916 264.14 178.557C264.717 177.19 265.006 175.57 265.006 173.699V173.674C265.006 171.803 264.717 170.187 264.14 168.828C263.57 167.461 262.752 166.407 261.686 165.667C260.62 164.926 259.346 164.556 257.865 164.556C256.376 164.556 255.098 164.926 254.032 165.667C252.966 166.407 252.144 167.461 251.566 168.828C250.997 170.187 250.712 171.803 250.712 173.674V173.699C250.712 175.57 250.997 177.19 251.566 178.557C252.144 179.916 252.966 180.97 254.032 181.719C255.098 182.459 256.376 182.83 257.865 182.83ZM257.865 179.888C257.133 179.888 256.51 179.644 255.998 179.155C255.493 178.659 255.106 177.951 254.838 177.031C254.569 176.104 254.435 174.993 254.435 173.699V173.674C254.435 172.38 254.569 171.274 254.838 170.354C255.106 169.434 255.493 168.73 255.998 168.242C256.51 167.754 257.133 167.51 257.865 167.51C258.59 167.51 259.204 167.754 259.708 168.242C260.221 168.73 260.612 169.434 260.88 170.354C261.149 171.274 261.283 172.38 261.283 173.674V173.699C261.283 174.993 261.149 176.104 260.88 177.031C260.612 177.951 260.221 178.659 259.708 179.155C259.204 179.644 258.59 179.888 257.865 179.888ZM271.305 174.041C272.583 174.041 273.584 173.621 274.308 172.783C275.032 171.945 275.395 170.81 275.395 169.377V169.365C275.395 167.925 275.032 166.79 274.308 165.959C273.584 165.129 272.583 164.714 271.305 164.714C270.036 164.714 269.035 165.129 268.302 165.959C267.578 166.79 267.216 167.925 267.216 169.365V169.377C267.216 170.81 267.578 171.945 268.302 172.783C269.035 173.621 270.036 174.041 271.305 174.041ZM271.305 172.014C270.809 172.014 270.426 171.79 270.158 171.343C269.889 170.887 269.755 170.232 269.755 169.377V169.365C269.755 168.511 269.889 167.86 270.158 167.412C270.426 166.965 270.809 166.741 271.305 166.741C271.802 166.741 272.184 166.965 272.453 167.412C272.721 167.86 272.855 168.511 272.855 169.365V169.377C272.855 170.232 272.721 170.887 272.453 171.343C272.184 171.79 271.802 172.014 271.305 172.014ZM273.246 182.5L284.477 164.885H281.754L270.512 182.5H273.246ZM283.683 182.671C284.953 182.671 285.95 182.256 286.674 181.426C287.406 180.588 287.772 179.448 287.772 178.008V177.996C287.772 176.563 287.406 175.432 286.674 174.602C285.95 173.764 284.953 173.345 283.683 173.345C282.414 173.345 281.413 173.764 280.68 174.602C279.948 175.432 279.582 176.563 279.582 177.996V178.008C279.582 179.448 279.948 180.588 280.68 181.426C281.413 182.256 282.414 182.671 283.683 182.671ZM283.683 180.657C283.187 180.657 282.804 180.429 282.536 179.973C282.267 179.517 282.133 178.866 282.133 178.02V178.008C282.133 177.153 282.267 176.502 282.536 176.055C282.804 175.599 283.187 175.371 283.683 175.371C284.18 175.371 284.558 175.599 284.818 176.055C285.087 176.502 285.221 177.153 285.221 178.008V178.02C285.221 178.866 285.087 179.517 284.818 179.973C284.558 180.429 284.18 180.657 283.683 180.657Z" fill="black"/>
<path d="M223.003 147.13H226.079C226.726 147.13 227.294 146.995 227.781 146.727C228.273 146.453 228.659 146.073 228.937 145.585C229.215 145.093 229.354 144.525 229.354 143.883V143.869C229.354 143.227 229.215 142.664 228.937 142.181C228.659 141.693 228.273 141.315 227.781 141.046C227.294 140.772 226.726 140.636 226.079 140.636H223.003V141.928H225.696C226.362 141.928 226.877 142.099 227.241 142.44C227.61 142.782 227.795 143.263 227.795 143.883V143.896C227.795 144.507 227.61 144.986 227.241 145.332C226.877 145.674 226.362 145.845 225.696 145.845H223.003V147.13ZM222.237 150.5H223.769V140.636H222.237V150.5ZM234.098 150.644C234.827 150.644 235.451 150.489 235.971 150.179C236.495 149.869 236.898 149.427 237.181 148.853C237.468 148.274 237.611 147.588 237.611 146.795V146.781C237.611 145.984 237.468 145.298 237.181 144.724C236.898 144.145 236.495 143.703 235.971 143.397C235.447 143.088 234.822 142.933 234.098 142.933C233.378 142.933 232.753 143.088 232.225 143.397C231.701 143.707 231.295 144.149 231.008 144.724C230.725 145.298 230.584 145.984 230.584 146.781V146.795C230.584 147.588 230.725 148.274 231.008 148.853C231.29 149.427 231.694 149.869 232.218 150.179C232.746 150.489 233.373 150.644 234.098 150.644ZM234.098 149.399C233.674 149.399 233.314 149.297 233.018 149.092C232.721 148.882 232.493 148.584 232.334 148.196C232.179 147.809 232.102 147.342 232.102 146.795V146.781C232.102 146.23 232.179 145.76 232.334 145.373C232.493 144.986 232.721 144.689 233.018 144.484C233.314 144.275 233.674 144.17 234.098 144.17C234.521 144.17 234.882 144.275 235.178 144.484C235.474 144.689 235.7 144.986 235.854 145.373C236.009 145.76 236.087 146.23 236.087 146.781V146.795C236.087 147.342 236.009 147.809 235.854 148.196C235.7 148.584 235.474 148.882 235.178 149.092C234.882 149.297 234.521 149.399 234.098 149.399ZM242.075 150.644C242.668 150.644 243.194 150.548 243.654 150.356C244.119 150.16 244.486 149.889 244.755 149.543C245.024 149.192 245.158 148.789 245.158 148.333V148.319C245.158 147.782 244.983 147.353 244.632 147.034C244.285 146.715 243.757 146.471 243.046 146.303L241.863 146.036C241.449 145.936 241.15 145.811 240.968 145.66C240.785 145.51 240.694 145.318 240.694 145.086V145.072C240.694 144.872 240.754 144.699 240.872 144.553C240.995 144.402 241.161 144.286 241.371 144.204C241.581 144.118 241.82 144.074 242.089 144.074C242.508 144.074 242.845 144.161 243.101 144.334C243.36 144.507 243.524 144.724 243.593 144.983V144.997H245.015V144.99C244.969 144.585 244.823 144.229 244.577 143.924C244.331 143.614 243.996 143.372 243.572 143.199C243.153 143.021 242.661 142.933 242.096 142.933C241.535 142.933 241.036 143.028 240.599 143.22C240.166 143.407 239.826 143.669 239.58 144.006C239.334 144.339 239.211 144.721 239.211 145.154V145.161C239.211 145.703 239.377 146.141 239.71 146.474C240.047 146.802 240.564 147.046 241.262 147.205L242.451 147.479C242.88 147.579 243.187 147.709 243.374 147.868C243.561 148.028 243.654 148.224 243.654 148.456V148.47C243.654 148.67 243.588 148.848 243.456 149.003C243.324 149.158 243.142 149.279 242.909 149.365C242.681 149.452 242.415 149.495 242.109 149.495C241.667 149.495 241.312 149.409 241.043 149.235C240.774 149.062 240.592 148.837 240.496 148.559V148.545H239.006V148.559C239.051 148.973 239.204 149.338 239.464 149.652C239.724 149.962 240.075 150.206 240.517 150.384C240.959 150.557 241.478 150.644 242.075 150.644ZM249.67 150.548C249.816 150.548 249.957 150.539 250.094 150.521C250.23 150.507 250.358 150.491 250.477 150.473V149.283C250.372 149.292 250.278 149.299 250.196 149.304C250.119 149.308 250.025 149.311 249.916 149.311C249.547 149.311 249.283 149.224 249.123 149.051C248.964 148.873 248.884 148.584 248.884 148.183V144.245H250.477V143.076H248.884V141.203H247.366V143.076H246.204V144.245H247.366V148.545C247.366 149.256 247.546 149.769 247.906 150.083C248.271 150.393 248.859 150.548 249.67 150.548ZM256.198 150.5H257.6V143.268H258.352L256.759 140.909L260.594 150.5H261.729L265.57 140.909L263.971 143.268H264.729V150.5H266.131V140.636H264.36L261.223 148.497H261.106L257.969 140.636H256.198V150.5ZM268.448 150.5H269.938V143.076H268.448V150.5ZM269.2 141.75C269.455 141.75 269.674 141.659 269.856 141.477C270.039 141.294 270.13 141.076 270.13 140.82C270.13 140.565 270.039 140.349 269.856 140.171C269.674 139.989 269.455 139.897 269.2 139.897C268.945 139.897 268.726 139.989 268.544 140.171C268.362 140.349 268.271 140.565 268.271 140.82C268.271 141.076 268.362 141.294 268.544 141.477C268.726 141.659 268.945 141.75 269.2 141.75ZM274.792 150.644C275.384 150.644 275.911 150.548 276.371 150.356C276.836 150.16 277.203 149.889 277.472 149.543C277.741 149.192 277.875 148.789 277.875 148.333V148.319C277.875 147.782 277.7 147.353 277.349 147.034C277.002 146.715 276.474 146.471 275.763 146.303L274.58 146.036C274.165 145.936 273.867 145.811 273.685 145.66C273.502 145.51 273.411 145.318 273.411 145.086V145.072C273.411 144.872 273.47 144.699 273.589 144.553C273.712 144.402 273.878 144.286 274.088 144.204C274.298 144.118 274.537 144.074 274.806 144.074C275.225 144.074 275.562 144.161 275.817 144.334C276.077 144.507 276.241 144.724 276.31 144.983V144.997H277.731V144.99C277.686 144.585 277.54 144.229 277.294 143.924C277.048 143.614 276.713 143.372 276.289 143.199C275.87 143.021 275.378 142.933 274.812 142.933C274.252 142.933 273.753 143.028 273.315 143.22C272.882 143.407 272.543 143.669 272.297 144.006C272.051 144.339 271.928 144.721 271.928 145.154V145.161C271.928 145.703 272.094 146.141 272.427 146.474C272.764 146.802 273.281 147.046 273.979 147.205L275.168 147.479C275.596 147.579 275.904 147.709 276.091 147.868C276.278 148.028 276.371 148.224 276.371 148.456V148.47C276.371 148.67 276.305 148.848 276.173 149.003C276.041 149.158 275.858 149.279 275.626 149.365C275.398 149.452 275.132 149.495 274.826 149.495C274.384 149.495 274.029 149.409 273.76 149.235C273.491 149.062 273.309 148.837 273.213 148.559V148.545H271.723V148.559C271.768 148.973 271.921 149.338 272.181 149.652C272.44 149.962 272.791 150.206 273.233 150.384C273.675 150.557 274.195 150.644 274.792 150.644ZM279.659 150.5H281.149V143.076H279.659V150.5ZM280.411 141.75C280.666 141.75 280.885 141.659 281.067 141.477C281.25 141.294 281.341 141.076 281.341 140.82C281.341 140.565 281.25 140.349 281.067 140.171C280.885 139.989 280.666 139.897 280.411 139.897C280.156 139.897 279.937 139.989 279.755 140.171C279.573 140.349 279.481 140.565 279.481 140.82C279.481 141.076 279.573 141.294 279.755 141.477C279.937 141.659 280.156 141.75 280.411 141.75ZM283.303 150.5H284.786V146.146C284.786 145.744 284.857 145.4 284.998 145.113C285.144 144.822 285.349 144.598 285.613 144.443C285.878 144.284 286.19 144.204 286.55 144.204C287.097 144.204 287.498 144.357 287.753 144.662C288.013 144.963 288.143 145.423 288.143 146.043V150.5H289.633V145.694C289.633 144.81 289.412 144.129 288.97 143.65C288.528 143.172 287.89 142.933 287.056 142.933C286.513 142.933 286.064 143.044 285.709 143.268C285.354 143.491 285.085 143.801 284.902 144.197H284.786V143.076H283.303V150.5ZM292.224 150.5H293.707V144.245H295.334V143.076H293.693V142.365C293.693 141.992 293.78 141.707 293.953 141.511C294.131 141.315 294.425 141.217 294.835 141.217C294.949 141.217 295.054 141.221 295.149 141.23C295.25 141.235 295.334 141.244 295.402 141.258V140.164C295.27 140.141 295.131 140.125 294.985 140.116C294.844 140.103 294.691 140.096 294.527 140.096C293.753 140.096 293.174 140.278 292.791 140.643C292.413 141.007 292.224 141.559 292.224 142.297V143.076H291V144.245H292.224V150.5ZM299.859 150.644C300.589 150.644 301.213 150.489 301.732 150.179C302.257 149.869 302.66 149.427 302.942 148.853C303.229 148.274 303.373 147.588 303.373 146.795V146.781C303.373 145.984 303.229 145.298 302.942 144.724C302.66 144.145 302.257 143.703 301.732 143.397C301.208 143.088 300.584 142.933 299.859 142.933C299.139 142.933 298.515 143.088 297.986 143.397C297.462 143.707 297.057 144.149 296.77 144.724C296.487 145.298 296.346 145.984 296.346 146.781V146.795C296.346 147.588 296.487 148.274 296.77 148.853C297.052 149.427 297.455 149.869 297.979 150.179C298.508 150.489 299.135 150.644 299.859 150.644ZM299.859 149.399C299.436 149.399 299.076 149.297 298.779 149.092C298.483 148.882 298.255 148.584 298.096 148.196C297.941 147.809 297.863 147.342 297.863 146.795V146.781C297.863 146.23 297.941 145.76 298.096 145.373C298.255 144.986 298.483 144.689 298.779 144.484C299.076 144.275 299.436 144.17 299.859 144.17C300.283 144.17 300.643 144.275 300.939 144.484C301.236 144.689 301.461 144.986 301.616 145.373C301.771 145.76 301.849 146.23 301.849 146.781V146.795C301.849 147.342 301.771 147.809 301.616 148.196C301.461 148.584 301.236 148.882 300.939 149.092C300.643 149.297 300.283 149.399 299.859 149.399ZM305.137 150.5H306.62V146.063C306.62 145.703 306.7 145.394 306.859 145.134C307.023 144.869 307.247 144.664 307.529 144.519C307.816 144.373 308.149 144.3 308.527 144.3C308.669 144.3 308.803 144.307 308.931 144.32C309.063 144.334 309.195 144.354 309.327 144.382V143.015C309.254 142.996 309.159 142.98 309.04 142.967C308.922 142.953 308.801 142.946 308.678 142.946C308.186 142.946 307.771 143.056 307.434 143.274C307.101 143.493 306.868 143.801 306.736 144.197H306.62V143.076H305.137V150.5ZM310.865 150.5H312.349V145.94C312.349 145.617 312.417 145.325 312.554 145.065C312.69 144.801 312.875 144.591 313.107 144.437C313.344 144.282 313.611 144.204 313.907 144.204C314.345 144.204 314.691 144.329 314.946 144.58C315.206 144.826 315.336 145.161 315.336 145.585V150.5H316.819V145.804C316.819 145.503 316.883 145.234 317.011 144.997C317.143 144.756 317.325 144.564 317.558 144.423C317.795 144.277 318.07 144.204 318.385 144.204C318.868 144.204 319.226 144.332 319.458 144.587C319.695 144.842 319.813 145.225 319.813 145.735V150.5H321.297V145.38C321.297 144.865 321.203 144.425 321.017 144.061C320.83 143.696 320.559 143.418 320.203 143.227C319.848 143.031 319.419 142.933 318.918 142.933C318.581 142.933 318.262 142.987 317.961 143.097C317.665 143.206 317.405 143.361 317.182 143.562C316.958 143.757 316.785 143.99 316.662 144.259H316.546C316.437 143.99 316.284 143.757 316.088 143.562C315.896 143.361 315.666 143.206 315.397 143.097C315.129 142.987 314.826 142.933 314.488 142.933C314.001 142.933 313.581 143.044 313.23 143.268C312.884 143.491 312.629 143.808 312.465 144.218H312.349V143.076H310.865V150.5ZM325.412 150.623C325.74 150.623 326.043 150.577 326.321 150.486C326.599 150.395 326.848 150.263 327.066 150.09C327.285 149.912 327.467 149.698 327.613 149.447H327.723V150.5H329.199V145.421C329.199 144.901 329.085 144.457 328.857 144.088C328.634 143.714 328.304 143.429 327.866 143.233C327.433 143.033 326.905 142.933 326.28 142.933C325.72 142.933 325.221 143.017 324.783 143.186C324.35 143.354 323.999 143.591 323.73 143.896C323.466 144.197 323.304 144.553 323.245 144.963L323.238 145.011H324.667L324.681 144.99C324.767 144.726 324.94 144.521 325.2 144.375C325.465 144.229 325.804 144.156 326.219 144.156C326.715 144.156 327.089 144.266 327.34 144.484C327.595 144.699 327.723 145.011 327.723 145.421V147.759C327.723 148.078 327.641 148.365 327.477 148.62C327.312 148.871 327.085 149.071 326.793 149.222C326.506 149.368 326.178 149.44 325.809 149.44C325.412 149.44 325.084 149.345 324.824 149.153C324.564 148.957 324.435 148.691 324.435 148.354V148.34C324.435 148.007 324.555 147.75 324.797 147.567C325.038 147.381 325.414 147.271 325.925 147.239L328.461 147.075V146.029L325.72 146.193C324.836 146.248 324.152 146.465 323.669 146.843C323.19 147.216 322.951 147.736 322.951 148.401V148.415C322.951 148.862 323.058 149.251 323.272 149.584C323.487 149.917 323.778 150.174 324.147 150.356C324.521 150.534 324.943 150.623 325.412 150.623ZM334.094 150.548C334.24 150.548 334.381 150.539 334.518 150.521C334.654 150.507 334.782 150.491 334.9 150.473V149.283C334.796 149.292 334.702 149.299 334.62 149.304C334.543 149.308 334.449 149.311 334.34 149.311C333.971 149.311 333.706 149.224 333.547 149.051C333.387 148.873 333.308 148.584 333.308 148.183V144.245H334.9V143.076H333.308V141.203H331.79V143.076H330.628V144.245H331.79V148.545C331.79 149.256 331.97 149.769 332.33 150.083C332.695 150.393 333.283 150.548 334.094 150.548ZM336.657 150.5H338.147V143.076H336.657V150.5ZM337.409 141.75C337.664 141.75 337.883 141.659 338.065 141.477C338.248 141.294 338.339 141.076 338.339 140.82C338.339 140.565 338.248 140.349 338.065 140.171C337.883 139.989 337.664 139.897 337.409 139.897C337.154 139.897 336.935 139.989 336.753 140.171C336.571 140.349 336.479 140.565 336.479 140.82C336.479 141.076 336.571 141.294 336.753 141.477C336.935 141.659 337.154 141.75 337.409 141.75ZM343.445 150.644C344.174 150.644 344.799 150.489 345.318 150.179C345.842 149.869 346.246 149.427 346.528 148.853C346.815 148.274 346.959 147.588 346.959 146.795V146.781C346.959 145.984 346.815 145.298 346.528 144.724C346.246 144.145 345.842 143.703 345.318 143.397C344.794 143.088 344.17 142.933 343.445 142.933C342.725 142.933 342.101 143.088 341.572 143.397C341.048 143.707 340.643 144.149 340.355 144.724C340.073 145.298 339.932 145.984 339.932 146.781V146.795C339.932 147.588 340.073 148.274 340.355 148.853C340.638 149.427 341.041 149.869 341.565 150.179C342.094 150.489 342.721 150.644 343.445 150.644ZM343.445 149.399C343.021 149.399 342.661 149.297 342.365 149.092C342.069 148.882 341.841 148.584 341.682 148.196C341.527 147.809 341.449 147.342 341.449 146.795V146.781C341.449 146.23 341.527 145.76 341.682 145.373C341.841 144.986 342.069 144.689 342.365 144.484C342.661 144.275 343.021 144.17 343.445 144.17C343.869 144.17 344.229 144.275 344.525 144.484C344.822 144.689 345.047 144.986 345.202 145.373C345.357 145.76 345.435 146.23 345.435 146.781V146.795C345.435 147.342 345.357 147.809 345.202 148.196C345.047 148.584 344.822 148.882 344.525 149.092C344.229 149.297 343.869 149.399 343.445 149.399ZM348.723 150.5H350.206V146.146C350.206 145.744 350.277 145.4 350.418 145.113C350.564 144.822 350.769 144.598 351.033 144.443C351.298 144.284 351.61 144.204 351.97 144.204C352.517 144.204 352.918 144.357 353.173 144.662C353.433 144.963 353.562 145.423 353.562 146.043V150.5H355.053V145.694C355.053 144.81 354.832 144.129 354.39 143.65C353.948 143.172 353.31 142.933 352.476 142.933C351.933 142.933 351.484 143.044 351.129 143.268C350.773 143.491 350.505 143.801 350.322 144.197H350.206V143.076H348.723V150.5ZM361.103 150.5H367.262V149.174H362.634V140.636H361.103V150.5ZM371.801 150.644C372.279 150.644 372.701 150.582 373.065 150.459C373.435 150.336 373.749 150.174 374.009 149.974C374.273 149.773 374.485 149.552 374.645 149.311C374.804 149.064 374.916 148.818 374.979 148.572L374.993 148.511H373.558L373.53 148.565C373.476 148.693 373.373 148.823 373.223 148.955C373.077 149.087 372.888 149.199 372.655 149.29C372.427 149.377 372.154 149.42 371.835 149.42C371.42 149.42 371.06 149.329 370.755 149.146C370.454 148.964 370.222 148.7 370.058 148.354C369.894 148.007 369.812 147.59 369.812 147.103V146.508C369.812 145.997 369.894 145.567 370.058 145.216C370.226 144.865 370.454 144.601 370.741 144.423C371.033 144.241 371.363 144.149 371.732 144.149C372.102 144.149 372.427 144.236 372.71 144.409C372.993 144.582 373.214 144.844 373.373 145.195C373.537 145.542 373.619 145.979 373.619 146.508V147.103L374.33 146.118H369.066V147.178H375.068V146.658C375.068 145.911 374.934 145.259 374.665 144.703C374.396 144.143 374.011 143.707 373.51 143.397C373.013 143.088 372.418 142.933 371.726 142.933C371.037 142.933 370.436 143.094 369.921 143.418C369.41 143.742 369.014 144.193 368.731 144.771C368.453 145.35 368.314 146.027 368.314 146.802V146.809C368.314 147.592 368.453 148.271 368.731 148.846C369.014 149.42 369.415 149.864 369.935 150.179C370.454 150.489 371.076 150.644 371.801 150.644ZM378.712 150.5H380.298L382.978 143.076H381.412L379.566 148.996H379.457L377.604 143.076H376.025L378.712 150.5ZM387.305 150.644C387.783 150.644 388.205 150.582 388.569 150.459C388.938 150.336 389.253 150.174 389.513 149.974C389.777 149.773 389.989 149.552 390.148 149.311C390.308 149.064 390.42 148.818 390.483 148.572L390.497 148.511H389.062L389.034 148.565C388.979 148.693 388.877 148.823 388.727 148.955C388.581 149.087 388.392 149.199 388.159 149.29C387.931 149.377 387.658 149.42 387.339 149.42C386.924 149.42 386.564 149.329 386.259 149.146C385.958 148.964 385.726 148.7 385.562 148.354C385.397 148.007 385.315 147.59 385.315 147.103V146.508C385.315 145.997 385.397 145.567 385.562 145.216C385.73 144.865 385.958 144.601 386.245 144.423C386.537 144.241 386.867 144.149 387.236 144.149C387.605 144.149 387.931 144.236 388.214 144.409C388.496 144.582 388.717 144.844 388.877 145.195C389.041 145.542 389.123 145.979 389.123 146.508V147.103L389.834 146.118H384.57V147.178H390.572V146.658C390.572 145.911 390.438 145.259 390.169 144.703C389.9 144.143 389.515 143.707 389.014 143.397C388.517 143.088 387.922 142.933 387.229 142.933C386.541 142.933 385.94 143.094 385.425 143.418C384.914 143.742 384.518 144.193 384.235 144.771C383.957 145.35 383.818 146.027 383.818 146.802V146.809C383.818 147.592 383.957 148.271 384.235 148.846C384.518 149.42 384.919 149.864 385.438 150.179C385.958 150.489 386.58 150.644 387.305 150.644ZM392.404 150.5H393.888V140.164H392.404V150.5Z" fill="#707070"/>
<rect width="844" height="117" transform="translate(194 233)" fill="#FFEDAD"/>
<rect x="214" y="261.5" width="60" height="60" rx="5" fill="#FFB762"/>
<rect x="234" y="281.5" width="20" height="20" rx="3" fill="#FF8B03"/>
<path d="M298.411 311.33C299.721 311.33 300.885 311.065 301.902 310.536C302.927 310.007 303.733 309.279 304.319 308.351C304.905 307.423 305.198 306.357 305.198 305.153V305.128C305.198 304.022 304.954 303.041 304.465 302.187C303.985 301.324 303.314 300.644 302.451 300.148C301.597 299.652 300.596 299.403 299.448 299.403C298.659 299.403 297.947 299.529 297.312 299.782C296.677 300.026 296.136 300.36 295.688 300.783C295.249 301.198 294.911 301.674 294.675 302.211H294.395V305.226H295.139V305.214C295.139 304.612 295.282 304.079 295.566 303.615C295.859 303.151 296.25 302.789 296.738 302.528C297.235 302.26 297.788 302.125 298.398 302.125C299.009 302.125 299.554 302.26 300.034 302.528C300.522 302.797 300.905 303.167 301.182 303.639C301.458 304.103 301.597 304.644 301.597 305.263V305.287C301.597 305.865 301.45 306.39 301.157 306.862C300.872 307.334 300.486 307.708 299.998 307.985C299.509 308.262 298.964 308.4 298.362 308.4C297.76 308.4 297.214 308.262 296.726 307.985C296.238 307.7 295.851 307.318 295.566 306.837C295.282 306.357 295.139 305.82 295.139 305.226L294.59 302.296C294.59 302.174 294.59 302.052 294.59 301.93C294.59 301.808 294.594 301.69 294.602 301.576C294.651 300.526 294.814 299.582 295.09 298.744C295.367 297.898 295.778 297.226 296.323 296.73C296.877 296.234 297.581 295.985 298.435 295.985C298.915 295.985 299.342 296.063 299.717 296.217C300.091 296.364 300.409 296.571 300.669 296.84C300.938 297.108 301.141 297.422 301.279 297.78L301.328 297.877H304.966L304.941 297.768C304.762 296.856 304.376 296.046 303.782 295.338C303.188 294.63 302.431 294.073 301.511 293.666C300.6 293.259 299.574 293.056 298.435 293.056C296.913 293.056 295.599 293.426 294.492 294.167C293.394 294.907 292.547 295.969 291.953 297.353C291.359 298.736 291.062 300.396 291.062 302.333V302.357C291.062 303.855 291.245 305.165 291.611 306.288C291.978 307.411 292.49 308.347 293.149 309.096C293.817 309.836 294.594 310.394 295.481 310.768C296.376 311.142 297.353 311.33 298.411 311.33ZM314.475 311.33C315.818 311.33 316.998 311.069 318.015 310.548C319.041 310.028 319.838 309.303 320.408 308.375C320.986 307.44 321.274 306.361 321.274 305.141V305.116C321.274 304.001 321.026 303.013 320.53 302.15C320.033 301.287 319.354 300.612 318.491 300.124C317.629 299.627 316.64 299.379 315.525 299.379C314.638 299.379 313.848 299.55 313.157 299.892C312.473 300.225 311.948 300.689 311.582 301.283H311.484L311.924 296.315H320.2V293.385H308.994L308.188 303.737H311.387C311.493 303.55 311.615 303.375 311.753 303.212C311.899 303.049 312.058 302.899 312.229 302.76C312.53 302.516 312.872 302.333 313.254 302.211C313.637 302.081 314.052 302.016 314.5 302.016C315.134 302.016 315.696 302.15 316.184 302.418C316.672 302.687 317.055 303.061 317.332 303.542C317.616 304.014 317.759 304.559 317.759 305.177V305.202C317.759 305.828 317.616 306.386 317.332 306.874C317.055 307.354 316.672 307.729 316.184 307.997C315.696 308.266 315.13 308.4 314.487 308.4C313.926 308.4 313.421 308.298 312.974 308.095C312.526 307.883 312.156 307.602 311.863 307.252C311.578 306.894 311.391 306.496 311.301 306.056L311.289 305.971H307.883L307.896 306.154C307.969 307.13 308.282 308.009 308.835 308.791C309.397 309.572 310.158 310.19 311.118 310.646C312.078 311.102 313.197 311.33 314.475 311.33ZM327.366 302.541C328.643 302.541 329.644 302.121 330.369 301.283C331.093 300.445 331.455 299.31 331.455 297.877V297.865C331.455 296.425 331.093 295.29 330.369 294.459C329.644 293.629 328.643 293.214 327.366 293.214C326.096 293.214 325.095 293.629 324.363 294.459C323.639 295.29 323.276 296.425 323.276 297.865V297.877C323.276 299.31 323.639 300.445 324.363 301.283C325.095 302.121 326.096 302.541 327.366 302.541ZM327.366 300.514C326.869 300.514 326.487 300.29 326.218 299.843C325.95 299.387 325.815 298.732 325.815 297.877V297.865C325.815 297.011 325.95 296.36 326.218 295.912C326.487 295.465 326.869 295.241 327.366 295.241C327.862 295.241 328.245 295.465 328.513 295.912C328.782 296.36 328.916 297.011 328.916 297.865V297.877C328.916 298.732 328.782 299.387 328.513 299.843C328.245 300.29 327.862 300.514 327.366 300.514ZM329.307 311L340.537 293.385H337.815L326.572 311H329.307ZM339.744 311.171C341.013 311.171 342.01 310.756 342.734 309.926C343.467 309.088 343.833 307.948 343.833 306.508V306.496C343.833 305.063 343.467 303.932 342.734 303.102C342.01 302.264 341.013 301.845 339.744 301.845C338.474 301.845 337.473 302.264 336.741 303.102C336.008 303.932 335.642 305.063 335.642 306.496V306.508C335.642 307.948 336.008 309.088 336.741 309.926C337.473 310.756 338.474 311.171 339.744 311.171ZM339.744 309.157C339.247 309.157 338.865 308.929 338.596 308.473C338.328 308.017 338.193 307.366 338.193 306.52V306.508C338.193 305.653 338.328 305.002 338.596 304.555C338.865 304.099 339.247 303.871 339.744 303.871C340.24 303.871 340.618 304.099 340.879 304.555C341.147 305.002 341.282 305.653 341.282 306.508V306.52C341.282 307.366 341.147 308.017 340.879 308.473C340.618 308.929 340.24 309.157 339.744 309.157Z" fill="black"/>
<path d="M292.003 275.63H295.079C295.726 275.63 296.294 275.495 296.781 275.227C297.273 274.953 297.659 274.573 297.937 274.085C298.215 273.593 298.354 273.025 298.354 272.383V272.369C298.354 271.727 298.215 271.164 297.937 270.681C297.659 270.193 297.273 269.815 296.781 269.546C296.294 269.272 295.726 269.136 295.079 269.136H292.003V270.428H294.696C295.362 270.428 295.877 270.599 296.241 270.94C296.61 271.282 296.795 271.763 296.795 272.383V272.396C296.795 273.007 296.61 273.486 296.241 273.832C295.877 274.174 295.362 274.345 294.696 274.345H292.003V275.63ZM291.237 279H292.769V269.136H291.237V279ZM303.098 279.144C303.827 279.144 304.451 278.989 304.971 278.679C305.495 278.369 305.898 277.927 306.181 277.353C306.468 276.774 306.611 276.088 306.611 275.295V275.281C306.611 274.484 306.468 273.798 306.181 273.224C305.898 272.645 305.495 272.203 304.971 271.897C304.447 271.588 303.822 271.433 303.098 271.433C302.378 271.433 301.753 271.588 301.225 271.897C300.701 272.207 300.295 272.649 300.008 273.224C299.725 273.798 299.584 274.484 299.584 275.281V275.295C299.584 276.088 299.725 276.774 300.008 277.353C300.29 277.927 300.694 278.369 301.218 278.679C301.746 278.989 302.373 279.144 303.098 279.144ZM303.098 277.899C302.674 277.899 302.314 277.797 302.018 277.592C301.721 277.382 301.493 277.084 301.334 276.696C301.179 276.309 301.102 275.842 301.102 275.295V275.281C301.102 274.73 301.179 274.26 301.334 273.873C301.493 273.486 301.721 273.189 302.018 272.984C302.314 272.775 302.674 272.67 303.098 272.67C303.521 272.67 303.882 272.775 304.178 272.984C304.474 273.189 304.7 273.486 304.854 273.873C305.009 274.26 305.087 274.73 305.087 275.281V275.295C305.087 275.842 305.009 276.309 304.854 276.696C304.7 277.084 304.474 277.382 304.178 277.592C303.882 277.797 303.521 277.899 303.098 277.899ZM311.075 279.144C311.668 279.144 312.194 279.048 312.654 278.856C313.119 278.66 313.486 278.389 313.755 278.043C314.024 277.692 314.158 277.289 314.158 276.833V276.819C314.158 276.282 313.983 275.853 313.632 275.534C313.285 275.215 312.757 274.971 312.046 274.803L310.863 274.536C310.449 274.436 310.15 274.311 309.968 274.16C309.785 274.01 309.694 273.818 309.694 273.586V273.572C309.694 273.372 309.754 273.199 309.872 273.053C309.995 272.902 310.161 272.786 310.371 272.704C310.581 272.618 310.82 272.574 311.089 272.574C311.508 272.574 311.845 272.661 312.101 272.834C312.36 273.007 312.524 273.224 312.593 273.483V273.497H314.015V273.49C313.969 273.085 313.823 272.729 313.577 272.424C313.331 272.114 312.996 271.872 312.572 271.699C312.153 271.521 311.661 271.433 311.096 271.433C310.535 271.433 310.036 271.528 309.599 271.72C309.166 271.907 308.826 272.169 308.58 272.506C308.334 272.839 308.211 273.221 308.211 273.654V273.661C308.211 274.203 308.377 274.641 308.71 274.974C309.047 275.302 309.564 275.546 310.262 275.705L311.451 275.979C311.88 276.079 312.187 276.209 312.374 276.368C312.561 276.528 312.654 276.724 312.654 276.956V276.97C312.654 277.17 312.588 277.348 312.456 277.503C312.324 277.658 312.142 277.779 311.909 277.865C311.681 277.952 311.415 277.995 311.109 277.995C310.667 277.995 310.312 277.909 310.043 277.735C309.774 277.562 309.592 277.337 309.496 277.059V277.045H308.006V277.059C308.051 277.473 308.204 277.838 308.464 278.152C308.724 278.462 309.075 278.706 309.517 278.884C309.959 279.057 310.478 279.144 311.075 279.144ZM318.67 279.048C318.816 279.048 318.957 279.039 319.094 279.021C319.23 279.007 319.358 278.991 319.477 278.973V277.783C319.372 277.792 319.278 277.799 319.196 277.804C319.119 277.808 319.025 277.811 318.916 277.811C318.547 277.811 318.283 277.724 318.123 277.551C317.964 277.373 317.884 277.084 317.884 276.683V272.745H319.477V271.576H317.884V269.703H316.366V271.576H315.204V272.745H316.366V277.045C316.366 277.756 316.546 278.269 316.906 278.583C317.271 278.893 317.859 279.048 318.67 279.048ZM325.198 279H326.6V271.768H327.352L325.759 269.409L329.594 279H330.729L334.57 269.409L332.971 271.768H333.729V279H335.131V269.136H333.36L330.223 276.997H330.106L326.969 269.136H325.198V279ZM337.448 279H338.938V271.576H337.448V279ZM338.2 270.25C338.455 270.25 338.674 270.159 338.856 269.977C339.039 269.794 339.13 269.576 339.13 269.32C339.13 269.065 339.039 268.849 338.856 268.671C338.674 268.489 338.455 268.397 338.2 268.397C337.945 268.397 337.726 268.489 337.544 268.671C337.362 268.849 337.271 269.065 337.271 269.32C337.271 269.576 337.362 269.794 337.544 269.977C337.726 270.159 337.945 270.25 338.2 270.25ZM343.792 279.144C344.384 279.144 344.911 279.048 345.371 278.856C345.836 278.66 346.203 278.389 346.472 278.043C346.741 277.692 346.875 277.289 346.875 276.833V276.819C346.875 276.282 346.7 275.853 346.349 275.534C346.002 275.215 345.474 274.971 344.763 274.803L343.58 274.536C343.165 274.436 342.867 274.311 342.685 274.16C342.502 274.01 342.411 273.818 342.411 273.586V273.572C342.411 273.372 342.47 273.199 342.589 273.053C342.712 272.902 342.878 272.786 343.088 272.704C343.298 272.618 343.537 272.574 343.806 272.574C344.225 272.574 344.562 272.661 344.817 272.834C345.077 273.007 345.241 273.224 345.31 273.483V273.497H346.731V273.49C346.686 273.085 346.54 272.729 346.294 272.424C346.048 272.114 345.713 271.872 345.289 271.699C344.87 271.521 344.378 271.433 343.812 271.433C343.252 271.433 342.753 271.528 342.315 271.72C341.882 271.907 341.543 272.169 341.297 272.506C341.051 272.839 340.928 273.221 340.928 273.654V273.661C340.928 274.203 341.094 274.641 341.427 274.974C341.764 275.302 342.281 275.546 342.979 275.705L344.168 275.979C344.596 276.079 344.904 276.209 345.091 276.368C345.278 276.528 345.371 276.724 345.371 276.956V276.97C345.371 277.17 345.305 277.348 345.173 277.503C345.041 277.658 344.858 277.779 344.626 277.865C344.398 277.952 344.132 277.995 343.826 277.995C343.384 277.995 343.029 277.909 342.76 277.735C342.491 277.562 342.309 277.337 342.213 277.059V277.045H340.723V277.059C340.768 277.473 340.921 277.838 341.181 278.152C341.44 278.462 341.791 278.706 342.233 278.884C342.675 279.057 343.195 279.144 343.792 279.144ZM348.659 279H350.149V271.576H348.659V279ZM349.411 270.25C349.666 270.25 349.885 270.159 350.067 269.977C350.25 269.794 350.341 269.576 350.341 269.32C350.341 269.065 350.25 268.849 350.067 268.671C349.885 268.489 349.666 268.397 349.411 268.397C349.156 268.397 348.937 268.489 348.755 268.671C348.573 268.849 348.481 269.065 348.481 269.32C348.481 269.576 348.573 269.794 348.755 269.977C348.937 270.159 349.156 270.25 349.411 270.25ZM352.303 279H353.786V274.646C353.786 274.244 353.857 273.9 353.998 273.613C354.144 273.322 354.349 273.098 354.613 272.943C354.878 272.784 355.19 272.704 355.55 272.704C356.097 272.704 356.498 272.857 356.753 273.162C357.013 273.463 357.143 273.923 357.143 274.543V279H358.633V274.194C358.633 273.31 358.412 272.629 357.97 272.15C357.528 271.672 356.89 271.433 356.056 271.433C355.513 271.433 355.064 271.544 354.709 271.768C354.354 271.991 354.085 272.301 353.902 272.697H353.786V271.576H352.303V279ZM361.224 279H362.707V272.745H364.334V271.576H362.693V270.865C362.693 270.492 362.78 270.207 362.953 270.011C363.131 269.815 363.425 269.717 363.835 269.717C363.949 269.717 364.054 269.721 364.149 269.73C364.25 269.735 364.334 269.744 364.402 269.758V268.664C364.27 268.641 364.131 268.625 363.985 268.616C363.844 268.603 363.691 268.596 363.527 268.596C362.753 268.596 362.174 268.778 361.791 269.143C361.413 269.507 361.224 270.059 361.224 270.797V271.576H360V272.745H361.224V279ZM368.859 279.144C369.589 279.144 370.213 278.989 370.732 278.679C371.257 278.369 371.66 277.927 371.942 277.353C372.229 276.774 372.373 276.088 372.373 275.295V275.281C372.373 274.484 372.229 273.798 371.942 273.224C371.66 272.645 371.257 272.203 370.732 271.897C370.208 271.588 369.584 271.433 368.859 271.433C368.139 271.433 367.515 271.588 366.986 271.897C366.462 272.207 366.057 272.649 365.77 273.224C365.487 273.798 365.346 274.484 365.346 275.281V275.295C365.346 276.088 365.487 276.774 365.77 277.353C366.052 277.927 366.455 278.369 366.979 278.679C367.508 278.989 368.135 279.144 368.859 279.144ZM368.859 277.899C368.436 277.899 368.076 277.797 367.779 277.592C367.483 277.382 367.255 277.084 367.096 276.696C366.941 276.309 366.863 275.842 366.863 275.295V275.281C366.863 274.73 366.941 274.26 367.096 273.873C367.255 273.486 367.483 273.189 367.779 272.984C368.076 272.775 368.436 272.67 368.859 272.67C369.283 272.67 369.643 272.775 369.939 272.984C370.236 273.189 370.461 273.486 370.616 273.873C370.771 274.26 370.849 274.73 370.849 275.281V275.295C370.849 275.842 370.771 276.309 370.616 276.696C370.461 277.084 370.236 277.382 369.939 277.592C369.643 277.797 369.283 277.899 368.859 277.899ZM374.137 279H375.62V274.563C375.62 274.203 375.7 273.894 375.859 273.634C376.023 273.369 376.247 273.164 376.529 273.019C376.816 272.873 377.149 272.8 377.527 272.8C377.669 272.8 377.803 272.807 377.931 272.82C378.063 272.834 378.195 272.854 378.327 272.882V271.515C378.254 271.496 378.159 271.48 378.04 271.467C377.922 271.453 377.801 271.446 377.678 271.446C377.186 271.446 376.771 271.556 376.434 271.774C376.101 271.993 375.868 272.301 375.736 272.697H375.62V271.576H374.137V279ZM379.865 279H381.349V274.44C381.349 274.117 381.417 273.825 381.554 273.565C381.69 273.301 381.875 273.091 382.107 272.937C382.344 272.782 382.611 272.704 382.907 272.704C383.345 272.704 383.691 272.829 383.946 273.08C384.206 273.326 384.336 273.661 384.336 274.085V279H385.819V274.304C385.819 274.003 385.883 273.734 386.011 273.497C386.143 273.256 386.325 273.064 386.558 272.923C386.795 272.777 387.07 272.704 387.385 272.704C387.868 272.704 388.226 272.832 388.458 273.087C388.695 273.342 388.813 273.725 388.813 274.235V279H390.297V273.88C390.297 273.365 390.203 272.925 390.017 272.561C389.83 272.196 389.559 271.918 389.203 271.727C388.848 271.531 388.419 271.433 387.918 271.433C387.581 271.433 387.262 271.487 386.961 271.597C386.665 271.706 386.405 271.861 386.182 272.062C385.958 272.257 385.785 272.49 385.662 272.759H385.546C385.437 272.49 385.284 272.257 385.088 272.062C384.896 271.861 384.666 271.706 384.397 271.597C384.129 271.487 383.826 271.433 383.488 271.433C383.001 271.433 382.581 271.544 382.23 271.768C381.884 271.991 381.629 272.308 381.465 272.718H381.349V271.576H379.865V279ZM394.412 279.123C394.74 279.123 395.043 279.077 395.321 278.986C395.599 278.895 395.848 278.763 396.066 278.59C396.285 278.412 396.467 278.198 396.613 277.947H396.723V279H398.199V273.921C398.199 273.401 398.085 272.957 397.857 272.588C397.634 272.214 397.304 271.929 396.866 271.733C396.433 271.533 395.905 271.433 395.28 271.433C394.72 271.433 394.221 271.517 393.783 271.686C393.35 271.854 392.999 272.091 392.73 272.396C392.466 272.697 392.304 273.053 392.245 273.463L392.238 273.511H393.667L393.681 273.49C393.767 273.226 393.94 273.021 394.2 272.875C394.465 272.729 394.804 272.656 395.219 272.656C395.715 272.656 396.089 272.766 396.34 272.984C396.595 273.199 396.723 273.511 396.723 273.921V276.259C396.723 276.578 396.641 276.865 396.477 277.12C396.312 277.371 396.085 277.571 395.793 277.722C395.506 277.868 395.178 277.94 394.809 277.94C394.412 277.94 394.084 277.845 393.824 277.653C393.564 277.457 393.435 277.191 393.435 276.854V276.84C393.435 276.507 393.555 276.25 393.797 276.067C394.038 275.881 394.414 275.771 394.925 275.739L397.461 275.575V274.529L394.72 274.693C393.836 274.748 393.152 274.965 392.669 275.343C392.19 275.716 391.951 276.236 391.951 276.901V276.915C391.951 277.362 392.058 277.751 392.272 278.084C392.487 278.417 392.778 278.674 393.147 278.856C393.521 279.034 393.943 279.123 394.412 279.123ZM403.094 279.048C403.24 279.048 403.381 279.039 403.518 279.021C403.654 279.007 403.782 278.991 403.9 278.973V277.783C403.796 277.792 403.702 277.799 403.62 277.804C403.543 277.808 403.449 277.811 403.34 277.811C402.971 277.811 402.706 277.724 402.547 277.551C402.387 277.373 402.308 277.084 402.308 276.683V272.745H403.9V271.576H402.308V269.703H400.79V271.576H399.628V272.745H400.79V277.045C400.79 277.756 400.97 278.269 401.33 278.583C401.695 278.893 402.283 279.048 403.094 279.048ZM405.657 279H407.147V271.576H405.657V279ZM406.409 270.25C406.664 270.25 406.883 270.159 407.065 269.977C407.248 269.794 407.339 269.576 407.339 269.32C407.339 269.065 407.248 268.849 407.065 268.671C406.883 268.489 406.664 268.397 406.409 268.397C406.154 268.397 405.935 268.489 405.753 268.671C405.571 268.849 405.479 269.065 405.479 269.32C405.479 269.576 405.571 269.794 405.753 269.977C405.935 270.159 406.154 270.25 406.409 270.25ZM412.445 279.144C413.174 279.144 413.799 278.989 414.318 278.679C414.842 278.369 415.246 277.927 415.528 277.353C415.815 276.774 415.959 276.088 415.959 275.295V275.281C415.959 274.484 415.815 273.798 415.528 273.224C415.246 272.645 414.842 272.203 414.318 271.897C413.794 271.588 413.17 271.433 412.445 271.433C411.725 271.433 411.101 271.588 410.572 271.897C410.048 272.207 409.643 272.649 409.355 273.224C409.073 273.798 408.932 274.484 408.932 275.281V275.295C408.932 276.088 409.073 276.774 409.355 277.353C409.638 277.927 410.041 278.369 410.565 278.679C411.094 278.989 411.721 279.144 412.445 279.144ZM412.445 277.899C412.021 277.899 411.661 277.797 411.365 277.592C411.069 277.382 410.841 277.084 410.682 276.696C410.527 276.309 410.449 275.842 410.449 275.295V275.281C410.449 274.73 410.527 274.26 410.682 273.873C410.841 273.486 411.069 273.189 411.365 272.984C411.661 272.775 412.021 272.67 412.445 272.67C412.869 272.67 413.229 272.775 413.525 272.984C413.822 273.189 414.047 273.486 414.202 273.873C414.357 274.26 414.435 274.73 414.435 275.281V275.295C414.435 275.842 414.357 276.309 414.202 276.696C414.047 277.084 413.822 277.382 413.525 277.592C413.229 277.797 412.869 277.899 412.445 277.899ZM417.723 279H419.206V274.646C419.206 274.244 419.277 273.9 419.418 273.613C419.564 273.322 419.769 273.098 420.033 272.943C420.298 272.784 420.61 272.704 420.97 272.704C421.517 272.704 421.918 272.857 422.173 273.162C422.433 273.463 422.562 273.923 422.562 274.543V279H424.053V274.194C424.053 273.31 423.832 272.629 423.39 272.15C422.948 271.672 422.31 271.433 421.476 271.433C420.933 271.433 420.484 271.544 420.129 271.768C419.773 271.991 419.505 272.301 419.322 272.697H419.206V271.576H417.723V279ZM430.103 279H436.262V277.674H431.634V269.136H430.103V279ZM440.801 279.144C441.279 279.144 441.701 279.082 442.065 278.959C442.435 278.836 442.749 278.674 443.009 278.474C443.273 278.273 443.485 278.052 443.645 277.811C443.804 277.564 443.916 277.318 443.979 277.072L443.993 277.011H442.558L442.53 277.065C442.476 277.193 442.373 277.323 442.223 277.455C442.077 277.587 441.888 277.699 441.655 277.79C441.427 277.877 441.154 277.92 440.835 277.92C440.42 277.92 440.06 277.829 439.755 277.646C439.454 277.464 439.222 277.2 439.058 276.854C438.894 276.507 438.812 276.09 438.812 275.603V275.008C438.812 274.497 438.894 274.067 439.058 273.716C439.226 273.365 439.454 273.101 439.741 272.923C440.033 272.741 440.363 272.649 440.732 272.649C441.102 272.649 441.427 272.736 441.71 272.909C441.993 273.082 442.214 273.344 442.373 273.695C442.537 274.042 442.619 274.479 442.619 275.008V275.603L443.33 274.618H438.066V275.678H444.068V275.158C444.068 274.411 443.934 273.759 443.665 273.203C443.396 272.643 443.011 272.207 442.51 271.897C442.013 271.588 441.418 271.433 440.726 271.433C440.037 271.433 439.436 271.594 438.921 271.918C438.41 272.242 438.014 272.693 437.731 273.271C437.453 273.85 437.314 274.527 437.314 275.302V275.309C437.314 276.092 437.453 276.771 437.731 277.346C438.014 277.92 438.415 278.364 438.935 278.679C439.454 278.989 440.076 279.144 440.801 279.144ZM447.712 279H449.298L451.978 271.576H450.412L448.566 277.496H448.457L446.604 271.576H445.025L447.712 279ZM456.305 279.144C456.783 279.144 457.205 279.082 457.569 278.959C457.938 278.836 458.253 278.674 458.513 278.474C458.777 278.273 458.989 278.052 459.148 277.811C459.308 277.564 459.42 277.318 459.483 277.072L459.497 277.011H458.062L458.034 277.065C457.979 277.193 457.877 277.323 457.727 277.455C457.581 277.587 457.392 277.699 457.159 277.79C456.931 277.877 456.658 277.92 456.339 277.92C455.924 277.92 455.564 277.829 455.259 277.646C454.958 277.464 454.726 277.2 454.562 276.854C454.397 276.507 454.315 276.09 454.315 275.603V275.008C454.315 274.497 454.397 274.067 454.562 273.716C454.73 273.365 454.958 273.101 455.245 272.923C455.537 272.741 455.867 272.649 456.236 272.649C456.605 272.649 456.931 272.736 457.214 272.909C457.496 273.082 457.717 273.344 457.877 273.695C458.041 274.042 458.123 274.479 458.123 275.008V275.603L458.834 274.618H453.57V275.678H459.572V275.158C459.572 274.411 459.438 273.759 459.169 273.203C458.9 272.643 458.515 272.207 458.014 271.897C457.517 271.588 456.922 271.433 456.229 271.433C455.541 271.433 454.94 271.594 454.425 271.918C453.914 272.242 453.518 272.693 453.235 273.271C452.957 273.85 452.818 274.527 452.818 275.302V275.309C452.818 276.092 452.957 276.771 453.235 277.346C453.518 277.92 453.919 278.364 454.438 278.679C454.958 278.989 455.58 279.144 456.305 279.144ZM461.404 279H462.888V268.664H461.404V279Z" fill="#707070"/>
<rect width="748" height="111" transform="translate(290 364)" fill="#FFF2F2"/>
<rect x="310" y="389.5" width="60" height="60" rx="5" fill="#F3CECB"/>
<rect x="330" y="409.5" width="20" height="20" rx="3" fill="#C13636"/>
<path d="M391.701 439H395.363V421.385H391.701L387.147 424.547V427.831L391.615 424.779H391.701V439ZM406.361 439.33C407.842 439.33 409.116 438.959 410.182 438.219C411.248 437.47 412.066 436.416 412.636 435.057C413.214 433.69 413.502 432.07 413.502 430.199V430.174C413.502 428.303 413.214 426.687 412.636 425.328C412.066 423.961 411.248 422.907 410.182 422.167C409.116 421.426 407.842 421.056 406.361 421.056C404.872 421.056 403.594 421.426 402.528 422.167C401.462 422.907 400.64 423.961 400.062 425.328C399.493 426.687 399.208 428.303 399.208 430.174V430.199C399.208 432.07 399.493 433.69 400.062 435.057C400.64 436.416 401.462 437.47 402.528 438.219C403.594 438.959 404.872 439.33 406.361 439.33ZM406.361 436.388C405.629 436.388 405.006 436.144 404.494 435.655C403.989 435.159 403.603 434.451 403.334 433.531C403.065 432.604 402.931 431.493 402.931 430.199V430.174C402.931 428.88 403.065 427.774 403.334 426.854C403.603 425.934 403.989 425.23 404.494 424.742C405.006 424.254 405.629 424.01 406.361 424.01C407.086 424.01 407.7 424.254 408.205 424.742C408.717 425.23 409.108 425.934 409.376 426.854C409.645 427.774 409.779 428.88 409.779 430.174V430.199C409.779 431.493 409.645 432.604 409.376 433.531C409.108 434.451 408.717 435.159 408.205 435.655C407.7 436.144 407.086 436.388 406.361 436.388ZM422.865 439.33C424.346 439.33 425.62 438.959 426.686 438.219C427.752 437.47 428.57 436.416 429.14 435.057C429.717 433.69 430.006 432.07 430.006 430.199V430.174C430.006 428.303 429.717 426.687 429.14 425.328C428.57 423.961 427.752 422.907 426.686 422.167C425.62 421.426 424.346 421.056 422.865 421.056C421.376 421.056 420.098 421.426 419.032 422.167C417.966 422.907 417.144 423.961 416.566 425.328C415.997 426.687 415.712 428.303 415.712 430.174V430.199C415.712 432.07 415.997 433.69 416.566 435.057C417.144 436.416 417.966 437.47 419.032 438.219C420.098 438.959 421.376 439.33 422.865 439.33ZM422.865 436.388C422.133 436.388 421.51 436.144 420.998 435.655C420.493 435.159 420.106 434.451 419.838 433.531C419.569 432.604 419.435 431.493 419.435 430.199V430.174C419.435 428.88 419.569 427.774 419.838 426.854C420.106 425.934 420.493 425.23 420.998 424.742C421.51 424.254 422.133 424.01 422.865 424.01C423.59 424.01 424.204 424.254 424.708 424.742C425.221 425.23 425.612 425.934 425.88 426.854C426.149 427.774 426.283 428.88 426.283 430.174V430.199C426.283 431.493 426.149 432.604 425.88 433.531C425.612 434.451 425.221 435.159 424.708 435.655C424.204 436.144 423.59 436.388 422.865 436.388ZM436.305 430.541C437.583 430.541 438.584 430.121 439.308 429.283C440.032 428.445 440.395 427.31 440.395 425.877V425.865C440.395 424.425 440.032 423.29 439.308 422.459C438.584 421.629 437.583 421.214 436.305 421.214C435.036 421.214 434.035 421.629 433.302 422.459C432.578 423.29 432.216 424.425 432.216 425.865V425.877C432.216 427.31 432.578 428.445 433.302 429.283C434.035 430.121 435.036 430.541 436.305 430.541ZM436.305 428.514C435.809 428.514 435.426 428.29 435.158 427.843C434.889 427.387 434.755 426.732 434.755 425.877V425.865C434.755 425.011 434.889 424.36 435.158 423.912C435.426 423.465 435.809 423.241 436.305 423.241C436.802 423.241 437.184 423.465 437.453 423.912C437.721 424.36 437.855 425.011 437.855 425.865V425.877C437.855 426.732 437.721 427.387 437.453 427.843C437.184 428.29 436.802 428.514 436.305 428.514ZM438.246 439L449.477 421.385H446.754L435.512 439H438.246ZM448.683 439.171C449.953 439.171 450.95 438.756 451.674 437.926C452.406 437.088 452.772 435.948 452.772 434.508V434.496C452.772 433.063 452.406 431.932 451.674 431.102C450.95 430.264 449.953 429.845 448.683 429.845C447.414 429.845 446.413 430.264 445.68 431.102C444.948 431.932 444.582 433.063 444.582 434.496V434.508C444.582 435.948 444.948 437.088 445.68 437.926C446.413 438.756 447.414 439.171 448.683 439.171ZM448.683 437.157C448.187 437.157 447.804 436.929 447.536 436.473C447.267 436.017 447.133 435.366 447.133 434.52V434.508C447.133 433.653 447.267 433.002 447.536 432.555C447.804 432.099 448.187 431.871 448.683 431.871C449.18 431.871 449.558 432.099 449.818 432.555C450.087 433.002 450.221 433.653 450.221 434.508V434.52C450.221 435.366 450.087 436.017 449.818 436.473C449.558 436.929 449.18 437.157 448.683 437.157Z" fill="black"/>
<path d="M388.003 403.63H391.079C391.726 403.63 392.294 403.495 392.781 403.227C393.273 402.953 393.659 402.573 393.937 402.085C394.215 401.593 394.354 401.025 394.354 400.383V400.369C394.354 399.727 394.215 399.164 393.937 398.681C393.659 398.193 393.273 397.815 392.781 397.546C392.294 397.272 391.726 397.136 391.079 397.136H388.003V398.428H390.696C391.362 398.428 391.877 398.599 392.241 398.94C392.61 399.282 392.795 399.763 392.795 400.383V400.396C392.795 401.007 392.61 401.486 392.241 401.832C391.877 402.174 391.362 402.345 390.696 402.345H388.003V403.63ZM387.237 407H388.769V397.136H387.237V407ZM399.098 407.144C399.827 407.144 400.451 406.989 400.971 406.679C401.495 406.369 401.898 405.927 402.181 405.353C402.468 404.774 402.611 404.088 402.611 403.295V403.281C402.611 402.484 402.468 401.798 402.181 401.224C401.898 400.645 401.495 400.203 400.971 399.897C400.447 399.588 399.822 399.433 399.098 399.433C398.378 399.433 397.753 399.588 397.225 399.897C396.701 400.207 396.295 400.649 396.008 401.224C395.725 401.798 395.584 402.484 395.584 403.281V403.295C395.584 404.088 395.725 404.774 396.008 405.353C396.29 405.927 396.694 406.369 397.218 406.679C397.746 406.989 398.373 407.144 399.098 407.144ZM399.098 405.899C398.674 405.899 398.314 405.797 398.018 405.592C397.721 405.382 397.493 405.084 397.334 404.696C397.179 404.309 397.102 403.842 397.102 403.295V403.281C397.102 402.73 397.179 402.26 397.334 401.873C397.493 401.486 397.721 401.189 398.018 400.984C398.314 400.775 398.674 400.67 399.098 400.67C399.521 400.67 399.882 400.775 400.178 400.984C400.474 401.189 400.7 401.486 400.854 401.873C401.009 402.26 401.087 402.73 401.087 403.281V403.295C401.087 403.842 401.009 404.309 400.854 404.696C400.7 405.084 400.474 405.382 400.178 405.592C399.882 405.797 399.521 405.899 399.098 405.899ZM407.075 407.144C407.668 407.144 408.194 407.048 408.654 406.856C409.119 406.66 409.486 406.389 409.755 406.043C410.024 405.692 410.158 405.289 410.158 404.833V404.819C410.158 404.282 409.983 403.853 409.632 403.534C409.285 403.215 408.757 402.971 408.046 402.803L406.863 402.536C406.449 402.436 406.15 402.311 405.968 402.16C405.785 402.01 405.694 401.818 405.694 401.586V401.572C405.694 401.372 405.754 401.199 405.872 401.053C405.995 400.902 406.161 400.786 406.371 400.704C406.581 400.618 406.82 400.574 407.089 400.574C407.508 400.574 407.845 400.661 408.101 400.834C408.36 401.007 408.524 401.224 408.593 401.483V401.497H410.015V401.49C409.969 401.085 409.823 400.729 409.577 400.424C409.331 400.114 408.996 399.872 408.572 399.699C408.153 399.521 407.661 399.433 407.096 399.433C406.535 399.433 406.036 399.528 405.599 399.72C405.166 399.907 404.826 400.169 404.58 400.506C404.334 400.839 404.211 401.221 404.211 401.654V401.661C404.211 402.203 404.377 402.641 404.71 402.974C405.047 403.302 405.564 403.546 406.262 403.705L407.451 403.979C407.88 404.079 408.187 404.209 408.374 404.368C408.561 404.528 408.654 404.724 408.654 404.956V404.97C408.654 405.17 408.588 405.348 408.456 405.503C408.324 405.658 408.142 405.779 407.909 405.865C407.681 405.952 407.415 405.995 407.109 405.995C406.667 405.995 406.312 405.909 406.043 405.735C405.774 405.562 405.592 405.337 405.496 405.059V405.045H404.006V405.059C404.051 405.473 404.204 405.838 404.464 406.152C404.724 406.462 405.075 406.706 405.517 406.884C405.959 407.057 406.478 407.144 407.075 407.144ZM414.67 407.048C414.816 407.048 414.957 407.039 415.094 407.021C415.23 407.007 415.358 406.991 415.477 406.973V405.783C415.372 405.792 415.278 405.799 415.196 405.804C415.119 405.808 415.025 405.811 414.916 405.811C414.547 405.811 414.283 405.724 414.123 405.551C413.964 405.373 413.884 405.084 413.884 404.683V400.745H415.477V399.576H413.884V397.703H412.366V399.576H411.204V400.745H412.366V405.045C412.366 405.756 412.546 406.269 412.906 406.583C413.271 406.893 413.859 407.048 414.67 407.048ZM421.198 407H422.6V399.768H423.352L421.759 397.409L425.594 407H426.729L430.57 397.409L428.971 399.768H429.729V407H431.131V397.136H429.36L426.223 404.997H426.106L422.969 397.136H421.198V407ZM433.448 407H434.938V399.576H433.448V407ZM434.2 398.25C434.455 398.25 434.674 398.159 434.856 397.977C435.039 397.794 435.13 397.576 435.13 397.32C435.13 397.065 435.039 396.849 434.856 396.671C434.674 396.489 434.455 396.397 434.2 396.397C433.945 396.397 433.726 396.489 433.544 396.671C433.362 396.849 433.271 397.065 433.271 397.32C433.271 397.576 433.362 397.794 433.544 397.977C433.726 398.159 433.945 398.25 434.2 398.25ZM439.792 407.144C440.384 407.144 440.911 407.048 441.371 406.856C441.836 406.66 442.203 406.389 442.472 406.043C442.741 405.692 442.875 405.289 442.875 404.833V404.819C442.875 404.282 442.7 403.853 442.349 403.534C442.002 403.215 441.474 402.971 440.763 402.803L439.58 402.536C439.165 402.436 438.867 402.311 438.685 402.16C438.502 402.01 438.411 401.818 438.411 401.586V401.572C438.411 401.372 438.47 401.199 438.589 401.053C438.712 400.902 438.878 400.786 439.088 400.704C439.298 400.618 439.537 400.574 439.806 400.574C440.225 400.574 440.562 400.661 440.817 400.834C441.077 401.007 441.241 401.224 441.31 401.483V401.497H442.731V401.49C442.686 401.085 442.54 400.729 442.294 400.424C442.048 400.114 441.713 399.872 441.289 399.699C440.87 399.521 440.378 399.433 439.812 399.433C439.252 399.433 438.753 399.528 438.315 399.72C437.882 399.907 437.543 400.169 437.297 400.506C437.051 400.839 436.928 401.221 436.928 401.654V401.661C436.928 402.203 437.094 402.641 437.427 402.974C437.764 403.302 438.281 403.546 438.979 403.705L440.168 403.979C440.596 404.079 440.904 404.209 441.091 404.368C441.278 404.528 441.371 404.724 441.371 404.956V404.97C441.371 405.17 441.305 405.348 441.173 405.503C441.041 405.658 440.858 405.779 440.626 405.865C440.398 405.952 440.132 405.995 439.826 405.995C439.384 405.995 439.029 405.909 438.76 405.735C438.491 405.562 438.309 405.337 438.213 405.059V405.045H436.723V405.059C436.768 405.473 436.921 405.838 437.181 406.152C437.44 406.462 437.791 406.706 438.233 406.884C438.675 407.057 439.195 407.144 439.792 407.144ZM444.659 407H446.149V399.576H444.659V407ZM445.411 398.25C445.666 398.25 445.885 398.159 446.067 397.977C446.25 397.794 446.341 397.576 446.341 397.32C446.341 397.065 446.25 396.849 446.067 396.671C445.885 396.489 445.666 396.397 445.411 396.397C445.156 396.397 444.937 396.489 444.755 396.671C444.573 396.849 444.481 397.065 444.481 397.32C444.481 397.576 444.573 397.794 444.755 397.977C444.937 398.159 445.156 398.25 445.411 398.25ZM448.303 407H449.786V402.646C449.786 402.244 449.857 401.9 449.998 401.613C450.144 401.322 450.349 401.098 450.613 400.943C450.878 400.784 451.19 400.704 451.55 400.704C452.097 400.704 452.498 400.857 452.753 401.162C453.013 401.463 453.143 401.923 453.143 402.543V407H454.633V402.194C454.633 401.31 454.412 400.629 453.97 400.15C453.528 399.672 452.89 399.433 452.056 399.433C451.513 399.433 451.064 399.544 450.709 399.768C450.354 399.991 450.085 400.301 449.902 400.697H449.786V399.576H448.303V407ZM457.224 407H458.707V400.745H460.334V399.576H458.693V398.865C458.693 398.492 458.78 398.207 458.953 398.011C459.131 397.815 459.425 397.717 459.835 397.717C459.949 397.717 460.054 397.721 460.149 397.73C460.25 397.735 460.334 397.744 460.402 397.758V396.664C460.27 396.641 460.131 396.625 459.985 396.616C459.844 396.603 459.691 396.596 459.527 396.596C458.753 396.596 458.174 396.778 457.791 397.143C457.413 397.507 457.224 398.059 457.224 398.797V399.576H456V400.745H457.224V407ZM464.859 407.144C465.589 407.144 466.213 406.989 466.732 406.679C467.257 406.369 467.66 405.927 467.942 405.353C468.229 404.774 468.373 404.088 468.373 403.295V403.281C468.373 402.484 468.229 401.798 467.942 401.224C467.66 400.645 467.257 400.203 466.732 399.897C466.208 399.588 465.584 399.433 464.859 399.433C464.139 399.433 463.515 399.588 462.986 399.897C462.462 400.207 462.057 400.649 461.77 401.224C461.487 401.798 461.346 402.484 461.346 403.281V403.295C461.346 404.088 461.487 404.774 461.77 405.353C462.052 405.927 462.455 406.369 462.979 406.679C463.508 406.989 464.135 407.144 464.859 407.144ZM464.859 405.899C464.436 405.899 464.076 405.797 463.779 405.592C463.483 405.382 463.255 405.084 463.096 404.696C462.941 404.309 462.863 403.842 462.863 403.295V403.281C462.863 402.73 462.941 402.26 463.096 401.873C463.255 401.486 463.483 401.189 463.779 400.984C464.076 400.775 464.436 400.67 464.859 400.67C465.283 400.67 465.643 400.775 465.939 400.984C466.236 401.189 466.461 401.486 466.616 401.873C466.771 402.26 466.849 402.73 466.849 403.281V403.295C466.849 403.842 466.771 404.309 466.616 404.696C466.461 405.084 466.236 405.382 465.939 405.592C465.643 405.797 465.283 405.899 464.859 405.899ZM470.137 407H471.62V402.563C471.62 402.203 471.7 401.894 471.859 401.634C472.023 401.369 472.247 401.164 472.529 401.019C472.816 400.873 473.149 400.8 473.527 400.8C473.669 400.8 473.803 400.807 473.931 400.82C474.063 400.834 474.195 400.854 474.327 400.882V399.515C474.254 399.496 474.159 399.48 474.04 399.467C473.922 399.453 473.801 399.446 473.678 399.446C473.186 399.446 472.771 399.556 472.434 399.774C472.101 399.993 471.868 400.301 471.736 400.697H471.62V399.576H470.137V407ZM475.865 407H477.349V402.44C477.349 402.117 477.417 401.825 477.554 401.565C477.69 401.301 477.875 401.091 478.107 400.937C478.344 400.782 478.611 400.704 478.907 400.704C479.345 400.704 479.691 400.829 479.946 401.08C480.206 401.326 480.336 401.661 480.336 402.085V407H481.819V402.304C481.819 402.003 481.883 401.734 482.011 401.497C482.143 401.256 482.325 401.064 482.558 400.923C482.795 400.777 483.07 400.704 483.385 400.704C483.868 400.704 484.226 400.832 484.458 401.087C484.695 401.342 484.813 401.725 484.813 402.235V407H486.297V401.88C486.297 401.365 486.203 400.925 486.017 400.561C485.83 400.196 485.559 399.918 485.203 399.727C484.848 399.531 484.419 399.433 483.918 399.433C483.581 399.433 483.262 399.487 482.961 399.597C482.665 399.706 482.405 399.861 482.182 400.062C481.958 400.257 481.785 400.49 481.662 400.759H481.546C481.437 400.49 481.284 400.257 481.088 400.062C480.896 399.861 480.666 399.706 480.397 399.597C480.129 399.487 479.826 399.433 479.488 399.433C479.001 399.433 478.581 399.544 478.23 399.768C477.884 399.991 477.629 400.308 477.465 400.718H477.349V399.576H475.865V407ZM490.412 407.123C490.74 407.123 491.043 407.077 491.321 406.986C491.599 406.895 491.848 406.763 492.066 406.59C492.285 406.412 492.467 406.198 492.613 405.947H492.723V407H494.199V401.921C494.199 401.401 494.085 400.957 493.857 400.588C493.634 400.214 493.304 399.929 492.866 399.733C492.433 399.533 491.905 399.433 491.28 399.433C490.72 399.433 490.221 399.517 489.783 399.686C489.35 399.854 488.999 400.091 488.73 400.396C488.466 400.697 488.304 401.053 488.245 401.463L488.238 401.511H489.667L489.681 401.49C489.767 401.226 489.94 401.021 490.2 400.875C490.465 400.729 490.804 400.656 491.219 400.656C491.715 400.656 492.089 400.766 492.34 400.984C492.595 401.199 492.723 401.511 492.723 401.921V404.259C492.723 404.578 492.641 404.865 492.477 405.12C492.312 405.371 492.085 405.571 491.793 405.722C491.506 405.868 491.178 405.94 490.809 405.94C490.412 405.94 490.084 405.845 489.824 405.653C489.564 405.457 489.435 405.191 489.435 404.854V404.84C489.435 404.507 489.555 404.25 489.797 404.067C490.038 403.881 490.414 403.771 490.925 403.739L493.461 403.575V402.529L490.72 402.693C489.836 402.748 489.152 402.965 488.669 403.343C488.19 403.716 487.951 404.236 487.951 404.901V404.915C487.951 405.362 488.058 405.751 488.272 406.084C488.487 406.417 488.778 406.674 489.147 406.856C489.521 407.034 489.943 407.123 490.412 407.123ZM499.094 407.048C499.24 407.048 499.381 407.039 499.518 407.021C499.654 407.007 499.782 406.991 499.9 406.973V405.783C499.796 405.792 499.702 405.799 499.62 405.804C499.543 405.808 499.449 405.811 499.34 405.811C498.971 405.811 498.706 405.724 498.547 405.551C498.387 405.373 498.308 405.084 498.308 404.683V400.745H499.9V399.576H498.308V397.703H496.79V399.576H495.628V400.745H496.79V405.045C496.79 405.756 496.97 406.269 497.33 406.583C497.695 406.893 498.283 407.048 499.094 407.048ZM501.657 407H503.147V399.576H501.657V407ZM502.409 398.25C502.664 398.25 502.883 398.159 503.065 397.977C503.248 397.794 503.339 397.576 503.339 397.32C503.339 397.065 503.248 396.849 503.065 396.671C502.883 396.489 502.664 396.397 502.409 396.397C502.154 396.397 501.935 396.489 501.753 396.671C501.571 396.849 501.479 397.065 501.479 397.32C501.479 397.576 501.571 397.794 501.753 397.977C501.935 398.159 502.154 398.25 502.409 398.25ZM508.445 407.144C509.174 407.144 509.799 406.989 510.318 406.679C510.842 406.369 511.246 405.927 511.528 405.353C511.815 404.774 511.959 404.088 511.959 403.295V403.281C511.959 402.484 511.815 401.798 511.528 401.224C511.246 400.645 510.842 400.203 510.318 399.897C509.794 399.588 509.17 399.433 508.445 399.433C507.725 399.433 507.101 399.588 506.572 399.897C506.048 400.207 505.643 400.649 505.355 401.224C505.073 401.798 504.932 402.484 504.932 403.281V403.295C504.932 404.088 505.073 404.774 505.355 405.353C505.638 405.927 506.041 406.369 506.565 406.679C507.094 406.989 507.721 407.144 508.445 407.144ZM508.445 405.899C508.021 405.899 507.661 405.797 507.365 405.592C507.069 405.382 506.841 405.084 506.682 404.696C506.527 404.309 506.449 403.842 506.449 403.295V403.281C506.449 402.73 506.527 402.26 506.682 401.873C506.841 401.486 507.069 401.189 507.365 400.984C507.661 400.775 508.021 400.67 508.445 400.67C508.869 400.67 509.229 400.775 509.525 400.984C509.822 401.189 510.047 401.486 510.202 401.873C510.357 402.26 510.435 402.73 510.435 403.281V403.295C510.435 403.842 510.357 404.309 510.202 404.696C510.047 405.084 509.822 405.382 509.525 405.592C509.229 405.797 508.869 405.899 508.445 405.899ZM513.723 407H515.206V402.646C515.206 402.244 515.277 401.9 515.418 401.613C515.564 401.322 515.769 401.098 516.033 400.943C516.298 400.784 516.61 400.704 516.97 400.704C517.517 400.704 517.918 400.857 518.173 401.162C518.433 401.463 518.562 401.923 518.562 402.543V407H520.053V402.194C520.053 401.31 519.832 400.629 519.39 400.15C518.948 399.672 518.31 399.433 517.476 399.433C516.933 399.433 516.484 399.544 516.129 399.768C515.773 399.991 515.505 400.301 515.322 400.697H515.206V399.576H513.723V407ZM526.103 407H532.262V405.674H527.634V397.136H526.103V407ZM536.801 407.144C537.279 407.144 537.701 407.082 538.065 406.959C538.435 406.836 538.749 406.674 539.009 406.474C539.273 406.273 539.485 406.052 539.645 405.811C539.804 405.564 539.916 405.318 539.979 405.072L539.993 405.011H538.558L538.53 405.065C538.476 405.193 538.373 405.323 538.223 405.455C538.077 405.587 537.888 405.699 537.655 405.79C537.427 405.877 537.154 405.92 536.835 405.92C536.42 405.92 536.06 405.829 535.755 405.646C535.454 405.464 535.222 405.2 535.058 404.854C534.894 404.507 534.812 404.09 534.812 403.603V403.008C534.812 402.497 534.894 402.067 535.058 401.716C535.226 401.365 535.454 401.101 535.741 400.923C536.033 400.741 536.363 400.649 536.732 400.649C537.102 400.649 537.427 400.736 537.71 400.909C537.993 401.082 538.214 401.344 538.373 401.695C538.537 402.042 538.619 402.479 538.619 403.008V403.603L539.33 402.618H534.066V403.678H540.068V403.158C540.068 402.411 539.934 401.759 539.665 401.203C539.396 400.643 539.011 400.207 538.51 399.897C538.013 399.588 537.418 399.433 536.726 399.433C536.037 399.433 535.436 399.594 534.921 399.918C534.41 400.242 534.014 400.693 533.731 401.271C533.453 401.85 533.314 402.527 533.314 403.302V403.309C533.314 404.092 533.453 404.771 533.731 405.346C534.014 405.92 534.415 406.364 534.935 406.679C535.454 406.989 536.076 407.144 536.801 407.144ZM543.712 407H545.298L547.978 399.576H546.412L544.566 405.496H544.457L542.604 399.576H541.025L543.712 407ZM552.305 407.144C552.783 407.144 553.205 407.082 553.569 406.959C553.938 406.836 554.253 406.674 554.513 406.474C554.777 406.273 554.989 406.052 555.148 405.811C555.308 405.564 555.42 405.318 555.483 405.072L555.497 405.011H554.062L554.034 405.065C553.979 405.193 553.877 405.323 553.727 405.455C553.581 405.587 553.392 405.699 553.159 405.79C552.931 405.877 552.658 405.92 552.339 405.92C551.924 405.92 551.564 405.829 551.259 405.646C550.958 405.464 550.726 405.2 550.562 404.854C550.397 404.507 550.315 404.09 550.315 403.603V403.008C550.315 402.497 550.397 402.067 550.562 401.716C550.73 401.365 550.958 401.101 551.245 400.923C551.537 400.741 551.867 400.649 552.236 400.649C552.605 400.649 552.931 400.736 553.214 400.909C553.496 401.082 553.717 401.344 553.877 401.695C554.041 402.042 554.123 402.479 554.123 403.008V403.603L554.834 402.618H549.57V403.678H555.572V403.158C555.572 402.411 555.438 401.759 555.169 401.203C554.9 400.643 554.515 400.207 554.014 399.897C553.517 399.588 552.922 399.433 552.229 399.433C551.541 399.433 550.94 399.594 550.425 399.918C549.914 400.242 549.518 400.693 549.235 401.271C548.957 401.85 548.818 402.527 548.818 403.302V403.309C548.818 404.092 548.957 404.771 549.235 405.346C549.518 405.92 549.919 406.364 550.438 406.679C550.958 406.989 551.58 407.144 552.305 407.144ZM557.404 407H558.888V396.664H557.404V407Z" fill="#707070"/>
</svg>
