<svg width="565" height="831" viewBox="0 0 565 831" fill="none" xmlns="http://www.w3.org/2000/svg">
<g clip-path="url(#clip0_94_134)">
<path d="M15 81C15 38.4741 49.4741 4 92 4H474C516.526 4 551 38.4741 551 81V831H15V81Z" fill="#FFFFFE"/>
<path d="M111.549 433.312C112.766 433.312 113.821 433.072 114.713 432.59C115.612 432.108 116.305 431.431 116.793 430.559C117.288 429.68 117.535 428.648 117.535 427.463V425.832H111.822V427.375H115.778V427.697C115.778 428.491 115.602 429.188 115.25 429.787C114.899 430.386 114.404 430.855 113.766 431.193C113.134 431.525 112.399 431.691 111.559 431.691C110.615 431.691 109.798 431.46 109.108 430.998C108.418 430.529 107.884 429.865 107.506 429.006C107.135 428.14 106.949 427.118 106.949 425.939V425.92C106.949 424.761 107.135 423.755 107.506 422.902C107.884 422.043 108.418 421.382 109.108 420.92C109.798 420.451 110.612 420.217 111.549 420.217C112.584 420.217 113.447 420.461 114.137 420.949C114.834 421.431 115.328 422.124 115.621 423.029L115.651 423.137H117.447L117.418 423.01C117.229 422.137 116.871 421.369 116.344 420.705C115.823 420.041 115.156 419.523 114.342 419.152C113.535 418.781 112.604 418.596 111.549 418.596C110.26 418.596 109.134 418.898 108.17 419.504C107.213 420.109 106.471 420.962 105.944 422.062C105.416 423.156 105.153 424.442 105.153 425.92V425.939C105.153 427.437 105.413 428.739 105.934 429.846C106.461 430.952 107.203 431.809 108.16 432.414C109.124 433.013 110.253 433.312 111.549 433.312ZM124.488 433.185C125.087 433.185 125.634 433.107 126.129 432.951C126.624 432.795 127.054 432.58 127.418 432.307C127.783 432.033 128.082 431.727 128.317 431.389C128.551 431.044 128.711 430.685 128.795 430.314L128.815 430.236H127.125L127.086 430.324C126.995 430.552 126.836 430.77 126.608 430.978C126.38 431.18 126.09 431.346 125.738 431.477C125.393 431.607 124.99 431.672 124.528 431.672C123.896 431.672 123.346 431.532 122.877 431.252C122.415 430.972 122.057 430.572 121.803 430.051C121.556 429.523 121.432 428.889 121.432 428.146V427.482C121.432 426.701 121.559 426.044 121.813 425.51C122.073 424.976 122.425 424.572 122.867 424.299C123.31 424.025 123.811 423.889 124.371 423.889C124.931 423.889 125.426 424.019 125.856 424.279C126.285 424.54 126.624 424.934 126.871 425.461C127.119 425.988 127.242 426.662 127.242 427.482V428.146L128.082 426.906H120.563V428.264H128.942V427.609C128.942 426.568 128.759 425.656 128.395 424.875C128.03 424.087 127.506 423.475 126.822 423.039C126.139 422.596 125.325 422.375 124.381 422.375C123.437 422.375 122.61 422.606 121.901 423.068C121.197 423.524 120.654 424.159 120.27 424.973C119.886 425.786 119.694 426.73 119.694 427.805V427.814C119.694 428.908 119.886 429.859 120.27 430.666C120.654 431.467 121.204 432.088 121.92 432.531C122.636 432.967 123.492 433.185 124.488 433.185ZM135.006 433.107C135.175 433.107 135.341 433.098 135.504 433.078C135.667 433.059 135.823 433.039 135.973 433.019V431.584C135.836 431.597 135.716 431.607 135.612 431.613C135.507 431.62 135.387 431.623 135.25 431.623C134.723 431.623 134.342 431.499 134.108 431.252C133.873 430.998 133.756 430.572 133.756 429.973V423.967H135.973V422.56H133.756V419.836H131.998V422.56H130.377V423.967H131.998V430.305C131.998 431.294 132.236 432.01 132.711 432.453C133.193 432.889 133.958 433.107 135.006 433.107ZM143.61 433H145.309V426.535C145.309 426.021 145.419 425.575 145.641 425.197C145.869 424.813 146.181 424.517 146.578 424.309C146.975 424.1 147.431 423.996 147.946 423.996C148.141 423.996 148.32 424.006 148.483 424.025C148.652 424.038 148.811 424.061 148.961 424.094V422.443C148.877 422.43 148.759 422.417 148.61 422.404C148.46 422.385 148.307 422.375 148.151 422.375C147.474 422.375 146.901 422.534 146.432 422.853C145.963 423.166 145.634 423.602 145.446 424.162H145.309V422.56H143.61V433ZM154.84 433.185C155.439 433.185 155.986 433.107 156.481 432.951C156.975 432.795 157.405 432.58 157.77 432.307C158.134 432.033 158.434 431.727 158.668 431.389C158.903 431.044 159.062 430.685 159.147 430.314L159.166 430.236H157.477L157.438 430.324C157.347 430.552 157.187 430.77 156.959 430.978C156.731 431.18 156.442 431.346 156.09 431.477C155.745 431.607 155.341 431.672 154.879 431.672C154.248 431.672 153.697 431.532 153.229 431.252C152.766 430.972 152.408 430.572 152.155 430.051C151.907 429.523 151.783 428.889 151.783 428.146V427.482C151.783 426.701 151.91 426.044 152.164 425.51C152.425 424.976 152.776 424.572 153.219 424.299C153.662 424.025 154.163 423.889 154.723 423.889C155.283 423.889 155.778 424.019 156.207 424.279C156.637 424.54 156.975 424.934 157.223 425.461C157.47 425.988 157.594 426.662 157.594 427.482V428.146L158.434 426.906H150.914V428.264H159.293V427.609C159.293 426.568 159.111 425.656 158.746 424.875C158.382 424.087 157.858 423.475 157.174 423.039C156.49 422.596 155.677 422.375 154.733 422.375C153.789 422.375 152.962 422.606 152.252 423.068C151.549 423.524 151.005 424.159 150.621 424.973C150.237 425.786 150.045 426.73 150.045 427.805V427.814C150.045 428.908 150.237 429.859 150.621 430.666C151.005 431.467 151.556 432.088 152.272 432.531C152.988 432.967 153.844 433.185 154.84 433.185ZM164.625 433.185C165.1 433.185 165.537 433.117 165.934 432.98C166.331 432.844 166.689 432.645 167.008 432.385C167.327 432.118 167.594 431.799 167.809 431.428H167.936V433H169.635V425.832C169.635 425.116 169.479 424.501 169.166 423.986C168.86 423.465 168.408 423.068 167.809 422.795C167.216 422.515 166.5 422.375 165.66 422.375C164.899 422.375 164.225 422.495 163.639 422.736C163.053 422.977 162.581 423.309 162.223 423.732C161.865 424.156 161.647 424.644 161.569 425.197L161.559 425.266H163.238L163.248 425.227C163.378 424.803 163.645 424.475 164.049 424.24C164.453 423.999 164.974 423.879 165.612 423.879C166.38 423.879 166.959 424.051 167.35 424.396C167.74 424.741 167.936 425.236 167.936 425.881V429.094C167.936 429.588 167.809 430.034 167.555 430.432C167.301 430.829 166.949 431.141 166.5 431.369C166.058 431.597 165.553 431.711 164.987 431.711C164.375 431.711 163.87 431.564 163.473 431.271C163.082 430.978 162.887 430.572 162.887 430.051V430.031C162.887 429.517 163.069 429.116 163.434 428.83C163.805 428.544 164.378 428.378 165.153 428.332L168.785 428.107V426.76L164.947 426.984C163.737 427.056 162.799 427.355 162.135 427.883C161.477 428.41 161.149 429.136 161.149 430.06V430.08C161.149 430.712 161.298 431.262 161.598 431.73C161.904 432.193 162.317 432.551 162.838 432.805C163.365 433.059 163.961 433.185 164.625 433.185ZM172.613 433H174.313V418.439H172.613V433ZM177.242 428.107H183.737V426.525H177.242V428.107ZM189.928 433.107C190.097 433.107 190.263 433.098 190.426 433.078C190.589 433.059 190.745 433.039 190.895 433.019V431.584C190.758 431.597 190.638 431.607 190.533 431.613C190.429 431.62 190.309 431.623 190.172 431.623C189.645 431.623 189.264 431.499 189.03 431.252C188.795 430.998 188.678 430.572 188.678 429.973V423.967H190.895V422.56H188.678V419.836H186.92V422.56H185.299V423.967H186.92V430.305C186.92 431.294 187.158 432.01 187.633 432.453C188.115 432.889 188.88 433.107 189.928 433.107ZM193.317 433H195.016V422.56H193.317V433ZM194.176 420.607C194.495 420.607 194.765 420.493 194.987 420.266C195.208 420.038 195.319 419.768 195.319 419.455C195.319 419.136 195.208 418.866 194.987 418.644C194.765 418.423 194.495 418.312 194.176 418.312C193.863 418.312 193.593 418.423 193.365 418.644C193.138 418.866 193.024 419.136 193.024 419.455C193.024 419.768 193.138 420.038 193.365 420.266C193.593 420.493 193.863 420.607 194.176 420.607ZM198.004 433H199.703V426.516C199.703 426.021 199.808 425.575 200.016 425.178C200.231 424.781 200.517 424.465 200.875 424.23C201.24 423.996 201.65 423.879 202.106 423.879C202.763 423.879 203.287 424.068 203.678 424.445C204.069 424.816 204.264 425.311 204.264 425.93V433H205.963V426.31C205.963 425.855 206.064 425.445 206.266 425.08C206.468 424.715 206.748 424.426 207.106 424.211C207.47 423.99 207.89 423.879 208.365 423.879C209.095 423.879 209.638 424.074 209.996 424.465C210.361 424.849 210.543 425.419 210.543 426.174V433H212.242V425.783C212.242 425.067 212.109 424.455 211.842 423.947C211.582 423.433 211.201 423.042 210.699 422.775C210.205 422.508 209.606 422.375 208.903 422.375C208.421 422.375 207.972 422.453 207.555 422.609C207.138 422.759 206.77 422.974 206.451 423.254C206.132 423.534 205.878 423.863 205.69 424.24H205.563C205.4 423.863 205.182 423.537 204.908 423.264C204.635 422.984 204.309 422.766 203.932 422.609C203.561 422.453 203.138 422.375 202.662 422.375C201.985 422.375 201.403 422.531 200.914 422.844C200.426 423.156 200.068 423.586 199.84 424.133H199.703V422.56H198.004V433ZM219.371 433.185C219.97 433.185 220.517 433.107 221.012 432.951C221.507 432.795 221.936 432.58 222.301 432.307C222.666 432.033 222.965 431.727 223.199 431.389C223.434 431.044 223.593 430.685 223.678 430.314L223.697 430.236H222.008L221.969 430.324C221.878 430.552 221.718 430.77 221.49 430.978C221.263 431.18 220.973 431.346 220.621 431.477C220.276 431.607 219.873 431.672 219.41 431.672C218.779 431.672 218.229 431.532 217.76 431.252C217.298 430.972 216.94 430.572 216.686 430.051C216.438 429.523 216.315 428.889 216.315 428.146V427.482C216.315 426.701 216.442 426.044 216.696 425.51C216.956 424.976 217.308 424.572 217.75 424.299C218.193 424.025 218.694 423.889 219.254 423.889C219.814 423.889 220.309 424.019 220.738 424.279C221.168 424.54 221.507 424.934 221.754 425.461C222.002 425.988 222.125 426.662 222.125 427.482V428.146L222.965 426.906H215.446V428.264H223.824V427.609C223.824 426.568 223.642 425.656 223.278 424.875C222.913 424.087 222.389 423.475 221.705 423.039C221.022 422.596 220.208 422.375 219.264 422.375C218.32 422.375 217.493 422.606 216.783 423.068C216.08 423.524 215.537 424.159 215.153 424.973C214.768 425.786 214.576 426.73 214.576 427.805V427.814C214.576 428.908 214.768 429.859 215.153 430.666C215.537 431.467 216.087 432.088 216.803 432.531C217.519 432.967 218.375 433.185 219.371 433.185ZM231.52 433H233.219V426.535C233.219 426.021 233.33 425.575 233.551 425.197C233.779 424.813 234.091 424.517 234.488 424.309C234.886 424.1 235.341 423.996 235.856 423.996C236.051 423.996 236.23 424.006 236.393 424.025C236.562 424.038 236.722 424.061 236.871 424.094V422.443C236.787 422.43 236.669 422.417 236.52 422.404C236.37 422.385 236.217 422.375 236.061 422.375C235.384 422.375 234.811 422.534 234.342 422.853C233.873 423.166 233.544 423.602 233.356 424.162H233.219V422.56H231.52V433ZM242.75 433.185C243.349 433.185 243.896 433.107 244.391 432.951C244.886 432.795 245.315 432.58 245.68 432.307C246.044 432.033 246.344 431.727 246.578 431.389C246.813 431.044 246.972 430.685 247.057 430.314L247.076 430.236H245.387L245.348 430.324C245.257 430.552 245.097 430.77 244.869 430.978C244.641 431.18 244.352 431.346 244 431.477C243.655 431.607 243.252 431.672 242.789 431.672C242.158 431.672 241.608 431.532 241.139 431.252C240.677 430.972 240.319 430.572 240.065 430.051C239.817 429.523 239.694 428.889 239.694 428.146V427.482C239.694 426.701 239.821 426.044 240.074 425.51C240.335 424.976 240.686 424.572 241.129 424.299C241.572 424.025 242.073 423.889 242.633 423.889C243.193 423.889 243.688 424.019 244.117 424.279C244.547 424.54 244.886 424.934 245.133 425.461C245.38 425.988 245.504 426.662 245.504 427.482V428.146L246.344 426.906H238.824V428.264H247.203V427.609C247.203 426.568 247.021 425.656 246.656 424.875C246.292 424.087 245.768 423.475 245.084 423.039C244.401 422.596 243.587 422.375 242.643 422.375C241.699 422.375 240.872 422.606 240.162 423.068C239.459 423.524 238.916 424.159 238.531 424.973C238.147 425.786 237.955 426.73 237.955 427.805V427.814C237.955 428.908 238.147 429.859 238.531 430.666C238.916 431.467 239.466 432.088 240.182 432.531C240.898 432.967 241.754 433.185 242.75 433.185ZM249.625 436.496H251.324V431.33H251.461C251.656 431.714 251.917 432.043 252.242 432.316C252.574 432.59 252.952 432.805 253.375 432.961C253.798 433.111 254.251 433.185 254.733 433.185C255.612 433.185 256.38 432.964 257.037 432.521C257.695 432.072 258.206 431.444 258.571 430.637C258.935 429.829 259.117 428.879 259.117 427.785V427.775C259.117 426.688 258.935 425.741 258.571 424.934C258.206 424.12 257.695 423.491 257.037 423.049C256.38 422.6 255.608 422.375 254.723 422.375C254.235 422.375 253.782 422.45 253.365 422.6C252.955 422.749 252.587 422.964 252.262 423.244C251.943 423.524 251.676 423.859 251.461 424.25H251.324V422.56H249.625V436.496ZM254.352 431.682C253.727 431.682 253.186 431.525 252.731 431.213C252.275 430.894 251.92 430.445 251.666 429.865C251.419 429.279 251.295 428.586 251.295 427.785V427.775C251.295 426.975 251.419 426.284 251.666 425.705C251.914 425.119 252.265 424.67 252.721 424.357C253.183 424.038 253.727 423.879 254.352 423.879C254.983 423.879 255.524 424.035 255.973 424.348C256.429 424.66 256.777 425.106 257.018 425.685C257.259 426.265 257.379 426.962 257.379 427.775V427.785C257.379 428.592 257.259 429.289 257.018 429.875C256.777 430.454 256.429 430.9 255.973 431.213C255.524 431.525 254.983 431.682 254.352 431.682ZM261.539 433H263.238V426.535C263.238 426.021 263.349 425.575 263.571 425.197C263.798 424.813 264.111 424.517 264.508 424.309C264.905 424.1 265.361 423.996 265.875 423.996C266.071 423.996 266.25 424.006 266.412 424.025C266.582 424.038 266.741 424.061 266.891 424.094V422.443C266.806 422.43 266.689 422.417 266.539 422.404C266.39 422.385 266.237 422.375 266.08 422.375C265.403 422.375 264.83 422.534 264.362 422.853C263.893 423.166 263.564 423.602 263.375 424.162H263.238V422.56H261.539V433ZM272.77 433.185C273.369 433.185 273.916 433.107 274.41 432.951C274.905 432.795 275.335 432.58 275.699 432.307C276.064 432.033 276.363 431.727 276.598 431.389C276.832 431.044 276.992 430.685 277.076 430.314L277.096 430.236H275.406L275.367 430.324C275.276 430.552 275.117 430.77 274.889 430.978C274.661 431.18 274.371 431.346 274.02 431.477C273.675 431.607 273.271 431.672 272.809 431.672C272.177 431.672 271.627 431.532 271.158 431.252C270.696 430.972 270.338 430.572 270.084 430.051C269.837 429.523 269.713 428.889 269.713 428.146V427.482C269.713 426.701 269.84 426.044 270.094 425.51C270.354 424.976 270.706 424.572 271.149 424.299C271.591 424.025 272.093 423.889 272.653 423.889C273.212 423.889 273.707 424.019 274.137 424.279C274.567 424.54 274.905 424.934 275.153 425.461C275.4 425.988 275.524 426.662 275.524 427.482V428.146L276.363 426.906H268.844V428.264H277.223V427.609C277.223 426.568 277.041 425.656 276.676 424.875C276.311 424.087 275.787 423.475 275.104 423.039C274.42 422.596 273.606 422.375 272.662 422.375C271.718 422.375 270.891 422.606 270.182 423.068C269.479 423.524 268.935 424.159 268.551 424.973C268.167 425.786 267.975 426.73 267.975 427.805V427.814C267.975 428.908 268.167 429.859 268.551 430.666C268.935 431.467 269.485 432.088 270.201 432.531C270.918 432.967 271.774 433.185 272.77 433.185ZM283.258 433.185C284.052 433.185 284.762 433.055 285.387 432.795C286.012 432.528 286.507 432.16 286.871 431.691C287.236 431.216 287.418 430.669 287.418 430.051V430.031C287.418 429.282 287.184 428.687 286.715 428.244C286.246 427.795 285.511 427.45 284.508 427.209L282.887 426.818C282.281 426.675 281.842 426.486 281.569 426.252C281.302 426.011 281.168 425.715 281.168 425.363V425.344C281.168 425.031 281.259 424.761 281.442 424.533C281.624 424.299 281.875 424.116 282.194 423.986C282.513 423.856 282.88 423.791 283.297 423.791C283.929 423.791 284.44 423.928 284.83 424.201C285.221 424.468 285.468 424.816 285.572 425.246V425.266H287.233L287.223 425.236C287.158 424.663 286.953 424.162 286.608 423.732C286.269 423.303 285.817 422.971 285.25 422.736C284.69 422.495 284.039 422.375 283.297 422.375C282.561 422.375 281.901 422.508 281.315 422.775C280.729 423.036 280.266 423.397 279.928 423.859C279.596 424.315 279.43 424.836 279.43 425.422V425.432C279.43 426.18 279.661 426.782 280.123 427.238C280.586 427.687 281.305 428.029 282.281 428.264L283.912 428.654C284.544 428.81 284.996 429.012 285.27 429.26C285.543 429.501 285.68 429.8 285.68 430.158V430.178C285.68 430.49 285.579 430.767 285.377 431.008C285.175 431.249 284.899 431.437 284.547 431.574C284.196 431.704 283.782 431.769 283.307 431.769C282.63 431.769 282.086 431.636 281.676 431.369C281.272 431.096 281.002 430.731 280.865 430.275V430.256H279.137V430.275C279.202 430.861 279.41 431.372 279.762 431.809C280.12 432.245 280.595 432.583 281.188 432.824C281.787 433.065 282.477 433.185 283.258 433.185ZM294.117 433.185C294.716 433.185 295.263 433.107 295.758 432.951C296.253 432.795 296.683 432.58 297.047 432.307C297.412 432.033 297.711 431.727 297.946 431.389C298.18 431.044 298.339 430.685 298.424 430.314L298.444 430.236H296.754L296.715 430.324C296.624 430.552 296.464 430.77 296.237 430.978C296.009 431.18 295.719 431.346 295.367 431.477C295.022 431.607 294.619 431.672 294.156 431.672C293.525 431.672 292.975 431.532 292.506 431.252C292.044 430.972 291.686 430.572 291.432 430.051C291.184 429.523 291.061 428.889 291.061 428.146V427.482C291.061 426.701 291.188 426.044 291.442 425.51C291.702 424.976 292.054 424.572 292.496 424.299C292.939 424.025 293.44 423.889 294 423.889C294.56 423.889 295.055 424.019 295.485 424.279C295.914 424.54 296.253 424.934 296.5 425.461C296.748 425.988 296.871 426.662 296.871 427.482V428.146L297.711 426.906H290.192V428.264H298.571V427.609C298.571 426.568 298.388 425.656 298.024 424.875C297.659 424.087 297.135 423.475 296.451 423.039C295.768 422.596 294.954 422.375 294.01 422.375C293.066 422.375 292.239 422.606 291.53 423.068C290.826 423.524 290.283 424.159 289.899 424.973C289.515 425.786 289.322 426.73 289.322 427.805V427.814C289.322 428.908 289.515 429.859 289.899 430.666C290.283 431.467 290.833 432.088 291.549 432.531C292.265 432.967 293.121 433.185 294.117 433.185ZM300.992 433H302.692V426.828C302.692 426.223 302.802 425.702 303.024 425.266C303.252 424.823 303.567 424.481 303.971 424.24C304.381 423.999 304.863 423.879 305.416 423.879C306.243 423.879 306.855 424.107 307.252 424.562C307.649 425.012 307.848 425.699 307.848 426.623V433H309.547V426.232C309.547 425.008 309.231 424.061 308.6 423.391C307.968 422.713 307.07 422.375 305.905 422.375C305.13 422.375 304.488 422.531 303.981 422.844C303.479 423.15 303.095 423.573 302.828 424.113H302.692V422.56H300.992V433ZM316.041 433.107C316.211 433.107 316.377 433.098 316.539 433.078C316.702 433.059 316.858 433.039 317.008 433.019V431.584C316.871 431.597 316.751 431.607 316.647 431.613C316.543 431.62 316.422 431.623 316.285 431.623C315.758 431.623 315.377 431.499 315.143 431.252C314.908 430.998 314.791 430.572 314.791 429.973V423.967H317.008V422.56H314.791V419.836H313.033V422.56H311.412V423.967H313.033V430.305C313.033 431.294 313.271 432.01 313.746 432.453C314.228 432.889 314.993 433.107 316.041 433.107ZM322.242 433.185C322.718 433.185 323.154 433.117 323.551 432.98C323.948 432.844 324.306 432.645 324.625 432.385C324.944 432.118 325.211 431.799 325.426 431.428H325.553V433H327.252V425.832C327.252 425.116 327.096 424.501 326.783 423.986C326.477 423.465 326.025 423.068 325.426 422.795C324.834 422.515 324.117 422.375 323.278 422.375C322.516 422.375 321.842 422.495 321.256 422.736C320.67 422.977 320.198 423.309 319.84 423.732C319.482 424.156 319.264 424.644 319.186 425.197L319.176 425.266H320.856L320.865 425.227C320.996 424.803 321.263 424.475 321.666 424.24C322.07 423.999 322.591 423.879 323.229 423.879C323.997 423.879 324.576 424.051 324.967 424.396C325.358 424.741 325.553 425.236 325.553 425.881V429.094C325.553 429.588 325.426 430.034 325.172 430.432C324.918 430.829 324.567 431.141 324.117 431.369C323.675 431.597 323.17 431.711 322.604 431.711C321.992 431.711 321.487 431.564 321.09 431.271C320.699 430.978 320.504 430.572 320.504 430.051V430.031C320.504 429.517 320.686 429.116 321.051 428.83C321.422 428.544 321.995 428.378 322.77 428.332L326.403 428.107V426.76L322.565 426.984C321.354 427.056 320.416 427.355 319.752 427.883C319.095 428.41 318.766 429.136 318.766 430.06V430.08C318.766 430.712 318.916 431.262 319.215 431.73C319.521 432.193 319.934 432.551 320.455 432.805C320.983 433.059 321.578 433.185 322.242 433.185ZM333.776 433.107C333.945 433.107 334.111 433.098 334.274 433.078C334.436 433.059 334.593 433.039 334.742 433.019V431.584C334.606 431.597 334.485 431.607 334.381 431.613C334.277 431.62 334.156 431.623 334.02 431.623C333.492 431.623 333.112 431.499 332.877 431.252C332.643 430.998 332.526 430.572 332.526 429.973V423.967H334.742V422.56H332.526V419.836H330.768V422.56H329.147V423.967H330.768V430.305C330.768 431.294 331.005 432.01 331.481 432.453C331.962 432.889 332.727 433.107 333.776 433.107ZM337.164 433H338.863V422.56H337.164V433ZM338.024 420.607C338.343 420.607 338.613 420.493 338.834 420.266C339.056 420.038 339.166 419.768 339.166 419.455C339.166 419.136 339.056 418.866 338.834 418.644C338.613 418.423 338.343 418.312 338.024 418.312C337.711 418.312 337.441 418.423 337.213 418.644C336.985 418.866 336.871 419.136 336.871 419.455C336.871 419.768 336.985 420.038 337.213 420.266C337.441 420.493 337.711 420.607 338.024 420.607ZM346.158 433.185C347.141 433.185 347.991 432.967 348.707 432.531C349.43 432.095 349.987 431.473 350.377 430.666C350.774 429.859 350.973 428.898 350.973 427.785V427.766C350.973 426.652 350.774 425.692 350.377 424.885C349.987 424.077 349.43 423.459 348.707 423.029C347.991 422.593 347.138 422.375 346.149 422.375C345.172 422.375 344.322 422.593 343.6 423.029C342.877 423.459 342.317 424.077 341.92 424.885C341.53 425.692 341.334 426.652 341.334 427.766V427.785C341.334 428.898 341.53 429.859 341.92 430.666C342.317 431.473 342.877 432.095 343.6 432.531C344.322 432.967 345.175 433.185 346.158 433.185ZM346.158 431.682C345.507 431.682 344.951 431.529 344.488 431.223C344.033 430.91 343.681 430.464 343.434 429.885C343.193 429.305 343.072 428.605 343.072 427.785V427.766C343.072 426.945 343.193 426.245 343.434 425.666C343.681 425.087 344.033 424.644 344.488 424.338C344.951 424.032 345.504 423.879 346.149 423.879C346.8 423.879 347.353 424.032 347.809 424.338C348.271 424.644 348.623 425.087 348.863 425.666C349.111 426.245 349.235 426.945 349.235 427.766V427.785C349.235 428.605 349.111 429.305 348.863 429.885C348.623 430.464 348.271 430.91 347.809 431.223C347.353 431.529 346.803 431.682 346.158 431.682ZM353.395 433H355.094V426.828C355.094 426.223 355.205 425.702 355.426 425.266C355.654 424.823 355.97 424.481 356.373 424.24C356.783 423.999 357.265 423.879 357.819 423.879C358.645 423.879 359.257 424.107 359.655 424.562C360.052 425.012 360.25 425.699 360.25 426.623V433H361.949V426.232C361.949 425.008 361.634 424.061 361.002 423.391C360.371 422.713 359.472 422.375 358.307 422.375C357.532 422.375 356.891 422.531 356.383 422.844C355.882 423.15 355.498 423.573 355.231 424.113H355.094V422.56H353.395V433ZM374.381 433.185C375.364 433.185 376.214 432.967 376.93 432.531C377.653 432.095 378.209 431.473 378.6 430.666C378.997 429.859 379.196 428.898 379.196 427.785V427.766C379.196 426.652 378.997 425.692 378.6 424.885C378.209 424.077 377.653 423.459 376.93 423.029C376.214 422.593 375.361 422.375 374.371 422.375C373.395 422.375 372.545 422.593 371.822 423.029C371.1 423.459 370.54 424.077 370.143 424.885C369.752 425.692 369.557 426.652 369.557 427.766V427.785C369.557 428.898 369.752 429.859 370.143 430.666C370.54 431.473 371.1 432.095 371.822 432.531C372.545 432.967 373.398 433.185 374.381 433.185ZM374.381 431.682C373.73 431.682 373.173 431.529 372.711 431.223C372.255 430.91 371.904 430.464 371.656 429.885C371.416 429.305 371.295 428.605 371.295 427.785V427.766C371.295 426.945 371.416 426.245 371.656 425.666C371.904 425.087 372.255 424.644 372.711 424.338C373.173 424.032 373.727 423.879 374.371 423.879C375.022 423.879 375.576 424.032 376.031 424.338C376.494 424.644 376.845 425.087 377.086 425.666C377.334 426.245 377.457 426.945 377.457 427.766V427.785C377.457 428.605 377.334 429.305 377.086 429.885C376.845 430.464 376.494 430.91 376.031 431.223C375.576 431.529 375.026 431.682 374.381 431.682ZM382.291 433H383.99V423.967H386.305V422.56H383.981V421.408C383.981 420.848 384.108 420.428 384.362 420.148C384.622 419.868 385.039 419.728 385.612 419.728C385.755 419.728 385.895 419.732 386.031 419.738C386.168 419.745 386.289 419.754 386.393 419.768V418.41C386.23 418.378 386.054 418.355 385.865 418.342C385.677 418.329 385.481 418.322 385.28 418.322C384.296 418.322 383.551 418.573 383.043 419.074C382.542 419.575 382.291 420.34 382.291 421.369V422.56H380.621V423.967H382.291V433ZM393.863 433H395.563V426.828C395.563 426.223 395.673 425.702 395.895 425.266C396.123 424.823 396.438 424.481 396.842 424.24C397.252 423.999 397.734 423.879 398.287 423.879C399.114 423.879 399.726 424.107 400.123 424.562C400.52 425.012 400.719 425.699 400.719 426.623V433H402.418V426.232C402.418 425.008 402.102 424.061 401.471 423.391C400.839 422.713 399.941 422.375 398.776 422.375C398.001 422.375 397.36 422.531 396.852 422.844C396.35 423.15 395.966 423.573 395.699 424.113H395.563V422.56H393.863V433ZM409.547 433.185C410.146 433.185 410.693 433.107 411.188 432.951C411.683 432.795 412.112 432.58 412.477 432.307C412.841 432.033 413.141 431.727 413.375 431.389C413.61 431.044 413.769 430.685 413.854 430.314L413.873 430.236H412.184L412.145 430.324C412.054 430.552 411.894 430.77 411.666 430.978C411.438 431.18 411.149 431.346 410.797 431.477C410.452 431.607 410.048 431.672 409.586 431.672C408.955 431.672 408.405 431.532 407.936 431.252C407.474 430.972 407.115 430.572 406.862 430.051C406.614 429.523 406.49 428.889 406.49 428.146V427.482C406.49 426.701 406.617 426.044 406.871 425.51C407.132 424.976 407.483 424.572 407.926 424.299C408.369 424.025 408.87 423.889 409.43 423.889C409.99 423.889 410.485 424.019 410.914 424.279C411.344 424.54 411.683 424.934 411.93 425.461C412.177 425.988 412.301 426.662 412.301 427.482V428.146L413.141 426.906H405.621V428.264H414V427.609C414 426.568 413.818 425.656 413.453 424.875C413.089 424.087 412.565 423.475 411.881 423.039C411.197 422.596 410.384 422.375 409.44 422.375C408.496 422.375 407.669 422.606 406.959 423.068C406.256 423.524 405.712 424.159 405.328 424.973C404.944 425.786 404.752 426.73 404.752 427.805V427.814C404.752 428.908 404.944 429.859 405.328 430.666C405.712 431.467 406.263 432.088 406.979 432.531C407.695 432.967 408.551 433.185 409.547 433.185ZM418.453 433H420.162L422.487 424.924H422.613L424.957 433H426.666L429.596 422.56H427.906L425.846 430.939H425.719L423.375 422.56H421.754L419.42 430.939H419.283L417.223 422.56H415.533L418.453 433ZM435.035 433.185C435.83 433.185 436.539 433.055 437.164 432.795C437.789 432.528 438.284 432.16 438.649 431.691C439.013 431.216 439.196 430.669 439.196 430.051V430.031C439.196 429.282 438.961 428.687 438.492 428.244C438.024 427.795 437.288 427.45 436.285 427.209L434.664 426.818C434.059 426.675 433.619 426.486 433.346 426.252C433.079 426.011 432.946 425.715 432.946 425.363V425.344C432.946 425.031 433.037 424.761 433.219 424.533C433.401 424.299 433.652 424.116 433.971 423.986C434.29 423.856 434.658 423.791 435.074 423.791C435.706 423.791 436.217 423.928 436.608 424.201C436.998 424.468 437.246 424.816 437.35 425.246V425.266H439.01L439 425.236C438.935 424.663 438.73 424.162 438.385 423.732C438.046 423.303 437.594 422.971 437.028 422.736C436.468 422.495 435.817 422.375 435.074 422.375C434.339 422.375 433.678 422.508 433.092 422.775C432.506 423.036 432.044 423.397 431.705 423.859C431.373 424.315 431.207 424.836 431.207 425.422V425.432C431.207 426.18 431.438 426.782 431.901 427.238C432.363 427.687 433.082 428.029 434.059 428.264L435.69 428.654C436.321 428.81 436.774 429.012 437.047 429.26C437.321 429.501 437.457 429.8 437.457 430.158V430.178C437.457 430.49 437.356 430.767 437.155 431.008C436.953 431.249 436.676 431.437 436.324 431.574C435.973 431.704 435.559 431.769 435.084 431.769C434.407 431.769 433.863 431.636 433.453 431.369C433.05 431.096 432.78 430.731 432.643 430.275V430.256H430.914V430.275C430.979 430.861 431.188 431.372 431.539 431.809C431.897 432.245 432.373 432.583 432.965 432.824C433.564 433.065 434.254 433.185 435.035 433.185ZM108.375 457.185C108.85 457.185 109.287 457.117 109.684 456.98C110.081 456.844 110.439 456.645 110.758 456.385C111.077 456.118 111.344 455.799 111.559 455.428H111.686V457H113.385V449.832C113.385 449.116 113.229 448.501 112.916 447.986C112.61 447.465 112.158 447.068 111.559 446.795C110.966 446.515 110.25 446.375 109.41 446.375C108.649 446.375 107.975 446.495 107.389 446.736C106.803 446.977 106.331 447.309 105.973 447.732C105.615 448.156 105.397 448.644 105.319 449.197L105.309 449.266H106.988L106.998 449.227C107.128 448.803 107.395 448.475 107.799 448.24C108.203 447.999 108.724 447.879 109.362 447.879C110.13 447.879 110.709 448.051 111.1 448.396C111.49 448.741 111.686 449.236 111.686 449.881V453.094C111.686 453.588 111.559 454.034 111.305 454.432C111.051 454.829 110.699 455.141 110.25 455.369C109.808 455.597 109.303 455.711 108.737 455.711C108.125 455.711 107.62 455.564 107.223 455.271C106.832 454.978 106.637 454.572 106.637 454.051V454.031C106.637 453.517 106.819 453.116 107.184 452.83C107.555 452.544 108.128 452.378 108.903 452.332L112.535 452.107V450.76L108.697 450.984C107.487 451.056 106.549 451.355 105.885 451.883C105.227 452.41 104.899 453.136 104.899 454.06V454.08C104.899 454.712 105.048 455.262 105.348 455.73C105.654 456.193 106.067 456.551 106.588 456.805C107.115 457.059 107.711 457.185 108.375 457.185ZM116.266 457H117.965V450.828C117.965 450.223 118.076 449.702 118.297 449.266C118.525 448.823 118.841 448.481 119.244 448.24C119.655 447.999 120.136 447.879 120.69 447.879C121.516 447.879 122.128 448.107 122.526 448.562C122.923 449.012 123.121 449.699 123.121 450.623V457H124.821V450.232C124.821 449.008 124.505 448.061 123.873 447.391C123.242 446.713 122.343 446.375 121.178 446.375C120.403 446.375 119.762 446.531 119.254 446.844C118.753 447.15 118.369 447.573 118.102 448.113H117.965V446.56H116.266V457ZM131.549 457.185C132.285 457.185 132.933 457.019 133.492 456.687C134.052 456.355 134.492 455.896 134.811 455.31H134.947V457H136.647V442.439H134.947V448.23H134.811C134.518 447.664 134.078 447.215 133.492 446.883C132.913 446.544 132.262 446.375 131.539 446.375C130.66 446.375 129.892 446.6 129.235 447.049C128.577 447.491 128.066 448.116 127.701 448.924C127.337 449.731 127.155 450.678 127.155 451.766V451.785C127.155 452.872 127.337 453.823 127.701 454.637C128.066 455.444 128.577 456.072 129.235 456.521C129.892 456.964 130.664 457.185 131.549 457.185ZM131.92 455.682C131.295 455.682 130.755 455.525 130.299 455.213C129.843 454.9 129.495 454.454 129.254 453.875C129.013 453.289 128.893 452.592 128.893 451.785V451.766C128.893 450.958 129.013 450.265 129.254 449.685C129.495 449.106 129.843 448.66 130.299 448.348C130.755 448.035 131.295 447.879 131.92 447.879C132.545 447.879 133.086 448.038 133.541 448.357C133.997 448.67 134.349 449.119 134.596 449.705C134.85 450.284 134.977 450.971 134.977 451.766V451.785C134.977 452.579 134.853 453.269 134.606 453.855C134.358 454.441 134.003 454.894 133.541 455.213C133.086 455.525 132.545 455.682 131.92 455.682ZM144.957 460.496H146.656V455.33H146.793C146.988 455.714 147.249 456.043 147.574 456.316C147.906 456.59 148.284 456.805 148.707 456.961C149.13 457.111 149.583 457.185 150.065 457.185C150.944 457.185 151.712 456.964 152.369 456.521C153.027 456.072 153.538 455.444 153.903 454.637C154.267 453.829 154.449 452.879 154.449 451.785V451.775C154.449 450.688 154.267 449.741 153.903 448.934C153.538 448.12 153.027 447.491 152.369 447.049C151.712 446.6 150.94 446.375 150.055 446.375C149.567 446.375 149.114 446.45 148.697 446.6C148.287 446.749 147.919 446.964 147.594 447.244C147.275 447.524 147.008 447.859 146.793 448.25H146.656V446.56H144.957V460.496ZM149.684 455.682C149.059 455.682 148.518 455.525 148.063 455.213C147.607 454.894 147.252 454.445 146.998 453.865C146.751 453.279 146.627 452.586 146.627 451.785V451.775C146.627 450.975 146.751 450.284 146.998 449.705C147.246 449.119 147.597 448.67 148.053 448.357C148.515 448.038 149.059 447.879 149.684 447.879C150.315 447.879 150.856 448.035 151.305 448.348C151.761 448.66 152.109 449.106 152.35 449.685C152.591 450.265 152.711 450.962 152.711 451.775V451.785C152.711 452.592 152.591 453.289 152.35 453.875C152.109 454.454 151.761 454.9 151.305 455.213C150.856 455.525 150.315 455.682 149.684 455.682ZM161.149 457.185C161.748 457.185 162.294 457.107 162.789 456.951C163.284 456.795 163.714 456.58 164.078 456.307C164.443 456.033 164.742 455.727 164.977 455.389C165.211 455.044 165.371 454.685 165.455 454.314L165.475 454.236H163.785L163.746 454.324C163.655 454.552 163.496 454.77 163.268 454.978C163.04 455.18 162.75 455.346 162.399 455.477C162.054 455.607 161.65 455.672 161.188 455.672C160.556 455.672 160.006 455.532 159.537 455.252C159.075 454.972 158.717 454.572 158.463 454.051C158.216 453.523 158.092 452.889 158.092 452.146V451.482C158.092 450.701 158.219 450.044 158.473 449.51C158.733 448.976 159.085 448.572 159.528 448.299C159.97 448.025 160.472 447.889 161.031 447.889C161.591 447.889 162.086 448.019 162.516 448.279C162.946 448.54 163.284 448.934 163.531 449.461C163.779 449.988 163.903 450.662 163.903 451.482V452.146L164.742 450.906H157.223V452.264H165.602V451.609C165.602 450.568 165.419 449.656 165.055 448.875C164.69 448.087 164.166 447.475 163.483 447.039C162.799 446.596 161.985 446.375 161.041 446.375C160.097 446.375 159.27 446.606 158.561 447.068C157.858 447.524 157.314 448.159 156.93 448.973C156.546 449.786 156.354 450.73 156.354 451.805V451.814C156.354 452.908 156.546 453.859 156.93 454.666C157.314 455.467 157.864 456.088 158.58 456.531C159.296 456.967 160.153 457.185 161.149 457.185ZM172.33 457.185C173.313 457.185 174.163 456.967 174.879 456.531C175.602 456.095 176.158 455.473 176.549 454.666C176.946 453.859 177.145 452.898 177.145 451.785V451.766C177.145 450.652 176.946 449.692 176.549 448.885C176.158 448.077 175.602 447.459 174.879 447.029C174.163 446.593 173.31 446.375 172.321 446.375C171.344 446.375 170.494 446.593 169.772 447.029C169.049 447.459 168.489 448.077 168.092 448.885C167.701 449.692 167.506 450.652 167.506 451.766V451.785C167.506 452.898 167.701 453.859 168.092 454.666C168.489 455.473 169.049 456.095 169.772 456.531C170.494 456.967 171.347 457.185 172.33 457.185ZM172.33 455.682C171.679 455.682 171.123 455.529 170.66 455.223C170.205 454.91 169.853 454.464 169.606 453.885C169.365 453.305 169.244 452.605 169.244 451.785V451.766C169.244 450.945 169.365 450.245 169.606 449.666C169.853 449.087 170.205 448.644 170.66 448.338C171.123 448.032 171.676 447.879 172.321 447.879C172.972 447.879 173.525 448.032 173.981 448.338C174.443 448.644 174.794 449.087 175.035 449.666C175.283 450.245 175.406 450.945 175.406 451.766V451.785C175.406 452.605 175.283 453.305 175.035 453.885C174.794 454.464 174.443 454.91 173.981 455.223C173.525 455.529 172.975 455.682 172.33 455.682ZM179.567 460.496H181.266V455.33H181.403C181.598 455.714 181.858 456.043 182.184 456.316C182.516 456.59 182.893 456.805 183.317 456.961C183.74 457.111 184.192 457.185 184.674 457.185C185.553 457.185 186.321 456.964 186.979 456.521C187.636 456.072 188.147 455.444 188.512 454.637C188.877 453.829 189.059 452.879 189.059 451.785V451.775C189.059 450.688 188.877 449.741 188.512 448.934C188.147 448.12 187.636 447.491 186.979 447.049C186.321 446.6 185.55 446.375 184.664 446.375C184.176 446.375 183.724 446.45 183.307 446.6C182.897 446.749 182.529 446.964 182.203 447.244C181.884 447.524 181.617 447.859 181.403 448.25H181.266V446.56H179.567V460.496ZM184.293 455.682C183.668 455.682 183.128 455.525 182.672 455.213C182.216 454.894 181.862 454.445 181.608 453.865C181.36 453.279 181.237 452.586 181.237 451.785V451.775C181.237 450.975 181.36 450.284 181.608 449.705C181.855 449.119 182.207 448.67 182.662 448.357C183.125 448.038 183.668 447.879 184.293 447.879C184.925 447.879 185.465 448.035 185.914 448.348C186.37 448.66 186.718 449.106 186.959 449.685C187.2 450.265 187.321 450.962 187.321 451.775V451.785C187.321 452.592 187.2 453.289 186.959 453.875C186.718 454.454 186.37 454.9 185.914 455.213C185.465 455.525 184.925 455.682 184.293 455.682ZM191.578 457H193.278V442.439H191.578V457ZM200.582 457.185C201.181 457.185 201.728 457.107 202.223 456.951C202.718 456.795 203.147 456.58 203.512 456.307C203.877 456.033 204.176 455.727 204.41 455.389C204.645 455.044 204.804 454.685 204.889 454.314L204.908 454.236H203.219L203.18 454.324C203.089 454.552 202.929 454.77 202.701 454.978C202.474 455.18 202.184 455.346 201.832 455.477C201.487 455.607 201.084 455.672 200.621 455.672C199.99 455.672 199.44 455.532 198.971 455.252C198.509 454.972 198.151 454.572 197.897 454.051C197.649 453.523 197.526 452.889 197.526 452.146V451.482C197.526 450.701 197.653 450.044 197.906 449.51C198.167 448.976 198.518 448.572 198.961 448.299C199.404 448.025 199.905 447.889 200.465 447.889C201.025 447.889 201.52 448.019 201.949 448.279C202.379 448.54 202.718 448.934 202.965 449.461C203.212 449.988 203.336 450.662 203.336 451.482V452.146L204.176 450.906H196.656V452.264H205.035V451.609C205.035 450.568 204.853 449.656 204.488 448.875C204.124 448.087 203.6 447.475 202.916 447.039C202.233 446.596 201.419 446.375 200.475 446.375C199.531 446.375 198.704 446.606 197.994 447.068C197.291 447.524 196.748 448.159 196.363 448.973C195.979 449.786 195.787 450.73 195.787 451.805V451.814C195.787 452.908 195.979 453.859 196.363 454.666C196.748 455.467 197.298 456.088 198.014 456.531C198.73 456.967 199.586 457.185 200.582 457.185ZM211.071 457.185C211.865 457.185 212.574 457.055 213.199 456.795C213.824 456.528 214.319 456.16 214.684 455.691C215.048 455.216 215.231 454.669 215.231 454.051V454.031C215.231 453.282 214.996 452.687 214.528 452.244C214.059 451.795 213.323 451.45 212.321 451.209L210.699 450.818C210.094 450.675 209.655 450.486 209.381 450.252C209.114 450.011 208.981 449.715 208.981 449.363V449.344C208.981 449.031 209.072 448.761 209.254 448.533C209.436 448.299 209.687 448.116 210.006 447.986C210.325 447.856 210.693 447.791 211.11 447.791C211.741 447.791 212.252 447.928 212.643 448.201C213.033 448.468 213.281 448.816 213.385 449.246V449.266H215.045L215.035 449.236C214.97 448.663 214.765 448.162 214.42 447.732C214.082 447.303 213.629 446.971 213.063 446.736C212.503 446.495 211.852 446.375 211.11 446.375C210.374 446.375 209.713 446.508 209.127 446.775C208.541 447.036 208.079 447.397 207.74 447.859C207.408 448.315 207.242 448.836 207.242 449.422V449.432C207.242 450.18 207.474 450.782 207.936 451.238C208.398 451.687 209.117 452.029 210.094 452.264L211.725 452.654C212.356 452.81 212.809 453.012 213.082 453.26C213.356 453.501 213.492 453.8 213.492 454.158V454.178C213.492 454.49 213.391 454.767 213.19 455.008C212.988 455.249 212.711 455.437 212.36 455.574C212.008 455.704 211.595 455.769 211.119 455.769C210.442 455.769 209.899 455.636 209.488 455.369C209.085 455.096 208.815 454.731 208.678 454.275V454.256H206.949V454.275C207.015 454.861 207.223 455.372 207.574 455.809C207.933 456.245 208.408 456.583 209 456.824C209.599 457.065 210.289 457.185 211.071 457.185ZM227.233 457.185C228.216 457.185 229.065 456.967 229.781 456.531C230.504 456.095 231.061 455.473 231.451 454.666C231.849 453.859 232.047 452.898 232.047 451.785V451.766C232.047 450.652 231.849 449.692 231.451 448.885C231.061 448.077 230.504 447.459 229.781 447.029C229.065 446.593 228.212 446.375 227.223 446.375C226.246 446.375 225.397 446.593 224.674 447.029C223.951 447.459 223.391 448.077 222.994 448.885C222.604 449.692 222.408 450.652 222.408 451.766V451.785C222.408 452.898 222.604 453.859 222.994 454.666C223.391 455.473 223.951 456.095 224.674 456.531C225.397 456.967 226.25 457.185 227.233 457.185ZM227.233 455.682C226.582 455.682 226.025 455.529 225.563 455.223C225.107 454.91 224.755 454.464 224.508 453.885C224.267 453.305 224.147 452.605 224.147 451.785V451.766C224.147 450.945 224.267 450.245 224.508 449.666C224.755 449.087 225.107 448.644 225.563 448.338C226.025 448.032 226.578 447.879 227.223 447.879C227.874 447.879 228.427 448.032 228.883 448.338C229.345 448.644 229.697 449.087 229.938 449.666C230.185 450.245 230.309 450.945 230.309 451.766V451.785C230.309 452.605 230.185 453.305 229.938 453.885C229.697 454.464 229.345 454.91 228.883 455.223C228.427 455.529 227.877 455.682 227.233 455.682ZM234.469 460.496H236.168V455.33H236.305C236.5 455.714 236.761 456.043 237.086 456.316C237.418 456.59 237.796 456.805 238.219 456.961C238.642 457.111 239.095 457.185 239.576 457.185C240.455 457.185 241.224 456.964 241.881 456.521C242.539 456.072 243.05 455.444 243.414 454.637C243.779 453.829 243.961 452.879 243.961 451.785V451.775C243.961 450.688 243.779 449.741 243.414 448.934C243.05 448.12 242.539 447.491 241.881 447.049C241.224 446.6 240.452 446.375 239.567 446.375C239.078 446.375 238.626 446.45 238.209 446.6C237.799 446.749 237.431 446.964 237.106 447.244C236.787 447.524 236.52 447.859 236.305 448.25H236.168V446.56H234.469V460.496ZM239.196 455.682C238.571 455.682 238.03 455.525 237.574 455.213C237.119 454.894 236.764 454.445 236.51 453.865C236.263 453.279 236.139 452.586 236.139 451.785V451.775C236.139 450.975 236.263 450.284 236.51 449.705C236.757 449.119 237.109 448.67 237.565 448.357C238.027 448.038 238.571 447.879 239.196 447.879C239.827 447.879 240.367 448.035 240.817 448.348C241.272 448.66 241.621 449.106 241.862 449.685C242.102 450.265 242.223 450.962 242.223 451.775V451.785C242.223 452.592 242.102 453.289 241.862 453.875C241.621 454.454 241.272 454.9 240.817 455.213C240.367 455.525 239.827 455.682 239.196 455.682ZM246.442 457H248.141V446.56H246.442V457ZM247.301 444.607C247.62 444.607 247.89 444.493 248.112 444.266C248.333 444.038 248.444 443.768 248.444 443.455C248.444 443.136 248.333 442.866 248.112 442.644C247.89 442.423 247.62 442.312 247.301 442.312C246.988 442.312 246.718 442.423 246.49 442.644C246.263 442.866 246.149 443.136 246.149 443.455C246.149 443.768 246.263 444.038 246.49 444.266C246.718 444.493 246.988 444.607 247.301 444.607ZM251.129 457H252.828V450.828C252.828 450.223 252.939 449.702 253.16 449.266C253.388 448.823 253.704 448.481 254.108 448.24C254.518 447.999 255 447.879 255.553 447.879C256.38 447.879 256.992 448.107 257.389 448.562C257.786 449.012 257.985 449.699 257.985 450.623V457H259.684V450.232C259.684 449.008 259.368 448.061 258.737 447.391C258.105 446.713 257.207 446.375 256.041 446.375C255.266 446.375 254.625 446.531 254.117 446.844C253.616 447.15 253.232 447.573 252.965 448.113H252.828V446.56H251.129V457ZM262.594 457H264.293V446.56H262.594V457ZM263.453 444.607C263.772 444.607 264.043 444.493 264.264 444.266C264.485 444.038 264.596 443.768 264.596 443.455C264.596 443.136 264.485 442.866 264.264 442.644C264.043 442.423 263.772 442.312 263.453 442.312C263.141 442.312 262.871 442.423 262.643 442.644C262.415 442.866 262.301 443.136 262.301 443.455C262.301 443.768 262.415 444.038 262.643 444.266C262.871 444.493 263.141 444.607 263.453 444.607ZM271.588 457.185C272.571 457.185 273.421 456.967 274.137 456.531C274.86 456.095 275.416 455.473 275.807 454.666C276.204 453.859 276.403 452.898 276.403 451.785V451.766C276.403 450.652 276.204 449.692 275.807 448.885C275.416 448.077 274.86 447.459 274.137 447.029C273.421 446.593 272.568 446.375 271.578 446.375C270.602 446.375 269.752 446.593 269.03 447.029C268.307 447.459 267.747 448.077 267.35 448.885C266.959 449.692 266.764 450.652 266.764 451.766V451.785C266.764 452.898 266.959 453.859 267.35 454.666C267.747 455.473 268.307 456.095 269.03 456.531C269.752 456.967 270.605 457.185 271.588 457.185ZM271.588 455.682C270.937 455.682 270.38 455.529 269.918 455.223C269.462 454.91 269.111 454.464 268.863 453.885C268.623 453.305 268.502 452.605 268.502 451.785V451.766C268.502 450.945 268.623 450.245 268.863 449.666C269.111 449.087 269.462 448.644 269.918 448.338C270.38 448.032 270.934 447.879 271.578 447.879C272.229 447.879 272.783 448.032 273.238 448.338C273.701 448.644 274.052 449.087 274.293 449.666C274.541 450.245 274.664 450.945 274.664 451.766V451.785C274.664 452.605 274.541 453.305 274.293 453.885C274.052 454.464 273.701 454.91 273.238 455.223C272.783 455.529 272.233 455.682 271.588 455.682ZM278.824 457H280.524V450.828C280.524 450.223 280.634 449.702 280.856 449.266C281.084 448.823 281.399 448.481 281.803 448.24C282.213 447.999 282.695 447.879 283.248 447.879C284.075 447.879 284.687 448.107 285.084 448.562C285.481 449.012 285.68 449.699 285.68 450.623V457H287.379V450.232C287.379 449.008 287.063 448.061 286.432 447.391C285.8 446.713 284.902 446.375 283.737 446.375C282.962 446.375 282.321 446.531 281.813 446.844C281.311 447.15 280.927 447.573 280.66 448.113H280.524V446.56H278.824V457ZM293.844 457.185C294.638 457.185 295.348 457.055 295.973 456.795C296.598 456.528 297.093 456.16 297.457 455.691C297.822 455.216 298.004 454.669 298.004 454.051V454.031C298.004 453.282 297.77 452.687 297.301 452.244C296.832 451.795 296.097 451.45 295.094 451.209L293.473 450.818C292.867 450.675 292.428 450.486 292.155 450.252C291.888 450.011 291.754 449.715 291.754 449.363V449.344C291.754 449.031 291.845 448.761 292.028 448.533C292.21 448.299 292.461 448.116 292.78 447.986C293.099 447.856 293.466 447.791 293.883 447.791C294.515 447.791 295.026 447.928 295.416 448.201C295.807 448.468 296.054 448.816 296.158 449.246V449.266H297.819L297.809 449.236C297.744 448.663 297.539 448.162 297.194 447.732C296.855 447.303 296.403 446.971 295.836 446.736C295.276 446.495 294.625 446.375 293.883 446.375C293.147 446.375 292.487 446.508 291.901 446.775C291.315 447.036 290.852 447.397 290.514 447.859C290.182 448.315 290.016 448.836 290.016 449.422V449.432C290.016 450.18 290.247 450.782 290.709 451.238C291.171 451.687 291.891 452.029 292.867 452.264L294.498 452.654C295.13 452.81 295.582 453.012 295.856 453.26C296.129 453.501 296.266 453.8 296.266 454.158V454.178C296.266 454.49 296.165 454.767 295.963 455.008C295.761 455.249 295.485 455.437 295.133 455.574C294.781 455.704 294.368 455.769 293.893 455.769C293.216 455.769 292.672 455.636 292.262 455.369C291.858 455.096 291.588 454.731 291.451 454.275V454.256H289.723V454.275C289.788 454.861 289.996 455.372 290.348 455.809C290.706 456.245 291.181 456.583 291.774 456.824C292.373 457.065 293.063 457.185 293.844 457.185ZM310.006 457.185C310.989 457.185 311.839 456.967 312.555 456.531C313.278 456.095 313.834 455.473 314.225 454.666C314.622 453.859 314.821 452.898 314.821 451.785V451.766C314.821 450.652 314.622 449.692 314.225 448.885C313.834 448.077 313.278 447.459 312.555 447.029C311.839 446.593 310.986 446.375 309.996 446.375C309.02 446.375 308.17 446.593 307.447 447.029C306.725 447.459 306.165 448.077 305.768 448.885C305.377 449.692 305.182 450.652 305.182 451.766V451.785C305.182 452.898 305.377 453.859 305.768 454.666C306.165 455.473 306.725 456.095 307.447 456.531C308.17 456.967 309.023 457.185 310.006 457.185ZM310.006 455.682C309.355 455.682 308.798 455.529 308.336 455.223C307.88 454.91 307.529 454.464 307.281 453.885C307.041 453.305 306.92 452.605 306.92 451.785V451.766C306.92 450.945 307.041 450.245 307.281 449.666C307.529 449.087 307.88 448.644 308.336 448.338C308.798 448.032 309.352 447.879 309.996 447.879C310.647 447.879 311.201 448.032 311.656 448.338C312.119 448.644 312.47 449.087 312.711 449.666C312.959 450.245 313.082 450.945 313.082 451.766V451.785C313.082 452.605 312.959 453.305 312.711 453.885C312.47 454.464 312.119 454.91 311.656 455.223C311.201 455.529 310.651 455.682 310.006 455.682ZM317.242 457H318.942V450.828C318.942 450.223 319.052 449.702 319.274 449.266C319.502 448.823 319.817 448.481 320.221 448.24C320.631 447.999 321.113 447.879 321.666 447.879C322.493 447.879 323.105 448.107 323.502 448.562C323.899 449.012 324.098 449.699 324.098 450.623V457H325.797V450.232C325.797 449.008 325.481 448.061 324.85 447.391C324.218 446.713 323.32 446.375 322.155 446.375C321.38 446.375 320.738 446.531 320.231 446.844C319.729 447.15 319.345 447.573 319.078 448.113H318.942V446.56H317.242V457ZM337.535 457.185C338.33 457.185 339.039 457.055 339.664 456.795C340.289 456.528 340.784 456.16 341.149 455.691C341.513 455.216 341.696 454.669 341.696 454.051V454.031C341.696 453.282 341.461 452.687 340.992 452.244C340.524 451.795 339.788 451.45 338.785 451.209L337.164 450.818C336.559 450.675 336.119 450.486 335.846 450.252C335.579 450.011 335.446 449.715 335.446 449.363V449.344C335.446 449.031 335.537 448.761 335.719 448.533C335.901 448.299 336.152 448.116 336.471 447.986C336.79 447.856 337.158 447.791 337.574 447.791C338.206 447.791 338.717 447.928 339.108 448.201C339.498 448.468 339.746 448.816 339.85 449.246V449.266H341.51L341.5 449.236C341.435 448.663 341.23 448.162 340.885 447.732C340.546 447.303 340.094 446.971 339.528 446.736C338.968 446.495 338.317 446.375 337.574 446.375C336.839 446.375 336.178 446.508 335.592 446.775C335.006 447.036 334.544 447.397 334.205 447.859C333.873 448.315 333.707 448.836 333.707 449.422V449.432C333.707 450.18 333.938 450.782 334.401 451.238C334.863 451.687 335.582 452.029 336.559 452.264L338.19 452.654C338.821 452.81 339.274 453.012 339.547 453.26C339.821 453.501 339.957 453.8 339.957 454.158V454.178C339.957 454.49 339.856 454.767 339.655 455.008C339.453 455.249 339.176 455.437 338.824 455.574C338.473 455.704 338.059 455.769 337.584 455.769C336.907 455.769 336.363 455.636 335.953 455.369C335.55 455.096 335.28 454.731 335.143 454.275V454.256H333.414V454.275C333.479 454.861 333.688 455.372 334.039 455.809C334.397 456.245 334.873 456.583 335.465 456.824C336.064 457.065 336.754 457.185 337.535 457.185ZM344.117 460.496H345.817V455.33H345.953C346.149 455.714 346.409 456.043 346.735 456.316C347.067 456.59 347.444 456.805 347.867 456.961C348.291 457.111 348.743 457.185 349.225 457.185C350.104 457.185 350.872 456.964 351.53 456.521C352.187 456.072 352.698 455.444 353.063 454.637C353.427 453.829 353.61 452.879 353.61 451.785V451.775C353.61 450.688 353.427 449.741 353.063 448.934C352.698 448.12 352.187 447.491 351.53 447.049C350.872 446.6 350.1 446.375 349.215 446.375C348.727 446.375 348.274 446.45 347.858 446.6C347.447 446.749 347.08 446.964 346.754 447.244C346.435 447.524 346.168 447.859 345.953 448.25H345.817V446.56H344.117V460.496ZM348.844 455.682C348.219 455.682 347.679 455.525 347.223 455.213C346.767 454.894 346.412 454.445 346.158 453.865C345.911 453.279 345.787 452.586 345.787 451.785V451.775C345.787 450.975 345.911 450.284 346.158 449.705C346.406 449.119 346.757 448.67 347.213 448.357C347.675 448.038 348.219 447.879 348.844 447.879C349.475 447.879 350.016 448.035 350.465 448.348C350.921 448.66 351.269 449.106 351.51 449.685C351.751 450.265 351.871 450.962 351.871 451.775V451.785C351.871 452.592 351.751 453.289 351.51 453.875C351.269 454.454 350.921 454.9 350.465 455.213C350.016 455.525 349.475 455.682 348.844 455.682ZM360.309 457.185C360.908 457.185 361.455 457.107 361.949 456.951C362.444 456.795 362.874 456.58 363.238 456.307C363.603 456.033 363.903 455.727 364.137 455.389C364.371 455.044 364.531 454.685 364.615 454.314L364.635 454.236H362.946L362.906 454.324C362.815 454.552 362.656 454.77 362.428 454.978C362.2 455.18 361.91 455.346 361.559 455.477C361.214 455.607 360.81 455.672 360.348 455.672C359.716 455.672 359.166 455.532 358.697 455.252C358.235 454.972 357.877 454.572 357.623 454.051C357.376 453.523 357.252 452.889 357.252 452.146V451.482C357.252 450.701 357.379 450.044 357.633 449.51C357.893 448.976 358.245 448.572 358.688 448.299C359.13 448.025 359.632 447.889 360.192 447.889C360.752 447.889 361.246 448.019 361.676 448.279C362.106 448.54 362.444 448.934 362.692 449.461C362.939 449.988 363.063 450.662 363.063 451.482V452.146L363.903 450.906H356.383V452.264H364.762V451.609C364.762 450.568 364.58 449.656 364.215 448.875C363.85 448.087 363.326 447.475 362.643 447.039C361.959 446.596 361.145 446.375 360.201 446.375C359.257 446.375 358.431 446.606 357.721 447.068C357.018 447.524 356.474 448.159 356.09 448.973C355.706 449.786 355.514 450.73 355.514 451.805V451.814C355.514 452.908 355.706 453.859 356.09 454.666C356.474 455.467 357.024 456.088 357.74 456.531C358.457 456.967 359.313 457.185 360.309 457.185ZM371.471 457.185C372.298 457.185 373.011 457.046 373.61 456.766C374.209 456.479 374.694 456.088 375.065 455.594C375.436 455.092 375.686 454.523 375.817 453.885L375.836 453.787L374.156 453.797L374.137 453.855C373.955 454.441 373.639 454.894 373.19 455.213C372.747 455.525 372.171 455.682 371.461 455.682C370.849 455.682 370.312 455.522 369.85 455.203C369.394 454.884 369.039 454.432 368.785 453.846C368.531 453.26 368.405 452.563 368.405 451.756V451.746C368.405 450.958 368.528 450.275 368.776 449.695C369.03 449.116 369.384 448.67 369.84 448.357C370.296 448.038 370.836 447.879 371.461 447.879C372.216 447.879 372.819 448.064 373.268 448.435C373.724 448.8 374.013 449.243 374.137 449.764L374.156 449.803H375.836L375.826 449.734C375.729 449.122 375.498 448.562 375.133 448.055C374.768 447.547 374.277 447.14 373.658 446.834C373.046 446.528 372.314 446.375 371.461 446.375C370.485 446.375 369.638 446.596 368.922 447.039C368.206 447.482 367.649 448.103 367.252 448.904C366.862 449.705 366.666 450.649 366.666 451.736V451.756C366.666 452.863 366.862 453.823 367.252 454.637C367.649 455.444 368.206 456.072 368.922 456.521C369.645 456.964 370.494 457.185 371.471 457.185ZM378.16 457H379.86V446.56H378.16V457ZM379.02 444.607C379.339 444.607 379.609 444.493 379.83 444.266C380.052 444.038 380.162 443.768 380.162 443.455C380.162 443.136 380.052 442.866 379.83 442.644C379.609 442.423 379.339 442.312 379.02 442.312C378.707 442.312 378.437 442.423 378.209 442.644C377.981 442.866 377.867 443.136 377.867 443.455C377.867 443.768 377.981 444.038 378.209 444.266C378.437 444.493 378.707 444.607 379.02 444.607ZM383.522 457H385.221V447.967H387.535V446.56H385.211V445.408C385.211 444.848 385.338 444.428 385.592 444.148C385.852 443.868 386.269 443.728 386.842 443.728C386.985 443.728 387.125 443.732 387.262 443.738C387.399 443.745 387.519 443.754 387.623 443.768V442.41C387.461 442.378 387.285 442.355 387.096 442.342C386.907 442.329 386.712 442.322 386.51 442.322C385.527 442.322 384.781 442.573 384.274 443.074C383.772 443.575 383.522 444.34 383.522 445.369V446.56H381.852V447.967H383.522V457ZM389.879 457H391.578V446.56H389.879V457ZM390.738 444.607C391.058 444.607 391.328 444.493 391.549 444.266C391.77 444.038 391.881 443.768 391.881 443.455C391.881 443.136 391.77 442.866 391.549 442.644C391.328 442.423 391.058 442.312 390.738 442.312C390.426 442.312 390.156 442.423 389.928 442.644C389.7 442.866 389.586 443.136 389.586 443.455C389.586 443.768 389.7 444.038 389.928 444.266C390.156 444.493 390.426 444.607 390.738 444.607ZM398.854 457.185C399.681 457.185 400.393 457.046 400.992 456.766C401.591 456.479 402.076 456.088 402.447 455.594C402.819 455.092 403.069 454.523 403.199 453.885L403.219 453.787L401.539 453.797L401.52 453.855C401.337 454.441 401.022 454.894 400.572 455.213C400.13 455.525 399.554 455.682 398.844 455.682C398.232 455.682 397.695 455.522 397.233 455.203C396.777 454.884 396.422 454.432 396.168 453.846C395.914 453.26 395.787 452.563 395.787 451.756V451.746C395.787 450.958 395.911 450.275 396.158 449.695C396.412 449.116 396.767 448.67 397.223 448.357C397.679 448.038 398.219 447.879 398.844 447.879C399.599 447.879 400.201 448.064 400.651 448.435C401.106 448.8 401.396 449.243 401.52 449.764L401.539 449.803H403.219L403.209 449.734C403.112 449.122 402.88 448.562 402.516 448.055C402.151 447.547 401.66 447.14 401.041 446.834C400.429 446.528 399.697 446.375 398.844 446.375C397.867 446.375 397.021 446.596 396.305 447.039C395.589 447.482 395.032 448.103 394.635 448.904C394.244 449.705 394.049 450.649 394.049 451.736V451.756C394.049 452.863 394.244 453.823 394.635 454.637C395.032 455.444 395.589 456.072 396.305 456.521C397.028 456.964 397.877 457.185 398.854 457.185ZM109.078 481.185C109.873 481.185 110.582 481.055 111.207 480.795C111.832 480.528 112.327 480.16 112.692 479.691C113.056 479.216 113.238 478.669 113.238 478.051V478.031C113.238 477.282 113.004 476.687 112.535 476.244C112.067 475.795 111.331 475.45 110.328 475.209L108.707 474.818C108.102 474.675 107.662 474.486 107.389 474.252C107.122 474.011 106.988 473.715 106.988 473.363V473.344C106.988 473.031 107.08 472.761 107.262 472.533C107.444 472.299 107.695 472.116 108.014 471.986C108.333 471.856 108.701 471.791 109.117 471.791C109.749 471.791 110.26 471.928 110.651 472.201C111.041 472.468 111.289 472.816 111.393 473.246V473.266H113.053L113.043 473.236C112.978 472.663 112.773 472.162 112.428 471.732C112.089 471.303 111.637 470.971 111.071 470.736C110.511 470.495 109.86 470.375 109.117 470.375C108.382 470.375 107.721 470.508 107.135 470.775C106.549 471.036 106.087 471.397 105.748 471.859C105.416 472.315 105.25 472.836 105.25 473.422V473.432C105.25 474.18 105.481 474.782 105.944 475.238C106.406 475.687 107.125 476.029 108.102 476.264L109.733 476.654C110.364 476.81 110.817 477.012 111.09 477.26C111.363 477.501 111.5 477.8 111.5 478.158V478.178C111.5 478.49 111.399 478.767 111.197 479.008C110.996 479.249 110.719 479.437 110.367 479.574C110.016 479.704 109.602 479.769 109.127 479.769C108.45 479.769 107.906 479.636 107.496 479.369C107.093 479.096 106.822 478.731 106.686 478.275V478.256H104.957V478.275C105.022 478.861 105.231 479.372 105.582 479.809C105.94 480.245 106.416 480.583 107.008 480.824C107.607 481.065 108.297 481.185 109.078 481.185ZM119.176 481.185C119.951 481.185 120.599 481.032 121.119 480.727C121.647 480.421 122.041 479.997 122.301 479.457H122.428V481H124.127V470.56H122.428V476.732C122.428 477.331 122.321 477.852 122.106 478.295C121.891 478.738 121.575 479.079 121.158 479.32C120.742 479.561 120.234 479.682 119.635 479.682C118.808 479.682 118.209 479.454 117.838 478.998C117.467 478.542 117.281 477.855 117.281 476.937V470.56H115.582V477.328C115.582 478.135 115.716 478.829 115.983 479.408C116.256 479.988 116.66 480.43 117.194 480.736C117.734 481.036 118.395 481.185 119.176 481.185ZM132.262 481.185C133.147 481.185 133.919 480.964 134.576 480.521C135.234 480.072 135.745 479.444 136.11 478.637C136.474 477.823 136.656 476.872 136.656 475.785V475.766C136.656 474.678 136.474 473.731 136.11 472.924C135.745 472.116 135.234 471.491 134.576 471.049C133.919 470.6 133.151 470.375 132.272 470.375C131.549 470.375 130.895 470.544 130.309 470.883C129.729 471.215 129.29 471.664 128.99 472.23H128.863V466.439H127.164V481H128.863V479.31H128.99C129.316 479.896 129.759 480.355 130.319 480.687C130.885 481.019 131.533 481.185 132.262 481.185ZM131.881 479.682C131.263 479.682 130.722 479.525 130.26 479.213C129.804 478.894 129.453 478.441 129.205 477.855C128.958 477.269 128.834 476.579 128.834 475.785V475.766C128.834 474.971 128.958 474.284 129.205 473.705C129.453 473.119 129.804 472.67 130.26 472.357C130.722 472.038 131.263 471.879 131.881 471.879C132.519 471.879 133.063 472.035 133.512 472.348C133.961 472.66 134.306 473.106 134.547 473.685C134.794 474.265 134.918 474.958 134.918 475.766V475.785C134.918 476.592 134.794 477.289 134.547 477.875C134.306 478.454 133.961 478.9 133.512 479.213C133.063 479.525 132.519 479.682 131.881 479.682ZM137.613 484.574C138.714 484.574 139.524 484.327 140.045 483.832C140.566 483.344 140.826 482.566 140.826 481.498V470.56H139.127V481.527C139.127 482.1 139.01 482.501 138.776 482.728C138.541 482.956 138.138 483.07 137.565 483.07C137.519 483.07 137.477 483.07 137.438 483.07C137.399 483.07 137.356 483.07 137.311 483.07V484.564C137.363 484.571 137.415 484.574 137.467 484.574C137.519 484.574 137.568 484.574 137.613 484.574ZM139.977 468.607C140.296 468.607 140.566 468.493 140.787 468.266C141.009 468.038 141.119 467.768 141.119 467.455C141.119 467.136 141.009 466.866 140.787 466.644C140.566 466.423 140.296 466.312 139.977 466.312C139.664 466.312 139.394 466.423 139.166 466.644C138.938 466.866 138.824 467.136 138.824 467.455C138.824 467.768 138.938 468.038 139.166 468.266C139.394 468.493 139.664 468.607 139.977 468.607ZM148.102 481.185C148.701 481.185 149.248 481.107 149.742 480.951C150.237 480.795 150.667 480.58 151.031 480.307C151.396 480.033 151.696 479.727 151.93 479.389C152.164 479.044 152.324 478.685 152.408 478.314L152.428 478.236H150.738L150.699 478.324C150.608 478.552 150.449 478.77 150.221 478.978C149.993 479.18 149.703 479.346 149.352 479.477C149.007 479.607 148.603 479.672 148.141 479.672C147.509 479.672 146.959 479.532 146.49 479.252C146.028 478.972 145.67 478.572 145.416 478.051C145.169 477.523 145.045 476.889 145.045 476.146V475.482C145.045 474.701 145.172 474.044 145.426 473.51C145.686 472.976 146.038 472.572 146.481 472.299C146.923 472.025 147.425 471.889 147.985 471.889C148.544 471.889 149.039 472.019 149.469 472.279C149.899 472.54 150.237 472.934 150.485 473.461C150.732 473.988 150.856 474.662 150.856 475.482V476.146L151.696 474.906H144.176V476.264H152.555V475.609C152.555 474.568 152.373 473.656 152.008 472.875C151.643 472.087 151.119 471.475 150.436 471.039C149.752 470.596 148.938 470.375 147.994 470.375C147.05 470.375 146.224 470.606 145.514 471.068C144.811 471.524 144.267 472.159 143.883 472.973C143.499 473.786 143.307 474.73 143.307 475.805V475.814C143.307 476.908 143.499 477.859 143.883 478.666C144.267 479.467 144.817 480.088 145.533 480.531C146.25 480.967 147.106 481.185 148.102 481.185ZM159.264 481.185C160.091 481.185 160.804 481.046 161.403 480.766C162.002 480.479 162.487 480.088 162.858 479.594C163.229 479.092 163.479 478.523 163.61 477.885L163.629 477.787L161.949 477.797L161.93 477.855C161.748 478.441 161.432 478.894 160.983 479.213C160.54 479.525 159.964 479.682 159.254 479.682C158.642 479.682 158.105 479.522 157.643 479.203C157.187 478.884 156.832 478.432 156.578 477.846C156.324 477.26 156.197 476.563 156.197 475.756V475.746C156.197 474.958 156.321 474.275 156.569 473.695C156.822 473.116 157.177 472.67 157.633 472.357C158.089 472.038 158.629 471.879 159.254 471.879C160.009 471.879 160.612 472.064 161.061 472.435C161.516 472.8 161.806 473.243 161.93 473.764L161.949 473.803H163.629L163.619 473.734C163.522 473.122 163.291 472.562 162.926 472.055C162.561 471.547 162.07 471.14 161.451 470.834C160.839 470.528 160.107 470.375 159.254 470.375C158.278 470.375 157.431 470.596 156.715 471.039C155.999 471.482 155.442 472.103 155.045 472.904C154.655 473.705 154.459 474.649 154.459 475.736V475.756C154.459 476.863 154.655 477.823 155.045 478.637C155.442 479.444 155.999 480.072 156.715 480.521C157.438 480.964 158.287 481.185 159.264 481.185ZM169.694 481.107C169.863 481.107 170.029 481.098 170.192 481.078C170.354 481.059 170.511 481.039 170.66 481.019V479.584C170.524 479.597 170.403 479.607 170.299 479.613C170.195 479.62 170.074 479.623 169.938 479.623C169.41 479.623 169.03 479.499 168.795 479.252C168.561 478.998 168.444 478.572 168.444 477.973V471.967H170.66V470.56H168.444V467.836H166.686V470.56H165.065V471.967H166.686V478.305C166.686 479.294 166.923 480.01 167.399 480.453C167.88 480.889 168.645 481.107 169.694 481.107ZM176.481 481.185C177.275 481.185 177.985 481.055 178.61 480.795C179.235 480.528 179.729 480.16 180.094 479.691C180.459 479.216 180.641 478.669 180.641 478.051V478.031C180.641 477.282 180.406 476.687 179.938 476.244C179.469 475.795 178.733 475.45 177.731 475.209L176.11 474.818C175.504 474.675 175.065 474.486 174.791 474.252C174.524 474.011 174.391 473.715 174.391 473.363V473.344C174.391 473.031 174.482 472.761 174.664 472.533C174.847 472.299 175.097 472.116 175.416 471.986C175.735 471.856 176.103 471.791 176.52 471.791C177.151 471.791 177.662 471.928 178.053 472.201C178.444 472.468 178.691 472.816 178.795 473.246V473.266H180.455L180.446 473.236C180.38 472.663 180.175 472.162 179.83 471.732C179.492 471.303 179.039 470.971 178.473 470.736C177.913 470.495 177.262 470.375 176.52 470.375C175.784 470.375 175.123 470.508 174.537 470.775C173.951 471.036 173.489 471.397 173.151 471.859C172.819 472.315 172.653 472.836 172.653 473.422V473.432C172.653 474.18 172.884 474.782 173.346 475.238C173.808 475.687 174.528 476.029 175.504 476.264L177.135 476.654C177.766 476.81 178.219 477.012 178.492 477.26C178.766 477.501 178.903 477.8 178.903 478.158V478.178C178.903 478.49 178.802 478.767 178.6 479.008C178.398 479.249 178.121 479.437 177.77 479.574C177.418 479.704 177.005 479.769 176.53 479.769C175.852 479.769 175.309 479.636 174.899 479.369C174.495 479.096 174.225 478.731 174.088 478.275V478.256H172.36V478.275C172.425 478.861 172.633 479.372 172.985 479.809C173.343 480.245 173.818 480.583 174.41 480.824C175.009 481.065 175.699 481.185 176.481 481.185ZM191.246 481.185C191.722 481.185 192.158 481.117 192.555 480.98C192.952 480.844 193.31 480.645 193.629 480.385C193.948 480.118 194.215 479.799 194.43 479.428H194.557V481H196.256V473.832C196.256 473.116 196.1 472.501 195.787 471.986C195.481 471.465 195.029 471.068 194.43 470.795C193.837 470.515 193.121 470.375 192.281 470.375C191.52 470.375 190.846 470.495 190.26 470.736C189.674 470.977 189.202 471.309 188.844 471.732C188.486 472.156 188.268 472.644 188.19 473.197L188.18 473.266H189.86L189.869 473.227C190 472.803 190.266 472.475 190.67 472.24C191.074 471.999 191.595 471.879 192.233 471.879C193.001 471.879 193.58 472.051 193.971 472.396C194.362 472.741 194.557 473.236 194.557 473.881V477.094C194.557 477.588 194.43 478.034 194.176 478.432C193.922 478.829 193.571 479.141 193.121 479.369C192.679 479.597 192.174 479.711 191.608 479.711C190.996 479.711 190.491 479.564 190.094 479.271C189.703 478.978 189.508 478.572 189.508 478.051V478.031C189.508 477.517 189.69 477.116 190.055 476.83C190.426 476.544 190.999 476.378 191.774 476.332L195.406 476.107V474.76L191.569 474.984C190.358 475.056 189.42 475.355 188.756 475.883C188.099 476.41 187.77 477.136 187.77 478.06V478.08C187.77 478.712 187.919 479.262 188.219 479.73C188.525 480.193 188.938 480.551 189.459 480.805C189.987 481.059 190.582 481.185 191.246 481.185ZM199.137 481H200.836V474.828C200.836 474.223 200.947 473.702 201.168 473.266C201.396 472.823 201.712 472.481 202.115 472.24C202.526 471.999 203.007 471.879 203.561 471.879C204.388 471.879 205 472.107 205.397 472.562C205.794 473.012 205.992 473.699 205.992 474.623V481H207.692V474.232C207.692 473.008 207.376 472.061 206.744 471.391C206.113 470.713 205.214 470.375 204.049 470.375C203.274 470.375 202.633 470.531 202.125 470.844C201.624 471.15 201.24 471.573 200.973 472.113H200.836V470.56H199.137V481ZM214.42 481.185C215.156 481.185 215.804 481.019 216.363 480.687C216.923 480.355 217.363 479.896 217.682 479.31H217.819V481H219.518V466.439H217.819V472.23H217.682C217.389 471.664 216.949 471.215 216.363 470.883C215.784 470.544 215.133 470.375 214.41 470.375C213.531 470.375 212.763 470.6 212.106 471.049C211.448 471.491 210.937 472.116 210.572 472.924C210.208 473.731 210.026 474.678 210.026 475.766V475.785C210.026 476.872 210.208 477.823 210.572 478.637C210.937 479.444 211.448 480.072 212.106 480.521C212.763 480.964 213.535 481.185 214.42 481.185ZM214.791 479.682C214.166 479.682 213.626 479.525 213.17 479.213C212.714 478.9 212.366 478.454 212.125 477.875C211.884 477.289 211.764 476.592 211.764 475.785V475.766C211.764 474.958 211.884 474.265 212.125 473.685C212.366 473.106 212.714 472.66 213.17 472.348C213.626 472.035 214.166 471.879 214.791 471.879C215.416 471.879 215.957 472.038 216.412 472.357C216.868 472.67 217.22 473.119 217.467 473.705C217.721 474.284 217.848 474.971 217.848 475.766V475.785C217.848 476.579 217.724 477.269 217.477 477.855C217.229 478.441 216.875 478.894 216.412 479.213C215.957 479.525 215.416 479.682 214.791 479.682ZM227.828 484.496H229.528V479.33H229.664C229.86 479.714 230.12 480.043 230.446 480.316C230.778 480.59 231.155 480.805 231.578 480.961C232.002 481.111 232.454 481.185 232.936 481.185C233.815 481.185 234.583 480.964 235.24 480.521C235.898 480.072 236.409 479.444 236.774 478.637C237.138 477.829 237.321 476.879 237.321 475.785V475.775C237.321 474.688 237.138 473.741 236.774 472.934C236.409 472.12 235.898 471.491 235.24 471.049C234.583 470.6 233.811 470.375 232.926 470.375C232.438 470.375 231.985 470.45 231.569 470.6C231.158 470.749 230.791 470.964 230.465 471.244C230.146 471.524 229.879 471.859 229.664 472.25H229.528V470.56H227.828V484.496ZM232.555 479.682C231.93 479.682 231.39 479.525 230.934 479.213C230.478 478.894 230.123 478.445 229.869 477.865C229.622 477.279 229.498 476.586 229.498 475.785V475.775C229.498 474.975 229.622 474.284 229.869 473.705C230.117 473.119 230.468 472.67 230.924 472.357C231.386 472.038 231.93 471.879 232.555 471.879C233.186 471.879 233.727 472.035 234.176 472.348C234.632 472.66 234.98 473.106 235.221 473.685C235.462 474.265 235.582 474.962 235.582 475.775V475.785C235.582 476.592 235.462 477.289 235.221 477.875C234.98 478.454 234.632 478.9 234.176 479.213C233.727 479.525 233.186 479.682 232.555 479.682ZM244.049 481.185C245.032 481.185 245.882 480.967 246.598 480.531C247.321 480.095 247.877 479.473 248.268 478.666C248.665 477.859 248.863 476.898 248.863 475.785V475.766C248.863 474.652 248.665 473.692 248.268 472.885C247.877 472.077 247.321 471.459 246.598 471.029C245.882 470.593 245.029 470.375 244.039 470.375C243.063 470.375 242.213 470.593 241.49 471.029C240.768 471.459 240.208 472.077 239.811 472.885C239.42 473.692 239.225 474.652 239.225 475.766V475.785C239.225 476.898 239.42 477.859 239.811 478.666C240.208 479.473 240.768 480.095 241.49 480.531C242.213 480.967 243.066 481.185 244.049 481.185ZM244.049 479.682C243.398 479.682 242.841 479.529 242.379 479.223C241.923 478.91 241.572 478.464 241.324 477.885C241.084 477.305 240.963 476.605 240.963 475.785V475.766C240.963 474.945 241.084 474.245 241.324 473.666C241.572 473.087 241.923 472.644 242.379 472.338C242.841 472.032 243.395 471.879 244.039 471.879C244.69 471.879 245.244 472.032 245.699 472.338C246.162 472.644 246.513 473.087 246.754 473.666C247.002 474.245 247.125 474.945 247.125 475.766V475.785C247.125 476.605 247.002 477.305 246.754 477.885C246.513 478.464 246.162 478.91 245.699 479.223C245.244 479.529 244.694 479.682 244.049 479.682ZM251.383 481H253.082V466.439H251.383V481ZM256.168 481H257.867V470.56H256.168V481ZM257.028 468.607C257.347 468.607 257.617 468.493 257.838 468.266C258.059 468.038 258.17 467.768 258.17 467.455C258.17 467.136 258.059 466.866 257.838 466.644C257.617 466.423 257.347 466.312 257.028 466.312C256.715 466.312 256.445 466.423 256.217 466.644C255.989 466.866 255.875 467.136 255.875 467.455C255.875 467.768 255.989 468.038 256.217 468.266C256.445 468.493 256.715 468.607 257.028 468.607ZM265.143 481.185C265.97 481.185 266.683 481.046 267.281 480.766C267.88 480.479 268.365 480.088 268.737 479.594C269.108 479.092 269.358 478.523 269.488 477.885L269.508 477.787L267.828 477.797L267.809 477.855C267.627 478.441 267.311 478.894 266.862 479.213C266.419 479.525 265.843 479.682 265.133 479.682C264.521 479.682 263.984 479.522 263.522 479.203C263.066 478.884 262.711 478.432 262.457 477.846C262.203 477.26 262.076 476.563 262.076 475.756V475.746C262.076 474.958 262.2 474.275 262.447 473.695C262.701 473.116 263.056 472.67 263.512 472.357C263.968 472.038 264.508 471.879 265.133 471.879C265.888 471.879 266.49 472.064 266.94 472.435C267.395 472.8 267.685 473.243 267.809 473.764L267.828 473.803H269.508L269.498 473.734C269.401 473.122 269.169 472.562 268.805 472.055C268.44 471.547 267.949 471.14 267.33 470.834C266.718 470.528 265.986 470.375 265.133 470.375C264.156 470.375 263.31 470.596 262.594 471.039C261.878 471.482 261.321 472.103 260.924 472.904C260.533 473.705 260.338 474.649 260.338 475.736V475.756C260.338 476.863 260.533 477.823 260.924 478.637C261.321 479.444 261.878 480.072 262.594 480.521C263.317 480.964 264.166 481.185 265.143 481.185ZM271.832 481H273.531V470.56H271.832V481ZM272.692 468.607C273.011 468.607 273.281 468.493 273.502 468.266C273.724 468.038 273.834 467.768 273.834 467.455C273.834 467.136 273.724 466.866 273.502 466.644C273.281 466.423 273.011 466.312 272.692 466.312C272.379 466.312 272.109 466.423 271.881 466.644C271.653 466.866 271.539 467.136 271.539 467.455C271.539 467.768 271.653 468.038 271.881 468.266C272.109 468.493 272.379 468.607 272.692 468.607ZM280.797 481.185C281.396 481.185 281.943 481.107 282.438 480.951C282.933 480.795 283.362 480.58 283.727 480.307C284.091 480.033 284.391 479.727 284.625 479.389C284.86 479.044 285.019 478.685 285.104 478.314L285.123 478.236H283.434L283.395 478.324C283.304 478.552 283.144 478.77 282.916 478.978C282.688 479.18 282.399 479.346 282.047 479.477C281.702 479.607 281.298 479.672 280.836 479.672C280.205 479.672 279.655 479.532 279.186 479.252C278.724 478.972 278.365 478.572 278.112 478.051C277.864 477.523 277.74 476.889 277.74 476.146V475.482C277.74 474.701 277.867 474.044 278.121 473.51C278.382 472.976 278.733 472.572 279.176 472.299C279.619 472.025 280.12 471.889 280.68 471.889C281.24 471.889 281.735 472.019 282.164 472.279C282.594 472.54 282.933 472.934 283.18 473.461C283.427 473.988 283.551 474.662 283.551 475.482V476.146L284.391 474.906H276.871V476.264H285.25V475.609C285.25 474.568 285.068 473.656 284.703 472.875C284.339 472.087 283.815 471.475 283.131 471.039C282.447 470.596 281.634 470.375 280.69 470.375C279.746 470.375 278.919 470.606 278.209 471.068C277.506 471.524 276.962 472.159 276.578 472.973C276.194 473.786 276.002 474.73 276.002 475.805V475.814C276.002 476.908 276.194 477.859 276.578 478.666C276.962 479.467 277.513 480.088 278.229 480.531C278.945 480.967 279.801 481.185 280.797 481.185ZM291.285 481.185C292.08 481.185 292.789 481.055 293.414 480.795C294.039 480.528 294.534 480.16 294.899 479.691C295.263 479.216 295.446 478.669 295.446 478.051V478.031C295.446 477.282 295.211 476.687 294.742 476.244C294.274 475.795 293.538 475.45 292.535 475.209L290.914 474.818C290.309 474.675 289.869 474.486 289.596 474.252C289.329 474.011 289.196 473.715 289.196 473.363V473.344C289.196 473.031 289.287 472.761 289.469 472.533C289.651 472.299 289.902 472.116 290.221 471.986C290.54 471.856 290.908 471.791 291.324 471.791C291.956 471.791 292.467 471.928 292.858 472.201C293.248 472.468 293.496 472.816 293.6 473.246V473.266H295.26L295.25 473.236C295.185 472.663 294.98 472.162 294.635 471.732C294.296 471.303 293.844 470.971 293.278 470.736C292.718 470.495 292.067 470.375 291.324 470.375C290.589 470.375 289.928 470.508 289.342 470.775C288.756 471.036 288.294 471.397 287.955 471.859C287.623 472.315 287.457 472.836 287.457 473.422V473.432C287.457 474.18 287.688 474.782 288.151 475.238C288.613 475.687 289.332 476.029 290.309 476.264L291.94 476.654C292.571 476.81 293.024 477.012 293.297 477.26C293.571 477.501 293.707 477.8 293.707 478.158V478.178C293.707 478.49 293.606 478.767 293.405 479.008C293.203 479.249 292.926 479.437 292.574 479.574C292.223 479.704 291.809 479.769 291.334 479.769C290.657 479.769 290.113 479.636 289.703 479.369C289.3 479.096 289.03 478.731 288.893 478.275V478.256H287.164V478.275C287.229 478.861 287.438 479.372 287.789 479.809C288.147 480.245 288.623 480.583 289.215 480.824C289.814 481.065 290.504 481.185 291.285 481.185Z" fill="#707070"/>
<rect x="104" y="536.999" width="187" height="54" rx="10" fill="#4824D6"/>
<path d="M151.627 571.321C152.871 571.321 153.945 571.077 154.85 570.589C155.761 570.101 156.464 569.414 156.959 568.529C157.461 567.637 157.711 566.585 157.711 565.374V563.704H151.901V565.472H155.543V565.765C155.537 566.487 155.367 567.119 155.035 567.659C154.71 568.2 154.254 568.623 153.668 568.929C153.089 569.228 152.418 569.378 151.656 569.378C150.771 569.378 150.006 569.16 149.362 568.724C148.717 568.281 148.216 567.653 147.858 566.839C147.506 566.019 147.33 565.049 147.33 563.929V563.909C147.33 562.809 147.503 561.859 147.848 561.058C148.199 560.251 148.694 559.629 149.332 559.193C149.977 558.75 150.735 558.529 151.608 558.529C152.558 558.529 153.356 558.753 154 559.202C154.651 559.652 155.107 560.293 155.367 561.126L155.397 561.224H157.613L157.584 561.107C157.415 560.215 157.06 559.43 156.52 558.753C155.986 558.076 155.302 557.545 154.469 557.161C153.636 556.777 152.682 556.585 151.608 556.585C150.286 556.585 149.137 556.888 148.16 557.493C147.184 558.092 146.429 558.942 145.895 560.042C145.361 561.136 145.094 562.428 145.094 563.919V563.939C145.094 565.449 145.361 566.758 145.895 567.864C146.429 568.965 147.184 569.818 148.16 570.423C149.137 571.022 150.293 571.321 151.627 571.321ZM164.713 571.204C165.377 571.204 165.97 571.12 166.49 570.95C167.018 570.775 167.467 570.543 167.838 570.257C168.216 569.964 168.518 569.642 168.746 569.29C168.974 568.932 169.13 568.571 169.215 568.206L169.235 568.118H167.194L167.164 568.196C167.08 568.398 166.933 568.597 166.725 568.792C166.516 568.981 166.246 569.14 165.914 569.271C165.589 569.401 165.205 569.466 164.762 569.466C164.176 569.466 163.668 569.336 163.238 569.075C162.809 568.815 162.477 568.441 162.242 567.952C162.008 567.464 161.891 566.875 161.891 566.185V565.345C161.891 564.622 162.008 564.014 162.242 563.519C162.483 563.017 162.809 562.64 163.219 562.386C163.629 562.132 164.095 562.005 164.615 562.005C165.136 562.005 165.595 562.129 165.992 562.376C166.396 562.617 166.712 562.985 166.94 563.48C167.168 563.968 167.281 564.59 167.281 565.345V566.175L168.307 564.779H160.836V566.292H169.352V565.55C169.352 564.495 169.16 563.574 168.776 562.786C168.398 561.992 167.854 561.374 167.145 560.931C166.435 560.488 165.589 560.267 164.606 560.267C163.623 560.267 162.766 560.498 162.037 560.96C161.315 561.416 160.755 562.054 160.358 562.874C159.961 563.695 159.762 564.655 159.762 565.755V565.765C159.762 566.878 159.961 567.842 160.358 568.655C160.755 569.469 161.321 570.098 162.057 570.54C162.799 570.983 163.684 571.204 164.713 571.204ZM175.572 571.097C175.781 571.097 175.983 571.087 176.178 571.068C176.373 571.048 176.549 571.025 176.705 570.999V569.32C176.575 569.326 176.455 569.336 176.344 569.349C176.233 569.355 176.103 569.359 175.953 569.359C175.452 569.359 175.084 569.238 174.85 568.997C174.622 568.756 174.508 568.359 174.508 567.806V562.152H176.705V560.472H174.508V557.796H172.34V560.472H170.729V562.152H172.34V568.226C172.34 569.241 172.597 569.974 173.112 570.423C173.626 570.872 174.446 571.097 175.572 571.097ZM187.975 571.204C188.815 571.204 189.56 571.068 190.211 570.794C190.869 570.521 191.386 570.14 191.764 569.652C192.141 569.157 192.33 568.584 192.33 567.933V567.913C192.33 567.152 192.086 566.546 191.598 566.097C191.116 565.641 190.361 565.296 189.332 565.062L187.653 564.671C187.073 564.534 186.656 564.359 186.403 564.144C186.149 563.929 186.022 563.659 186.022 563.333V563.314C186.022 563.027 186.103 562.78 186.266 562.571C186.435 562.363 186.666 562.2 186.959 562.083C187.252 561.966 187.591 561.907 187.975 561.907C188.574 561.907 189.052 562.034 189.41 562.288C189.775 562.542 190.003 562.864 190.094 563.255V563.284H192.115V563.245C192.057 562.666 191.855 562.155 191.51 561.712C191.165 561.263 190.693 560.911 190.094 560.657C189.495 560.397 188.792 560.267 187.985 560.267C187.19 560.267 186.484 560.404 185.865 560.677C185.247 560.944 184.762 561.315 184.41 561.79C184.065 562.259 183.893 562.803 183.893 563.421V563.431C183.893 564.199 184.134 564.821 184.615 565.296C185.097 565.771 185.836 566.123 186.832 566.351L188.512 566.732C189.111 566.875 189.537 567.057 189.791 567.279C190.052 567.5 190.182 567.777 190.182 568.109V568.128C190.182 568.415 190.091 568.665 189.908 568.88C189.726 569.095 189.472 569.264 189.147 569.388C188.828 569.505 188.45 569.564 188.014 569.564C187.382 569.564 186.878 569.44 186.5 569.193C186.123 568.939 185.869 568.603 185.738 568.187L185.729 568.157H183.61L183.619 568.187C183.684 568.786 183.899 569.313 184.264 569.769C184.635 570.218 185.133 570.57 185.758 570.823C186.383 571.077 187.122 571.204 187.975 571.204ZM198.502 571.097C198.711 571.097 198.912 571.087 199.108 571.068C199.303 571.048 199.479 571.025 199.635 570.999V569.32C199.505 569.326 199.384 569.336 199.274 569.349C199.163 569.355 199.033 569.359 198.883 569.359C198.382 569.359 198.014 569.238 197.78 568.997C197.552 568.756 197.438 568.359 197.438 567.806V562.152H199.635V560.472H197.438V557.796H195.27V560.472H193.658V562.152H195.27V568.226C195.27 569.241 195.527 569.974 196.041 570.423C196.556 570.872 197.376 571.097 198.502 571.097ZM204.83 571.185C205.299 571.185 205.732 571.116 206.129 570.98C206.526 570.843 206.881 570.648 207.194 570.394C207.506 570.133 207.766 569.824 207.975 569.466H208.112V570.999H210.221V563.782C210.221 563.053 210.058 562.428 209.733 561.907C209.407 561.38 208.932 560.976 208.307 560.696C207.688 560.41 206.94 560.267 206.061 560.267C205.247 560.267 204.531 560.394 203.912 560.648C203.3 560.895 202.806 561.24 202.428 561.683C202.057 562.126 201.832 562.637 201.754 563.216L201.744 563.304H203.776L203.795 563.255C203.912 562.871 204.156 562.571 204.528 562.357C204.899 562.135 205.384 562.025 205.983 562.025C206.679 562.025 207.207 562.181 207.565 562.493C207.929 562.806 208.112 563.249 208.112 563.821V567.093C208.112 567.549 207.994 567.956 207.76 568.314C207.526 568.672 207.203 568.958 206.793 569.173C206.383 569.381 205.921 569.486 205.406 569.486C204.834 569.486 204.365 569.352 204 569.085C203.636 568.812 203.453 568.434 203.453 567.952V567.933C203.453 567.471 203.626 567.106 203.971 566.839C204.316 566.572 204.84 566.419 205.543 566.38L209.166 566.155V564.661L205.26 564.896C204.01 564.967 203.043 565.27 202.36 565.804C201.676 566.338 201.334 567.073 201.334 568.011V568.03C201.334 568.668 201.484 569.225 201.783 569.7C202.089 570.169 202.503 570.534 203.024 570.794C203.551 571.055 204.153 571.185 204.83 571.185ZM212.985 570.999H215.113V564.71C215.113 564.202 215.221 563.763 215.436 563.392C215.651 563.014 215.953 562.724 216.344 562.523C216.735 562.314 217.19 562.21 217.711 562.21C217.913 562.21 218.105 562.223 218.287 562.249C218.47 562.269 218.642 562.298 218.805 562.337V560.374C218.707 560.355 218.577 560.335 218.414 560.316C218.258 560.296 218.095 560.286 217.926 560.286C217.249 560.286 216.679 560.446 216.217 560.765C215.755 561.084 215.433 561.533 215.25 562.112H215.113V560.472H212.985V570.999ZM224.85 571.097C225.058 571.097 225.26 571.087 225.455 571.068C225.651 571.048 225.826 571.025 225.983 570.999V569.32C225.852 569.326 225.732 569.336 225.621 569.349C225.511 569.355 225.38 569.359 225.231 569.359C224.729 569.359 224.362 569.238 224.127 568.997C223.899 568.756 223.785 568.359 223.785 567.806V562.152H225.983V560.472H223.785V557.796H221.617V560.472H220.006V562.152H221.617V568.226C221.617 569.241 221.875 569.974 222.389 570.423C222.903 570.872 223.724 571.097 224.85 571.097ZM232.565 571.204C233.229 571.204 233.821 571.12 234.342 570.95C234.869 570.775 235.319 570.543 235.69 570.257C236.067 569.964 236.37 569.642 236.598 569.29C236.826 568.932 236.982 568.571 237.067 568.206L237.086 568.118H235.045L235.016 568.196C234.931 568.398 234.785 568.597 234.576 568.792C234.368 568.981 234.098 569.14 233.766 569.271C233.44 569.401 233.056 569.466 232.613 569.466C232.028 569.466 231.52 569.336 231.09 569.075C230.66 568.815 230.328 568.441 230.094 567.952C229.86 567.464 229.742 566.875 229.742 566.185V565.345C229.742 564.622 229.86 564.014 230.094 563.519C230.335 563.017 230.66 562.64 231.071 562.386C231.481 562.132 231.946 562.005 232.467 562.005C232.988 562.005 233.447 562.129 233.844 562.376C234.248 562.617 234.563 562.985 234.791 563.48C235.019 563.968 235.133 564.59 235.133 565.345V566.175L236.158 564.779H228.688V566.292H237.203V565.55C237.203 564.495 237.011 563.574 236.627 562.786C236.25 561.992 235.706 561.374 234.996 560.931C234.287 560.488 233.44 560.267 232.457 560.267C231.474 560.267 230.618 560.498 229.889 560.96C229.166 561.416 228.606 562.054 228.209 562.874C227.812 563.695 227.613 564.655 227.613 565.755V565.765C227.613 566.878 227.812 567.842 228.209 568.655C228.606 569.469 229.173 570.098 229.908 570.54C230.651 570.983 231.536 571.204 232.565 571.204ZM243.375 571.185C244.117 571.185 244.768 571.019 245.328 570.687C245.888 570.355 246.318 569.896 246.617 569.31H246.754V570.999H248.883V556.39H246.754V562.161H246.617C246.331 561.588 245.898 561.133 245.319 560.794C244.746 560.456 244.095 560.286 243.365 560.286C242.48 560.286 241.709 560.508 241.051 560.95C240.4 561.393 239.895 562.021 239.537 562.835C239.179 563.649 239 564.612 239 565.726V565.745C239 566.852 239.179 567.812 239.537 568.626C239.895 569.44 240.403 570.071 241.061 570.521C241.718 570.963 242.49 571.185 243.375 571.185ZM243.961 569.368C243.382 569.368 242.884 569.222 242.467 568.929C242.05 568.636 241.728 568.219 241.5 567.679C241.279 567.139 241.168 566.494 241.168 565.745V565.726C241.168 564.971 241.279 564.326 241.5 563.792C241.728 563.252 242.05 562.835 242.467 562.542C242.89 562.249 243.388 562.103 243.961 562.103C244.541 562.103 245.039 562.249 245.455 562.542C245.878 562.835 246.204 563.252 246.432 563.792C246.666 564.333 246.783 564.977 246.783 565.726V565.745C246.783 566.487 246.669 567.129 246.442 567.669C246.214 568.209 245.888 568.629 245.465 568.929C245.042 569.222 244.541 569.368 243.961 569.368Z" fill="#FFFFFE"/>
<path d="M370.579 1023.9C395.327 1033.06 406.133 1050.99 406.133 1050.99C406.133 1050.99 396.559 1047.85 373.429 1057.09C351.687 1065.77 338.117 1048.37 337.222 1047.28C337.516 1047.83 339.7 1053.34 323.247 1080.42C305.69 1109.18 285.624 1102.98 285.624 1102.98C285.624 1102.98 297.029 1091.08 292.624 1074.37C289.349 1062.23 291.856 1051.66 296.005 1043.14C277.348 1058.13 243.256 1064.78 223.913 1022.61C204.334 1030.24 186.195 1034.68 184.452 1007.23C182.77 1007.23 117.341 997.673 124.013 947.336C122.487 947.172 121.273 946.69 120.521 946.023C119.319 944.956 119.198 943.36 120.477 940.625C108.676 941.76 46.9788 891.166 110.448 830.815C108.453 831.128 104.758 832.313 98.4088 836.203C86.172 843.797 75.0075 843.711 75.0075 843.711C75.0075 843.711 78.5992 840.052 83.4017 829.431C88.0421 819.262 98.4552 818.682 99.681 818.579C98.6114 818.523 90.2166 817.62 91.1294 802.654C92.001 789.735 92.5872 783.409 92.5872 783.409C92.5872 783.409 96.1671 780.335 103.171 789.529C108.24 796.111 113.741 803.971 117.018 808.368C110.753 785.244 117.282 764.844 155.99 749.193C154.101 744.242 161.9 729.137 173.931 731.778C173.135 725.714 205.486 683.882 242.325 692.765C243.748 690.456 245.315 688.573 246.877 686.983C251.874 681.893 257.714 680.527 265.24 686.612C301.897 666.461 323.089 662.35 345.843 687.011C354.842 680.71 360.34 681.125 361.204 691.417C362.147 690.171 362.933 689.083 364.026 687.969C380.736 670.95 420.417 667.771 425.711 708.785C428.948 692.31 438.341 681.597 438.341 681.597C438.341 681.597 445.879 687.096 447.297 700.261C448.679 715.181 444.357 724.74 444.357 724.74C444.357 724.74 453.594 714.186 470.629 726.626C487.357 739.092 491.288 741.391 491.288 741.391C491.288 741.391 485.592 743.182 473.941 744.45C463.979 745.43 454.93 746.627 448.026 747.643C460.576 754.912 475.822 772.612 463.109 803.894C481.431 805.571 479.366 824.575 468.523 831.322C482.045 835.882 521.11 893.774 447.079 916.472C452.233 926.404 447.247 930.91 437.724 932.875C438.992 945.907 418.525 1012.87 348.364 1010.43C349.837 1013.23 354.785 1018.21 370.579 1023.9Z" fill="#B2B2F1"/>
<path d="M559.133 279.739V88.8051C559.133 39.7776 522.419 0 477.149 0H87.4068C42.1336 0 5.44502 39.7776 5.44502 88.8051V164.396C3.85412 164.989 2.4758 166.093 1.50111 167.555C0.526408 169.018 0.00354762 170.766 0.00496933 172.559V202.742C-0.00230216 204.54 0.516841 206.295 1.49038 207.764C2.46391 209.233 3.84357 210.343 5.43751 210.94V246.094C3.84316 246.691 2.46333 247.801 1.48976 249.271C0.516192 250.741 -0.00282506 252.496 0.00496933 254.294V330.954C-0.0019096 332.748 0.517763 334.499 1.4916 335.964C2.46544 337.428 3.84495 338.533 5.43751 339.124V361.588C3.84396 362.183 2.46431 363.292 1.49068 364.76C0.517052 366.227 -0.00222024 367.981 0.00496933 369.778V446.437C-0.00230216 448.235 0.516841 449.99 1.49038 451.459C2.46391 452.928 3.84357 454.038 5.43751 454.635V1129.19C5.43751 1178.23 42.1336 1217.99 87.3992 1217.99H477.149C522.427 1217.99 559.133 1178.22 559.133 1129.16V424.927C560.831 424.409 562.324 423.315 563.383 421.812C564.442 420.308 565.01 418.477 565 416.599V288.067C565.01 286.188 564.442 284.358 563.383 282.854C562.324 281.35 560.831 280.256 559.133 279.739ZM548.293 1130.25C548.293 1172.76 516.479 1207.23 477.244 1207.23H87.324C48.066 1207.23 16.2471 1172.76 16.2471 1130.25V87.7553C16.2471 45.2453 48.061 10.7725 87.324 10.7725H477.244C516.479 10.7725 548.293 45.2426 548.293 87.7553V1130.25Z" fill="black"/>
<path d="M479.293 4H85.7351C46.1164 4 14 38.8382 14 81.7783V1135.22C14 1178.18 46.1113 1213 85.7351 1213H479.29C518.891 1213 551 1178.16 551 1135.22V81.7783C551 38.8193 518.891 4 479.293 4ZM535.511 1137.36C535.579 1144.76 534.276 1152.1 531.677 1158.96C529.078 1165.82 525.234 1172.07 520.363 1177.35C515.493 1182.63 509.692 1186.84 503.292 1189.73C496.891 1192.63 490.017 1194.16 483.062 1194.23H81.9434C67.8997 1194.08 54.487 1188.01 44.6554 1177.34C34.8238 1166.68 29.3785 1152.29 29.5173 1137.36V79.6556C29.3785 64.7217 34.8238 50.3408 44.6554 39.6758C54.487 29.0108 67.8997 22.9353 81.9434 22.7856H135.959V23.2636C137.969 23.2935 139.887 24.1669 141.294 25.6936C142.701 27.2203 143.484 29.2765 143.472 31.4142C143.449 40.4993 146.779 49.2313 152.746 55.7334C155.659 58.915 159.141 61.4444 162.987 63.1726C166.833 64.9007 170.966 65.7928 175.141 65.7961H388.487C392.69 65.7502 396.843 64.8244 400.709 63.0717C404.575 61.3189 408.079 58.7735 411.019 55.5808C413.96 52.3881 416.281 48.6104 417.849 44.4639C419.417 40.3174 420.201 35.8831 420.157 31.4142C420.162 29.258 420.962 27.1899 422.384 25.6537C423.075 24.8994 423.901 24.2994 424.813 23.889C425.725 23.4786 426.704 23.266 427.695 23.2636V22.7856H483.059C490.015 22.8573 496.889 24.3851 503.289 27.282C509.689 30.1788 515.49 34.3878 520.36 39.6687C525.231 44.9497 529.075 51.1991 531.674 58.0601C534.274 64.9211 535.576 72.2592 535.508 79.6556L535.511 1137.36Z" fill="#010003"/>
<path d="M-4.16006e-05 448.067V367.862C-0.00966456 367.023 0.136281 366.19 0.429461 365.41C0.722641 364.631 1.15731 363.921 1.70865 363.32C2.25999 362.719 2.9172 362.24 3.64275 361.909C4.3683 361.579 5.14798 361.403 5.93725 361.393V454.536C5.14798 454.526 4.3683 454.35 3.64275 454.02C2.9172 453.689 2.25999 453.21 1.70865 452.609C1.15731 452.008 0.722641 451.298 0.429461 450.519C0.136281 449.739 -0.00966456 448.906 -4.16006e-05 448.067ZM559.07 278.846C559.859 278.856 560.639 279.032 561.365 279.362C562.09 279.693 562.747 280.172 563.299 280.773C563.85 281.374 564.285 282.084 564.578 282.864C564.871 283.643 565.017 284.476 565.008 285.316V418.14C565.026 419.834 564.41 421.467 563.297 422.679C562.184 423.891 560.663 424.584 559.07 424.604V278.846ZM-4.16006e-05 331.672V251.468C-0.0188048 249.773 0.596137 248.14 1.70955 246.927C2.82296 245.714 4.34367 245.022 5.93725 245.001V338.141C5.14798 338.131 4.3683 337.956 3.64275 337.625C2.9172 337.295 2.25999 336.815 1.70865 336.215C1.15731 335.614 0.722641 334.904 0.429461 334.124C0.136281 333.345 -0.00966456 332.511 -4.16006e-05 331.672V331.672ZM-4.16006e-05 203.212V169.308C-0.00966456 168.469 0.136281 167.636 0.429461 166.856C0.722641 166.077 1.15731 165.367 1.70865 164.766C2.25999 164.165 2.9172 163.686 3.64275 163.355C4.3683 163.025 5.14798 162.849 5.93725 162.839V209.679C4.34367 209.659 2.82296 208.966 1.70955 207.753C0.596137 206.54 -0.0188048 204.907 -4.16006e-05 203.212V203.212Z" fill="black"/>
<path d="M162.886 53.2905C162.085 50.6689 162.291 47.8166 163.458 45.3555C164.626 42.8943 166.661 41.0238 169.12 40.1515C170.336 39.7304 171.617 39.5692 172.892 39.6772C174.166 39.7853 175.408 40.1605 176.545 40.7812C177.683 41.402 178.693 42.2559 179.519 43.2939C180.345 44.3319 180.969 45.5334 181.356 46.8292C182.157 49.4509 181.952 52.3032 180.784 54.7643C179.617 57.2255 177.581 59.096 175.123 59.9682C174.15 60.3086 173.133 60.4817 172.109 60.4811C170.054 60.4725 168.055 59.7721 166.398 58.4803C164.742 57.1885 163.512 55.3717 162.886 53.2905V53.2905ZM332.114 49.0943C332.097 47.0302 332.657 45.0073 333.723 43.2823C334.789 41.5573 336.313 40.208 338.101 39.4056C339.89 38.6032 341.862 38.3839 343.767 38.7755C345.673 39.1671 347.426 40.1521 348.805 41.6052C350.183 43.0584 351.125 44.9144 351.509 46.9376C351.894 48.9607 351.705 51.0599 350.967 52.9687C350.228 54.8775 348.973 56.5098 347.36 57.6585C345.747 58.8073 343.85 59.4206 341.909 59.4207C339.323 59.432 336.838 58.3506 335.002 56.4142C333.165 54.4778 332.126 51.8448 332.114 49.0943ZM251.373 53.2184C250.164 53.2184 249.005 52.7077 248.15 51.7985C247.295 50.8893 246.815 49.6562 246.815 48.3704C246.815 47.0847 247.295 45.8516 248.15 44.9424C249.005 44.0332 250.164 43.5224 251.373 43.5224H310.98C312.189 43.5224 313.348 44.0332 314.203 44.9424C315.058 45.8516 315.538 47.0847 315.538 48.3704C315.538 49.6562 315.058 50.8893 314.203 51.7985C313.348 52.7077 312.189 53.2184 310.98 53.2184H251.373ZM250.695 36.7299C249.094 36.6812 247.573 35.9704 246.456 34.7485C245.34 33.5265 244.715 31.8897 244.715 30.1858C244.715 28.4818 245.34 26.845 246.456 25.6231C247.573 24.4011 249.094 23.6903 250.695 23.6417H311.658C313.259 23.6903 314.78 24.4011 315.896 25.6231C317.013 26.845 317.638 28.4818 317.638 30.1858C317.638 31.8897 317.013 33.5265 315.896 34.7485C314.78 35.9704 313.259 36.6812 311.658 36.7299H250.695Z" fill="#484450"/>
<path d="M214.137 298.214C214.137 305.042 210.81 311.132 205.728 315.008C204.25 316.115 202.679 317.222 201.016 318.237C196.118 321.282 190.667 323.497 184.845 324.881C180.687 325.896 176.344 326.357 171.909 326.357C170.707 326.357 169.414 326.357 168.212 326.265C154.444 325.342 142.062 319.437 132.822 310.302C131.898 313.439 131.343 316.853 131.343 320.267C131.343 334.754 140.214 347.211 152.873 352.47C157.032 354.224 161.467 355.146 166.272 355.146C168.674 355.146 171.077 354.869 173.387 354.408C175.42 353.947 177.453 353.393 179.393 352.563C179.578 352.47 179.67 352.47 179.855 352.378C179.855 352.378 179.948 352.378 179.948 352.286C182.35 351.363 184.937 350.809 187.617 350.809C194.917 350.809 201.385 354.593 205.081 360.221C195.194 369.725 181.888 375.723 167.104 375.908C166.826 375.908 166.549 375.908 166.272 375.908C159.804 375.908 153.52 374.8 147.791 372.77C142.339 370.833 137.35 368.157 132.822 364.743C119.239 354.593 110.553 338.353 110.553 320.175C110.553 310.947 112.77 302.182 116.836 294.523C113.232 295.261 109.536 295.63 105.655 295.63C97.2466 295.63 89.2999 293.785 82.1848 290.463C85.6037 284.834 90.3163 279.759 95.7681 275.699C92.1644 272.285 88.9303 268.317 86.343 263.98C94.5669 259.275 104.084 256.506 114.249 256.506C115.45 256.506 116.744 256.506 117.945 256.599C129.033 257.429 139.29 261.397 147.606 267.671C150.009 266.841 152.411 266.195 154.906 265.641C158.51 264.903 162.206 264.534 166.087 264.534C170.985 264.534 175.697 265.18 180.225 266.38C191.221 269.24 200.923 275.422 208.223 283.727C208.87 284.465 209.517 285.203 210.071 286.034C212.751 289.54 214.137 293.692 214.137 298.214Z" fill="url(#paint0_linear_94_134)"/>
<path d="M242.32 372.401V309.471H227.073V293.139H242.32V268.41H261.91V293.139H277.341V309.471H261.91V372.401H242.32Z" fill="#250D78"/>
<path d="M289.631 372.401V253H309.405V303.381C314.395 295.722 323.728 290.74 335.093 290.74C354.683 290.74 364.939 303.104 364.939 323.589V372.401H345.35V328.295C345.35 315.008 338.789 308.548 328.81 308.548C316.428 308.548 309.22 317.222 309.22 329.125V372.401H289.631Z" fill="#250D78"/>
<path d="M380.74 349.794C380.74 335.215 391.367 326.08 410.125 324.604L433.872 322.851V321.098C433.872 310.302 427.404 306.057 417.517 306.057C405.967 306.057 399.498 310.855 399.498 319.252H382.773C382.773 302.089 396.911 290.832 418.441 290.832C439.786 290.832 453 302.366 453 324.327V372.494H435.813L434.334 360.775C430.916 368.987 420.197 374.616 407.815 374.616C390.997 374.431 380.74 364.65 380.74 349.794ZM434.057 340.29V336.138L417.517 337.43C405.32 338.537 400.607 342.597 400.607 348.964C400.607 356.161 405.412 359.76 414.283 359.76C426.295 359.668 434.057 352.47 434.057 340.29Z" fill="#250D78"/>
</g>
<defs>
<linearGradient id="paint0_linear_94_134" x1="82" y1="316.292" x2="214.158" y2="316.292" gradientUnits="userSpaceOnUse">
<stop offset="5.94866e-07" stop-color="#B1B1D5"/>
<stop offset="0.0120756" stop-color="#A9A7D0"/>
<stop offset="0.0636143" stop-color="#8A83BC"/>
<stop offset="0.1215" stop-color="#6E63AA"/>
<stop offset="0.1856" stop-color="#57479B"/>
<stop offset="0.2579" stop-color="#45318F"/>
<stop offset="0.3424" stop-color="#362086"/>
<stop offset="0.4468" stop-color="#2C1580"/>
<stop offset="0.5933" stop-color="#270E7C"/>
<stop offset="1" stop-color="#250C7B"/>
</linearGradient>
<clipPath id="clip0_94_134">
<rect width="565" height="831" fill="white"/>
</clipPath>
</defs>
</svg>
