<svg width="565" height="831" viewBox="0 0 565 831" fill="none" xmlns="http://www.w3.org/2000/svg">
<g clip-path="url(#clip0_418_12)">
<path d="M15 81C15 38.4741 49.4741 4 92 4H474C516.526 4 551 38.4741 551 81V831H15V81Z" fill="#FFFFFE"/>
<path d="M111.74 421.8C113.84 421.8 115.52 422.8 116.12 424.76H117.68C117.12 422.16 114.78 420.44 111.76 420.44C107.66 420.44 104.86 423.52 104.86 427.9C104.86 432.32 107.66 435.24 111.72 435.24C114.04 435.24 115.84 434.16 116.6 432.74L116.74 435.02H117.88V427.26H111.34V428.54H116.52V429.28C116.52 432.72 114.18 433.88 111.78 433.88C108.56 433.88 106.36 431.62 106.36 427.9C106.36 424.24 108.44 421.8 111.74 421.8ZM124.5 435.24C126.78 435.24 128.28 434.14 128.8 432.1H127.48C127.12 433.38 126.1 434.06 124.52 434.06C122.44 434.06 121.2 432.7 121.1 430.34H128.8V429.66C128.8 426.92 127.02 425.06 124.4 425.06C121.64 425.06 119.76 427.14 119.76 430.16C119.76 433.2 121.66 435.24 124.5 435.24ZM124.4 426.24C126.22 426.24 127.42 427.48 127.42 429.34H121.14C121.38 427.44 122.58 426.24 124.4 426.24ZM133.129 435V426.48H135.069V425.32H133.129V422.26H131.769V425.32H129.829V426.48H131.769V435H133.129ZM147.473 425.2C147.133 425.12 146.873 425.1 146.573 425.1C145.213 425.1 144.193 425.78 143.813 426.82L143.713 425.32H142.413V435H143.793V429.48C143.793 427.64 144.933 426.44 146.713 426.44H147.473V425.2ZM152.996 435.24C155.276 435.24 156.776 434.14 157.296 432.1H155.976C155.616 433.38 154.596 434.06 153.016 434.06C150.936 434.06 149.696 432.7 149.596 430.34H157.296V429.66C157.296 426.92 155.516 425.06 152.896 425.06C150.136 425.06 148.256 427.14 148.256 430.16C148.256 433.2 150.156 435.24 152.996 435.24ZM152.896 426.24C154.716 426.24 155.916 427.48 155.916 429.34H149.636C149.876 427.44 151.076 426.24 152.896 426.24ZM162.185 435.24C163.825 435.24 165.145 434.52 165.745 433.3L165.925 435H167.085V428.74C167.085 426.18 165.445 425.06 163.205 425.06C160.825 425.06 159.225 426.32 159.225 428.28H160.485C160.485 426.98 161.485 426.22 163.165 426.22C164.585 426.22 165.725 426.82 165.725 428.72V429.04L162.525 429.3C160.265 429.48 158.905 430.6 158.905 432.38C158.905 434.08 160.125 435.24 162.185 435.24ZM162.505 434.12C161.185 434.12 160.305 433.52 160.305 432.34C160.305 431.26 161.045 430.46 162.865 430.3L165.725 430.08V430.6C165.725 432.7 164.545 434.12 162.505 434.12ZM171.294 435V420.42H169.914V435H171.294ZM174.069 430.36H179.869V429.12H174.069V430.36ZM184.418 435V426.48H186.358V425.32H184.418V422.26H183.058V425.32H181.118V426.48H183.058V435H184.418ZM188.835 422.66C189.395 422.66 189.875 422.2 189.875 421.64C189.875 421.08 189.395 420.6 188.835 420.6C188.275 420.6 187.815 421.08 187.815 421.64C187.815 422.2 188.275 422.66 188.835 422.66ZM188.155 435H189.535V425.32H188.155V435ZM193.793 435V429C193.793 427.52 194.773 426.32 196.393 426.32C197.853 426.32 198.793 427.28 198.793 428.92V435H200.153V429.02C200.153 427.52 201.113 426.3 202.733 426.3C204.213 426.3 205.133 427.28 205.133 428.94V435H206.473V428.66C206.473 426.42 205.093 425.06 202.993 425.06C201.433 425.06 200.253 425.86 199.813 427.12C199.353 425.86 198.213 425.06 196.693 425.06C195.333 425.06 194.253 425.68 193.773 426.7L193.613 425.32H192.413V435H193.793ZM213.309 435.24C215.589 435.24 217.089 434.14 217.609 432.1H216.289C215.929 433.38 214.909 434.06 213.329 434.06C211.249 434.06 210.009 432.7 209.909 430.34H217.609V429.66C217.609 426.92 215.829 425.06 213.209 425.06C210.449 425.06 208.569 427.14 208.569 430.16C208.569 433.2 210.469 435.24 213.309 435.24ZM213.209 426.24C215.029 426.24 216.229 427.48 216.229 429.34H209.949C210.189 427.44 211.389 426.24 213.209 426.24ZM230.422 425.2C230.082 425.12 229.822 425.1 229.522 425.1C228.162 425.1 227.142 425.78 226.762 426.82L226.662 425.32H225.362V435H226.742V429.48C226.742 427.64 227.882 426.44 229.662 426.44H230.422V425.2ZM235.946 435.24C238.226 435.24 239.726 434.14 240.246 432.1H238.926C238.566 433.38 237.546 434.06 235.966 434.06C233.886 434.06 232.646 432.7 232.546 430.34H240.246V429.66C240.246 426.92 238.466 425.06 235.846 425.06C233.086 425.06 231.206 427.14 231.206 430.16C231.206 433.2 233.106 435.24 235.946 435.24ZM235.846 426.24C237.666 426.24 238.866 427.48 238.866 429.34H232.586C232.826 427.44 234.026 426.24 235.846 426.24ZM242.452 439.22H243.832V433.14C244.512 434.54 245.812 435.24 247.452 435.24C250.312 435.24 251.932 433.04 251.932 430.12C251.932 427.2 250.252 425.06 247.452 425.06C245.832 425.06 244.472 425.78 243.792 427.28L243.652 425.32H242.452V439.22ZM243.852 430.16C243.852 427.92 245.092 426.32 247.212 426.32C249.312 426.32 250.532 427.92 250.532 430.16C250.532 432.38 249.312 434 247.212 434C245.092 434 243.852 432.38 243.852 430.16ZM259.192 425.2C258.852 425.12 258.592 425.1 258.292 425.1C256.932 425.1 255.912 425.78 255.532 426.82L255.432 425.32H254.132V435H255.512V429.48C255.512 427.64 256.652 426.44 258.432 426.44H259.192V425.2ZM264.715 435.24C266.995 435.24 268.495 434.14 269.015 432.1H267.695C267.335 433.38 266.315 434.06 264.735 434.06C262.655 434.06 261.415 432.7 261.315 430.34H269.015V429.66C269.015 426.92 267.235 425.06 264.615 425.06C261.855 425.06 259.975 427.14 259.975 430.16C259.975 433.2 261.875 435.24 264.715 435.24ZM264.615 426.24C266.435 426.24 267.635 427.48 267.635 429.34H261.355C261.595 427.44 262.795 426.24 264.615 426.24ZM270.401 432.28C270.401 434.08 271.761 435.24 273.941 435.24C276.141 435.24 277.621 434.1 277.621 432.36C277.621 430.96 276.861 430.18 275.181 429.76L273.521 429.34C272.461 429.08 271.941 428.56 271.941 427.82C271.941 426.78 272.701 426.2 274.061 426.2C275.361 426.2 276.141 426.86 276.181 427.98H277.521C277.461 426.18 276.141 425.06 274.101 425.06C272.021 425.06 270.601 426.14 270.601 427.84C270.601 429.16 271.421 430.04 273.101 430.46L274.761 430.88C275.901 431.16 276.301 431.62 276.301 432.42C276.301 433.46 275.421 434.1 273.921 434.1C272.561 434.1 271.721 433.4 271.721 432.28H270.401ZM283.953 435.24C286.233 435.24 287.733 434.14 288.253 432.1H286.933C286.573 433.38 285.553 434.06 283.973 434.06C281.893 434.06 280.653 432.7 280.553 430.34H288.253V429.66C288.253 426.92 286.473 425.06 283.853 425.06C281.093 425.06 279.213 427.14 279.213 430.16C279.213 433.2 281.113 435.24 283.953 435.24ZM283.853 426.24C285.673 426.24 286.873 427.48 286.873 429.34H280.593C280.833 427.44 282.033 426.24 283.853 426.24ZM291.84 435V429.94C291.84 427.76 292.96 426.32 294.94 426.32C296.54 426.32 297.56 427.12 297.56 429.38V435H298.94V429.08C298.94 426.64 297.84 425.06 295.18 425.06C293.78 425.06 292.5 425.76 291.86 427L291.66 425.32H290.46V435H291.84ZM303.91 435V426.48H305.85V425.32H303.91V422.26H302.55V425.32H300.61V426.48H302.55V435H303.91ZM310.271 435.24C311.911 435.24 313.231 434.52 313.831 433.3L314.011 435H315.171V428.74C315.171 426.18 313.531 425.06 311.291 425.06C308.911 425.06 307.311 426.32 307.311 428.28H308.571C308.571 426.98 309.571 426.22 311.251 426.22C312.671 426.22 313.811 426.82 313.811 428.72V429.04L310.611 429.3C308.351 429.48 306.991 430.6 306.991 432.38C306.991 434.08 308.211 435.24 310.271 435.24ZM310.591 434.12C309.271 434.12 308.391 433.52 308.391 432.34C308.391 431.26 309.131 430.46 310.951 430.3L313.811 430.08V430.6C313.811 432.7 312.631 434.12 310.591 434.12ZM319.984 435V426.48H321.924V425.32H319.984V422.26H318.624V425.32H316.684V426.48H318.624V435H319.984ZM324.401 422.66C324.961 422.66 325.441 422.2 325.441 421.64C325.441 421.08 324.961 420.6 324.401 420.6C323.841 420.6 323.381 421.08 323.381 421.64C323.381 422.2 323.841 422.66 324.401 422.66ZM323.721 435H325.101V425.32H323.721V435ZM327.299 430.16C327.299 433.1 329.379 435.24 332.219 435.24C335.059 435.24 337.139 433.1 337.139 430.16C337.139 427.2 335.059 425.06 332.219 425.06C329.379 425.06 327.299 427.2 327.299 430.16ZM328.699 430.14C328.699 427.9 330.139 426.3 332.219 426.3C334.279 426.3 335.739 427.9 335.739 430.14C335.739 432.42 334.279 434 332.219 434C330.139 434 328.699 432.42 328.699 430.14ZM340.726 435V429.94C340.726 427.76 341.846 426.32 343.826 426.32C345.426 426.32 346.446 427.12 346.446 429.38V435H347.826V429.08C347.826 426.64 346.726 425.06 344.066 425.06C342.666 425.06 341.386 425.76 340.746 427L340.546 425.32H339.346V435H340.726ZM355.444 430.16C355.444 433.1 357.524 435.24 360.364 435.24C363.204 435.24 365.284 433.1 365.284 430.16C365.284 427.2 363.204 425.06 360.364 425.06C357.524 425.06 355.444 427.2 355.444 430.16ZM356.844 430.14C356.844 427.9 358.284 426.3 360.364 426.3C362.424 426.3 363.884 427.9 363.884 430.14C363.884 432.42 362.424 434 360.364 434C358.284 434 356.844 432.42 356.844 430.14ZM366.333 425.32V426.48H367.813V435H369.193V426.48H371.473V425.32H369.193V423.44C369.193 422.3 369.513 421.68 370.733 421.68H371.553V420.5C371.233 420.44 370.833 420.42 370.493 420.42C369.013 420.42 367.813 421.26 367.813 423.44V425.32H366.333ZM380.277 435V429.94C380.277 427.76 381.397 426.32 383.377 426.32C384.977 426.32 385.997 427.12 385.997 429.38V435H387.377V429.08C387.377 426.64 386.277 425.06 383.617 425.06C382.217 425.06 380.937 425.76 380.297 427L380.097 425.32H378.897V435H380.277ZM394.188 435.24C396.468 435.24 397.968 434.14 398.488 432.1H397.168C396.808 433.38 395.788 434.06 394.208 434.06C392.128 434.06 390.888 432.7 390.788 430.34H398.488V429.66C398.488 426.92 396.708 425.06 394.088 425.06C391.328 425.06 389.448 427.14 389.448 430.16C389.448 433.2 391.348 435.24 394.188 435.24ZM394.088 426.24C395.908 426.24 397.108 427.48 397.108 429.34H390.828C391.068 427.44 392.268 426.24 394.088 426.24ZM402.48 435H403.86L405.86 428.92C406.12 428.12 406.28 427.54 406.42 427.02C406.54 427.6 406.7 428.2 406.94 428.92L408.94 435H410.28L413.56 425.32H412.12L410.2 431.16C409.86 432.2 409.82 432.44 409.62 433.24C409.44 432.52 409.2 431.68 409.02 431.16L407.12 425.32H405.7L403.78 431.16C403.68 431.48 403.36 432.46 403.2 433.24C403 432.46 402.82 431.8 402.6 431.16L400.7 425.32H399.28L402.48 435ZM414.405 432.28C414.405 434.08 415.765 435.24 417.945 435.24C420.145 435.24 421.625 434.1 421.625 432.36C421.625 430.96 420.865 430.18 419.185 429.76L417.525 429.34C416.465 429.08 415.945 428.56 415.945 427.82C415.945 426.78 416.705 426.2 418.065 426.2C419.365 426.2 420.145 426.86 420.185 427.98H421.525C421.465 426.18 420.145 425.06 418.105 425.06C416.025 425.06 414.605 426.14 414.605 427.84C414.605 429.16 415.425 430.04 417.105 430.46L418.765 430.88C419.905 431.16 420.305 431.62 420.305 432.42C420.305 433.46 419.425 434.1 417.925 434.1C416.565 434.1 415.725 433.4 415.725 432.28H414.405ZM432.224 435.24C433.864 435.24 435.184 434.52 435.784 433.3L435.964 435H437.124V428.74C437.124 426.18 435.484 425.06 433.244 425.06C430.864 425.06 429.264 426.32 429.264 428.28H430.524C430.524 426.98 431.524 426.22 433.204 426.22C434.624 426.22 435.764 426.82 435.764 428.72V429.04L432.564 429.3C430.304 429.48 428.944 430.6 428.944 432.38C428.944 434.08 430.164 435.24 432.224 435.24ZM432.544 434.12C431.224 434.12 430.344 433.52 430.344 432.34C430.344 431.26 431.084 430.46 432.904 430.3L435.764 430.08V430.6C435.764 432.7 434.584 434.12 432.544 434.12ZM441.273 435V429.94C441.273 427.76 442.393 426.32 444.373 426.32C445.973 426.32 446.993 427.12 446.993 429.38V435H448.373V429.08C448.373 426.64 447.273 425.06 444.613 425.06C443.213 425.06 441.933 425.76 441.293 427L441.093 425.32H439.893V435H441.273ZM454.924 435.24C456.544 435.24 457.904 434.52 458.584 433.02L458.724 435H459.924V420.42H458.544V427.16C457.864 425.76 456.584 425.06 454.984 425.06C452.104 425.06 450.444 427.26 450.444 430.18C450.444 433.08 452.104 435.24 454.924 435.24ZM455.164 433.98C453.064 433.98 451.844 432.38 451.844 430.14C451.844 427.92 453.064 426.3 455.164 426.3C457.284 426.3 458.524 427.92 458.524 430.14C458.524 432.38 457.284 433.98 455.164 433.98ZM105.44 466.22H106.82V460.14C107.5 461.54 108.8 462.24 110.44 462.24C113.3 462.24 114.92 460.04 114.92 457.12C114.92 454.2 113.24 452.06 110.44 452.06C108.82 452.06 107.46 452.78 106.78 454.28L106.64 452.32H105.44V466.22ZM106.84 457.16C106.84 454.92 108.08 453.32 110.2 453.32C112.3 453.32 113.52 454.92 113.52 457.16C113.52 459.38 112.3 461 110.2 461C108.08 461 106.84 459.38 106.84 457.16ZM121.18 462.24C123.46 462.24 124.96 461.14 125.48 459.1H124.16C123.8 460.38 122.78 461.06 121.2 461.06C119.12 461.06 117.88 459.7 117.78 457.34H125.48V456.66C125.48 453.92 123.7 452.06 121.08 452.06C118.32 452.06 116.44 454.14 116.44 457.16C116.44 460.2 118.34 462.24 121.18 462.24ZM121.08 453.24C122.9 453.24 124.1 454.48 124.1 456.34H117.82C118.06 454.44 119.26 453.24 121.08 453.24ZM127.006 457.16C127.006 460.1 129.086 462.24 131.926 462.24C134.766 462.24 136.846 460.1 136.846 457.16C136.846 454.2 134.766 452.06 131.926 452.06C129.086 452.06 127.006 454.2 127.006 457.16ZM128.406 457.14C128.406 454.9 129.846 453.3 131.926 453.3C133.986 453.3 135.446 454.9 135.446 457.14C135.446 459.42 133.986 461 131.926 461C129.846 461 128.406 459.42 128.406 457.14ZM139.053 466.22H140.433V460.14C141.113 461.54 142.413 462.24 144.053 462.24C146.913 462.24 148.533 460.04 148.533 457.12C148.533 454.2 146.853 452.06 144.053 452.06C142.433 452.06 141.073 452.78 140.393 454.28L140.253 452.32H139.053V466.22ZM140.453 457.16C140.453 454.92 141.693 453.32 143.813 453.32C145.913 453.32 147.133 454.92 147.133 457.16C147.133 459.38 145.913 461 143.813 461C141.693 461 140.453 459.38 140.453 457.16ZM152.173 462V447.42H150.793V462H152.173ZM159.168 462.24C161.448 462.24 162.948 461.14 163.468 459.1H162.148C161.788 460.38 160.768 461.06 159.188 461.06C157.108 461.06 155.868 459.7 155.768 457.34H163.468V456.66C163.468 453.92 161.688 452.06 159.068 452.06C156.308 452.06 154.428 454.14 154.428 457.16C154.428 460.2 156.328 462.24 159.168 462.24ZM159.068 453.24C160.888 453.24 162.088 454.48 162.088 456.34H155.808C156.048 454.44 157.248 453.24 159.068 453.24ZM164.855 459.28C164.855 461.08 166.215 462.24 168.395 462.24C170.595 462.24 172.075 461.1 172.075 459.36C172.075 457.96 171.315 457.18 169.635 456.76L167.975 456.34C166.915 456.08 166.395 455.56 166.395 454.82C166.395 453.78 167.155 453.2 168.515 453.2C169.815 453.2 170.595 453.86 170.635 454.98H171.975C171.915 453.18 170.595 452.06 168.555 452.06C166.475 452.06 165.055 453.14 165.055 454.84C165.055 456.16 165.875 457.04 167.555 457.46L169.215 457.88C170.355 458.16 170.755 458.62 170.755 459.42C170.755 460.46 169.875 461.1 168.375 461.1C167.015 461.1 166.175 460.4 166.175 459.28H164.855ZM179.213 457.16C179.213 460.1 181.293 462.24 184.133 462.24C186.973 462.24 189.053 460.1 189.053 457.16C189.053 454.2 186.973 452.06 184.133 452.06C181.293 452.06 179.213 454.2 179.213 457.16ZM180.613 457.14C180.613 454.9 182.053 453.3 184.133 453.3C186.193 453.3 187.653 454.9 187.653 457.14C187.653 459.42 186.193 461 184.133 461C182.053 461 180.613 459.42 180.613 457.14ZM191.261 466.22H192.641V460.14C193.321 461.54 194.621 462.24 196.261 462.24C199.121 462.24 200.741 460.04 200.741 457.12C200.741 454.2 199.061 452.06 196.261 452.06C194.641 452.06 193.281 452.78 192.601 454.28L192.461 452.32H191.261V466.22ZM192.661 457.16C192.661 454.92 193.901 453.32 196.021 453.32C198.121 453.32 199.341 454.92 199.341 457.16C199.341 459.38 198.121 461 196.021 461C193.901 461 192.661 459.38 192.661 457.16ZM203.62 449.66C204.18 449.66 204.66 449.2 204.66 448.64C204.66 448.08 204.18 447.6 203.62 447.6C203.06 447.6 202.6 448.08 202.6 448.64C202.6 449.2 203.06 449.66 203.62 449.66ZM202.94 462H204.32V452.32H202.94V462ZM208.578 462V456.94C208.578 454.76 209.698 453.32 211.678 453.32C213.278 453.32 214.298 454.12 214.298 456.38V462H215.678V456.08C215.678 453.64 214.578 452.06 211.918 452.06C210.518 452.06 209.238 452.76 208.598 454L208.398 452.32H207.198V462H208.578ZM219.108 449.66C219.668 449.66 220.148 449.2 220.148 448.64C220.148 448.08 219.668 447.6 219.108 447.6C218.548 447.6 218.088 448.08 218.088 448.64C218.088 449.2 218.548 449.66 219.108 449.66ZM218.428 462H219.808V452.32H218.428V462ZM222.006 457.16C222.006 460.1 224.086 462.24 226.926 462.24C229.766 462.24 231.846 460.1 231.846 457.16C231.846 454.2 229.766 452.06 226.926 452.06C224.086 452.06 222.006 454.2 222.006 457.16ZM223.406 457.14C223.406 454.9 224.846 453.3 226.926 453.3C228.986 453.3 230.446 454.9 230.446 457.14C230.446 459.42 228.986 461 226.926 461C224.846 461 223.406 459.42 223.406 457.14ZM235.433 462V456.94C235.433 454.76 236.553 453.32 238.533 453.32C240.133 453.32 241.153 454.12 241.153 456.38V462H242.533V456.08C242.533 453.64 241.433 452.06 238.773 452.06C237.373 452.06 236.093 452.76 235.453 454L235.253 452.32H234.053V462H235.433ZM244.347 459.28C244.347 461.08 245.707 462.24 247.887 462.24C250.087 462.24 251.567 461.1 251.567 459.36C251.567 457.96 250.807 457.18 249.127 456.76L247.467 456.34C246.407 456.08 245.887 455.56 245.887 454.82C245.887 453.78 246.647 453.2 248.007 453.2C249.307 453.2 250.087 453.86 250.127 454.98H251.467C251.407 453.18 250.087 452.06 248.047 452.06C245.967 452.06 244.547 453.14 244.547 454.84C244.547 456.16 245.367 457.04 247.047 457.46L248.707 457.88C249.847 458.16 250.247 458.62 250.247 459.42C250.247 460.46 249.367 461.1 247.867 461.1C246.507 461.1 245.667 460.4 245.667 459.28H244.347ZM258.706 457.16C258.706 460.1 260.786 462.24 263.626 462.24C266.466 462.24 268.546 460.1 268.546 457.16C268.546 454.2 266.466 452.06 263.626 452.06C260.786 452.06 258.706 454.2 258.706 457.16ZM260.106 457.14C260.106 454.9 261.546 453.3 263.626 453.3C265.686 453.3 267.146 454.9 267.146 457.14C267.146 459.42 265.686 461 263.626 461C261.546 461 260.106 459.42 260.106 457.14ZM272.133 462V456.94C272.133 454.76 273.253 453.32 275.233 453.32C276.833 453.32 277.853 454.12 277.853 456.38V462H279.233V456.08C279.233 453.64 278.133 452.06 275.473 452.06C274.073 452.06 272.793 452.76 272.153 454L271.953 452.32H270.753V462H272.133ZM286.71 459.28C286.71 461.08 288.07 462.24 290.25 462.24C292.45 462.24 293.93 461.1 293.93 459.36C293.93 457.96 293.17 457.18 291.49 456.76L289.83 456.34C288.77 456.08 288.25 455.56 288.25 454.82C288.25 453.78 289.01 453.2 290.37 453.2C291.67 453.2 292.45 453.86 292.49 454.98H293.83C293.77 453.18 292.45 452.06 290.41 452.06C288.33 452.06 286.91 453.14 286.91 454.84C286.91 456.16 287.73 457.04 289.41 457.46L291.07 457.88C292.21 458.16 292.61 458.62 292.61 459.42C292.61 460.46 291.73 461.1 290.23 461.1C288.87 461.1 288.03 460.4 288.03 459.28H286.71ZM296.202 466.22H297.582V460.14C298.262 461.54 299.562 462.24 301.202 462.24C304.062 462.24 305.682 460.04 305.682 457.12C305.682 454.2 304.002 452.06 301.202 452.06C299.582 452.06 298.222 452.78 297.542 454.28L297.402 452.32H296.202V466.22ZM297.602 457.16C297.602 454.92 298.842 453.32 300.962 453.32C303.062 453.32 304.282 454.92 304.282 457.16C304.282 459.38 303.062 461 300.962 461C298.842 461 297.602 459.38 297.602 457.16ZM311.942 462.24C314.222 462.24 315.722 461.14 316.242 459.1H314.922C314.562 460.38 313.542 461.06 311.962 461.06C309.882 461.06 308.642 459.7 308.542 457.34H316.242V456.66C316.242 453.92 314.462 452.06 311.842 452.06C309.082 452.06 307.202 454.14 307.202 457.16C307.202 460.2 309.102 462.24 311.942 462.24ZM311.842 453.24C313.662 453.24 314.862 454.48 314.862 456.34H308.582C308.822 454.44 310.022 453.24 311.842 453.24ZM317.768 457.18C317.768 460.22 319.628 462.24 322.368 462.24C324.568 462.24 326.288 460.94 326.748 458.96H325.348C324.968 460.2 323.808 461 322.368 461C320.408 461 319.128 459.46 319.128 457.16C319.128 454.78 320.508 453.28 322.468 453.28C323.808 453.28 324.968 454.02 325.328 455.36H326.708C326.328 453.36 324.688 452.06 322.448 452.06C319.628 452.06 317.768 454.14 317.768 457.18ZM329.519 449.66C330.079 449.66 330.559 449.2 330.559 448.64C330.559 448.08 330.079 447.6 329.519 447.6C328.959 447.6 328.499 448.08 328.499 448.64C328.499 449.2 328.959 449.66 329.519 449.66ZM328.839 462H330.219V452.32H328.839V462ZM339.476 462H340.856V452.32H334.876V450.44C334.876 449.3 335.196 448.7 336.356 448.7H337.196V447.5C336.876 447.44 336.456 447.42 336.116 447.42C334.676 447.42 333.496 448.26 333.496 450.44V452.32H332.016V453.48H333.496V462H334.876V453.48H339.476V462ZM340.156 449.56C340.696 449.56 341.116 449.16 341.116 448.6C341.116 448.04 340.696 447.62 340.156 447.62C339.596 447.62 339.196 448.04 339.196 448.6C339.196 449.16 339.596 449.56 340.156 449.56ZM343.002 457.18C343.002 460.22 344.862 462.24 347.602 462.24C349.802 462.24 351.522 460.94 351.982 458.96H350.582C350.202 460.2 349.042 461 347.602 461C345.642 461 344.362 459.46 344.362 457.16C344.362 454.78 345.742 453.28 347.702 453.28C349.042 453.28 350.202 454.02 350.562 455.36H351.942C351.562 453.36 349.922 452.06 347.682 452.06C344.862 452.06 343.002 454.14 343.002 457.18ZM358.8 459.28C358.8 461.08 360.16 462.24 362.34 462.24C364.54 462.24 366.02 461.1 366.02 459.36C366.02 457.96 365.26 457.18 363.58 456.76L361.92 456.34C360.86 456.08 360.34 455.56 360.34 454.82C360.34 453.78 361.1 453.2 362.46 453.2C363.76 453.2 364.54 453.86 364.58 454.98H365.92C365.86 453.18 364.54 452.06 362.5 452.06C360.42 452.06 359 453.14 359 454.84C359 456.16 359.82 457.04 361.5 457.46L363.16 457.88C364.3 458.16 364.7 458.62 364.7 459.42C364.7 460.46 363.82 461.1 362.32 461.1C360.96 461.1 360.12 460.4 360.12 459.28H358.8ZM375.092 452.32V457.46C375.092 459.76 373.992 461 372.132 461C370.592 461 369.572 460.18 369.572 457.88V452.3H368.172V458.32C368.172 460.68 369.412 462.24 371.692 462.24C373.212 462.24 374.552 461.48 375.092 460.36L375.272 462H376.472V452.32H375.092ZM380.546 462L380.686 460.02C381.366 461.52 382.706 462.24 384.326 462.24C387.146 462.24 388.826 460.08 388.826 457.18C388.826 454.26 387.186 452.06 384.366 452.06C382.726 452.06 381.406 452.78 380.726 454.2V447.42H379.346V462H380.546ZM380.746 457.14C380.746 454.92 381.986 453.3 384.106 453.3C386.206 453.3 387.426 454.92 387.426 457.14C387.426 459.38 386.206 460.98 384.106 460.98C381.986 460.98 380.746 459.38 380.746 457.14ZM391.726 449.66C392.266 449.66 392.746 449.2 392.746 448.64C392.746 448.08 392.266 447.6 391.726 447.6C391.146 447.6 390.686 448.08 390.686 448.64C390.686 449.2 391.146 449.66 391.726 449.66ZM388.446 466.24C388.946 466.38 389.226 466.42 389.746 466.42C391.446 466.42 392.406 465.3 392.406 463.46V452.32H391.026V463.38C391.026 464.56 390.606 465.12 389.646 465.12C389.346 465.12 389.106 465.08 388.706 464.98L388.446 466.24ZM399.344 462.24C401.624 462.24 403.124 461.14 403.644 459.1H402.324C401.964 460.38 400.944 461.06 399.364 461.06C397.284 461.06 396.044 459.7 395.944 457.34H403.644V456.66C403.644 453.92 401.864 452.06 399.244 452.06C396.484 452.06 394.604 454.14 394.604 457.16C394.604 460.2 396.504 462.24 399.344 462.24ZM399.244 453.24C401.064 453.24 402.264 454.48 402.264 456.34H395.984C396.224 454.44 397.424 453.24 399.244 453.24ZM405.17 457.18C405.17 460.22 407.03 462.24 409.77 462.24C411.97 462.24 413.69 460.94 414.15 458.96H412.75C412.37 460.2 411.21 461 409.77 461C407.81 461 406.53 459.46 406.53 457.16C406.53 454.78 407.91 453.28 409.87 453.28C411.21 453.28 412.37 454.02 412.73 455.36H414.11C413.73 453.36 412.09 452.06 409.85 452.06C407.03 452.06 405.17 454.14 405.17 457.18ZM418.461 462V453.48H420.401V452.32H418.461V449.26H417.101V452.32H415.161V453.48H417.101V462H418.461ZM421.378 459.28C421.378 461.08 422.738 462.24 424.918 462.24C427.118 462.24 428.598 461.1 428.598 459.36C428.598 457.96 427.838 457.18 426.158 456.76L424.498 456.34C423.438 456.08 422.918 455.56 422.918 454.82C422.918 453.78 423.678 453.2 425.038 453.2C426.338 453.2 427.118 453.86 427.158 454.98H428.498C428.438 453.18 427.118 452.06 425.078 452.06C422.998 452.06 421.578 453.14 421.578 454.84C421.578 456.16 422.398 457.04 424.078 457.46L425.738 457.88C426.878 458.16 427.278 458.62 427.278 459.42C427.278 460.46 426.398 461.1 424.898 461.1C423.538 461.1 422.698 460.4 422.698 459.28H421.378ZM439.197 462.24C440.837 462.24 442.157 461.52 442.757 460.3L442.937 462H444.097V455.74C444.097 453.18 442.457 452.06 440.217 452.06C437.837 452.06 436.237 453.32 436.237 455.28H437.497C437.497 453.98 438.497 453.22 440.177 453.22C441.597 453.22 442.737 453.82 442.737 455.72V456.04L439.537 456.3C437.277 456.48 435.917 457.6 435.917 459.38C435.917 461.08 437.137 462.24 439.197 462.24ZM439.517 461.12C438.197 461.12 437.317 460.52 437.317 459.34C437.317 458.26 438.057 457.46 439.877 457.3L442.737 457.08V457.6C442.737 459.7 441.557 461.12 439.517 461.12ZM448.246 462V456.94C448.246 454.76 449.366 453.32 451.346 453.32C452.946 453.32 453.966 454.12 453.966 456.38V462H455.346V456.08C455.346 453.64 454.246 452.06 451.586 452.06C450.186 452.06 448.906 452.76 448.266 454L448.066 452.32H446.866V462H448.246ZM461.896 462.24C463.516 462.24 464.876 461.52 465.556 460.02L465.696 462H466.896V447.42H465.516V454.16C464.836 452.76 463.556 452.06 461.956 452.06C459.076 452.06 457.416 454.26 457.416 457.18C457.416 460.08 459.076 462.24 461.896 462.24ZM462.136 460.98C460.036 460.98 458.816 459.38 458.816 457.14C458.816 454.92 460.036 453.3 462.136 453.3C464.256 453.3 465.496 454.92 465.496 457.14C465.496 459.38 464.256 460.98 462.136 460.98ZM105.44 493.22H106.82V487.14C107.5 488.54 108.8 489.24 110.44 489.24C113.3 489.24 114.92 487.04 114.92 484.12C114.92 481.2 113.24 479.06 110.44 479.06C108.82 479.06 107.46 479.78 106.78 481.28L106.64 479.32H105.44V493.22ZM106.84 484.16C106.84 481.92 108.08 480.32 110.2 480.32C112.3 480.32 113.52 481.92 113.52 484.16C113.52 486.38 112.3 488 110.2 488C108.08 488 106.84 486.38 106.84 484.16ZM116.44 484.16C116.44 487.1 118.52 489.24 121.36 489.24C124.2 489.24 126.28 487.1 126.28 484.16C126.28 481.2 124.2 479.06 121.36 479.06C118.52 479.06 116.44 481.2 116.44 484.16ZM117.84 484.14C117.84 481.9 119.28 480.3 121.36 480.3C123.42 480.3 124.88 481.9 124.88 484.14C124.88 486.42 123.42 488 121.36 488C119.28 488 117.84 486.42 117.84 484.14ZM129.927 489V474.42H128.547V489H129.927ZM133.542 476.66C134.102 476.66 134.582 476.2 134.582 475.64C134.582 475.08 134.102 474.6 133.542 474.6C132.982 474.6 132.522 475.08 132.522 475.64C132.522 476.2 132.982 476.66 133.542 476.66ZM132.862 489H134.242V479.32H132.862V489ZM136.44 484.18C136.44 487.22 138.3 489.24 141.04 489.24C143.24 489.24 144.96 487.94 145.42 485.96H144.02C143.64 487.2 142.48 488 141.04 488C139.08 488 137.8 486.46 137.8 484.16C137.8 481.78 139.18 480.28 141.14 480.28C142.48 480.28 143.64 481.02 144 482.36H145.38C145 480.36 143.36 479.06 141.12 479.06C138.3 479.06 136.44 481.14 136.44 484.18ZM148.191 476.66C148.751 476.66 149.231 476.2 149.231 475.64C149.231 475.08 148.751 474.6 148.191 474.6C147.631 474.6 147.171 475.08 147.171 475.64C147.171 476.2 147.631 476.66 148.191 476.66ZM147.511 489H148.891V479.32H147.511V489ZM155.828 489.24C158.108 489.24 159.608 488.14 160.128 486.1H158.808C158.448 487.38 157.428 488.06 155.848 488.06C153.768 488.06 152.528 486.7 152.428 484.34H160.128V483.66C160.128 480.92 158.348 479.06 155.728 479.06C152.968 479.06 151.088 481.14 151.088 484.16C151.088 487.2 152.988 489.24 155.828 489.24ZM155.728 480.24C157.548 480.24 158.748 481.48 158.748 483.34H152.468C152.708 481.44 153.908 480.24 155.728 480.24ZM161.515 486.28C161.515 488.08 162.875 489.24 165.055 489.24C167.255 489.24 168.735 488.1 168.735 486.36C168.735 484.96 167.975 484.18 166.295 483.76L164.635 483.34C163.575 483.08 163.055 482.56 163.055 481.82C163.055 480.78 163.815 480.2 165.175 480.2C166.475 480.2 167.255 480.86 167.295 481.98H168.635C168.575 480.18 167.255 479.06 165.215 479.06C163.135 479.06 161.715 480.14 161.715 481.84C161.715 483.16 162.535 484.04 164.215 484.46L165.875 484.88C167.015 485.16 167.415 485.62 167.415 486.42C167.415 487.46 166.535 488.1 165.035 488.1C163.675 488.1 162.835 487.4 162.835 486.28H161.515Z" fill="#707070"/>
<path d="M233.9 369.501V307.101H218.8V290.801H233.9V266.301H253.3V290.801H268.6V307.001H253.3V369.401H233.9V369.501Z" fill="#250D78"/>
<path d="M280.8 369.501V251.001H300.4V301.001C305.3 293.401 314.6 288.401 325.9 288.401C345.3 288.401 355.5 300.701 355.5 321.101V369.501H336V325.701C336 312.501 329.5 306.101 319.6 306.101C307.3 306.101 300.2 314.701 300.2 326.501V369.501H280.8Z" fill="#250D78"/>
<path d="M371.1 347.101C371.1 332.601 381.6 323.501 400.3 322.101L423.9 320.301V318.501C423.9 307.801 417.5 303.501 407.7 303.501C396.2 303.501 389.9 308.301 389.9 316.601H373.3C373.3 299.601 387.3 288.401 408.7 288.401C429.9 288.401 442.9 299.901 442.9 321.701V369.501H425.9L424.5 357.901C421.2 366.001 410.5 371.601 398.2 371.601C381.3 371.601 371.1 361.901 371.1 347.101ZM424 337.701V333.601L407.6 334.901C395.5 336.001 390.9 340.001 390.9 346.401C390.9 353.601 395.7 357.101 404.4 357.101C416.3 356.901 424 349.801 424 337.701Z" fill="#250D78"/>
<path d="M104 319.101C104 287.801 124.4 266.301 153.6 266.301C183.5 266.301 202.4 286.301 202.4 317.301V324.801L127.4 325.001C129.2 342.501 138.5 351.401 154.8 351.401C168.3 351.401 177.2 346.201 180 336.701H202.8C198.6 358.501 180.4 371.601 154.4 371.601C124.8 371.601 104 350.001 104 319.101ZM128 309.301H178C178 295.601 168.5 286.501 153.8 286.501C139.3 286.501 130.4 294.301 128 309.301Z" fill="url(#paint0_linear_418_12)"/>
<rect x="104" y="536.999" width="181" height="57" rx="10" fill="#4824D6"/>
<path d="M151.88 560.139C153.8 560.139 155.4 561.059 155.94 562.899H158.02C157.54 560.119 155.08 558.299 151.92 558.299C147.66 558.299 144.82 561.419 144.82 565.819C144.82 570.279 147.64 573.239 151.74 573.239C153.86 573.239 155.62 572.319 156.4 571.059L156.54 573.019H158.18V565.039H151.5V566.779H156.34V567.199C156.34 570.119 154.36 571.379 151.9 571.379C148.92 571.379 146.88 569.359 146.88 565.859C146.88 562.439 148.76 560.139 151.88 560.139ZM164.873 573.239C167.293 573.239 168.933 572.059 169.413 569.959H167.653C167.333 571.079 166.373 571.679 164.913 571.679C163.053 571.679 161.973 570.539 161.833 568.479L169.393 568.459V567.759C169.393 564.859 167.573 562.939 164.793 562.939C161.953 562.939 160.013 565.059 160.013 568.119C160.013 571.159 161.993 573.239 164.873 573.239ZM164.793 564.519C166.453 564.519 167.513 565.599 167.513 567.219H161.873C162.113 565.499 163.153 564.519 164.793 564.519ZM174.155 572.999V564.799H176.075V563.219H174.155V560.159H172.275V563.219H170.355V564.799H172.275V572.999H174.155ZM182.431 570.159C182.431 572.019 183.891 573.239 186.191 573.239C188.511 573.239 190.111 572.059 190.111 570.199C190.111 568.739 189.291 567.979 187.631 567.579L185.911 567.159C184.951 566.919 184.471 566.479 184.471 565.819C184.471 564.919 185.131 564.399 186.311 564.399C187.451 564.399 188.111 565.019 188.151 565.999H189.951C189.911 564.139 188.511 562.939 186.371 562.939C184.211 562.939 182.691 564.079 182.691 565.879C182.691 567.319 183.511 568.179 185.251 568.599L186.971 568.999C187.991 569.259 188.311 569.659 188.311 570.319C188.311 571.219 187.551 571.759 186.231 571.759C184.991 571.759 184.231 571.159 184.231 570.159H182.431ZM194.956 572.999V564.799H196.876V563.219H194.956V560.159H193.076V563.219H191.156V564.799H193.076V572.999H194.956ZM201.306 573.239C202.886 573.239 204.226 572.539 204.726 571.419L204.926 572.999H206.526V566.859C206.526 564.219 204.886 562.939 202.466 562.939C199.946 562.939 198.266 564.279 198.266 566.319H199.906C199.906 565.139 200.806 564.439 202.386 564.439C203.706 564.439 204.686 565.019 204.686 566.659V566.939L201.606 567.179C199.306 567.359 197.966 568.479 197.966 570.279C197.966 572.059 199.206 573.239 201.306 573.239ZM201.846 571.779C200.626 571.779 199.866 571.259 199.866 570.219C199.866 569.259 200.546 568.619 202.206 568.459L204.706 568.259V568.779C204.706 570.619 203.626 571.779 201.846 571.779ZM214.73 563.139C214.35 563.059 214.07 563.019 213.73 563.019C212.39 563.019 211.41 563.699 211.01 564.719L210.89 563.239H209.13V572.999H211.01V567.819C211.01 565.939 212.11 564.859 213.89 564.859H214.73V563.139ZM219.644 572.999V564.799H221.564V563.219H219.644V560.159H217.764V563.219H215.844V564.799H217.764V572.999H219.644ZM227.373 573.239C229.793 573.239 231.433 572.059 231.913 569.959H230.153C229.833 571.079 228.873 571.679 227.413 571.679C225.553 571.679 224.473 570.539 224.333 568.479L231.893 568.459V567.759C231.893 564.859 230.073 562.939 227.293 562.939C224.453 562.939 222.513 565.059 222.513 568.119C222.513 571.159 224.493 573.239 227.373 573.239ZM227.293 564.519C228.953 564.519 230.013 565.599 230.013 567.219H224.373C224.613 565.499 225.653 564.519 227.293 564.519ZM237.913 573.239C239.473 573.239 240.793 572.559 241.433 571.219L241.593 572.999H243.273V558.279H241.413V564.799C240.753 563.599 239.493 562.939 237.993 562.939C235.093 562.939 233.353 565.139 233.353 568.139C233.353 571.119 235.073 573.239 237.913 573.239ZM238.293 571.539C236.373 571.539 235.253 570.099 235.253 568.079C235.253 566.079 236.373 564.639 238.293 564.639C240.213 564.639 241.393 566.079 241.393 568.079C241.393 570.119 240.213 571.539 238.293 571.539Z" fill="#FFFFFE"/>
<path d="M370.579 1023.9C395.327 1033.06 406.133 1050.99 406.133 1050.99C406.133 1050.99 396.559 1047.85 373.429 1057.09C351.687 1065.77 338.117 1048.37 337.222 1047.28C337.516 1047.83 339.7 1053.34 323.247 1080.42C305.69 1109.18 285.624 1102.98 285.624 1102.98C285.624 1102.98 297.029 1091.08 292.624 1074.37C289.349 1062.23 291.856 1051.66 296.005 1043.14C277.348 1058.13 243.256 1064.78 223.913 1022.61C204.334 1030.24 186.195 1034.68 184.452 1007.23C182.77 1007.23 117.341 997.673 124.013 947.336C122.487 947.172 121.273 946.69 120.521 946.023C119.319 944.956 119.198 943.36 120.477 940.625C108.676 941.76 46.9788 891.166 110.448 830.815C108.453 831.128 104.758 832.313 98.4088 836.203C86.172 843.797 75.0075 843.711 75.0075 843.711C75.0075 843.711 78.5992 840.052 83.4017 829.431C88.0421 819.262 98.4552 818.682 99.681 818.579C98.6114 818.523 90.2166 817.62 91.1294 802.654C92.001 789.735 92.5872 783.409 92.5872 783.409C92.5872 783.409 96.1671 780.335 103.171 789.529C108.24 796.111 113.741 803.971 117.018 808.368C110.753 785.244 117.282 764.844 155.99 749.193C154.101 744.242 161.9 729.137 173.931 731.778C173.135 725.714 205.486 683.882 242.325 692.765C243.748 690.456 245.315 688.573 246.877 686.983C251.874 681.893 257.714 680.527 265.24 686.612C301.897 666.461 323.089 662.35 345.843 687.011C354.842 680.71 360.34 681.125 361.204 691.417C362.147 690.171 362.933 689.083 364.026 687.969C380.736 670.95 420.417 667.771 425.711 708.785C428.948 692.31 438.341 681.597 438.341 681.597C438.341 681.597 445.879 687.096 447.297 700.261C448.679 715.181 444.357 724.74 444.357 724.74C444.357 724.74 453.594 714.186 470.629 726.626C487.357 739.092 491.288 741.391 491.288 741.391C491.288 741.391 485.592 743.182 473.941 744.45C463.979 745.43 454.93 746.627 448.026 747.643C460.576 754.912 475.822 772.612 463.109 803.894C481.431 805.571 479.366 824.575 468.523 831.322C482.045 835.882 521.11 893.774 447.079 916.472C452.233 926.404 447.247 930.91 437.724 932.875C438.992 945.907 418.525 1012.87 348.364 1010.43C349.837 1013.23 354.785 1018.21 370.579 1023.9Z" fill="#B2B2F1"/>
<path d="M559.133 279.739V88.8051C559.133 39.7776 522.419 0 477.149 0H87.4068C42.1336 0 5.44502 39.7776 5.44502 88.8051V164.396C3.85412 164.989 2.4758 166.093 1.50111 167.555C0.526408 169.018 0.00354762 170.766 0.00496933 172.559V202.742C-0.00230216 204.54 0.516841 206.295 1.49038 207.764C2.46391 209.233 3.84357 210.343 5.43751 210.94V246.094C3.84316 246.691 2.46333 247.801 1.48976 249.271C0.516192 250.741 -0.00282506 252.496 0.00496933 254.294V330.954C-0.0019096 332.748 0.517763 334.499 1.4916 335.964C2.46544 337.428 3.84495 338.533 5.43751 339.124V361.588C3.84396 362.183 2.46431 363.292 1.49068 364.76C0.517052 366.227 -0.00222024 367.981 0.00496933 369.778V446.437C-0.00230216 448.235 0.516841 449.99 1.49038 451.459C2.46391 452.928 3.84357 454.038 5.43751 454.635V1129.19C5.43751 1178.23 42.1336 1217.99 87.3992 1217.99H477.149C522.427 1217.99 559.133 1178.22 559.133 1129.16V424.927C560.831 424.409 562.323 423.315 563.383 421.812C564.442 420.308 565.01 418.477 565 416.599V288.067C565.01 286.188 564.442 284.358 563.383 282.854C562.323 281.35 560.831 280.256 559.133 279.739ZM548.293 1130.25C548.293 1172.76 516.479 1207.23 477.244 1207.23H87.324C48.066 1207.23 16.2471 1172.76 16.2471 1130.25V87.7553C16.2471 45.2453 48.061 10.7725 87.324 10.7725H477.244C516.479 10.7725 548.293 45.2426 548.293 87.7553V1130.25Z" fill="black"/>
<path d="M479.293 4H85.7351C46.1164 4 14 38.8382 14 81.7783V1135.22C14 1178.18 46.1113 1213 85.7351 1213H479.29C518.891 1213 551 1178.16 551 1135.22V81.7783C551 38.8193 518.891 4 479.293 4ZM535.511 1137.36C535.579 1144.76 534.276 1152.1 531.677 1158.96C529.078 1165.82 525.234 1172.07 520.363 1177.35C515.493 1182.63 509.692 1186.84 503.292 1189.73C496.891 1192.63 490.017 1194.16 483.062 1194.23H81.9434C67.8997 1194.08 54.487 1188.01 44.6554 1177.34C34.8238 1166.68 29.3785 1152.29 29.5173 1137.36V79.6556C29.3785 64.7217 34.8238 50.3408 44.6554 39.6758C54.487 29.0108 67.8997 22.9353 81.9434 22.7856H135.959V23.2636C137.969 23.2935 139.887 24.1669 141.294 25.6936C142.701 27.2203 143.484 29.2765 143.472 31.4142C143.449 40.4993 146.779 49.2313 152.746 55.7334C155.659 58.915 159.141 61.4444 162.987 63.1726C166.833 64.9007 170.966 65.7928 175.141 65.7961H388.487C392.69 65.7502 396.843 64.8244 400.709 63.0717C404.575 61.3189 408.079 58.7735 411.019 55.5808C413.96 52.3881 416.281 48.6104 417.849 44.4639C419.417 40.3174 420.201 35.8831 420.157 31.4142C420.162 29.258 420.961 27.1899 422.384 25.6537C423.075 24.8994 423.901 24.2994 424.813 23.889C425.725 23.4786 426.704 23.266 427.695 23.2636V22.7856H483.059C490.015 22.8573 496.889 24.3851 503.289 27.282C509.689 30.1788 515.49 34.3878 520.36 39.6687C525.231 44.9497 529.075 51.1991 531.674 58.0601C534.274 64.9211 535.576 72.2592 535.508 79.6556L535.511 1137.36Z" fill="#010003"/>
<path d="M-4.16006e-05 448.067V367.862C-0.00966456 367.023 0.136281 366.19 0.429461 365.41C0.722641 364.631 1.15731 363.921 1.70865 363.32C2.25999 362.719 2.9172 362.24 3.64275 361.909C4.3683 361.579 5.14798 361.403 5.93725 361.393V454.536C5.14798 454.526 4.3683 454.35 3.64275 454.02C2.9172 453.689 2.25999 453.21 1.70865 452.609C1.15731 452.008 0.722641 451.298 0.429461 450.519C0.136281 449.739 -0.00966456 448.906 -4.16006e-05 448.067ZM559.07 278.846C559.859 278.856 560.639 279.032 561.365 279.362C562.09 279.693 562.747 280.172 563.299 280.773C563.85 281.374 564.285 282.084 564.578 282.864C564.871 283.643 565.017 284.476 565.008 285.316V418.14C565.026 419.834 564.41 421.467 563.297 422.679C562.184 423.891 560.663 424.584 559.07 424.604V278.846ZM-4.16006e-05 331.672V251.468C-0.0188048 249.773 0.596137 248.14 1.70955 246.927C2.82296 245.714 4.34367 245.022 5.93725 245.001V338.141C5.14798 338.131 4.3683 337.956 3.64275 337.625C2.9172 337.295 2.25999 336.815 1.70865 336.215C1.15731 335.614 0.722641 334.904 0.429461 334.124C0.136281 333.345 -0.00966456 332.512 -4.16006e-05 331.672ZM-4.16006e-05 203.212V169.308C-0.00966456 168.469 0.136281 167.636 0.429461 166.856C0.722641 166.077 1.15731 165.367 1.70865 164.766C2.25999 164.165 2.9172 163.686 3.64275 163.355C4.3683 163.025 5.14798 162.849 5.93725 162.839V209.679C4.34367 209.659 2.82296 208.966 1.70955 207.753C0.596137 206.54 -0.0188048 204.907 -4.16006e-05 203.212Z" fill="black"/>
<path d="M162.886 53.2905C162.085 50.6688 162.291 47.8166 163.458 45.3555C164.626 42.8943 166.661 41.0238 169.12 40.1515C170.336 39.7304 171.617 39.5692 172.892 39.6772C174.166 39.7853 175.408 40.1605 176.545 40.7812C177.683 41.402 178.693 42.2559 179.519 43.2939C180.345 44.3319 180.969 45.5334 181.356 46.8292C182.157 49.4509 181.952 52.3032 180.784 54.7643C179.617 57.2255 177.581 59.096 175.123 59.9682C174.15 60.3086 173.133 60.4817 172.109 60.4811C170.054 60.4725 168.055 59.7721 166.398 58.4803C164.742 57.1885 163.512 55.3717 162.886 53.2905ZM332.114 49.0943C332.097 47.0302 332.657 45.0073 333.723 43.2823C334.789 41.5573 336.313 40.208 338.101 39.4056C339.89 38.6032 341.862 38.3839 343.767 38.7755C345.673 39.1671 347.426 40.1521 348.805 41.6052C350.183 43.0584 351.125 44.9144 351.509 46.9376C351.894 48.9607 351.705 51.0599 350.967 52.9687C350.228 54.8775 348.973 56.5098 347.36 57.6585C345.747 58.8073 343.85 59.4206 341.909 59.4207C339.323 59.432 336.838 58.3506 335.002 56.4142C333.165 54.4778 332.126 51.8448 332.114 49.0943ZM251.373 53.2184C250.164 53.2184 249.005 52.7077 248.15 51.7985C247.295 50.8893 246.815 49.6562 246.815 48.3704C246.815 47.0847 247.295 45.8516 248.15 44.9424C249.005 44.0332 250.164 43.5224 251.373 43.5224H310.98C312.189 43.5224 313.348 44.0332 314.203 44.9424C315.058 45.8516 315.538 47.0847 315.538 48.3704C315.538 49.6562 315.058 50.8893 314.203 51.7985C313.348 52.7077 312.189 53.2184 310.98 53.2184H251.373ZM250.695 36.7299C249.094 36.6812 247.573 35.9704 246.456 34.7485C245.34 33.5265 244.715 31.8897 244.715 30.1858C244.715 28.4818 245.34 26.845 246.456 25.6231C247.573 24.4011 249.094 23.6903 250.695 23.6417H311.658C313.259 23.6903 314.78 24.4011 315.896 25.6231C317.013 26.845 317.638 28.4818 317.638 30.1858C317.638 31.8897 317.013 33.5265 315.896 34.7485C314.78 35.9704 313.259 36.6812 311.658 36.7299H250.695Z" fill="#484450"/>
</g>
<defs>
<linearGradient id="paint0_linear_418_12" x1="194.496" y1="360.844" x2="122.481" y2="286.257" gradientUnits="userSpaceOnUse">
<stop offset="5.94866e-07" stop-color="#B1B1D5"/>
<stop offset="0.0120756" stop-color="#A9A7D0"/>
<stop offset="0.0636143" stop-color="#8A83BC"/>
<stop offset="0.1215" stop-color="#6E63AA"/>
<stop offset="0.1856" stop-color="#57479B"/>
<stop offset="0.2579" stop-color="#45318F"/>
<stop offset="0.3424" stop-color="#362086"/>
<stop offset="0.4468" stop-color="#2C1580"/>
<stop offset="0.5933" stop-color="#270E7C"/>
<stop offset="1" stop-color="#250C7B"/>
</linearGradient>
<clipPath id="clip0_418_12">
<rect width="565" height="831" fill="white"/>
</clipPath>
</defs>
</svg>
