<svg width="1149" height="566" viewBox="0 0 1149 566" fill="none" xmlns="http://www.w3.org/2000/svg">
<path d="M263.776 5.87469H83.7378C37.5078 5.87469 0 42.5886 0 87.8593L0 477.601C0 522.874 37.5078 559.563 83.7378 559.563H155.016C155.574 561.154 156.615 562.532 157.994 563.507C159.373 564.481 161.022 565.004 162.713 565.003H191.174C192.868 565.01 194.523 564.491 195.908 563.517C197.294 562.544 198.34 561.164 198.903 559.57H232.051C232.614 561.165 233.662 562.544 235.047 563.518C236.433 564.492 238.088 565.011 239.784 565.003H312.069C313.761 565.01 315.412 564.49 316.793 563.516C318.174 562.542 319.216 561.163 319.773 559.57H340.955C341.517 561.164 342.562 562.544 343.946 563.517C345.33 564.491 346.984 565.01 348.678 565.003H420.963C422.658 565.01 424.313 564.491 425.698 563.517C427.083 562.544 428.13 561.164 428.693 559.57L1064.75 559.57C1111 559.57 1148.49 522.874 1148.49 477.609V87.8593C1148.49 42.5811 1110.99 5.87469 1064.73 5.87469L400.68 5.87469C400.192 4.17657 399.16 2.68433 397.742 1.62512C396.325 0.565918 394.599 -0.00195312 392.827 0.00787354H271.629C269.858 -0.00195312 268.132 0.565918 266.714 1.62512C265.296 2.68433 264.265 4.17657 263.776 5.87469ZM1065.75 16.7146C1105.84 16.7146 1138.34 48.5286 1138.34 87.7639V477.684C1138.34 516.942 1105.84 548.761 1065.75 548.761L82.7479 548.761C42.6635 548.761 10.1578 516.947 10.1578 477.684L10.1578 87.7639C10.1578 48.5286 42.661 16.7146 82.7479 16.7146L1065.75 16.7146Z" fill="black"/>
<rect x="10.4917" y="550.508" width="531" height="1125" rx="70" transform="rotate(-90 10.4917 550.508)" fill="#FFFFFE"/>
<path d="M204.492 374.508L568.492 288.508L265.992 205.008M385.492 113.508L568.492 272.008L556.992 100.008M842.492 135.508L584.992 272.008L933.992 300.008M842.492 415.008L584.992 288.508L711.992 479.008M568.492 300.008L403.992 479.008" stroke="#B2B2F1"/>
<path d="M227.838 285.206C236.128 277.257 237.923 267.986 237.923 267.986C237.923 267.986 234.663 270.891 224.582 270.904C215.106 270.916 212.182 280.43 211.982 281.035C212.022 280.753 212.137 278.093 202.28 269.562C191.777 260.508 184.894 266.441 184.894 266.441C184.894 266.441 190.828 269.496 191.328 277.193C191.662 282.794 194.01 286.781 196.717 289.638C187.597 286.507 173.651 289.426 171.759 310.223C163.251 310.314 155.713 311.492 158.641 323.216C157.996 323.499 134.156 338.399 143.31 358.255C142.746 358.578 142.344 358.982 142.143 359.385C141.822 360.03 141.985 360.715 142.833 361.641C138.159 363.138 121.127 394.512 153.376 409.06C152.57 409.262 150.998 409.385 148.053 408.825C142.365 407.704 138.095 409.603 138.095 409.603C138.095 409.603 139.952 410.528 143.185 414.15C146.297 417.612 150.367 416.116 150.85 415.954C150.448 416.156 147.346 417.933 149.658 424.015C151.685 429.252 152.738 431.789 152.738 431.789C152.738 431.789 154.514 432.472 155.996 427.473C157.077 423.885 158.157 419.693 158.837 417.314C159.465 427.993 164.642 435.401 181.537 435.46C181.462 437.838 186.432 442.829 190.7 439.72C191.189 442.379 209.078 454.406 222.042 444.557C222.89 445.281 223.738 445.804 224.545 446.206C227.129 447.492 229.547 447.086 231.636 443.295C248.335 445.571 257.001 443.747 262.496 429.675C266.773 430.798 268.827 429.707 267.809 425.276C268.334 425.638 268.779 425.96 269.344 426.241C277.982 430.542 293.617 425.243 290.273 407.274C293.673 413.596 298.679 416.492 298.679 416.492C298.679 416.492 300.849 412.942 299.668 407.222C298.243 400.775 295.333 397.515 295.333 397.515C295.333 397.515 300.259 400.37 305.161 392.344C309.943 384.359 311.15 382.745 311.15 382.745C311.15 382.745 308.731 382.95 304.096 384.366C300.147 385.621 296.52 386.633 293.739 387.362C297.6 382.239 301.127 372.321 292.153 361.411C298.96 357.654 295.678 350.082 290.635 349.081C295.223 344.925 302.619 314.288 271.253 317.189C271.928 312.191 269.426 311.146 265.516 311.917C264.295 306.277 247.67 281.796 221.083 294.524C221.282 293.113 222.526 290.21 227.838 285.206Z" fill="#B2B2F1"/>
<path d="M229.938 345.51C229.938 345.51 218.621 338.38 207.379 336.951C196.137 335.523 185.579 342.17 185.579 342.17C186.29 343.948 187.208 345.636 188.311 347.201C189.617 348.94 191.072 350.561 192.659 352.047C190.421 353.716 188.361 355.61 186.51 357.7C184.945 359.605 183.65 361.717 182.66 363.975C186.03 365.98 189.768 367.289 193.653 367.826C199.926 368.635 207.754 367.211 207.754 367.211L229.938 345.51Z" fill="#4824D6"/>
<path d="M224.524 344.699H223.993C207.76 344.699 194.601 357.861 194.601 374.098V378.901C194.601 395.138 207.76 408.301 223.993 408.301H224.524C240.757 408.301 253.917 395.138 253.917 378.901V374.098C253.917 357.861 240.757 344.699 224.524 344.699Z" fill="white"/>
<path d="M212.898 384.205C212.898 384.205 215.896 389.525 224.029 389.728C232.162 389.931 235.62 384.205 235.62 384.205" stroke="#2B2C34" stroke-width="2" stroke-linecap="round"/>
<path d="M223.333 369.669C223.333 369.669 220.465 375.407 221.237 377.565C222.008 379.722 226.418 378.299 226.418 378.299" stroke="#2B2C34" stroke-width="2" stroke-linecap="round"/>
<path d="M829.103 75.4996C836.231 68.6648 837.774 60.6937 837.774 60.6937C837.774 60.6937 834.971 63.1919 826.304 63.203C818.157 63.2133 815.643 71.3935 815.471 71.9135C815.505 71.6709 815.604 69.384 807.129 62.0493C798.099 54.2649 792.181 59.3657 792.181 59.3657C792.181 59.3657 797.283 61.9925 797.713 68.6098C798 73.4256 800.018 76.8532 802.346 79.3103C794.505 76.6177 782.515 79.1276 780.888 97.0083C773.573 97.0869 767.092 98.0999 769.609 108.179C769.055 108.423 748.557 121.234 756.428 138.306C755.943 138.583 755.597 138.93 755.425 139.277C755.148 139.832 755.288 140.421 756.018 141.217C751.999 142.504 737.355 169.479 765.083 181.986C764.39 182.16 763.038 182.266 760.506 181.784C755.615 180.82 751.944 182.454 751.944 182.454C751.944 182.454 753.54 183.248 756.32 186.363C758.996 189.34 762.495 188.053 762.911 187.914C762.565 188.088 759.898 189.616 761.885 194.845C763.628 199.347 764.534 201.529 764.534 201.529C764.534 201.529 766.061 202.116 767.335 197.818C768.264 194.733 769.193 191.128 769.778 189.083C770.317 198.264 774.768 204.634 789.295 204.685C789.23 206.729 793.503 211.02 797.173 208.348C797.593 210.634 812.974 220.974 824.12 212.506C824.849 213.129 825.578 213.578 826.272 213.924C828.493 215.03 830.573 214.681 832.369 211.421C846.726 213.378 854.177 211.809 858.901 199.711C862.578 200.677 864.345 199.739 863.47 195.929C863.921 196.24 864.303 196.517 864.789 196.758C872.216 200.456 885.658 195.9 882.783 180.451C885.707 185.887 890.011 188.376 890.011 188.376C890.011 188.376 891.877 185.325 890.861 180.406C889.636 174.864 887.134 172.06 887.134 172.06C887.134 172.06 891.369 174.515 895.584 167.615C899.696 160.749 900.733 159.362 900.733 159.362C900.733 159.362 898.653 159.538 894.669 160.755C891.273 161.834 888.155 162.704 885.764 163.331C889.083 158.926 892.116 150.399 884.4 141.019C890.252 137.789 887.43 131.279 883.095 130.418C887.04 126.844 893.399 100.503 866.431 102.998C867.011 98.7005 864.86 97.8024 861.498 98.465C860.448 93.6155 846.155 72.5675 823.296 83.5108C823.466 82.2979 824.536 79.8018 829.103 75.4996Z" fill="#B2B2F1"/>
<path d="M830.909 127.348C830.909 127.348 821.178 121.217 811.513 119.989C801.847 118.761 792.769 124.476 792.769 124.476C793.381 126.004 794.17 127.456 795.119 128.802C796.242 130.296 797.492 131.69 798.857 132.968C796.933 134.403 795.162 136.032 793.57 137.828C792.225 139.466 791.111 141.282 790.26 143.223C793.158 144.947 796.371 146.073 799.711 146.535C805.105 147.23 811.835 146.005 811.835 146.005L830.909 127.348Z" fill="#4824D6"/>
<path d="M826.254 126.65H825.798C811.841 126.65 800.526 137.967 800.526 151.927V156.057C800.526 170.017 811.841 181.334 825.798 181.334H826.254C840.211 181.334 851.525 170.017 851.525 156.057V151.927C851.525 137.967 840.211 126.65 826.254 126.65Z" fill="white"/>
<path d="M816.258 160.617C816.258 160.617 818.836 165.19 825.828 165.365C832.821 165.539 835.794 160.617 835.794 160.617" stroke="#2B2C34" stroke-width="2" stroke-linecap="round"/>
<path d="M825.23 148.119C825.23 148.119 822.764 153.053 823.428 154.908C824.091 156.762 827.882 155.539 827.882 155.539" stroke="#2B2C34" stroke-width="2" stroke-linecap="round"/>
<path d="M382.18 61.9315C386.951 57.3563 387.985 52.0204 387.985 52.0204C387.985 52.0204 386.108 53.6928 380.306 53.7001C374.852 53.7071 373.17 59.1829 373.054 59.531C373.077 59.3686 373.144 57.8377 367.471 52.9279C361.426 47.717 357.464 51.1315 357.464 51.1315C357.464 51.1315 360.879 52.8899 361.167 57.3195C361.36 60.5432 362.71 62.8376 364.269 64.4824C359.02 62.68 350.994 64.3601 349.905 76.3295C345.008 76.3821 340.669 77.0602 342.354 83.8074C341.983 83.9703 328.262 92.5462 333.531 103.974C333.207 104.16 332.975 104.392 332.859 104.624C332.675 104.996 332.768 105.39 333.257 105.923C330.566 106.784 320.764 124.841 339.325 133.214C338.861 133.33 337.956 133.401 336.261 133.079C332.987 132.433 330.529 133.527 330.529 133.527C330.529 133.527 331.598 134.059 333.459 136.144C335.25 138.136 337.592 137.275 337.871 137.182C337.639 137.298 335.854 138.321 337.184 141.821C338.351 144.835 338.957 146.296 338.957 146.296C338.957 146.296 339.979 146.689 340.832 143.811C341.454 141.746 342.076 139.334 342.468 137.965C342.829 144.11 345.808 148.374 355.532 148.408C355.489 149.777 358.349 152.649 360.806 150.86C361.087 152.391 371.383 159.312 378.844 153.644C379.332 154.061 379.82 154.361 380.285 154.593C381.772 155.333 383.164 155.099 384.366 152.918C393.977 154.227 398.964 153.177 402.127 145.079C404.588 145.725 405.771 145.097 405.185 142.547C405.487 142.755 405.743 142.94 406.068 143.102C411.04 145.578 420.038 142.528 418.113 132.186C420.071 135.825 422.952 137.491 422.952 137.491C422.952 137.491 424.201 135.449 423.521 132.156C422.701 128.446 421.026 126.569 421.026 126.569C421.026 126.569 423.861 128.213 426.682 123.593C429.435 118.998 430.129 118.069 430.129 118.069C430.129 118.069 428.737 118.187 426.069 119.002C423.797 119.724 421.709 120.306 420.109 120.726C422.33 117.777 424.361 112.069 419.196 105.79C423.113 103.628 421.224 99.2702 418.322 98.694C420.963 96.3017 425.219 78.6691 407.167 80.3388C407.556 77.4623 406.115 76.861 403.865 77.3046C403.162 74.0584 393.594 59.9688 378.292 67.2942C378.407 66.4823 379.123 64.8114 382.18 61.9315Z" fill="#B2B2F1"/>
<path d="M383.389 96.6389C383.389 96.6389 376.875 92.5352 370.405 91.713C363.935 90.8907 357.858 94.7163 357.858 94.7163C358.268 95.7397 358.796 96.7116 359.431 97.6124C360.183 98.6127 361.02 99.5458 361.933 100.401C360.645 101.362 359.459 102.452 358.394 103.655C357.494 104.751 356.748 105.966 356.178 107.266C358.118 108.42 360.269 109.174 362.505 109.483C366.116 109.948 370.621 109.128 370.621 109.128L383.389 96.6389Z" fill="#4824D6"/>
<path d="M380.273 96.1719H379.967C370.624 96.1719 363.051 103.747 363.051 113.092V115.857C363.051 125.202 370.624 132.777 379.967 132.777H380.273C389.616 132.777 397.189 125.202 397.189 115.857V113.092C397.189 103.747 389.616 96.1719 380.273 96.1719Z" fill="white"/>
<path d="M373.582 118.909C373.582 118.909 375.307 121.971 379.988 122.088C384.668 122.204 386.659 118.909 386.659 118.909" stroke="#2B2C34" stroke-width="2" stroke-linecap="round"/>
<path d="M379.587 110.543C379.587 110.543 377.937 113.846 378.381 115.087C378.825 116.329 381.363 115.51 381.363 115.51" stroke="#2B2C34" stroke-width="2" stroke-linecap="round"/>
<path d="M875.18 365.932C879.951 361.356 880.985 356.02 880.985 356.02C880.985 356.02 879.108 357.693 873.306 357.7C867.852 357.707 866.17 363.183 866.054 363.531C866.077 363.369 866.144 361.838 860.471 356.928C854.426 351.717 850.464 355.131 850.464 355.131C850.464 355.131 853.879 356.89 854.167 361.319C854.36 364.543 855.71 366.838 857.269 368.482C852.02 366.68 843.994 368.36 842.905 380.329C838.008 380.382 833.669 381.06 835.354 387.807C834.983 387.97 821.262 396.546 826.531 407.974C826.207 408.16 825.975 408.392 825.859 408.624C825.675 408.996 825.768 409.39 826.257 409.923C823.566 410.784 813.764 428.841 832.325 437.214C831.861 437.33 830.956 437.401 829.261 437.079C825.987 436.433 823.529 437.527 823.529 437.527C823.529 437.527 824.598 438.059 826.459 440.144C828.25 442.136 830.592 441.275 830.871 441.182C830.639 441.298 828.854 442.321 830.184 445.821C831.351 448.835 831.957 450.296 831.957 450.296C831.957 450.296 832.979 450.689 833.832 447.811C834.454 445.746 835.076 443.334 835.468 441.965C835.829 448.11 838.808 452.374 848.532 452.408C848.489 453.777 851.349 456.649 853.806 454.86C854.087 456.391 864.383 463.312 871.844 457.644C872.332 458.061 872.82 458.361 873.285 458.593C874.772 459.333 876.164 459.099 877.366 456.918C886.977 458.227 891.964 457.177 895.127 449.079C897.588 449.725 898.771 449.097 898.185 446.547C898.487 446.755 898.743 446.94 899.068 447.102C904.04 449.578 913.038 446.528 911.113 436.186C913.071 439.825 915.952 441.491 915.952 441.491C915.952 441.491 917.201 439.449 916.521 436.156C915.701 432.446 914.026 430.569 914.026 430.569C914.026 430.569 916.861 432.213 919.682 427.593C922.435 422.998 923.129 422.069 923.129 422.069C923.129 422.069 921.737 422.187 919.069 423.002C916.797 423.724 914.709 424.306 913.109 424.726C915.33 421.777 917.361 416.069 912.196 409.79C916.113 407.628 914.224 403.27 911.322 402.694C913.963 400.302 918.219 382.669 900.167 384.339C900.556 381.462 899.115 380.861 896.865 381.305C896.162 378.058 886.594 363.969 871.292 371.294C871.407 370.482 872.123 368.811 875.18 365.932Z" fill="#B2B2F1"/>
<path d="M876.389 400.639C876.389 400.639 869.875 396.535 863.405 395.713C856.935 394.891 850.858 398.716 850.858 398.716C851.268 399.74 851.796 400.712 852.431 401.612C853.183 402.613 854.02 403.546 854.933 404.401C853.645 405.362 852.459 406.452 851.394 407.655C850.494 408.751 849.748 409.966 849.178 411.266C851.118 412.42 853.269 413.174 855.505 413.483C859.116 413.948 863.621 413.128 863.621 413.128L876.389 400.639Z" fill="#4824D6"/>
<path d="M873.273 400.172H872.967C863.624 400.172 856.051 407.747 856.051 417.092V419.857C856.051 429.202 863.624 436.777 872.967 436.777H873.273C882.616 436.777 890.189 429.202 890.189 419.857V417.092C890.189 407.747 882.616 400.172 873.273 400.172Z" fill="white"/>
<path d="M866.582 422.909C866.582 422.909 868.307 425.971 872.988 426.088C877.668 426.204 879.659 422.909 879.659 422.909" stroke="#2B2C34" stroke-width="2" stroke-linecap="round"/>
<path d="M872.587 414.543C872.587 414.543 870.937 417.846 871.381 419.087C871.825 420.329 874.363 419.51 874.363 419.51" stroke="#2B2C34" stroke-width="2" stroke-linecap="round"/>
<path d="M414.18 422.932C418.951 418.356 419.985 413.02 419.985 413.02C419.985 413.02 418.108 414.693 412.306 414.7C406.852 414.707 405.17 420.183 405.054 420.531C405.077 420.369 405.144 418.838 399.471 413.928C393.426 408.717 389.464 412.131 389.464 412.131C389.464 412.131 392.879 413.89 393.167 418.319C393.36 421.543 394.71 423.838 396.269 425.482C391.02 423.68 382.994 425.36 381.905 437.329C377.008 437.382 372.669 438.06 374.354 444.807C373.983 444.97 360.262 453.546 365.531 464.974C365.207 465.16 364.975 465.392 364.859 465.624C364.675 465.996 364.768 466.39 365.257 466.923C362.566 467.784 352.764 485.841 371.325 494.214C370.861 494.33 369.956 494.401 368.261 494.079C364.987 493.433 362.529 494.527 362.529 494.527C362.529 494.527 363.598 495.059 365.459 497.144C367.25 499.136 369.592 498.275 369.871 498.182C369.639 498.298 367.854 499.321 369.184 502.821C370.351 505.835 370.957 507.296 370.957 507.296C370.957 507.296 371.979 507.689 372.832 504.811C373.454 502.746 374.076 500.334 374.468 498.965C374.829 505.11 377.808 509.374 387.532 509.408C387.489 510.777 390.349 513.649 392.806 511.86C393.087 513.391 403.383 520.312 410.844 514.644C411.332 515.061 411.82 515.361 412.285 515.593C413.772 516.333 415.164 516.099 416.366 513.918C425.977 515.227 430.964 514.177 434.127 506.079C436.588 506.725 437.771 506.097 437.185 503.547C437.487 503.755 437.743 503.94 438.068 504.102C443.04 506.578 452.038 503.528 450.113 493.186C452.071 496.825 454.952 498.491 454.952 498.491C454.952 498.491 456.201 496.449 455.521 493.156C454.701 489.446 453.026 487.569 453.026 487.569C453.026 487.569 455.861 489.213 458.682 484.593C461.435 479.998 462.129 479.069 462.129 479.069C462.129 479.069 460.737 479.187 458.069 480.002C455.797 480.724 453.709 481.306 452.109 481.726C454.33 478.777 456.361 473.069 451.196 466.79C455.113 464.628 453.224 460.27 450.322 459.694C452.963 457.302 457.219 439.669 439.167 441.339C439.556 438.462 438.115 437.861 435.865 438.305C435.162 435.058 425.594 420.969 410.292 428.294C410.407 427.482 411.123 425.811 414.18 422.932Z" fill="#B2B2F1"/>
<path d="M415.389 457.639C415.389 457.639 408.875 453.535 402.405 452.713C395.935 451.891 389.858 455.716 389.858 455.716C390.268 456.74 390.796 457.712 391.431 458.612C392.183 459.613 393.02 460.546 393.933 461.401C392.645 462.362 391.459 463.452 390.394 464.655C389.494 465.751 388.748 466.966 388.178 468.266C390.118 469.42 392.269 470.174 394.505 470.483C398.116 470.948 402.621 470.128 402.621 470.128L415.389 457.639Z" fill="#4824D6"/>
<path d="M412.273 457.172H411.967C402.624 457.172 395.051 464.747 395.051 474.092V476.857C395.051 486.202 402.624 493.777 411.967 493.777H412.273C421.616 493.777 429.189 486.202 429.189 476.857V474.092C429.189 464.747 421.616 457.172 412.273 457.172Z" fill="white"/>
<path d="M405.582 479.909C405.582 479.909 407.307 482.971 411.988 483.088C416.668 483.204 418.659 479.909 418.659 479.909" stroke="#2B2C34" stroke-width="2" stroke-linecap="round"/>
<path d="M411.587 471.543C411.587 471.543 409.937 474.846 410.381 476.087C410.825 477.329 413.363 476.51 413.363 476.51" stroke="#2B2C34" stroke-width="2" stroke-linecap="round"/>
<path d="M934.418 271.146C937.399 268.287 938.045 264.953 938.045 264.953C938.045 264.953 936.872 265.998 933.247 266.002C929.838 266.007 928.787 269.429 928.715 269.646C928.729 269.545 928.77 268.588 925.225 265.52C921.447 262.263 918.972 264.397 918.972 264.397C918.972 264.397 921.106 265.496 921.286 268.264C921.406 270.279 922.25 271.713 923.224 272.741C919.944 271.614 914.928 272.664 914.247 280.144C911.187 280.177 908.476 280.601 909.529 284.817C909.297 284.919 900.722 290.279 904.015 297.42C903.812 297.537 903.668 297.682 903.595 297.827C903.48 298.059 903.538 298.305 903.844 298.638C902.162 299.177 896.036 310.461 907.636 315.693C907.346 315.766 906.78 315.81 905.721 315.609C903.675 315.206 902.139 315.889 902.139 315.889C902.139 315.889 902.807 316.221 903.97 317.524C905.089 318.769 906.553 318.231 906.727 318.173C906.582 318.246 905.467 318.885 906.298 321.073C907.027 322.956 907.406 323.869 907.406 323.869C907.406 323.869 908.045 324.114 908.578 322.316C908.967 321.026 909.355 319.518 909.6 318.662C909.825 322.503 911.687 325.168 917.764 325.189C917.737 326.044 919.525 327.839 921.06 326.721C921.236 327.678 927.67 332.003 932.333 328.461C932.638 328.721 932.943 328.909 933.233 329.054C934.162 329.517 935.032 329.37 935.784 328.007C941.79 328.826 944.907 328.169 946.883 323.108C948.421 323.512 949.16 323.12 948.794 321.526C948.983 321.656 949.143 321.772 949.346 321.873C952.453 323.42 958.076 321.514 956.874 315.051C958.097 317.325 959.897 318.366 959.897 318.366C959.897 318.366 960.678 317.09 960.253 315.032C959.741 312.714 958.694 311.541 958.694 311.541C958.694 311.541 960.465 312.568 962.229 309.681C963.949 306.809 964.383 306.229 964.383 306.229C964.383 306.229 963.513 306.302 961.846 306.812C960.425 307.263 959.121 307.627 958.121 307.889C959.509 306.047 960.778 302.479 957.55 298.555C959.998 297.204 958.818 294.481 957.004 294.121C958.654 292.626 961.314 281.606 950.033 282.65C950.276 280.852 949.376 280.476 947.969 280.754C947.53 278.725 941.551 269.92 931.988 274.498C932.059 273.99 932.507 272.946 934.418 271.146Z" fill="#B2B2F1"/>
<path d="M935.173 292.836C935.173 292.836 931.102 290.272 927.059 289.758C923.016 289.244 919.218 291.635 919.218 291.635C919.474 292.274 919.804 292.882 920.201 293.445C920.671 294.07 921.194 294.653 921.764 295.187C920.96 295.788 920.219 296.469 919.553 297.221C918.99 297.906 918.524 298.665 918.168 299.478C919.38 300.199 920.725 300.67 922.122 300.863C924.378 301.154 927.194 300.641 927.194 300.641L935.173 292.836Z" fill="#4824D6"/>
<path d="M933.226 292.544H933.035C927.196 292.544 922.463 297.279 922.463 303.119V304.846C922.463 310.686 927.196 315.42 933.035 315.42H933.226C939.064 315.42 943.797 310.686 943.797 304.846V303.119C943.797 297.279 939.064 292.544 933.226 292.544Z" fill="white"/>
<path d="M929.044 306.754C929.044 306.754 930.123 308.667 933.048 308.74C935.973 308.813 937.217 306.754 937.217 306.754" stroke="#2B2C34" stroke-width="2" stroke-linecap="round"/>
<path d="M932.797 301.525C932.797 301.525 931.766 303.589 932.043 304.365C932.321 305.141 933.907 304.63 933.907 304.63" stroke="#2B2C34" stroke-width="2" stroke-linecap="round"/>
<path d="M562.418 77.1464C565.399 74.2872 566.045 70.9526 566.045 70.9526C566.045 70.9526 564.872 71.9977 561.247 72.0023C557.838 72.0067 556.787 75.4287 556.715 75.6462C556.729 75.5447 556.77 74.588 553.225 71.5197C549.447 68.2632 546.972 70.3971 546.972 70.3971C546.972 70.3971 549.106 71.4959 549.286 74.2642C549.406 76.2788 550.25 77.7127 551.224 78.7406C547.944 77.6141 542.928 78.6641 542.247 86.1442C539.187 86.1771 536.476 86.6009 537.529 90.8175C537.297 90.9192 528.722 96.2786 532.015 103.42C531.812 103.537 531.668 103.682 531.595 103.827C531.48 104.059 531.538 104.305 531.844 104.638C530.162 105.177 524.036 116.461 535.636 121.693C535.346 121.766 534.78 121.81 533.721 121.609C531.675 121.206 530.139 121.889 530.139 121.889C530.139 121.889 530.807 122.221 531.97 123.524C533.089 124.769 534.553 124.231 534.727 124.173C534.582 124.246 533.467 124.885 534.298 127.073C535.027 128.956 535.406 129.869 535.406 129.869C535.406 129.869 536.045 130.114 536.578 128.316C536.967 127.026 537.355 125.518 537.6 124.662C537.825 128.503 539.687 131.168 545.764 131.189C545.737 132.044 547.525 133.839 549.06 132.721C549.236 133.678 555.67 138.003 560.333 134.461C560.638 134.721 560.943 134.909 561.233 135.054C562.162 135.517 563.032 135.37 563.784 134.007C569.79 134.826 572.907 134.169 574.883 129.108C576.421 129.512 577.16 129.12 576.794 127.526C576.983 127.656 577.143 127.772 577.346 127.873C580.453 129.42 586.076 127.514 584.874 121.051C586.097 123.325 587.897 124.366 587.897 124.366C587.897 124.366 588.678 123.09 588.253 121.032C587.741 118.714 586.694 117.541 586.694 117.541C586.694 117.541 588.465 118.568 590.229 115.681C591.949 112.809 592.383 112.229 592.383 112.229C592.383 112.229 591.513 112.302 589.846 112.812C588.425 113.263 587.121 113.627 586.121 113.889C587.509 112.047 588.778 108.479 585.55 104.555C587.998 103.204 586.818 100.481 585.004 100.121C586.654 98.6256 589.314 87.6063 578.033 88.6498C578.276 86.8521 577.376 86.4764 575.969 86.7536C575.53 84.7249 569.551 75.9198 559.988 80.4978C560.059 79.9904 560.507 78.9462 562.418 77.1464Z" fill="#B2B2F1"/>
<path d="M563.173 98.8363C563.173 98.8363 559.102 96.2718 555.059 95.7579C551.016 95.2441 547.218 97.6348 547.218 97.6348C547.474 98.2743 547.804 98.8818 548.201 99.4447C548.671 100.07 549.194 100.653 549.764 101.187C548.96 101.788 548.219 102.469 547.553 103.221C546.99 103.906 546.524 104.665 546.168 105.478C547.38 106.199 548.725 106.67 550.122 106.863C552.378 107.154 555.194 106.641 555.194 106.641L563.173 98.8363Z" fill="#4824D6"/>
<path d="M561.226 98.5444H561.035C555.196 98.5444 550.463 103.279 550.463 109.119V110.846C550.463 116.686 555.196 121.42 561.035 121.42H561.226C567.064 121.42 571.797 116.686 571.797 110.846V109.119C571.797 103.279 567.064 98.5444 561.226 98.5444Z" fill="white"/>
<path d="M557.044 112.754C557.044 112.754 558.122 114.667 561.048 114.74C563.973 114.813 565.217 112.754 565.217 112.754" stroke="#2B2C34" stroke-width="2" stroke-linecap="round"/>
<path d="M560.797 107.525C560.797 107.525 559.766 109.589 560.043 110.365C560.321 111.141 561.907 110.63 561.907 110.63" stroke="#2B2C34" stroke-width="2" stroke-linecap="round"/>
<path d="M714.418 445.146C717.399 442.287 718.045 438.953 718.045 438.953C718.045 438.953 716.872 439.998 713.247 440.002C709.838 440.007 708.787 443.429 708.715 443.646C708.729 443.545 708.77 442.588 705.225 439.52C701.447 436.263 698.972 438.397 698.972 438.397C698.972 438.397 701.106 439.496 701.286 442.264C701.406 444.279 702.25 445.713 703.224 446.741C699.944 445.614 694.928 446.664 694.247 454.144C691.187 454.177 688.476 454.601 689.529 458.817C689.297 458.919 680.722 464.279 684.015 471.42C683.812 471.537 683.668 471.682 683.595 471.827C683.48 472.059 683.538 472.305 683.844 472.638C682.162 473.177 676.036 484.461 687.636 489.693C687.346 489.766 686.78 489.81 685.721 489.609C683.675 489.206 682.139 489.889 682.139 489.889C682.139 489.889 682.807 490.221 683.97 491.524C685.089 492.769 686.553 492.231 686.727 492.173C686.582 492.246 685.467 492.885 686.298 495.073C687.027 496.956 687.406 497.869 687.406 497.869C687.406 497.869 688.045 498.114 688.578 496.316C688.967 495.026 689.355 493.518 689.6 492.662C689.825 496.503 691.687 499.168 697.764 499.189C697.737 500.044 699.525 501.839 701.06 500.721C701.236 501.678 707.67 506.003 712.333 502.461C712.638 502.721 712.943 502.909 713.233 503.054C714.162 503.517 715.032 503.37 715.784 502.007C721.79 502.826 724.907 502.169 726.883 497.108C728.421 497.512 729.16 497.12 728.794 495.526C728.983 495.656 729.143 495.772 729.346 495.873C732.453 497.42 738.076 495.514 736.874 489.051C738.097 491.325 739.897 492.366 739.897 492.366C739.897 492.366 740.678 491.09 740.253 489.032C739.741 486.714 738.694 485.541 738.694 485.541C738.694 485.541 740.465 486.568 742.229 483.681C743.949 480.809 744.383 480.229 744.383 480.229C744.383 480.229 743.513 480.302 741.846 480.812C740.425 481.263 739.121 481.627 738.121 481.889C739.509 480.047 740.778 476.479 737.55 472.555C739.998 471.204 738.818 468.481 737.004 468.121C738.654 466.626 741.314 455.606 730.033 456.65C730.276 454.852 729.376 454.476 727.969 454.754C727.53 452.725 721.551 443.92 711.988 448.498C712.059 447.99 712.507 446.946 714.418 445.146Z" fill="#B2B2F1"/>
<path d="M715.173 466.836C715.173 466.836 711.102 464.272 707.059 463.758C703.016 463.244 699.218 465.635 699.218 465.635C699.474 466.274 699.804 466.882 700.201 467.445C700.671 468.07 701.194 468.653 701.764 469.187C700.96 469.788 700.219 470.469 699.553 471.221C698.99 471.906 698.524 472.665 698.168 473.478C699.38 474.199 700.725 474.67 702.122 474.863C704.378 475.154 707.194 474.641 707.194 474.641L715.173 466.836Z" fill="#4824D6"/>
<path d="M713.226 466.544H713.035C707.196 466.544 702.463 471.279 702.463 477.119V478.846C702.463 484.686 707.196 489.42 713.035 489.42H713.226C719.064 489.42 723.797 484.686 723.797 478.846V477.119C723.797 471.279 719.064 466.544 713.226 466.544Z" fill="white"/>
<path d="M709.044 480.754C709.044 480.754 710.122 482.667 713.048 482.74C715.973 482.813 717.217 480.754 717.217 480.754" stroke="#2B2C34" stroke-width="2" stroke-linecap="round"/>
<path d="M712.797 475.525C712.797 475.525 711.766 477.589 712.043 478.365C712.321 479.141 713.907 478.63 713.907 478.63" stroke="#2B2C34" stroke-width="2" stroke-linecap="round"/>
<path d="M268.418 172.146C271.399 169.287 272.045 165.953 272.045 165.953C272.045 165.953 270.872 166.998 267.247 167.002C263.838 167.007 262.787 170.429 262.715 170.646C262.729 170.545 262.77 169.588 259.225 166.52C255.447 163.263 252.972 165.397 252.972 165.397C252.972 165.397 255.106 166.496 255.286 169.264C255.406 171.279 256.25 172.713 257.224 173.741C253.944 172.614 248.928 173.664 248.247 181.144C245.187 181.177 242.476 181.601 243.529 185.817C243.297 185.919 234.722 191.279 238.015 198.42C237.812 198.537 237.668 198.682 237.595 198.827C237.48 199.059 237.538 199.305 237.844 199.638C236.162 200.177 230.036 211.461 241.636 216.693C241.346 216.766 240.78 216.81 239.721 216.609C237.675 216.206 236.139 216.889 236.139 216.889C236.139 216.889 236.807 217.221 237.97 218.524C239.089 219.769 240.553 219.231 240.727 219.173C240.582 219.246 239.467 219.885 240.298 222.073C241.027 223.956 241.406 224.869 241.406 224.869C241.406 224.869 242.045 225.114 242.578 223.316C242.967 222.026 243.355 220.518 243.6 219.662C243.825 223.503 245.687 226.168 251.764 226.189C251.737 227.044 253.525 228.839 255.06 227.721C255.236 228.678 261.67 233.003 266.333 229.461C266.638 229.721 266.943 229.909 267.233 230.054C268.162 230.517 269.032 230.37 269.784 229.007C275.79 229.826 278.907 229.169 280.883 224.108C282.421 224.512 283.16 224.12 282.794 222.526C282.983 222.656 283.143 222.772 283.346 222.873C286.453 224.42 292.076 222.514 290.874 216.051C292.097 218.325 293.897 219.366 293.897 219.366C293.897 219.366 294.678 218.09 294.253 216.032C293.741 213.714 292.694 212.541 292.694 212.541C292.694 212.541 294.465 213.568 296.229 210.681C297.949 207.809 298.383 207.229 298.383 207.229C298.383 207.229 297.513 207.302 295.846 207.812C294.425 208.263 293.121 208.627 292.121 208.889C293.509 207.047 294.778 203.479 291.55 199.555C293.998 198.204 292.818 195.481 291.004 195.121C292.654 193.626 295.314 182.606 284.033 183.65C284.276 181.852 283.376 181.476 281.969 181.754C281.53 179.725 275.551 170.92 265.988 175.498C266.059 174.99 266.507 173.946 268.418 172.146Z" fill="#B2B2F1"/>
<path d="M269.173 193.836C269.173 193.836 265.102 191.272 261.059 190.758C257.016 190.244 253.218 192.635 253.218 192.635C253.474 193.274 253.804 193.882 254.201 194.445C254.671 195.07 255.194 195.653 255.764 196.187C254.96 196.788 254.219 197.469 253.553 198.221C252.99 198.906 252.524 199.665 252.168 200.478C253.38 201.199 254.725 201.67 256.122 201.863C258.378 202.154 261.194 201.641 261.194 201.641L269.173 193.836Z" fill="#4824D6"/>
<path d="M267.226 193.544H267.035C261.196 193.544 256.463 198.279 256.463 204.119V205.846C256.463 211.686 261.196 216.42 267.035 216.42H267.226C273.064 216.42 277.797 211.686 277.797 205.846V204.119C277.797 198.279 273.064 193.544 267.226 193.544Z" fill="white"/>
<path d="M263.044 207.754C263.044 207.754 264.122 209.667 267.048 209.74C269.973 209.813 271.217 207.754 271.217 207.754" stroke="#2B2C34" stroke-width="2" stroke-linecap="round"/>
<path d="M266.797 202.525C266.797 202.525 265.766 204.589 266.043 205.365C266.321 206.141 267.907 205.63 267.907 205.63" stroke="#2B2C34" stroke-width="2" stroke-linecap="round"/>
<circle cx="562.492" cy="297.508" r="107" fill="#B2B2F1" fill-opacity="0.46"/>
<circle cx="562.492" cy="297.508" r="80" fill="#4824D6"/>
<path d="M607.492 285.085C607.492 289.795 605.229 293.956 601.757 296.586C600.743 297.371 599.65 298.117 598.558 298.784C595.203 300.864 591.497 302.435 587.518 303.337C584.709 304.005 581.744 304.358 578.74 304.358C577.882 304.358 577.063 304.319 576.204 304.279C566.842 303.651 558.376 299.608 552.056 293.367C551.393 295.526 551.081 297.842 551.081 300.236C551.081 310.207 557.128 318.725 565.71 322.336C568.519 323.514 571.601 324.142 574.8 324.142C576.477 324.142 578.077 323.985 579.676 323.631C581.081 323.317 582.446 322.925 583.773 322.375C583.89 322.336 583.968 322.297 584.085 322.257C584.124 322.257 584.124 322.218 584.163 322.218C585.762 321.59 587.557 321.237 589.39 321.237C594.384 321.237 598.753 323.788 601.289 327.714C594.579 334.269 585.489 338.351 575.424 338.508C575.229 338.508 575.034 338.508 574.839 338.508C570.431 338.508 566.178 337.762 562.238 336.349C558.532 335.054 555.099 333.17 552.017 330.854C542.81 323.867 536.842 312.758 536.842 300.276C536.842 293.917 538.363 287.911 541.094 282.651C538.636 283.161 536.1 283.436 533.486 283.436C527.752 283.436 522.329 282.18 517.492 279.903C519.949 275.978 523.148 272.524 526.855 269.697C524.358 267.303 522.173 264.594 520.418 261.611C525.996 258.353 532.511 256.508 539.416 256.508C540.275 256.508 541.094 256.548 541.952 256.587C549.52 257.097 556.503 259.806 562.199 264.123C562.199 264.123 562.238 264.123 562.238 264.163C563.877 263.574 565.515 263.142 567.232 262.789C569.689 262.279 572.225 262.004 574.839 262.004C578.194 262.004 581.393 262.436 584.475 263.26C591.965 265.223 598.597 269.462 603.513 275.193C603.942 275.703 604.371 276.213 604.8 276.763C606.516 279.118 607.492 281.984 607.492 285.085Z" fill="url(#paint0_linear_494_790)"/>
<path d="M3.77176 85.715L3.77176 479.273C3.77176 518.891 36.622 551.008 77.112 551.008L1070.44 551.008C1110.95 551.008 1143.78 518.896 1143.78 479.273V85.7175C1143.78 46.1166 1110.93 14.0078 1070.44 14.0078L77.112 14.0078C36.6042 14.0078 3.77176 46.1167 3.77176 85.715ZM1072.46 29.4972C1079.44 29.4291 1086.36 30.7318 1092.82 33.3309C1099.29 35.9299 1105.19 39.7742 1110.17 44.6446C1115.15 49.515 1119.12 55.3161 1121.85 61.7163C1124.58 68.1165 1126.02 74.9906 1126.09 81.9461V483.064C1125.95 497.108 1120.22 510.521 1110.16 520.352C1100.1 530.184 1086.54 535.629 1072.46 535.491L75.1104 535.491C61.0286 535.629 47.4683 530.184 37.4119 520.352C27.3555 510.521 21.6266 497.108 21.4854 483.064L21.4854 429.049H21.9362C21.9644 427.038 22.7879 425.121 24.2275 423.714C25.6671 422.307 27.606 421.524 29.6217 421.536C38.1884 421.559 46.4221 418.229 52.5532 412.261C55.5532 409.349 57.9383 405.867 59.5679 402.021C61.1974 398.174 62.0385 394.042 62.0416 389.867L62.0416 176.52C61.9984 172.318 61.1255 168.165 59.4727 164.299C57.82 160.433 55.4198 156.929 52.4093 153.988C49.3987 151.048 45.8367 148.727 41.9268 147.159C38.0168 145.591 33.8356 144.807 29.6217 144.851C27.5885 144.846 25.6384 144.046 24.1899 142.624C23.4786 141.933 22.9129 141.107 22.5259 140.195C22.1389 139.283 21.9384 138.303 21.9362 137.313H21.4854L21.4854 81.9486C21.553 74.9931 22.9937 68.119 25.7252 61.7188C28.4568 55.3186 32.4256 49.5178 37.4052 44.6474C42.3848 39.777 48.2776 35.9324 54.7471 33.3333C61.2166 30.7343 68.136 29.4316 75.1104 29.4996L1072.46 29.4972Z" fill="#010003"/>
<path d="M422.499 565.008H346.872C346.08 565.017 345.295 564.872 344.56 564.578C343.825 564.285 343.155 563.851 342.588 563.299C342.022 562.748 341.57 562.091 341.258 561.365C340.946 560.64 340.781 559.86 340.772 559.071H428.6C428.59 559.86 428.425 560.64 428.113 561.365C427.801 562.091 427.349 562.748 426.783 563.299C426.216 563.851 425.546 564.285 424.812 564.578C424.077 564.872 423.291 565.017 422.499 565.008ZM262.935 5.93762C262.945 5.14832 263.11 4.36865 263.422 3.64313C263.733 2.91754 264.185 2.26038 264.752 1.70905C265.318 1.15771 265.988 0.723022 266.723 0.42981C267.458 0.136658 268.244 -0.00933838 269.035 0.000305176H394.28C395.878 -0.0177612 397.418 0.597473 398.56 1.71082C399.703 2.82416 400.356 4.34448 400.376 5.93762H262.935ZM312.746 565.008H237.119C235.521 565.027 233.981 564.412 232.837 563.298C231.694 562.185 231.04 560.664 231.021 559.071H318.847C318.837 559.86 318.672 560.64 318.36 561.365C318.048 562.091 317.596 562.748 317.03 563.299C316.463 563.851 315.794 564.285 315.059 564.578C314.324 564.872 313.538 565.017 312.746 565.008ZM191.617 565.008H159.648C158.856 565.017 158.07 564.872 157.335 564.578C156.6 564.285 155.931 563.851 155.364 563.299C154.798 562.748 154.346 562.091 154.034 561.365C153.722 560.64 153.557 559.86 153.547 559.071H197.714C197.695 560.664 197.042 562.185 195.899 563.298C194.755 564.412 193.215 565.027 191.617 565.008Z" fill="black"/>
<path d="M50.2497 402.121C47.7776 402.923 45.0881 402.717 42.7674 401.549C40.4466 400.382 38.6828 398.347 37.8604 395.888C37.4632 394.672 37.3112 393.39 37.4131 392.116C37.515 390.842 37.8688 389.6 38.4541 388.463C39.0394 387.325 39.8447 386.314 40.8235 385.489C41.8022 384.663 42.9352 384.039 44.157 383.652C46.6291 382.85 49.3186 383.056 51.6393 384.224C53.96 385.391 55.7238 387.426 56.5463 389.885C56.8673 390.858 57.0305 391.875 57.0299 392.899C57.0218 394.953 56.3614 396.953 55.1433 398.609C53.9252 400.266 52.212 401.496 50.2497 402.121ZM46.2928 232.893C44.3465 232.91 42.439 232.35 40.8125 231.284C39.1859 230.218 37.9136 228.695 37.157 226.906C36.4004 225.118 36.1936 223.146 36.5629 221.24C36.9322 219.335 37.8609 217.581 39.2311 216.203C40.6014 214.825 42.3514 213.883 44.2592 213.498C46.1669 213.113 48.1463 213.302 49.9462 214.041C51.746 214.78 53.2852 216.035 54.3684 217.648C55.4516 219.26 56.0299 221.158 56.03 223.098C56.0407 225.685 55.021 228.169 53.1951 230.006C51.3691 231.843 48.8864 232.882 46.2928 232.893ZM50.1817 313.635C50.1817 314.844 49.7 316.003 48.8427 316.858C47.9854 317.713 46.8227 318.193 45.6103 318.193C44.3979 318.193 43.2351 317.713 42.3778 316.858C41.5206 316.003 41.0389 314.844 41.0389 313.635L41.0389 254.028C41.0389 252.819 41.5206 251.66 42.3778 250.805C43.2351 249.95 44.3979 249.47 45.6103 249.47C46.8227 249.47 47.9854 249.95 48.8427 250.805C49.7 251.66 50.1817 252.819 50.1817 254.028L50.1817 313.635ZM34.634 314.313C34.5881 315.914 33.9178 317.435 32.7656 318.552C31.6134 319.668 30.07 320.293 28.4633 320.293C26.8566 320.293 25.3132 319.668 24.1609 318.552C23.0087 317.435 22.3385 315.914 22.2926 314.313L22.2926 253.35C22.3385 251.749 23.0087 250.228 24.1609 249.111C25.3132 247.995 26.8566 247.37 28.4633 247.37C30.07 247.37 31.6134 247.995 32.7656 249.111C33.9178 250.228 34.5881 251.749 34.634 253.35V314.313Z" fill="#484450"/>
<defs>
<linearGradient id="paint0_linear_494_790" x1="517.492" y1="297.499" x2="607.479" y2="297.499" gradientUnits="userSpaceOnUse">
<stop offset="5.94866e-07" stop-color="#B1B1D5"/>
<stop offset="0.0544055" stop-color="#C4C4DF"/>
<stop offset="0.1375" stop-color="#DADAEA"/>
<stop offset="0.2356" stop-color="#EBEBF3"/>
<stop offset="0.3569" stop-color="#F6F6F9"/>
<stop offset="0.5272" stop-color="#FDFDFD"/>
<stop offset="1" stop-color="#FFFFFE"/>
</linearGradient>
</defs>
</svg>
