<svg width="1147" height="566" viewBox="0 0 1147 566" fill="none" xmlns="http://www.w3.org/2000/svg">
<rect x="10" y="549.008" width="531" height="1125" rx="70" transform="rotate(-90 10 549.008)" fill="#FFFFFE"/>
<path d="M263.209 5.87469H83.5576C37.4271 5.87469 0 42.5887 0 87.8593L0 477.601C0 522.874 37.4271 559.563 83.5576 559.563H154.682C155.24 561.154 156.278 562.532 157.654 563.507C159.03 564.481 160.676 565.004 162.363 565.003H190.762C192.453 565.01 194.105 564.491 195.487 563.517C196.869 562.544 197.914 561.164 198.475 559.57H231.552C232.114 561.165 233.159 562.544 234.542 563.518C235.924 564.492 237.576 565.011 239.268 565.003H311.398C313.085 565.01 314.733 564.49 316.112 563.516C317.49 562.542 318.529 561.163 319.085 559.57H340.222C340.782 561.164 341.825 562.544 343.206 563.517C344.587 564.491 346.237 565.01 347.927 565.003H420.057C421.748 565.01 423.4 564.491 424.782 563.517C426.164 562.544 427.209 561.164 427.77 559.57L1062.46 559.57C1108.61 559.57 1146.02 522.874 1146.02 477.609V87.8593C1146.02 42.5811 1108.6 5.87469 1062.44 5.87469L399.818 5.87469C399.331 4.1766 398.301 2.68431 396.887 1.62512C395.472 0.565921 393.75 -0.00194699 391.982 0.00787804H271.045C269.277 -0.00194699 267.555 0.565921 266.14 1.62512C264.725 2.68431 263.696 4.1766 263.209 5.87469ZM1063.46 16.7146C1103.46 16.7146 1135.9 48.5285 1135.9 87.7639V477.684C1135.9 516.942 1103.46 548.761 1063.46 548.761L82.5699 548.761C42.5717 548.761 10.1359 516.947 10.1359 477.684L10.1359 87.7639C10.1359 48.5285 42.5692 16.7146 82.5699 16.7146L1063.46 16.7146Z" fill="#C4C4C4"/>
<path d="M9.89709 87.9046L9.89709 477.106C9.89709 516.286 42.3178 548.047 82.2783 548.047L1062.62 548.047C1102.6 548.047 1135 516.291 1135 477.106V87.907C1135 48.7445 1102.58 16.9911 1062.62 16.9911L82.2783 16.9911C42.3002 16.9911 9.89709 48.7445 9.89709 87.9046ZM1064.61 32.309C1071.49 32.2417 1078.32 33.5299 1084.71 36.1002C1091.09 38.6705 1096.91 42.4723 1101.82 47.2887C1106.74 52.1052 1110.66 57.8421 1113.35 64.1715C1116.05 70.5008 1117.47 77.2989 1117.54 84.1774V480.856C1117.4 494.744 1111.74 508.009 1101.82 517.731C1091.89 527.454 1078.51 532.839 1064.61 532.702L80.3028 532.702C66.4052 532.839 53.0222 527.454 43.0973 517.731C33.1724 508.009 27.5184 494.744 27.3792 480.856L27.3792 427.438H27.824C27.8518 425.45 28.6646 423.554 30.0854 422.162C31.5061 420.771 33.4196 419.997 35.409 420.009C43.8637 420.031 51.9897 416.738 58.0407 410.837C61.0014 407.956 63.3553 404.513 64.9636 400.709C66.5718 396.906 67.402 392.819 67.405 388.69L67.405 177.705C67.3623 173.549 66.5008 169.442 64.8697 165.619C63.2386 161.795 60.8698 158.331 57.8986 155.422C54.9274 152.514 51.412 150.219 47.5532 148.669C43.6944 147.118 39.5678 146.342 35.409 146.386C33.4024 146.381 31.4778 145.59 30.0482 144.183C29.3463 143.5 28.7879 142.684 28.406 141.782C28.024 140.88 27.8262 139.911 27.824 138.932H27.3792L27.3792 84.1798C27.4458 77.3013 28.8677 70.5033 31.5635 64.1739C34.2593 57.8446 38.1762 52.108 43.0907 47.2915C48.0052 42.475 53.821 38.673 60.2058 36.1027C66.5907 33.5324 73.4197 32.2442 80.3028 32.3114L1064.61 32.309Z" fill="#C4C4C4"/>
<path d="M421.59 565.008H346.125C345.336 565.017 344.552 564.872 343.818 564.578C343.085 564.285 342.417 563.851 341.851 563.299C341.286 562.748 340.835 562.091 340.524 561.365C340.213 560.64 340.048 559.86 340.038 559.071H427.677C427.668 559.86 427.503 560.64 427.192 561.365C426.881 562.091 426.43 562.748 425.864 563.299C425.299 563.851 424.631 564.285 423.897 564.578C423.164 564.872 422.38 565.017 421.59 565.008ZM262.369 5.9376C262.379 5.14832 262.544 4.36867 262.855 3.64312C263.166 2.91757 263.617 2.26037 264.182 1.70903C264.747 1.15769 265.416 0.723017 266.149 0.429837C266.883 0.136657 267.667 -0.00931174 268.456 0.000311222H393.432C395.026 -0.0177811 396.562 0.597487 397.703 1.71083C398.843 2.82417 399.495 4.34446 399.514 5.9376H262.369ZM312.074 565.008H236.609C235.014 565.027 233.477 564.412 232.336 563.298C231.195 562.185 230.543 560.664 230.524 559.071H318.161C318.151 559.86 317.986 560.64 317.675 561.365C317.364 562.091 316.913 562.748 316.348 563.299C315.782 563.851 315.114 564.285 314.381 564.578C313.647 564.872 312.863 565.017 312.074 565.008V565.008ZM191.204 565.008H159.304C158.514 565.017 157.73 564.872 156.997 564.578C156.263 564.285 155.595 563.851 155.03 563.299C154.465 562.748 154.014 562.091 153.702 561.365C153.391 560.64 153.226 559.86 153.217 559.071H197.289C197.27 560.664 196.618 562.185 195.477 563.298C194.336 564.412 192.799 565.027 191.204 565.008V565.008Z" fill="#C4C4C4"/>
<path d="M50.1416 402.121C47.6748 402.923 44.9911 402.717 42.6754 401.549C40.3597 400.382 38.5997 398.347 37.779 395.888C37.3827 394.672 37.231 393.39 37.3327 392.116C37.4344 390.842 37.7874 389.6 38.3715 388.463C38.9555 387.325 39.759 386.314 40.7357 385.489C41.7124 384.663 42.8429 384.039 44.0621 383.652C46.5289 382.85 49.2126 383.056 51.5283 384.224C53.844 385.391 55.604 387.426 56.4247 389.885C56.745 390.858 56.9079 391.875 56.9073 392.899C56.8992 394.953 56.2402 396.953 55.0247 398.609C53.8092 400.266 52.0998 401.496 50.1416 402.121V402.121ZM46.1933 232.893C44.2512 232.91 42.3478 232.35 40.7247 231.284C39.1017 230.218 37.8321 228.695 37.0771 226.906C36.3221 225.118 36.1158 223.146 36.4843 221.24C36.8528 219.335 37.7795 217.581 39.1468 216.203C40.5141 214.825 42.2604 213.883 44.164 213.498C46.0676 213.113 48.0428 213.302 49.8388 214.041C51.6348 214.78 53.1707 216.035 54.2515 217.648C55.3323 219.26 55.9094 221.158 55.9095 223.098C55.9202 225.685 54.9027 228.169 53.0807 230.006C51.2587 231.843 48.7813 232.882 46.1933 232.893ZM50.0738 313.635C50.0738 314.844 49.5932 316.003 48.7377 316.858C47.8823 317.713 46.722 318.193 45.5122 318.193C44.3024 318.193 43.1422 317.713 42.2868 316.858C41.4313 316.003 40.9507 314.844 40.9507 313.635L40.9507 254.028C40.9507 252.819 41.4313 251.66 42.2868 250.805C43.1422 249.95 44.3024 249.47 45.5122 249.47C46.722 249.47 47.8823 249.95 48.7377 250.805C49.5932 251.66 50.0738 252.819 50.0738 254.028L50.0738 313.635ZM34.5596 314.313C34.5138 315.914 33.8449 317.435 32.6952 318.552C31.5455 319.668 30.0054 320.293 28.4021 320.293C26.7989 320.293 25.2588 319.668 24.109 318.552C22.9593 317.435 22.2905 315.914 22.2447 314.313L22.2447 253.35C22.2905 251.749 22.9593 250.228 24.109 249.111C25.2588 247.995 26.7989 247.37 28.4021 247.37C30.0054 247.37 31.5455 247.995 32.6952 249.111C33.8449 250.228 34.5138 251.749 34.5596 253.35V314.313Z" fill="#C4C4C4"/>
<rect x="115" y="41" width="691" height="156" rx="15" fill="#F2FFF4"/>
<rect x="153" y="71" width="93" height="93" rx="5" fill="#CBF3D2"/>
<rect x="179" y="97" width="41" height="41" rx="5" fill="#36C14D"/>
<path d="M304.047 146.671C313.876 146.671 319.838 138.964 319.838 126.637V126.583C319.838 114.257 313.876 106.576 304.047 106.576C294.218 106.576 288.256 114.257 288.256 126.583V126.637C288.256 138.964 294.218 146.671 304.047 146.671ZM304.047 140.172C299.213 140.172 296.447 135.15 296.447 126.637V126.583C296.447 118.07 299.213 113.075 304.047 113.075C308.881 113.075 311.647 118.07 311.647 126.583V126.637C311.647 135.15 308.881 140.172 304.047 140.172ZM333.346 127.201C338.905 127.201 342.316 123.307 342.316 117.05V117.023C342.316 110.792 338.905 106.898 333.346 106.898C327.76 106.898 324.35 110.792 324.35 117.023V117.05C324.35 123.307 327.76 127.201 333.346 127.201ZM337.348 146L361.813 107.248H355.851L331.359 146H337.348ZM333.346 122.743C331.171 122.743 329.962 120.729 329.962 117.05V117.023C329.962 113.371 331.171 111.356 333.346 111.356C335.495 111.356 336.676 113.371 336.676 117.023V117.05C336.676 120.729 335.495 122.743 333.346 122.743ZM359.853 146.349C365.412 146.349 368.822 142.455 368.822 136.198V136.171C368.822 129.94 365.412 126.046 359.853 126.046C354.267 126.046 350.856 129.94 350.856 136.171V136.198C350.856 142.455 354.267 146.349 359.853 146.349ZM359.853 141.891C357.677 141.891 356.469 139.877 356.469 136.198V136.171C356.469 132.519 357.677 130.504 359.853 130.504C362.001 130.504 363.183 132.519 363.183 136.171V136.198C363.183 139.877 362.001 141.891 359.853 141.891Z" fill="black"/>
<path d="M286.203 93H288.039L289.078 89.9531H293.422L294.453 93H296.289L292.195 81.7266H290.305L286.203 93ZM291.234 83.5938H291.266L292.945 88.5469H289.547L291.234 83.5938ZM297.336 93H299.023V88.1016C299.023 86.875 299.695 86.1641 300.781 86.1641C301.109 86.1641 301.406 86.2031 301.539 86.2578V84.6875C301.406 84.6641 301.195 84.625 300.953 84.625C300.016 84.625 299.328 85.2266 299.062 86.1875H299.023V84.7812H297.336V93ZM305.469 93.1641C305.812 93.1641 306.133 93.125 306.328 93.0938V91.7891C306.203 91.8047 306.055 91.8203 305.875 91.8203C305.164 91.8203 304.789 91.5703 304.789 90.7344V86.125H306.328V84.7812H304.789V82.6406H303.062V84.7812H301.883V86.125H303.062V90.8359C303.062 92.4766 303.844 93.1641 305.469 93.1641ZM308.641 83.5156C309.195 83.5156 309.625 83.0781 309.625 82.5469C309.625 82.0078 309.195 81.5703 308.641 81.5703C308.094 81.5703 307.656 82.0078 307.656 82.5469C307.656 83.0781 308.094 83.5156 308.641 83.5156ZM307.797 93H309.484V84.7812H307.797V93ZM314.758 93.1641C316.734 93.1641 318.109 91.8984 318.289 90.25L318.297 90.1953H316.672L316.664 90.2578C316.461 91.1484 315.797 91.75 314.758 91.75C313.453 91.75 312.586 90.6953 312.586 88.8984V88.8906C312.586 87.1328 313.438 86.0391 314.75 86.0391C315.852 86.0391 316.477 86.7188 316.656 87.5234L316.672 87.5859H318.281L318.273 87.5312C318.133 85.9844 316.852 84.625 314.734 84.625C312.391 84.625 310.859 86.2734 310.859 88.875V88.8828C310.859 91.5156 312.359 93.1641 314.758 93.1641ZM319.555 93H321.242V81.7266H319.555V93ZM326.484 93.1641C328.477 93.1641 329.742 91.9766 330.008 90.6719L330.023 90.5859H328.422L328.398 90.6484C328.188 91.2656 327.523 91.7812 326.523 91.7812C325.18 91.7812 324.328 90.875 324.297 89.3203H330.117V88.75C330.117 86.2812 328.703 84.625 326.398 84.625C324.094 84.625 322.609 86.3438 322.609 88.9141V88.9219C322.609 91.5156 324.07 93.1641 326.484 93.1641ZM326.406 86.0078C327.508 86.0078 328.305 86.7031 328.445 88.125H324.32C324.469 86.75 325.312 86.0078 326.406 86.0078ZM334.883 93H336.477V84.6797H336.531L339.93 93H341.227L344.625 84.6797H344.68V93H346.273V81.7266H344.258L340.602 90.7266H340.555L336.906 81.7266H334.883V93ZM349.062 83.5156C349.617 83.5156 350.047 83.0781 350.047 82.5469C350.047 82.0078 349.617 81.5703 349.062 81.5703C348.516 81.5703 348.078 82.0078 348.078 82.5469C348.078 83.0781 348.516 83.5156 349.062 83.5156ZM348.219 93H349.906V84.7812H348.219V93ZM354.727 93.1641C356.664 93.1641 358.07 92.1328 358.07 90.6328V90.625C358.07 89.4453 357.43 88.7812 355.75 88.3906L354.414 88.0859C353.531 87.875 353.195 87.5312 353.195 87.0234V87.0156C353.195 86.3594 353.766 85.9297 354.672 85.9297C355.625 85.9297 356.188 86.4297 356.289 87.1484L356.297 87.2031H357.883L357.875 87.1094C357.789 85.7109 356.617 84.625 354.672 84.625C352.781 84.625 351.5 85.6328 351.5 87.1016V87.1094C351.5 88.3047 352.273 89.0547 353.836 89.4141L355.18 89.7188C356.062 89.9297 356.359 90.2344 356.359 90.7656V90.7734C356.359 91.4375 355.75 91.8594 354.734 91.8594C353.695 91.8594 353.133 91.4141 352.977 90.6562L352.961 90.5781H351.289L351.297 90.6484C351.469 92.1484 352.672 93.1641 354.727 93.1641ZM360.297 83.5156C360.852 83.5156 361.281 83.0781 361.281 82.5469C361.281 82.0078 360.852 81.5703 360.297 81.5703C359.75 81.5703 359.312 82.0078 359.312 82.5469C359.312 83.0781 359.75 83.5156 360.297 83.5156ZM359.453 93H361.141V84.7812H359.453V93ZM362.883 93H364.57V88.2109C364.57 86.9297 365.336 86.0703 366.523 86.0703C367.695 86.0703 368.273 86.7656 368.273 88V93H369.969V87.6797C369.969 85.7891 368.93 84.625 367.125 84.625C365.883 84.625 365.039 85.1875 364.609 86.0234H364.57V84.7812H362.883V93ZM372.094 93H373.789V86.125H375.43V84.7812H373.758V83.9375C373.758 83.2109 374.117 82.8438 374.875 82.8438C375.086 82.8438 375.297 82.8594 375.461 82.8828V81.6328C375.234 81.5938 374.859 81.5625 374.516 81.5625C372.844 81.5625 372.094 82.3125 372.094 83.9062V84.7812H370.961V86.125H372.094V93ZM379.57 93.1641C381.922 93.1641 383.469 91.5391 383.469 88.8906V88.875C383.469 86.2422 381.906 84.625 379.562 84.625C377.227 84.625 375.672 86.25 375.672 88.875V88.8906C375.672 91.5312 377.211 93.1641 379.57 93.1641ZM379.578 91.75C378.258 91.75 377.398 90.7109 377.398 88.8906V88.875C377.398 87.0781 378.266 86.0391 379.562 86.0391C380.883 86.0391 381.742 87.0781 381.742 88.875V88.8906C381.742 90.7031 380.898 91.75 379.578 91.75ZM384.773 93H386.461V88.1016C386.461 86.875 387.133 86.1641 388.219 86.1641C388.547 86.1641 388.844 86.2031 388.977 86.2578V84.6875C388.844 84.6641 388.633 84.625 388.391 84.625C387.453 84.625 386.766 85.2266 386.5 86.1875H386.461V84.7812H384.773V93ZM390.023 93H391.711V87.9219C391.711 86.8594 392.422 86.0703 393.422 86.0703C394.375 86.0703 394.977 86.6797 394.977 87.6328V93H396.633V87.8594C396.633 86.8203 397.328 86.0703 398.328 86.0703C399.328 86.0703 399.898 86.6875 399.898 87.7578V93H401.594V87.3516C401.594 85.7031 400.531 84.625 398.906 84.625C397.734 84.625 396.766 85.2422 396.344 86.2422H396.305C395.977 85.2109 395.148 84.625 394.016 84.625C392.938 84.625 392.102 85.1953 391.75 86.0547H391.711V84.7812H390.023V93ZM405.641 93.1484C406.727 93.1484 407.68 92.5859 408.156 91.7031H408.188V93H409.883V87.3359C409.883 85.6875 408.609 84.625 406.602 84.625C404.578 84.625 403.352 85.7109 403.234 87.125L403.227 87.2109H404.82L404.836 87.1406C404.977 86.4844 405.578 86.0234 406.555 86.0234C407.602 86.0234 408.188 86.5703 408.188 87.4766V88.0938L405.953 88.2266C404.008 88.3438 402.898 89.2188 402.898 90.6484V90.6641C402.898 92.1406 404 93.1484 405.641 93.1484ZM404.602 90.625V90.6094C404.602 89.9141 405.164 89.4688 406.18 89.4062L408.188 89.2812V89.9219C408.188 90.9922 407.289 91.7969 406.102 91.7969C405.195 91.7969 404.602 91.3438 404.602 90.625ZM414.406 93.1641C414.75 93.1641 415.07 93.125 415.266 93.0938V91.7891C415.141 91.8047 414.992 91.8203 414.812 91.8203C414.102 91.8203 413.727 91.5703 413.727 90.7344V86.125H415.266V84.7812H413.727V82.6406H412V84.7812H410.82V86.125H412V90.8359C412 92.4766 412.781 93.1641 414.406 93.1641ZM417.578 83.5156C418.133 83.5156 418.562 83.0781 418.562 82.5469C418.562 82.0078 418.133 81.5703 417.578 81.5703C417.031 81.5703 416.594 82.0078 416.594 82.5469C416.594 83.0781 417.031 83.5156 417.578 83.5156ZM416.734 93H418.422V84.7812H416.734V93ZM423.695 93.1641C426.047 93.1641 427.594 91.5391 427.594 88.8906V88.875C427.594 86.2422 426.031 84.625 423.688 84.625C421.352 84.625 419.797 86.25 419.797 88.875V88.8906C419.797 91.5312 421.336 93.1641 423.695 93.1641ZM423.703 91.75C422.383 91.75 421.523 90.7109 421.523 88.8906V88.875C421.523 87.0781 422.391 86.0391 423.688 86.0391C425.008 86.0391 425.867 87.0781 425.867 88.875V88.8906C425.867 90.7031 425.023 91.75 423.703 91.75ZM428.898 93H430.586V88.2109C430.586 86.9297 431.352 86.0703 432.539 86.0703C433.711 86.0703 434.289 86.7656 434.289 88V93H435.984V87.6797C435.984 85.7891 434.945 84.625 433.141 84.625C431.898 84.625 431.055 85.1875 430.625 86.0234H430.586V84.7812H428.898V93ZM441.07 93H448.07V91.4922H442.82V81.7266H441.07V93ZM452.672 93.1641C454.664 93.1641 455.93 91.9766 456.195 90.6719L456.211 90.5859H454.609L454.586 90.6484C454.375 91.2656 453.711 91.7812 452.711 91.7812C451.367 91.7812 450.516 90.875 450.484 89.3203H456.305V88.75C456.305 86.2812 454.891 84.625 452.586 84.625C450.281 84.625 448.797 86.3438 448.797 88.9141V88.9219C448.797 91.5156 450.258 93.1641 452.672 93.1641ZM452.594 86.0078C453.695 86.0078 454.492 86.7031 454.633 88.125H450.508C450.656 86.75 451.5 86.0078 452.594 86.0078ZM459.562 93H461.375L464.32 84.7812H462.562L460.5 91.3516H460.461L458.398 84.7812H456.602L459.562 93ZM468.484 93.1641C470.477 93.1641 471.742 91.9766 472.008 90.6719L472.023 90.5859H470.422L470.398 90.6484C470.188 91.2656 469.523 91.7812 468.523 91.7812C467.18 91.7812 466.328 90.875 466.297 89.3203H472.117V88.75C472.117 86.2812 470.703 84.625 468.398 84.625C466.094 84.625 464.609 86.3438 464.609 88.9141V88.9219C464.609 91.5156 466.07 93.1641 468.484 93.1641ZM468.406 86.0078C469.508 86.0078 470.305 86.7031 470.445 88.125H466.32C466.469 86.75 467.312 86.0078 468.406 86.0078ZM473.492 93H475.18V81.7266H473.492V93Z" fill="#707070"/>
<rect x="290" y="205" width="691" height="156" rx="15" fill="#FFF8F2"/>
<rect x="328" y="235" width="93" height="93" rx="5" fill="#F3E6CB"/>
<rect x="354" y="261" width="41" height="41" rx="5" fill="#E75F13"/>
<path d="M482.216 310H489.923V302.883H495.026V296.411H489.923V271.248H478.483L462.934 296.116V302.883H482.216V310ZM469.997 296.626V296.411L482.189 277.102H482.377V296.626H469.997ZM514.496 310.671C524.325 310.671 530.287 302.964 530.287 290.637V290.583C530.287 278.257 524.325 270.576 514.496 270.576C504.667 270.576 498.705 278.257 498.705 290.583V290.637C498.705 302.964 504.667 310.671 514.496 310.671ZM514.496 304.172C509.662 304.172 506.896 299.15 506.896 290.637V290.583C506.896 282.07 509.662 277.075 514.496 277.075C519.33 277.075 522.096 282.07 522.096 290.583V290.637C522.096 299.15 519.33 304.172 514.496 304.172ZM543.795 291.201C549.354 291.201 552.765 287.307 552.765 281.05V281.023C552.765 274.792 549.354 270.898 543.795 270.898C538.209 270.898 534.799 274.792 534.799 281.023V281.05C534.799 287.307 538.209 291.201 543.795 291.201ZM547.797 310L572.262 271.248H566.3L541.808 310H547.797ZM543.795 286.743C541.62 286.743 540.412 284.729 540.412 281.05V281.023C540.412 277.371 541.62 275.356 543.795 275.356C545.944 275.356 547.125 277.371 547.125 281.023V281.05C547.125 284.729 545.944 286.743 543.795 286.743ZM570.302 310.349C575.861 310.349 579.271 306.455 579.271 300.198V300.171C579.271 293.94 575.861 290.046 570.302 290.046C564.716 290.046 561.305 293.94 561.305 300.171V300.198C561.305 306.455 564.716 310.349 570.302 310.349ZM570.302 305.891C568.126 305.891 566.918 303.877 566.918 300.198V300.171C566.918 296.519 568.126 294.504 570.302 294.504C572.45 294.504 573.632 296.519 573.632 300.171V300.198C573.632 303.877 572.45 305.891 570.302 305.891Z" fill="black"/>
<path d="M461.203 257H463.039L464.078 253.953H468.422L469.453 257H471.289L467.195 245.727H465.305L461.203 257ZM466.234 247.594H466.266L467.945 252.547H464.547L466.234 247.594ZM472.336 257H474.023V252.102C474.023 250.875 474.695 250.164 475.781 250.164C476.109 250.164 476.406 250.203 476.539 250.258V248.688C476.406 248.664 476.195 248.625 475.953 248.625C475.016 248.625 474.328 249.227 474.062 250.188H474.023V248.781H472.336V257ZM480.469 257.164C480.812 257.164 481.133 257.125 481.328 257.094V255.789C481.203 255.805 481.055 255.82 480.875 255.82C480.164 255.82 479.789 255.57 479.789 254.734V250.125H481.328V248.781H479.789V246.641H478.062V248.781H476.883V250.125H478.062V254.836C478.062 256.477 478.844 257.164 480.469 257.164ZM483.641 247.516C484.195 247.516 484.625 247.078 484.625 246.547C484.625 246.008 484.195 245.57 483.641 245.57C483.094 245.57 482.656 246.008 482.656 246.547C482.656 247.078 483.094 247.516 483.641 247.516ZM482.797 257H484.484V248.781H482.797V257ZM489.758 257.164C491.734 257.164 493.109 255.898 493.289 254.25L493.297 254.195H491.672L491.664 254.258C491.461 255.148 490.797 255.75 489.758 255.75C488.453 255.75 487.586 254.695 487.586 252.898V252.891C487.586 251.133 488.438 250.039 489.75 250.039C490.852 250.039 491.477 250.719 491.656 251.523L491.672 251.586H493.281L493.273 251.531C493.133 249.984 491.852 248.625 489.734 248.625C487.391 248.625 485.859 250.273 485.859 252.875V252.883C485.859 255.516 487.359 257.164 489.758 257.164ZM494.555 257H496.242V245.727H494.555V257ZM501.484 257.164C503.477 257.164 504.742 255.977 505.008 254.672L505.023 254.586H503.422L503.398 254.648C503.188 255.266 502.523 255.781 501.523 255.781C500.18 255.781 499.328 254.875 499.297 253.32H505.117V252.75C505.117 250.281 503.703 248.625 501.398 248.625C499.094 248.625 497.609 250.344 497.609 252.914V252.922C497.609 255.516 499.07 257.164 501.484 257.164ZM501.406 250.008C502.508 250.008 503.305 250.703 503.445 252.125H499.32C499.469 250.75 500.312 250.008 501.406 250.008ZM509.883 257H511.477V248.68H511.531L514.93 257H516.227L519.625 248.68H519.68V257H521.273V245.727H519.258L515.602 254.727H515.555L511.906 245.727H509.883V257ZM524.062 247.516C524.617 247.516 525.047 247.078 525.047 246.547C525.047 246.008 524.617 245.57 524.062 245.57C523.516 245.57 523.078 246.008 523.078 246.547C523.078 247.078 523.516 247.516 524.062 247.516ZM523.219 257H524.906V248.781H523.219V257ZM529.727 257.164C531.664 257.164 533.07 256.133 533.07 254.633V254.625C533.07 253.445 532.43 252.781 530.75 252.391L529.414 252.086C528.531 251.875 528.195 251.531 528.195 251.023V251.016C528.195 250.359 528.766 249.93 529.672 249.93C530.625 249.93 531.188 250.43 531.289 251.148L531.297 251.203H532.883L532.875 251.109C532.789 249.711 531.617 248.625 529.672 248.625C527.781 248.625 526.5 249.633 526.5 251.102V251.109C526.5 252.305 527.273 253.055 528.836 253.414L530.18 253.719C531.062 253.93 531.359 254.234 531.359 254.766V254.773C531.359 255.438 530.75 255.859 529.734 255.859C528.695 255.859 528.133 255.414 527.977 254.656L527.961 254.578H526.289L526.297 254.648C526.469 256.148 527.672 257.164 529.727 257.164ZM535.297 247.516C535.852 247.516 536.281 247.078 536.281 246.547C536.281 246.008 535.852 245.57 535.297 245.57C534.75 245.57 534.312 246.008 534.312 246.547C534.312 247.078 534.75 247.516 535.297 247.516ZM534.453 257H536.141V248.781H534.453V257ZM537.883 257H539.57V252.211C539.57 250.93 540.336 250.07 541.523 250.07C542.695 250.07 543.273 250.766 543.273 252V257H544.969V251.68C544.969 249.789 543.93 248.625 542.125 248.625C540.883 248.625 540.039 249.188 539.609 250.023H539.57V248.781H537.883V257ZM547.094 257H548.789V250.125H550.43V248.781H548.758V247.938C548.758 247.211 549.117 246.844 549.875 246.844C550.086 246.844 550.297 246.859 550.461 246.883V245.633C550.234 245.594 549.859 245.562 549.516 245.562C547.844 245.562 547.094 246.312 547.094 247.906V248.781H545.961V250.125H547.094V257ZM554.57 257.164C556.922 257.164 558.469 255.539 558.469 252.891V252.875C558.469 250.242 556.906 248.625 554.562 248.625C552.227 248.625 550.672 250.25 550.672 252.875V252.891C550.672 255.531 552.211 257.164 554.57 257.164ZM554.578 255.75C553.258 255.75 552.398 254.711 552.398 252.891V252.875C552.398 251.078 553.266 250.039 554.562 250.039C555.883 250.039 556.742 251.078 556.742 252.875V252.891C556.742 254.703 555.898 255.75 554.578 255.75ZM559.773 257H561.461V252.102C561.461 250.875 562.133 250.164 563.219 250.164C563.547 250.164 563.844 250.203 563.977 250.258V248.688C563.844 248.664 563.633 248.625 563.391 248.625C562.453 248.625 561.766 249.227 561.5 250.188H561.461V248.781H559.773V257ZM565.023 257H566.711V251.922C566.711 250.859 567.422 250.07 568.422 250.07C569.375 250.07 569.977 250.68 569.977 251.633V257H571.633V251.859C571.633 250.82 572.328 250.07 573.328 250.07C574.328 250.07 574.898 250.688 574.898 251.758V257H576.594V251.352C576.594 249.703 575.531 248.625 573.906 248.625C572.734 248.625 571.766 249.242 571.344 250.242H571.305C570.977 249.211 570.148 248.625 569.016 248.625C567.938 248.625 567.102 249.195 566.75 250.055H566.711V248.781H565.023V257ZM580.641 257.148C581.727 257.148 582.68 256.586 583.156 255.703H583.188V257H584.883V251.336C584.883 249.688 583.609 248.625 581.602 248.625C579.578 248.625 578.352 249.711 578.234 251.125L578.227 251.211H579.82L579.836 251.141C579.977 250.484 580.578 250.023 581.555 250.023C582.602 250.023 583.188 250.57 583.188 251.477V252.094L580.953 252.227C579.008 252.344 577.898 253.219 577.898 254.648V254.664C577.898 256.141 579 257.148 580.641 257.148ZM579.602 254.625V254.609C579.602 253.914 580.164 253.469 581.18 253.406L583.188 253.281V253.922C583.188 254.992 582.289 255.797 581.102 255.797C580.195 255.797 579.602 255.344 579.602 254.625ZM589.406 257.164C589.75 257.164 590.07 257.125 590.266 257.094V255.789C590.141 255.805 589.992 255.82 589.812 255.82C589.102 255.82 588.727 255.57 588.727 254.734V250.125H590.266V248.781H588.727V246.641H587V248.781H585.82V250.125H587V254.836C587 256.477 587.781 257.164 589.406 257.164ZM592.578 247.516C593.133 247.516 593.562 247.078 593.562 246.547C593.562 246.008 593.133 245.57 592.578 245.57C592.031 245.57 591.594 246.008 591.594 246.547C591.594 247.078 592.031 247.516 592.578 247.516ZM591.734 257H593.422V248.781H591.734V257ZM598.695 257.164C601.047 257.164 602.594 255.539 602.594 252.891V252.875C602.594 250.242 601.031 248.625 598.688 248.625C596.352 248.625 594.797 250.25 594.797 252.875V252.891C594.797 255.531 596.336 257.164 598.695 257.164ZM598.703 255.75C597.383 255.75 596.523 254.711 596.523 252.891V252.875C596.523 251.078 597.391 250.039 598.688 250.039C600.008 250.039 600.867 251.078 600.867 252.875V252.891C600.867 254.703 600.023 255.75 598.703 255.75ZM603.898 257H605.586V252.211C605.586 250.93 606.352 250.07 607.539 250.07C608.711 250.07 609.289 250.766 609.289 252V257H610.984V251.68C610.984 249.789 609.945 248.625 608.141 248.625C606.898 248.625 606.055 249.188 605.625 250.023H605.586V248.781H603.898V257ZM616.07 257H623.07V255.492H617.82V245.727H616.07V257ZM627.672 257.164C629.664 257.164 630.93 255.977 631.195 254.672L631.211 254.586H629.609L629.586 254.648C629.375 255.266 628.711 255.781 627.711 255.781C626.367 255.781 625.516 254.875 625.484 253.32H631.305V252.75C631.305 250.281 629.891 248.625 627.586 248.625C625.281 248.625 623.797 250.344 623.797 252.914V252.922C623.797 255.516 625.258 257.164 627.672 257.164ZM627.594 250.008C628.695 250.008 629.492 250.703 629.633 252.125H625.508C625.656 250.75 626.5 250.008 627.594 250.008ZM634.562 257H636.375L639.32 248.781H637.562L635.5 255.352H635.461L633.398 248.781H631.602L634.562 257ZM643.484 257.164C645.477 257.164 646.742 255.977 647.008 254.672L647.023 254.586H645.422L645.398 254.648C645.188 255.266 644.523 255.781 643.523 255.781C642.18 255.781 641.328 254.875 641.297 253.32H647.117V252.75C647.117 250.281 645.703 248.625 643.398 248.625C641.094 248.625 639.609 250.344 639.609 252.914V252.922C639.609 255.516 641.07 257.164 643.484 257.164ZM643.406 250.008C644.508 250.008 645.305 250.703 645.445 252.125H641.32C641.469 250.75 642.312 250.008 643.406 250.008ZM648.492 257H650.18V245.727H648.492V257Z" fill="#707070"/>
<rect x="507" y="370" width="560" height="159" rx="15" fill="#FFF7F8"/>
<rect x="545" y="400" width="93" height="93" rx="5" fill="#F3CBCB"/>
<rect x="571" y="426" width="41" height="41" rx="5" fill="#E73535"/>
<path d="M682.753 478H691.267L707.434 445.773V439.248H679.719V445.693H699.431V445.854L682.753 478ZM727.092 478.671C735.954 478.671 742.077 473.166 742.077 465.056V465.002C742.077 457.697 736.76 452.407 729.401 452.407C725.48 452.407 722.285 453.991 720.673 456.596H720.512L721.452 445.693H739.741V439.248H715.007L713.234 461.994H720.297C720.754 461.188 721.372 460.437 722.15 459.846C723.466 458.798 725.158 458.208 727.146 458.208C731.335 458.208 734.316 461.081 734.343 465.163V465.217C734.343 469.353 731.362 472.253 727.119 472.253C723.386 472.253 720.673 469.997 720.109 467.07L720.056 466.882H712.563L712.59 467.285C713.073 473.757 718.659 478.671 727.092 478.671ZM755.102 459.201C760.661 459.201 764.072 455.307 764.072 449.05V449.023C764.072 442.792 760.661 438.898 755.102 438.898C749.516 438.898 746.105 442.792 746.105 449.023V449.05C746.105 455.307 749.516 459.201 755.102 459.201ZM759.104 478L783.569 439.248H777.607L753.115 478H759.104ZM755.102 454.743C752.927 454.743 751.718 452.729 751.718 449.05V449.023C751.718 445.371 752.927 443.356 755.102 443.356C757.25 443.356 758.432 445.371 758.432 449.023V449.05C758.432 452.729 757.25 454.743 755.102 454.743ZM781.608 478.349C787.167 478.349 790.578 474.455 790.578 468.198V468.171C790.578 461.94 787.167 458.046 781.608 458.046C776.022 458.046 772.612 461.94 772.612 468.171V468.198C772.612 474.455 776.022 478.349 781.608 478.349ZM781.608 473.891C779.433 473.891 778.225 471.877 778.225 468.198V468.171C778.225 464.519 779.433 462.504 781.608 462.504C783.757 462.504 784.938 464.519 784.938 468.171V468.198C784.938 471.877 783.757 473.891 781.608 473.891Z" fill="black"/>
<path d="M678.203 422H680.039L681.078 418.953H685.422L686.453 422H688.289L684.195 410.727H682.305L678.203 422ZM683.234 412.594H683.266L684.945 417.547H681.547L683.234 412.594ZM689.336 422H691.023V417.102C691.023 415.875 691.695 415.164 692.781 415.164C693.109 415.164 693.406 415.203 693.539 415.258V413.688C693.406 413.664 693.195 413.625 692.953 413.625C692.016 413.625 691.328 414.227 691.062 415.188H691.023V413.781H689.336V422ZM697.469 422.164C697.812 422.164 698.133 422.125 698.328 422.094V420.789C698.203 420.805 698.055 420.82 697.875 420.82C697.164 420.82 696.789 420.57 696.789 419.734V415.125H698.328V413.781H696.789V411.641H695.062V413.781H693.883V415.125H695.062V419.836C695.062 421.477 695.844 422.164 697.469 422.164ZM700.641 412.516C701.195 412.516 701.625 412.078 701.625 411.547C701.625 411.008 701.195 410.57 700.641 410.57C700.094 410.57 699.656 411.008 699.656 411.547C699.656 412.078 700.094 412.516 700.641 412.516ZM699.797 422H701.484V413.781H699.797V422ZM706.758 422.164C708.734 422.164 710.109 420.898 710.289 419.25L710.297 419.195H708.672L708.664 419.258C708.461 420.148 707.797 420.75 706.758 420.75C705.453 420.75 704.586 419.695 704.586 417.898V417.891C704.586 416.133 705.438 415.039 706.75 415.039C707.852 415.039 708.477 415.719 708.656 416.523L708.672 416.586H710.281L710.273 416.531C710.133 414.984 708.852 413.625 706.734 413.625C704.391 413.625 702.859 415.273 702.859 417.875V417.883C702.859 420.516 704.359 422.164 706.758 422.164ZM711.555 422H713.242V410.727H711.555V422ZM718.484 422.164C720.477 422.164 721.742 420.977 722.008 419.672L722.023 419.586H720.422L720.398 419.648C720.188 420.266 719.523 420.781 718.523 420.781C717.18 420.781 716.328 419.875 716.297 418.32H722.117V417.75C722.117 415.281 720.703 413.625 718.398 413.625C716.094 413.625 714.609 415.344 714.609 417.914V417.922C714.609 420.516 716.07 422.164 718.484 422.164ZM718.406 415.008C719.508 415.008 720.305 415.703 720.445 417.125H716.32C716.469 415.75 717.312 415.008 718.406 415.008ZM726.883 422H728.477V413.68H728.531L731.93 422H733.227L736.625 413.68H736.68V422H738.273V410.727H736.258L732.602 419.727H732.555L728.906 410.727H726.883V422ZM741.062 412.516C741.617 412.516 742.047 412.078 742.047 411.547C742.047 411.008 741.617 410.57 741.062 410.57C740.516 410.57 740.078 411.008 740.078 411.547C740.078 412.078 740.516 412.516 741.062 412.516ZM740.219 422H741.906V413.781H740.219V422ZM746.727 422.164C748.664 422.164 750.07 421.133 750.07 419.633V419.625C750.07 418.445 749.43 417.781 747.75 417.391L746.414 417.086C745.531 416.875 745.195 416.531 745.195 416.023V416.016C745.195 415.359 745.766 414.93 746.672 414.93C747.625 414.93 748.188 415.43 748.289 416.148L748.297 416.203H749.883L749.875 416.109C749.789 414.711 748.617 413.625 746.672 413.625C744.781 413.625 743.5 414.633 743.5 416.102V416.109C743.5 417.305 744.273 418.055 745.836 418.414L747.18 418.719C748.062 418.93 748.359 419.234 748.359 419.766V419.773C748.359 420.438 747.75 420.859 746.734 420.859C745.695 420.859 745.133 420.414 744.977 419.656L744.961 419.578H743.289L743.297 419.648C743.469 421.148 744.672 422.164 746.727 422.164ZM752.297 412.516C752.852 412.516 753.281 412.078 753.281 411.547C753.281 411.008 752.852 410.57 752.297 410.57C751.75 410.57 751.312 411.008 751.312 411.547C751.312 412.078 751.75 412.516 752.297 412.516ZM751.453 422H753.141V413.781H751.453V422ZM754.883 422H756.57V417.211C756.57 415.93 757.336 415.07 758.523 415.07C759.695 415.07 760.273 415.766 760.273 417V422H761.969V416.68C761.969 414.789 760.93 413.625 759.125 413.625C757.883 413.625 757.039 414.188 756.609 415.023H756.57V413.781H754.883V422ZM764.094 422H765.789V415.125H767.43V413.781H765.758V412.938C765.758 412.211 766.117 411.844 766.875 411.844C767.086 411.844 767.297 411.859 767.461 411.883V410.633C767.234 410.594 766.859 410.562 766.516 410.562C764.844 410.562 764.094 411.312 764.094 412.906V413.781H762.961V415.125H764.094V422ZM771.57 422.164C773.922 422.164 775.469 420.539 775.469 417.891V417.875C775.469 415.242 773.906 413.625 771.562 413.625C769.227 413.625 767.672 415.25 767.672 417.875V417.891C767.672 420.531 769.211 422.164 771.57 422.164ZM771.578 420.75C770.258 420.75 769.398 419.711 769.398 417.891V417.875C769.398 416.078 770.266 415.039 771.562 415.039C772.883 415.039 773.742 416.078 773.742 417.875V417.891C773.742 419.703 772.898 420.75 771.578 420.75ZM776.773 422H778.461V417.102C778.461 415.875 779.133 415.164 780.219 415.164C780.547 415.164 780.844 415.203 780.977 415.258V413.688C780.844 413.664 780.633 413.625 780.391 413.625C779.453 413.625 778.766 414.227 778.5 415.188H778.461V413.781H776.773V422ZM782.023 422H783.711V416.922C783.711 415.859 784.422 415.07 785.422 415.07C786.375 415.07 786.977 415.68 786.977 416.633V422H788.633V416.859C788.633 415.82 789.328 415.07 790.328 415.07C791.328 415.07 791.898 415.688 791.898 416.758V422H793.594V416.352C793.594 414.703 792.531 413.625 790.906 413.625C789.734 413.625 788.766 414.242 788.344 415.242H788.305C787.977 414.211 787.148 413.625 786.016 413.625C784.938 413.625 784.102 414.195 783.75 415.055H783.711V413.781H782.023V422ZM797.641 422.148C798.727 422.148 799.68 421.586 800.156 420.703H800.188V422H801.883V416.336C801.883 414.688 800.609 413.625 798.602 413.625C796.578 413.625 795.352 414.711 795.234 416.125L795.227 416.211H796.82L796.836 416.141C796.977 415.484 797.578 415.023 798.555 415.023C799.602 415.023 800.188 415.57 800.188 416.477V417.094L797.953 417.227C796.008 417.344 794.898 418.219 794.898 419.648V419.664C794.898 421.141 796 422.148 797.641 422.148ZM796.602 419.625V419.609C796.602 418.914 797.164 418.469 798.18 418.406L800.188 418.281V418.922C800.188 419.992 799.289 420.797 798.102 420.797C797.195 420.797 796.602 420.344 796.602 419.625ZM806.406 422.164C806.75 422.164 807.07 422.125 807.266 422.094V420.789C807.141 420.805 806.992 420.82 806.812 420.82C806.102 420.82 805.727 420.57 805.727 419.734V415.125H807.266V413.781H805.727V411.641H804V413.781H802.82V415.125H804V419.836C804 421.477 804.781 422.164 806.406 422.164ZM809.578 412.516C810.133 412.516 810.562 412.078 810.562 411.547C810.562 411.008 810.133 410.57 809.578 410.57C809.031 410.57 808.594 411.008 808.594 411.547C808.594 412.078 809.031 412.516 809.578 412.516ZM808.734 422H810.422V413.781H808.734V422ZM815.695 422.164C818.047 422.164 819.594 420.539 819.594 417.891V417.875C819.594 415.242 818.031 413.625 815.688 413.625C813.352 413.625 811.797 415.25 811.797 417.875V417.891C811.797 420.531 813.336 422.164 815.695 422.164ZM815.703 420.75C814.383 420.75 813.523 419.711 813.523 417.891V417.875C813.523 416.078 814.391 415.039 815.688 415.039C817.008 415.039 817.867 416.078 817.867 417.875V417.891C817.867 419.703 817.023 420.75 815.703 420.75ZM820.898 422H822.586V417.211C822.586 415.93 823.352 415.07 824.539 415.07C825.711 415.07 826.289 415.766 826.289 417V422H827.984V416.68C827.984 414.789 826.945 413.625 825.141 413.625C823.898 413.625 823.055 414.188 822.625 415.023H822.586V413.781H820.898V422ZM833.07 422H840.07V420.492H834.82V410.727H833.07V422ZM844.672 422.164C846.664 422.164 847.93 420.977 848.195 419.672L848.211 419.586H846.609L846.586 419.648C846.375 420.266 845.711 420.781 844.711 420.781C843.367 420.781 842.516 419.875 842.484 418.32H848.305V417.75C848.305 415.281 846.891 413.625 844.586 413.625C842.281 413.625 840.797 415.344 840.797 417.914V417.922C840.797 420.516 842.258 422.164 844.672 422.164ZM844.594 415.008C845.695 415.008 846.492 415.703 846.633 417.125H842.508C842.656 415.75 843.5 415.008 844.594 415.008ZM851.562 422H853.375L856.32 413.781H854.562L852.5 420.352H852.461L850.398 413.781H848.602L851.562 422ZM860.484 422.164C862.477 422.164 863.742 420.977 864.008 419.672L864.023 419.586H862.422L862.398 419.648C862.188 420.266 861.523 420.781 860.523 420.781C859.18 420.781 858.328 419.875 858.297 418.32H864.117V417.75C864.117 415.281 862.703 413.625 860.398 413.625C858.094 413.625 856.609 415.344 856.609 417.914V417.922C856.609 420.516 858.07 422.164 860.484 422.164ZM860.406 415.008C861.508 415.008 862.305 415.703 862.445 417.125H858.32C858.469 415.75 859.312 415.008 860.406 415.008ZM865.492 422H867.18V410.727H865.492V422Z" fill="#707070"/>
</svg>
