<svg width="565" height="831" viewBox="0 0 565 831" fill="none" xmlns="http://www.w3.org/2000/svg">
<mask id="mask0_279_37" style="mask-type:alpha" maskUnits="userSpaceOnUse" x="0" y="0" width="565" height="831">
<g clip-path="url(#clip0_279_37)">
<path d="M559.133 279.739V88.8051C559.133 39.7776 522.419 0 477.149 0H87.4068C42.1336 0 5.44502 39.7776 5.44502 88.8051V164.396C3.85412 164.989 2.4758 166.093 1.50111 167.555C0.526408 169.018 0.00354762 170.766 0.00496933 172.559V202.742C-0.00230216 204.54 0.516841 206.295 1.49038 207.764C2.46391 209.233 3.84357 210.343 5.43751 210.94V246.094C3.84316 246.691 2.46333 247.801 1.48976 249.271C0.516192 250.741 -0.00282506 252.496 0.00496933 254.294V330.954C-0.0019096 332.748 0.517763 334.499 1.4916 335.964C2.46544 337.428 3.84495 338.533 5.43751 339.124V361.588C3.84396 362.183 2.46431 363.292 1.49068 364.76C0.517052 366.227 -0.00222024 367.981 0.00496933 369.778V446.437C-0.00230216 448.235 0.516841 449.99 1.49038 451.459C2.46391 452.928 3.84357 454.038 5.43751 454.635V1129.19C5.43751 1178.23 42.1336 1217.99 87.3992 1217.99H477.149C522.427 1217.99 559.133 1178.22 559.133 1129.16V424.927C560.831 424.409 562.323 423.315 563.383 421.812C564.442 420.308 565.01 418.477 565 416.599V288.067C565.01 286.188 564.442 284.358 563.383 282.854C562.323 281.35 560.831 280.256 559.133 279.739ZM548.293 1130.25C548.293 1172.76 516.479 1207.23 477.244 1207.23H87.324C48.066 1207.23 16.2471 1172.76 16.2471 1130.25V87.7553C16.2471 45.2453 48.061 10.7725 87.324 10.7725H477.244C516.479 10.7725 548.293 45.2426 548.293 87.7553V1130.25Z" fill="black"/>
<path d="M477.103 10.5186H87.9015C48.7214 10.5186 16.9604 44.9754 16.9604 87.4454V1129.35C16.9604 1171.84 48.7164 1206.28 87.9015 1206.28H477.101C516.263 1206.28 548.017 1171.83 548.017 1129.35V87.4454C548.017 44.9567 516.263 10.5186 477.103 10.5186ZM532.699 1131.47C532.766 1138.79 531.478 1146.04 528.908 1152.83C526.337 1159.62 522.536 1165.8 517.719 1171.02C512.903 1176.24 507.166 1180.41 500.836 1183.27C494.507 1186.14 487.709 1187.65 480.83 1187.72H84.1518C70.2635 1187.57 56.9993 1181.56 47.2765 1171.01C37.5537 1160.46 32.1687 1146.24 32.306 1131.47V85.3459C32.1687 70.5755 37.5537 56.352 47.2765 45.8038C56.9993 35.2556 70.2635 29.2466 84.1518 29.0986H137.57V29.5713C139.558 29.6009 141.454 30.4648 142.846 31.9747C144.237 33.4847 145.011 35.5184 144.999 37.6327C144.977 46.6184 148.27 55.2547 154.171 61.6856C157.051 64.8323 160.495 67.3341 164.299 69.0433C168.102 70.7526 172.189 71.6348 176.318 71.6381H387.303C391.459 71.5927 395.566 70.6771 399.389 68.9435C403.212 67.21 406.677 64.6925 409.586 61.5347C412.494 58.3769 414.789 54.6406 416.339 50.5395C417.89 46.4384 418.666 42.0526 418.622 37.6327C418.627 35.5001 419.418 33.4546 420.825 31.9353C421.508 31.1892 422.324 30.5958 423.226 30.1899C424.128 29.7839 425.097 29.5736 426.076 29.5713V29.0986H480.828C487.706 29.1694 494.505 30.6806 500.834 33.5457C507.163 36.4108 512.9 40.5737 517.716 45.7968C522.533 51.02 526.335 57.2009 528.905 63.9868C531.475 70.7727 532.764 78.0305 532.696 85.3459L532.699 1131.47Z" fill="#010003"/>
<path d="M1.94346e-05 448.067V367.862C-0.00960353 367.023 0.136342 366.19 0.429522 365.41C0.722702 364.631 1.15737 363.921 1.70871 363.32C2.26005 362.719 2.91726 362.24 3.64281 361.909C4.36836 361.579 5.14804 361.403 5.93732 361.393V454.536C5.14804 454.526 4.36836 454.35 3.64281 454.02C2.91726 453.689 2.26005 453.21 1.70871 452.609C1.15737 452.008 0.722702 451.298 0.429522 450.519C0.136342 449.739 -0.00960353 448.906 1.94346e-05 448.067ZM559.07 278.846C559.86 278.856 560.639 279.032 561.365 279.362C562.09 279.693 562.747 280.172 563.299 280.773C563.85 281.374 564.285 282.084 564.578 282.864C564.871 283.643 565.017 284.476 565.008 285.316V418.14C565.026 419.834 564.41 421.467 563.297 422.679C562.184 423.891 560.663 424.584 559.07 424.604V278.846ZM1.94346e-05 331.672V251.468C-0.0187438 249.773 0.596198 248.14 1.70961 246.927C2.82302 245.714 4.34373 245.022 5.93732 245.001V338.141C5.14804 338.131 4.36836 337.956 3.64281 337.625C2.91726 337.295 2.26005 336.815 1.70871 336.215C1.15737 335.614 0.722702 334.904 0.429522 334.124C0.136342 333.345 -0.00960353 332.512 1.94346e-05 331.672ZM1.94346e-05 203.212V169.308C-0.00960353 168.469 0.136342 167.636 0.429522 166.856C0.722702 166.077 1.15737 165.367 1.70871 164.766C2.26005 164.165 2.91726 163.686 3.64281 163.355C4.36836 163.025 5.14804 162.849 5.93732 162.839V209.679C4.34373 209.659 2.82302 208.966 1.70961 207.753C0.596198 206.54 -0.0187438 204.907 1.94346e-05 203.212Z" fill="black"/>
<path d="M162.886 53.2905C162.085 50.6688 162.291 47.8166 163.458 45.3555C164.626 42.8943 166.661 41.0238 169.12 40.1515C170.336 39.7304 171.617 39.5692 172.892 39.6772C174.166 39.7853 175.408 40.1605 176.545 40.7812C177.683 41.402 178.693 42.2559 179.519 43.2939C180.345 44.3319 180.969 45.5334 181.356 46.8292C182.157 49.4509 181.952 52.3032 180.784 54.7643C179.617 57.2255 177.581 59.096 175.123 59.9682C174.15 60.3086 173.133 60.4817 172.109 60.4811C170.054 60.4725 168.055 59.7721 166.398 58.4803C164.742 57.1885 163.512 55.3717 162.886 53.2905ZM332.114 49.0943C332.097 47.0302 332.657 45.0073 333.723 43.2823C334.789 41.5573 336.313 40.208 338.101 39.4056C339.89 38.6032 341.862 38.3839 343.767 38.7755C345.673 39.1671 347.426 40.1521 348.805 41.6052C350.183 43.0584 351.125 44.9144 351.509 46.9376C351.894 48.9607 351.705 51.0599 350.967 52.9687C350.228 54.8775 348.973 56.5098 347.36 57.6585C345.747 58.8073 343.85 59.4206 341.909 59.4207C339.323 59.432 336.838 58.3506 335.002 56.4142C333.165 54.4778 332.126 51.8448 332.114 49.0943ZM251.373 53.2184C250.164 53.2184 249.005 52.7077 248.15 51.7985C247.295 50.8893 246.815 49.6562 246.815 48.3704C246.815 47.0847 247.295 45.8516 248.15 44.9424C249.005 44.0332 250.164 43.5224 251.373 43.5224H310.98C312.189 43.5224 313.348 44.0332 314.203 44.9424C315.058 45.8516 315.538 47.0847 315.538 48.3704C315.538 49.6562 315.058 50.8893 314.203 51.7985C313.348 52.7077 312.189 53.2184 310.98 53.2184H251.373ZM250.695 36.7299C249.094 36.6812 247.573 35.9704 246.456 34.7485C245.34 33.5265 244.715 31.8897 244.715 30.1858C244.715 28.4818 245.34 26.845 246.456 25.6231C247.573 24.4011 249.094 23.6903 250.695 23.6417H311.658C313.259 23.6903 314.78 24.4011 315.896 25.6231C317.013 26.845 317.638 28.4818 317.638 30.1858C317.638 31.8897 317.013 33.5265 315.896 34.7485C314.78 35.9704 313.259 36.6812 311.658 36.7299H250.695Z" fill="#484450"/>
</g>
</mask>
<g mask="url(#mask0_279_37)">
<rect x="-36" y="-12.1462" width="637" height="853.268" fill="#C4C4C4"/>
</g>
<defs>
<clipPath id="clip0_279_37">
<rect width="565" height="831" fill="white"/>
</clipPath>
</defs>
</svg>
