<svg width="565" height="831" viewBox="0 0 565 831" fill="none" xmlns="http://www.w3.org/2000/svg">
<g clip-path="url(#clip0_94_197)">
<path d="M15 81C15 38.4741 49.4741 4 92 4H474C516.526 4 551 38.4741 551 81V831H15V81Z" fill="#FFFFFE"/>
<mask id="mask0_94_197" style="mask-type:alpha" maskUnits="userSpaceOnUse" x="20" y="13" width="526" height="809">
<path d="M20 90C20 47.4741 54.4741 13 97 13H469C511.526 13 546 47.4741 546 90V822H20V90Z" fill="#C4C4C4"/>
</mask>
<g mask="url(#mask0_94_197)">
<path d="M498.573 -0.541322L-148.288 652.876L-146.413 654.709L500.449 1.2918L498.573 -0.541322Z" fill="#E4E4E4"/>
<path d="M-107.944 215.098L-110.13 216.553L339.629 883.554L341.815 882.099L-107.944 215.098Z" fill="#E4E4E4"/>
<path d="M216.84 -55.5434L214.244 -55.1146L377.531 920.77L380.127 920.341L216.84 -55.5434Z" fill="#E4E4E4"/>
<path d="M923.661 -12.0808L-62.7874 750.904L-61.171 752.967L925.277 -10.0178L923.661 -12.0808Z" fill="#E4E4E4"/>
<path d="M-70.0358 168.513L-71.9426 170.315L661.924 937.233L663.83 935.432L-70.0358 168.513Z" fill="#E4E4E4"/>
<path d="M-101.941 650.315L-102.611 652.843L899.878 915.189L900.548 912.661L-101.941 650.315Z" fill="#E4E4E4"/>
<path d="M1009.5 83.8276L-136.174 321.277L-135.637 323.836L1010.04 86.3867L1009.5 83.8276Z" fill="#E4E4E4"/>
<path d="M198.269 468.407C208.15 468.407 216.161 460.448 216.161 450.631C216.161 440.813 208.15 432.853 198.269 432.853C188.387 432.853 180.376 440.813 180.376 450.631C180.376 460.448 188.387 468.407 198.269 468.407Z" fill="#E4E4E4"/>
<path d="M283.257 293.513C283.257 298.742 279.047 302.924 273.785 302.924C268.522 302.924 264.312 298.742 264.312 293.513C264.312 288.285 268.522 284.102 273.785 284.102C279.047 284.363 283.257 288.546 283.257 293.513Z" fill="#E4E4E4"/>
<path d="M477.178 343.184C477.178 348.935 472.442 353.38 466.916 353.38C461.128 353.38 456.655 348.674 456.655 343.184C456.655 337.694 461.391 332.988 466.916 332.988C472.442 332.727 477.178 337.433 477.178 343.184Z" fill="#E4E4E4"/>
<path d="M159.063 592.062C159.063 599.905 152.749 606.18 144.855 606.18C136.961 606.18 130.646 599.905 130.646 592.062C130.646 584.22 136.961 577.945 144.855 577.945C152.485 577.684 159.063 584.22 159.063 592.062Z" fill="#E4E4E4"/>
<path d="M321.673 592.063C328.648 592.063 334.303 586.444 334.303 579.514C334.303 572.584 328.648 566.966 321.673 566.966C314.698 566.966 309.043 572.584 309.043 579.514C309.043 586.444 314.698 592.063 321.673 592.063Z" fill="#E4E4E4"/>
<path d="M204.847 305.016C204.847 308.676 201.952 311.813 198.005 311.813C194.322 311.813 191.164 308.937 191.164 305.016C191.164 301.356 194.059 298.219 198.005 298.219C201.952 298.219 204.847 301.356 204.847 305.016Z" fill="#E4E4E4"/>
<path d="M252.735 172.211C255.496 172.211 257.734 169.987 257.734 167.244C257.734 164.501 255.496 162.277 252.735 162.277C249.974 162.277 247.736 164.501 247.736 167.244C247.736 169.987 249.974 172.211 252.735 172.211Z" fill="#E4E4E4"/>
<path d="M45.1317 285.932C45.1317 288.284 43.0267 290.376 40.6586 290.376C38.2905 290.376 36.1855 288.284 36.1855 285.932C36.1855 283.579 38.2905 281.487 40.6586 281.487C43.2898 281.487 45.1317 283.579 45.1317 285.932Z" fill="#E4E4E4"/>
<path d="M27.5023 427.102C32.4431 427.102 36.4484 423.123 36.4484 418.214C36.4484 413.305 32.4431 409.325 27.5023 409.325C22.5615 409.325 18.5562 413.305 18.5562 418.214C18.5562 423.123 22.5615 427.102 27.5023 427.102Z" fill="#E4E4E4"/>
<path d="M255.892 742.906C255.892 748.134 251.682 752.579 246.157 752.579C240.894 752.579 236.421 748.396 236.421 742.906C236.421 737.677 240.631 733.233 246.157 733.233C251.682 733.495 255.892 737.677 255.892 742.906Z" fill="#E4E4E4"/>
<path d="M351.669 716.24C351.669 720.162 348.511 723.299 344.564 723.299C340.618 723.299 337.46 720.162 337.46 716.24C337.46 712.319 340.618 709.182 344.564 709.182C348.511 709.182 351.669 712.319 351.669 716.24Z" fill="#E4E4E4"/>
<path d="M401.662 678.072C410.381 678.072 417.449 671.049 417.449 662.386C417.449 653.724 410.381 646.701 401.662 646.701C392.943 646.701 385.875 653.724 385.875 662.386C385.875 671.049 392.943 678.072 401.662 678.072Z" fill="#E4E4E4"/>
<path d="M480.336 207.765C487.601 207.765 493.492 201.913 493.492 194.694C493.492 187.475 487.601 181.622 480.336 181.622C473.07 181.622 467.179 187.475 467.179 194.694C467.179 201.913 473.07 207.765 480.336 207.765Z" fill="#E4E4E4"/>
<path d="M389.558 117.834C389.558 121.233 386.927 123.847 383.506 123.847C380.086 123.847 377.455 121.233 377.455 117.834C377.455 114.436 380.086 111.821 383.506 111.821C386.664 111.821 389.558 114.436 389.558 117.834Z" fill="#E4E4E4"/>
</g>
<path d="M559.133 279.739V88.8051C559.133 39.7776 522.419 0 477.149 0H87.4068C42.1336 0 5.44502 39.7776 5.44502 88.8051V164.396C3.85412 164.989 2.4758 166.093 1.50111 167.555C0.526408 169.018 0.00354762 170.766 0.00496933 172.559V202.742C-0.00230216 204.54 0.516841 206.295 1.49038 207.764C2.46391 209.233 3.84357 210.343 5.43751 210.94V246.094C3.84316 246.691 2.46333 247.801 1.48976 249.271C0.516192 250.741 -0.00282506 252.496 0.00496933 254.294V330.954C-0.0019096 332.748 0.517763 334.499 1.4916 335.964C2.46544 337.428 3.84495 338.533 5.43751 339.124V361.588C3.84396 362.183 2.46431 363.292 1.49068 364.76C0.517052 366.227 -0.00222024 367.981 0.00496933 369.778V446.437C-0.00230216 448.235 0.516841 449.99 1.49038 451.459C2.46391 452.928 3.84357 454.038 5.43751 454.635V1129.19C5.43751 1178.23 42.1336 1217.99 87.3992 1217.99H477.149C522.427 1217.99 559.133 1178.22 559.133 1129.16V424.927C560.831 424.409 562.324 423.315 563.383 421.812C564.442 420.308 565.01 418.477 565 416.599V288.067C565.01 286.188 564.442 284.358 563.383 282.854C562.324 281.35 560.831 280.256 559.133 279.739ZM548.293 1130.25C548.293 1172.76 516.479 1207.23 477.244 1207.23H87.324C48.066 1207.23 16.2471 1172.76 16.2471 1130.25V87.7553C16.2471 45.2453 48.061 10.7725 87.324 10.7725H477.244C516.479 10.7725 548.293 45.2426 548.293 87.7553V1130.25Z" fill="black"/>
<path d="M479.293 4H85.7351C46.1164 4 14 38.8382 14 81.7783V1135.22C14 1178.18 46.1113 1213 85.7351 1213H479.29C518.891 1213 551 1178.16 551 1135.22V81.7783C551 38.8193 518.891 4 479.293 4ZM535.511 1137.36C535.579 1144.76 534.276 1152.1 531.677 1158.96C529.078 1165.82 525.234 1172.07 520.363 1177.35C515.493 1182.63 509.692 1186.84 503.292 1189.73C496.891 1192.63 490.017 1194.16 483.062 1194.23H81.9434C67.8997 1194.08 54.487 1188.01 44.6554 1177.34C34.8238 1166.68 29.3785 1152.29 29.5173 1137.36V79.6556C29.3785 64.7217 34.8238 50.3408 44.6554 39.6758C54.487 29.0108 67.8997 22.9353 81.9434 22.7856H135.959V23.2636C137.969 23.2935 139.887 24.1669 141.294 25.6936C142.701 27.2203 143.484 29.2765 143.472 31.4142C143.449 40.4993 146.779 49.2313 152.746 55.7334C155.659 58.915 159.141 61.4444 162.987 63.1726C166.833 64.9007 170.966 65.7928 175.141 65.7961H388.487C392.69 65.7502 396.843 64.8244 400.709 63.0717C404.575 61.3189 408.079 58.7735 411.019 55.5808C413.96 52.3881 416.281 48.6104 417.849 44.4639C419.417 40.3174 420.201 35.8831 420.157 31.4142C420.162 29.258 420.962 27.1899 422.384 25.6537C423.075 24.8994 423.901 24.2994 424.813 23.889C425.725 23.4786 426.704 23.266 427.695 23.2636V22.7856H483.059C490.015 22.8573 496.889 24.3851 503.289 27.282C509.689 30.1788 515.49 34.3878 520.36 39.6687C525.231 44.9497 529.075 51.1991 531.674 58.0601C534.274 64.9211 535.576 72.2592 535.508 79.6556L535.511 1137.36Z" fill="#010003"/>
<path d="M-4.16006e-05 448.067V367.862C-0.00966456 367.023 0.136281 366.19 0.429461 365.41C0.722641 364.631 1.15731 363.921 1.70865 363.32C2.25999 362.719 2.9172 362.24 3.64275 361.909C4.3683 361.579 5.14798 361.403 5.93725 361.393V454.536C5.14798 454.526 4.3683 454.35 3.64275 454.02C2.9172 453.689 2.25999 453.21 1.70865 452.609C1.15731 452.008 0.722641 451.298 0.429461 450.519C0.136281 449.739 -0.00966456 448.906 -4.16006e-05 448.067ZM559.07 278.846C559.859 278.856 560.639 279.032 561.365 279.362C562.09 279.693 562.747 280.172 563.299 280.773C563.85 281.374 564.285 282.084 564.578 282.864C564.871 283.643 565.017 284.476 565.008 285.316V418.14C565.026 419.834 564.41 421.467 563.297 422.679C562.184 423.891 560.663 424.584 559.07 424.604V278.846ZM-4.16006e-05 331.672V251.468C-0.0188048 249.773 0.596137 248.14 1.70955 246.927C2.82296 245.714 4.34367 245.022 5.93725 245.001V338.141C5.14798 338.131 4.3683 337.956 3.64275 337.625C2.9172 337.295 2.25999 336.815 1.70865 336.215C1.15731 335.614 0.722641 334.904 0.429461 334.124C0.136281 333.345 -0.00966456 332.511 -4.16006e-05 331.672V331.672ZM-4.16006e-05 203.212V169.308C-0.00966456 168.469 0.136281 167.636 0.429461 166.856C0.722641 166.077 1.15731 165.367 1.70865 164.766C2.25999 164.165 2.9172 163.686 3.64275 163.355C4.3683 163.025 5.14798 162.849 5.93725 162.839V209.679C4.34367 209.659 2.82296 208.966 1.70955 207.753C0.596137 206.54 -0.0188048 204.907 -4.16006e-05 203.212V203.212Z" fill="black"/>
<path d="M162.886 53.2906C162.085 50.6689 162.291 47.8166 163.458 45.3555C164.626 42.8943 166.661 41.0238 169.12 40.1516C170.336 39.7304 171.617 39.5692 172.892 39.6773C174.166 39.7853 175.408 40.1605 176.545 40.7813C177.683 41.402 178.693 42.2559 179.519 43.2939C180.345 44.3319 180.969 45.5334 181.356 46.8292C182.157 49.4509 181.952 52.3032 180.784 54.7643C179.617 57.2255 177.581 59.096 175.123 59.9682C174.15 60.3086 173.133 60.4818 172.109 60.4811C170.054 60.4726 168.055 59.7721 166.398 58.4803C164.742 57.1885 163.512 55.3717 162.886 53.2906V53.2906ZM332.114 49.0943C332.097 47.0302 332.657 45.0073 333.723 43.2823C334.789 41.5573 336.313 40.208 338.101 39.4056C339.89 38.6032 341.862 38.3839 343.767 38.7755C345.673 39.1672 347.426 40.1521 348.805 41.6053C350.183 43.0584 351.125 44.9144 351.509 46.9376C351.894 48.9607 351.705 51.0599 350.967 52.9687C350.228 54.8775 348.973 56.5098 347.36 57.6585C345.747 58.8073 343.85 59.4206 341.909 59.4207C339.323 59.432 336.838 58.3506 335.002 56.4142C333.165 54.4778 332.126 51.8449 332.114 49.0943ZM251.373 53.2184C250.164 53.2184 249.005 52.7077 248.15 51.7985C247.295 50.8893 246.815 49.6562 246.815 48.3704C246.815 47.0847 247.295 45.8516 248.15 44.9424C249.005 44.0332 250.164 43.5225 251.373 43.5225H310.98C312.189 43.5225 313.348 44.0332 314.203 44.9424C315.058 45.8516 315.538 47.0847 315.538 48.3704C315.538 49.6562 315.058 50.8893 314.203 51.7985C313.348 52.7077 312.189 53.2184 310.98 53.2184H251.373ZM250.695 36.7299C249.094 36.6813 247.573 35.9704 246.456 34.7485C245.34 33.5265 244.715 31.8897 244.715 30.1858C244.715 28.4819 245.34 26.8451 246.456 25.6231C247.573 24.4012 249.094 23.6903 250.695 23.6417H311.658C313.259 23.6903 314.78 24.4012 315.896 25.6231C317.013 26.8451 317.638 28.4819 317.638 30.1858C317.638 31.8897 317.013 33.5265 315.896 34.7485C314.78 35.9704 313.259 36.6813 311.658 36.7299H250.695Z" fill="#484450"/>
</g>
<g clip-path="url(#clip1_94_197)">
<path d="M441.757 320.813C441.757 320.813 430.261 332.823 394.933 332.823C387.082 332.823 378.11 332.264 367.736 330.868C308.015 322.209 282.5 294 282.5 294C282.5 294 256.985 322.209 197.544 330.588C187.17 331.985 178.198 332.543 170.347 332.543C135.019 332.543 123.243 320.813 123.243 320.813C123.243 320.813 88.7561 540.342 282.5 661C475.964 540.342 441.757 320.813 441.757 320.813Z" fill="#4824D6"/>
</g>
<path d="M352 447.531C352 455.861 348.003 463.218 341.869 467.869C340.077 469.257 338.147 470.576 336.217 471.756C330.29 475.435 323.743 478.211 316.713 479.808C311.75 480.988 306.512 481.612 301.205 481.612C299.689 481.612 298.242 481.543 296.726 481.473C280.185 480.363 265.229 473.214 254.064 462.177C252.892 465.995 252.341 470.09 252.341 474.324C252.341 491.955 263.023 507.017 278.186 513.403C283.148 515.485 288.593 516.596 294.244 516.596C297.208 516.596 300.034 516.318 302.86 515.693C305.341 515.138 307.753 514.444 310.096 513.472C310.303 513.403 310.441 513.333 310.648 513.264C310.717 513.264 310.717 513.194 310.785 513.194C313.611 512.084 316.782 511.459 320.021 511.459C328.843 511.459 336.562 515.971 341.042 522.912C329.187 534.504 313.129 541.722 295.347 542C295.003 542 294.658 542 294.313 542C286.525 542 279.013 540.681 272.052 538.182C265.505 535.892 259.44 532.56 253.995 528.465C237.73 516.11 227.185 496.466 227.185 474.393C227.185 463.149 229.873 452.529 234.697 443.228C230.355 444.13 225.875 444.616 221.257 444.616C211.126 444.616 201.546 442.395 193 438.369C197.342 431.428 202.993 425.32 209.541 420.322C205.13 416.088 201.27 411.299 198.169 406.023C208.025 400.262 219.534 397 231.733 397C233.25 397 234.697 397.069 236.213 397.139C249.584 398.041 261.921 402.831 271.983 410.466C271.983 410.466 272.052 410.466 272.052 410.535C274.947 409.494 277.841 408.73 280.874 408.106C285.216 407.203 289.696 406.718 294.313 406.718C300.241 406.718 305.892 407.481 311.337 408.939C324.57 412.409 336.286 419.906 344.97 430.04C345.728 430.942 346.486 431.844 347.244 432.816C350.277 436.981 352 442.048 352 447.531Z" fill="url(#paint0_linear_94_197)"/>
<defs>
<linearGradient id="paint0_linear_94_197" x1="193" y1="469.483" x2="351.977" y2="469.483" gradientUnits="userSpaceOnUse">
<stop offset="5.94866e-07" stop-color="#B1B1D5"/>
<stop offset="0.0544055" stop-color="#C4C4DF"/>
<stop offset="0.1375" stop-color="#DADAEA"/>
<stop offset="0.2356" stop-color="#EBEBF3"/>
<stop offset="0.3569" stop-color="#F6F6F9"/>
<stop offset="0.5272" stop-color="#FDFDFD"/>
<stop offset="1" stop-color="#FFFFFE"/>
</linearGradient>
<clipPath id="clip0_94_197">
<rect width="565" height="831" fill="white"/>
</clipPath>
<clipPath id="clip1_94_197">
<rect width="323" height="367" fill="white" transform="translate(121 294)"/>
</clipPath>
</defs>
</svg>
