<svg width="908" height="366" viewBox="0 0 908 366" fill="none" xmlns="http://www.w3.org/2000/svg">
<path d="M869.143 168.399C879.284 169.932 886.821 166.151 886.821 166.151C886.821 166.151 882.989 165.427 877.487 158.303C872.315 151.605 863.991 154.721 863.454 154.909C863.676 154.783 865.62 153.416 866.284 141.794C866.967 129.43 859.019 127.794 859.019 127.794C859.019 127.794 860.091 133.656 854.919 138.204C851.138 141.492 849.597 145.325 849.051 148.798C846.297 140.64 836.633 132.364 820.889 142.357C816.189 136.388 811.248 131.697 804.549 140.156C803.998 139.855 780.466 131.108 771.408 148.403C770.872 148.18 770.367 148.116 769.973 148.193C769.341 148.318 768.945 148.806 768.753 149.911C765.147 147.42 733.671 152.466 740.951 183.207C740.369 182.747 739.425 181.702 738.217 179.313C735.911 174.678 732.24 172.692 732.24 172.692C732.24 172.692 732.598 174.509 731.797 178.771C731.044 182.859 734.32 184.923 734.698 185.177C734.335 185.002 731.388 183.776 728.345 188.725C725.745 193.012 724.524 195.14 724.524 195.14C724.524 195.14 725.008 196.769 729.352 195.093C732.48 193.903 736.034 192.382 738.087 191.568C730.875 197.83 728.454 205.529 737.619 217.514C735.896 218.756 735.073 224.992 739.598 226.317C737.983 228.113 739.222 247.321 753.254 251.125C753.203 252.12 753.296 253.005 753.451 253.795C753.949 256.323 755.554 257.813 759.374 257.225C766.863 270.279 772.875 275.415 785.824 271.636C787.36 275.273 789.251 276.132 791.832 272.997C791.862 273.566 791.876 274.056 791.985 274.609C793.649 283.063 805.917 291.237 816.807 279.08C814.187 284.931 814.866 290.05 814.866 290.05C814.866 290.05 818.56 289.651 821.963 285.698C825.747 281.178 826.468 277.342 826.468 277.342C826.468 277.342 827.132 282.383 835.481 281.478C843.736 280.51 845.535 280.484 845.535 280.484C845.535 280.484 844.072 278.884 840.545 276.377C837.506 274.267 834.813 272.253 832.782 270.683C838.51 270.622 847.449 267.714 850.277 255.42C856.643 258.189 860.212 251.741 858.172 247.628C863.613 248.609 889.316 237.148 870.173 216.539C874.077 214.294 873.452 211.954 870.777 209.608C874.102 205.671 882.362 180.571 858.871 168.697C859.977 168.069 862.709 167.367 869.143 168.399Z" fill="#B2B2F1"/>
<path d="M813.809 177.469C813.809 177.469 802.248 170.185 790.763 168.725C779.279 167.266 768.492 174.056 768.492 174.056C769.219 175.873 770.156 177.598 771.284 179.197C772.618 180.973 774.104 182.629 775.725 184.147C773.439 185.852 771.335 187.787 769.444 189.922C767.845 191.868 766.522 194.026 765.51 196.332C768.954 198.381 772.772 199.718 776.74 200.267C783.149 201.093 791.146 199.638 791.146 199.638L813.809 177.469Z" fill="#4824D6"/>
<path d="M808.279 176.64H807.736C791.153 176.64 777.709 190.087 777.709 206.674V211.581C777.709 228.169 791.153 241.615 807.736 241.615H808.279C824.862 241.615 838.306 228.169 838.306 211.581V206.674C838.306 190.087 824.862 176.64 808.279 176.64Z" fill="white"/>
<path d="M796.402 217C796.402 217 799.464 222.434 807.773 222.641C816.081 222.849 819.614 217 819.614 217" stroke="#2B2C34" stroke-width="2" stroke-linecap="round"/>
<path d="M807.061 202.15C807.061 202.15 804.132 208.012 804.92 210.216C805.708 212.419 810.213 210.966 810.213 210.966" stroke="#2B2C34" stroke-width="2" stroke-linecap="round"/>
<path d="M178.466 185.797C177.972 198.158 183.504 206.693 183.504 206.693C183.504 206.693 183.863 202.003 191.676 194.463C199.02 187.375 194.182 177.808 193.886 177.189C194.066 177.438 195.963 179.588 209.984 178.845C224.897 178.025 225.806 168.28 225.806 168.28C225.806 168.28 218.92 170.342 212.783 164.743C208.339 160.646 203.54 159.306 199.304 159.111C208.72 154.729 217.361 142.046 203.295 124.495C209.828 118.069 214.798 111.524 203.769 104.614C204.058 103.913 211.427 74.5424 189.491 65.9734C189.687 65.3015 189.698 64.6878 189.553 64.2249C189.32 63.4843 188.682 63.0744 187.332 62.99C189.841 58.3367 179.621 21.269 143.73 34.0702C144.205 33.3109 145.333 32.041 148.037 30.2762C153.288 26.8974 155.183 22.2336 155.183 22.2336C155.183 22.2336 153.051 22.9032 147.836 22.5074C142.835 22.1459 140.795 26.3468 140.541 26.8335C140.702 26.3759 141.781 22.6804 135.445 19.6872C129.96 17.1382 127.247 15.9563 127.247 15.9563C127.247 15.9563 125.359 16.7529 127.944 21.7385C129.785 25.3304 132.079 29.3903 133.327 31.7443C124.864 23.9267 115.313 22.045 102.158 34.6199C100.441 32.7184 92.856 32.5584 91.8663 38.1584C89.5002 36.4606 66.6356 40.4907 63.9336 57.8171C62.7343 57.8887 61.6858 58.1164 60.7591 58.4076C57.7936 59.3392 56.2202 61.4609 57.4309 65.9628C42.7732 76.6705 37.4117 84.5594 43.6588 99.5828C39.5014 101.906 38.7221 104.287 42.8219 106.966C42.1441 107.077 41.559 107.159 40.9103 107.363C30.9945 110.478 22.8209 126.269 38.8383 137.714C31.4769 135.348 25.4296 136.841 25.4296 136.841C25.4296 136.841 26.3968 141.216 31.5869 144.773C37.5076 148.71 42.2012 149.066 42.2012 149.066C42.2012 149.066 36.2467 150.53 38.4373 160.42C40.6916 170.189 40.9608 172.342 40.9608 172.342C40.9608 172.342 42.685 170.376 45.2231 165.815C47.3505 161.892 49.409 158.397 51.0223 155.755C51.8535 162.613 56.5246 172.945 71.6379 174.706C69.162 182.706 77.3649 186.13 82.0255 183.14C81.5701 189.792 98.716 219.09 120.888 193.409C124.097 197.792 126.819 196.733 129.277 193.215C134.439 196.679 165.625 203.257 176.748 173.521C177.648 174.764 178.851 177.946 178.466 185.797Z" fill="#B2B2F1"/>
<path d="M136.226 77.6361C136.226 77.6361 121.996 68.6708 107.861 66.8745C93.7256 65.0781 80.4497 73.4359 80.4497 73.4359C81.3446 75.6716 82.4977 77.795 83.8856 79.7629C85.5277 81.9483 87.3567 83.9867 89.3518 85.8553C86.5386 87.9539 83.948 90.3357 81.6208 92.9632C79.6533 95.359 78.0242 98.0139 76.7793 100.853C81.0173 103.374 85.7171 105.021 90.6015 105.696C98.4896 106.712 108.332 104.922 108.332 104.922L136.226 77.6361Z" fill="#4824D6"/>
<path d="M129.419 76.6161H128.751C108.34 76.6161 91.7935 93.1664 91.7935 113.582V119.622C91.7935 140.037 108.34 156.588 128.751 156.588H129.419C149.83 156.588 166.376 140.037 166.376 119.622V113.582C166.376 93.1664 149.83 76.6161 129.419 76.6161Z" fill="white"/>
<path d="M114.801 126.29C114.801 126.29 118.57 132.979 128.796 133.234C139.022 133.49 143.37 126.29 143.37 126.29" stroke="#2B2C34" stroke-width="3" stroke-linecap="round"/>
<path d="M127.921 108.013C127.921 108.013 124.315 115.228 125.285 117.941C126.255 120.653 131.8 118.865 131.8 118.865" stroke="#2B2C34" stroke-width="3" stroke-linecap="round"/>
<path d="M506.654 326.985C507.221 327.483 507.923 327.726 508.625 327.726C509.462 327.726 510.293 327.378 510.887 326.697L536.708 297.105C537.797 295.857 537.668 293.961 536.42 292.872C535.175 291.783 533.282 291.909 532.187 293.16L506.366 322.752C505.274 324 505.403 325.896 506.654 326.985V326.985Z" fill="#80EB8A"/>
<path d="M552.131 290.562L509.915 338.943L489.509 316.29C488.396 315.06 486.5 314.958 485.27 316.068C484.04 317.178 483.941 319.074 485.048 320.307L496.955 333.525L492.239 338.94L471.839 316.293C470.726 315.063 468.83 314.961 467.6 316.071C466.37 317.181 466.271 319.077 467.378 320.31L490.046 345.471C490.616 346.101 491.426 346.464 492.275 346.464H492.299C493.157 346.458 493.973 346.083 494.537 345.435L500.999 338.016L507.719 345.474C508.289 346.104 509.099 346.467 509.948 346.467H509.972C510.83 346.461 511.646 346.086 512.21 345.438L556.652 294.504C557.741 293.256 557.612 291.363 556.364 290.271C555.119 289.188 553.223 289.314 552.131 290.562V290.562Z" fill="#80EB8A"/>
</svg>
