<svg width="924" height="915" viewBox="0 0 924 915" fill="none" xmlns="http://www.w3.org/2000/svg">
<path d="M596.798 194.601C637.093 182.253 658.293 154.844 658.293 154.844C658.293 154.844 642.811 158.977 609.762 142.364C578.695 126.747 553.396 153.088 551.741 154.738C552.337 153.88 557.11 145.356 538.911 101.121C519.459 54.1044 487.106 62.1698 487.106 62.1698C487.106 62.1698 501.5 81.9835 490.421 108.026C482.262 126.929 483.365 143.868 487.515 157.705C462.81 132.377 412.296 118.9 371.736 183.91C343.71 170.153 317.066 161.559 307.289 204.805C304.71 204.667 201.982 214.097 199.17 294.276C196.789 294.403 194.804 295.06 193.479 296.049C191.361 297.632 190.763 300.145 192.014 304.581C174.225 301.762 66.5874 376.414 148.21 477.357C145.235 476.689 139.88 474.494 131.158 467.792C114.375 454.721 97.2454 453.889 97.2454 453.889C97.2454 453.889 101.801 459.986 106.41 477.198C110.886 493.681 126.692 495.503 128.543 495.772C126.89 495.768 113.793 496.466 111.316 520.212C109.306 540.717 108.566 550.772 108.566 550.772C108.566 550.772 113.255 555.942 126.369 542.012C135.839 532.043 146.304 520.092 152.464 513.423C136.876 549.445 141.597 582.271 196.855 610.38C192.678 618.045 200.716 642.608 219.835 639.475C217.045 648.995 255.783 717.954 314.529 707.102C316.112 710.877 318.026 713.991 320.007 716.641C326.345 725.124 334.94 727.789 348.047 718.821C398.998 753.867 430.404 762.207 471.656 725.183C483.812 735.928 492.344 735.749 496.333 719.549C497.455 721.602 498.379 723.391 499.765 725.246C520.961 753.609 580.939 762.079 599.672 697.682C600.366 724.015 611.985 741.772 611.985 741.772C611.985 741.772 624.958 733.729 630.54 713.034C636.522 689.56 632.375 674.07 632.375 674.07C632.375 674.07 643.795 691.561 673.118 673.367C701.978 655.105 708.596 651.812 708.596 651.812C708.596 651.812 700.333 648.486 682.81 645.469C667.799 643.054 654.243 640.378 643.928 638.171C665.04 627.765 692.985 601.099 681.606 550.528C710.114 549.467 711.872 519.236 697.005 507.625C718.905 501.587 793.754 413.432 686.197 371.115C696.666 355.855 690.194 348.298 676.111 344.364C681.428 323.866 667.409 216.194 559.273 213.968C562.254 209.674 571.126 202.218 596.798 194.601Z" fill="#B2B2F1"/>
<mask id="mask0_29_81" style="mask-type:alpha" maskUnits="userSpaceOnUse" x="97" y="61" width="646" height="689">
<path d="M596.785 194.578C637.079 182.228 658.277 154.819 658.277 154.819C658.277 154.819 642.795 158.953 609.745 142.341C578.678 126.726 553.381 153.068 551.725 154.718C552.321 153.86 557.094 145.335 538.892 101.101C519.438 54.0859 487.085 62.1528 487.085 62.1528C487.085 62.1528 501.48 81.9658 490.403 108.008C482.245 126.912 483.349 143.851 487.5 157.688C462.794 132.361 412.279 118.886 371.723 183.898C343.696 170.142 317.052 161.549 307.277 204.796C304.698 204.658 201.971 214.093 199.163 294.272C196.782 294.399 194.797 295.056 193.473 296.046C191.354 297.629 190.756 300.142 192.007 304.577C174.219 301.759 66.5856 376.416 148.213 477.355C145.238 476.687 139.883 474.492 131.161 467.791C114.377 454.721 97.2476 453.89 97.2476 453.89C97.2476 453.89 101.804 459.986 106.413 477.198C110.891 493.681 126.696 495.502 128.548 495.77C126.894 495.767 113.798 496.466 111.322 520.212C109.313 540.717 108.573 550.771 108.573 550.771C108.573 550.771 113.263 555.942 126.375 542.011C135.845 532.042 146.31 520.09 152.469 513.421C136.883 549.444 141.605 582.269 196.865 610.375C192.689 618.04 200.728 642.603 219.846 639.469C217.057 648.99 255.798 717.946 314.544 707.092C316.127 710.866 318.041 713.98 320.022 716.631C326.361 725.113 334.956 727.778 348.063 718.809C399.015 753.852 430.421 762.191 471.671 725.166C483.828 735.91 492.36 735.73 496.348 719.53C497.47 721.583 498.394 723.372 499.78 725.227C520.977 753.59 580.956 762.057 599.685 697.659C600.381 723.991 612 741.747 612 741.747C612 741.747 624.973 733.704 630.554 713.009C636.535 689.535 632.387 674.045 632.387 674.045C632.387 674.045 643.808 691.536 673.13 673.34C701.989 655.077 708.607 651.784 708.607 651.784C708.607 651.784 700.343 648.458 682.82 645.442C667.809 643.028 654.253 640.352 643.938 638.146C665.049 627.739 692.993 601.072 681.611 550.501C710.119 549.439 711.875 519.208 697.007 507.598C718.907 501.559 793.751 413.4 686.192 371.088C696.661 355.828 690.188 348.272 676.105 344.337C681.421 323.84 667.396 216.168 559.26 213.947C562.241 209.653 571.113 202.197 596.785 194.578Z" fill="#B2B2F1"/>
</mask>
<g mask="url(#mask0_29_81)">
<path d="M135.5 547.694C74.1924 586.668 34.8333 574.694 27.5 598.694L17 626.194C58.8333 692.194 144.2 827.394 151 840.194C159.5 856.194 418 905.194 431.5 905.194C442.3 905.194 664.667 851.194 774.5 824.194C798.333 759.861 844.5 619.594 838.5 573.194C832.5 526.794 756.5 494.694 690.5 539.194C637.667 568.861 591 633.694 504.5 598.694C474.592 586.593 389.333 588.861 345.5 598.694C298.833 605.694 205.5 503.194 135.5 547.694Z" fill="#E7E7F5" fill-opacity="0.46"/>
</g>
<path d="M447.3 353.478C447.3 353.478 411.801 331.112 376.538 326.631C341.276 322.15 308.156 343 308.156 343C310.389 348.577 313.266 353.874 316.728 358.784C320.824 364.236 325.387 369.321 330.365 373.982C323.346 379.218 316.884 385.16 311.078 391.714C306.17 397.691 302.106 404.314 299 411.398C309.572 417.687 321.297 421.794 333.482 423.478C353.16 426.014 377.714 421.547 377.714 421.547L447.3 353.478Z" fill="#4824D6"/>
<path d="M430.318 350.934H428.653C377.734 350.934 336.455 392.221 336.455 443.152V458.218C336.455 509.149 377.734 550.437 428.653 550.437H430.318C481.238 550.437 522.516 509.149 522.516 458.218V443.152C522.516 392.221 481.238 350.934 430.318 350.934Z" fill="white"/>
<path d="M393.851 474.855C393.851 474.855 403.256 491.541 428.765 492.178C454.275 492.815 465.123 474.855 465.123 474.855" stroke="#2B2C34" stroke-width="3" stroke-linecap="round"/>
<path d="M426.581 429.259C426.581 429.259 417.586 447.259 420.006 454.025C422.427 460.792 436.259 456.331 436.259 456.331" stroke="#2B2C34" stroke-width="3" stroke-linecap="round"/>
</svg>
