<svg width="860" height="359" viewBox="0 0 860 359" fill="none" xmlns="http://www.w3.org/2000/svg">
<path d="M296.76 95.8179C316.415 98.6944 330.978 91.3009 330.978 91.3009C330.978 91.3009 323.549 89.9355 312.828 76.1869C302.749 63.2632 286.656 69.3743 285.618 69.7429C286.045 69.4975 289.799 66.8308 290.979 44.3162C292.186 20.3639 276.779 17.2669 276.779 17.2669C276.779 17.2669 278.909 28.6119 268.933 37.4668C261.641 43.8706 258.691 51.3079 257.664 58.0388C252.256 42.2634 233.463 26.3245 203.063 45.8239C193.904 34.3059 184.291 25.2661 171.395 41.7112C170.325 41.1316 124.668 24.4069 107.282 57.988C106.242 57.5614 105.264 57.4405 104.501 57.5946C103.279 57.8411 102.516 58.7905 102.154 60.9322C95.1467 56.1403 34.2305 66.203 48.6139 125.675C47.4815 124.79 45.6441 122.774 43.2824 118.159C38.7733 109.203 31.6458 105.39 31.6458 105.39C31.6458 105.39 32.3553 108.907 30.8429 117.168C29.4215 125.092 35.7854 129.059 36.5197 129.548C35.8162 129.212 30.0972 126.865 24.2479 136.479C19.2519 144.806 16.9067 148.939 16.9067 148.939C16.9067 148.939 17.8599 152.088 26.2575 148.803C32.3039 146.469 39.1741 143.492 43.1438 141.895C29.2318 154.09 24.6149 169.024 42.4746 192.152C39.1482 194.574 37.6125 206.658 46.3878 209.184C43.2773 212.676 45.8533 249.867 73.0647 257.106C72.9767 259.034 73.1633 260.746 73.4718 262.275C74.4589 267.168 77.5813 270.038 84.9745 268.865C99.5988 294.078 111.291 303.972 136.336 296.532C139.344 303.563 143.014 305.209 147.984 299.114C148.047 300.215 148.079 301.164 148.295 302.234C151.596 318.594 175.431 334.311 196.411 310.666C191.39 322.021 192.754 331.93 192.754 331.93C192.754 331.93 199.903 331.124 206.459 323.436C213.746 314.647 215.107 307.212 215.107 307.212C215.107 307.212 216.439 316.967 232.602 315.139C248.581 313.188 252.064 313.121 252.064 313.121C252.064 313.121 249.217 310.036 242.362 305.213C236.457 301.154 231.224 297.277 227.276 294.255C238.368 294.085 255.654 288.37 261.018 264.534C273.374 269.838 280.226 257.317 276.239 249.37C286.785 251.22 336.463 228.786 299.197 189.047C306.737 184.661 305.506 180.136 300.303 175.617C306.706 167.96 322.474 119.271 276.867 96.4899C279.004 95.2632 284.288 93.8789 296.76 95.8179Z" fill="#B2B2F1"/>
<path d="M177.978 121.429C177.978 121.429 157.61 108.596 137.377 106.025C117.144 103.454 98.1414 115.417 98.1414 115.417C99.4223 118.617 101.073 121.657 103.059 124.473C105.41 127.602 108.028 130.519 110.884 133.194C106.857 136.198 103.149 139.607 99.8176 143.368C97.0014 146.797 94.6696 150.597 92.8877 154.662C98.9538 158.27 105.681 160.627 112.672 161.593C123.963 163.048 138.051 160.485 138.051 160.485L177.978 121.429Z" fill="#4824D6"/>
<path d="M168.234 119.969H167.279C138.063 119.969 114.378 143.659 114.378 172.882V181.526C114.378 210.749 138.063 234.438 167.279 234.438H168.234C197.45 234.438 221.135 210.749 221.135 181.526V172.882C221.135 143.659 197.45 119.969 168.234 119.969Z" fill="white"/>
<path d="M147.311 191.072C147.311 191.072 152.706 200.646 167.343 201.011C181.98 201.376 188.204 191.072 188.204 191.072" stroke="#2B2C34" stroke-width="3" stroke-linecap="round"/>
<path d="M166.09 164.91C166.09 164.91 160.929 175.238 162.318 179.12C163.706 183.003 171.643 180.443 171.643 180.443" stroke="#2B2C34" stroke-width="3" stroke-linecap="round"/>
<path d="M695.318 38.8828C703.095 25.6991 702.062 13.1568 702.062 13.1568C702.062 13.1568 698.925 18.0584 685.994 21.7026C673.839 25.1282 673.511 38.3887 673.471 39.2368C673.421 38.8605 672.612 35.4059 656.894 28.0065C640.159 20.1686 633.462 30.2581 633.462 30.2581C633.462 30.2581 642.175 32.043 645.586 41.7389C648.031 48.8058 652.477 53.0766 656.98 55.7692C644.151 55.0326 627.307 63.7971 632.363 91.1635C621.478 94.3426 612.23 98.5672 620.206 112.556C619.48 113.151 594.251 140.851 613.143 163.035C612.536 163.652 612.165 164.315 612.053 164.904C611.873 165.848 612.328 166.668 613.75 167.551C608.291 171.154 597.727 217.541 644.343 224.602C643.381 225.152 641.408 225.876 637.427 226.216C629.725 226.825 624.929 230.799 624.929 230.799C624.929 230.799 627.645 231.317 633.097 234.802C638.337 238.124 643.02 234.739 643.582 234.358C643.138 234.762 639.798 238.158 644.953 245.131C649.438 251.121 651.703 253.997 651.703 253.997C651.703 253.997 654.228 254.235 654.33 247.287C654.426 242.294 654.303 236.526 654.32 233.229C658.968 246.705 668.277 254.348 689.978 248.344C690.737 251.422 698.91 256.038 703.268 250.513C704.853 253.749 732.135 262.744 745.225 245.44C746.574 246.064 747.85 246.43 749.031 246.655C752.809 247.376 755.766 245.985 757.082 240.369C779.328 237.28 789.791 231.82 791.779 211.787C797.67 211.689 799.914 209.55 797.014 204.23C797.817 204.505 798.503 204.758 799.33 204.916C811.962 207.326 830.117 194.9 819.359 173.047C825.998 179.936 833.463 181.849 833.463 181.849C833.463 181.849 834.971 176.514 831.396 169.599C827.248 161.84 822.341 158.703 822.341 158.703C822.341 158.703 829.688 160.594 833.091 148.532C836.353 136.564 837.321 134.06 837.321 134.06C837.321 134.06 834.29 135.193 828.853 138.678C824.237 141.709 819.947 144.313 816.642 146.249C819.752 138.286 820.709 124.29 805.267 113.521C812.65 106.251 805.713 97.716 798.883 98.2461C803.274 91.2614 801.739 49.288 762.536 64.2981C761.604 57.642 758.017 57.2021 753.277 59.598C749.68 52.8001 719.539 27.3699 690.004 53.2697C689.751 51.388 690.302 47.2152 695.318 38.8828Z" fill="#B2B2F1"/>
<path d="M731.47 104.496C731.47 104.496 713.151 92.9548 694.954 90.6423C676.757 88.3298 659.666 99.0891 659.666 99.0891C660.819 101.967 662.303 104.701 664.09 107.234C666.204 110.048 668.558 112.672 671.127 115.077C667.505 117.779 664.17 120.845 661.174 124.228C658.641 127.312 656.544 130.73 654.941 134.385C660.397 137.63 666.447 139.75 672.735 140.619C682.89 141.927 695.561 139.622 695.561 139.622L731.47 104.496Z" fill="#4824D6"/>
<path d="M722.706 103.183H721.847C695.571 103.183 674.27 124.489 674.27 150.771V158.546C674.27 184.828 695.571 206.134 721.847 206.134H722.706C748.983 206.134 770.284 184.828 770.284 158.546V150.771C770.284 124.489 748.983 103.183 722.706 103.183Z" fill="white"/>
<path d="M703.888 167.131C703.888 167.131 708.741 175.742 721.905 176.07C735.069 176.399 740.667 167.131 740.667 167.131" stroke="#2B2C34" stroke-width="3" stroke-linecap="round"/>
<path d="M720.778 143.602C720.778 143.602 716.136 152.891 717.385 156.382C718.634 159.874 725.772 157.572 725.772 157.572" stroke="#2B2C34" stroke-width="3" stroke-linecap="round"/>
</svg>
