<svg width="809" height="880" viewBox="0 0 809 880" fill="none" xmlns="http://www.w3.org/2000/svg">
<path d="M619.179 749.859L163.336 530.566L321.05 100.615L711.268 322.588L619.179 749.859Z" stroke="#A1A1DB" stroke-width="2"/>
<circle cx="321.705" cy="103.232" r="7.853" fill="#8080C9"/>
<circle cx="165.104" cy="530.957" r="7.853" fill="#8080C9"/>
<circle cx="619.606" cy="749.791" r="7.853" fill="#8080C9"/>
<path d="M370.831 185.797C370.336 198.158 375.868 206.693 375.868 206.693C375.868 206.693 376.228 202.003 384.04 194.463C391.385 187.375 386.546 177.808 386.25 177.189C386.43 177.438 388.327 179.588 402.348 178.845C417.261 178.025 418.171 168.28 418.171 168.28C418.171 168.28 411.284 170.342 405.147 164.743C400.704 160.646 395.904 159.306 391.669 159.111C401.085 154.729 409.726 142.046 395.659 124.495C402.193 118.069 407.162 111.524 396.133 104.614C396.422 103.913 403.791 74.5424 381.855 65.9734C382.052 65.3015 382.062 64.6878 381.917 64.2249C381.684 63.4843 381.046 63.0744 379.696 62.99C382.205 58.3367 371.985 21.269 336.095 34.0702C336.569 33.3109 337.697 32.041 340.401 30.2762C345.652 26.8974 347.547 22.2336 347.547 22.2336C347.547 22.2336 345.415 22.9032 340.2 22.5074C335.199 22.1459 333.159 26.3468 332.905 26.8335C333.067 26.3759 334.146 22.6804 327.809 19.6872C322.325 17.1382 319.611 15.9563 319.611 15.9563C319.611 15.9563 317.724 16.7529 320.308 21.7385C322.149 25.3304 324.443 29.3903 325.691 31.7443C317.228 23.9267 307.677 22.045 294.522 34.6199C292.805 32.7184 285.22 32.5584 284.231 38.1584C281.865 36.4606 259 40.4907 256.298 57.8171C255.099 57.8887 254.05 58.1164 253.123 58.4076C250.158 59.3392 248.585 61.4609 249.795 65.9628C235.138 76.6705 229.776 84.5594 236.023 99.5828C231.866 101.906 231.086 104.287 235.186 106.966C234.508 107.077 233.923 107.159 233.275 107.363C223.359 110.478 215.185 126.269 231.203 137.714C223.841 135.348 217.794 136.841 217.794 136.841C217.794 136.841 218.761 141.216 223.951 144.773C229.872 148.71 234.566 149.066 234.566 149.066C234.566 149.066 228.611 150.53 230.802 160.42C233.056 170.189 233.325 172.342 233.325 172.342C233.325 172.342 235.049 170.376 237.587 165.815C239.715 161.892 241.773 158.397 243.387 155.755C244.218 162.613 248.889 172.945 264.002 174.706C261.526 182.706 269.729 186.13 274.39 183.14C273.934 189.792 291.08 219.09 313.252 193.409C316.462 197.792 319.184 196.733 321.642 193.215C326.803 196.679 357.989 203.257 369.112 173.521C370.012 174.764 371.215 177.946 370.831 185.797Z" fill="#B2B2F1"/>
<path d="M769.847 282.364C779.988 283.897 787.525 280.116 787.525 280.116C787.525 280.116 783.693 279.393 778.191 272.268C773.019 265.571 764.695 268.686 764.158 268.874C764.379 268.749 766.324 267.381 766.988 255.759C767.67 243.396 759.723 241.759 759.723 241.759C759.723 241.759 760.795 247.622 755.622 252.169C751.842 255.458 750.3 259.29 749.754 262.763C747 254.605 737.336 246.329 721.593 256.323C716.892 250.353 711.951 245.663 705.253 254.122C704.702 253.82 681.17 245.073 672.111 262.369C671.575 262.146 671.071 262.081 670.676 262.159C670.045 262.283 669.649 262.771 669.456 263.876C665.85 261.385 634.374 266.431 641.655 297.172C641.072 296.712 640.129 295.667 638.921 293.278C636.614 288.643 632.944 286.657 632.944 286.657C632.944 286.657 633.301 288.475 632.5 292.736C631.747 296.824 635.023 298.888 635.401 299.142C635.039 298.967 632.092 297.741 629.048 302.69C626.448 306.978 625.227 309.106 625.227 309.106C625.227 309.106 625.712 310.734 630.056 309.058C633.183 307.868 636.737 306.348 638.791 305.533C631.578 311.795 629.158 319.494 638.322 331.48C636.599 332.722 635.777 338.957 640.301 340.283C638.687 342.078 639.926 361.286 653.957 365.09C653.907 366.085 653.999 366.97 654.155 367.76C654.652 370.289 656.257 371.778 660.077 371.191C667.566 384.244 673.579 389.381 686.528 385.601C688.064 389.238 689.954 390.097 692.535 386.963C692.565 387.531 692.58 388.021 692.688 388.574C694.353 397.029 706.62 405.202 717.51 393.045C714.89 398.896 715.57 404.015 715.57 404.015C715.57 404.015 719.263 403.616 722.667 399.663C726.451 395.143 727.171 391.308 727.171 391.308C727.171 391.308 727.836 396.348 736.185 395.443C744.439 394.475 746.238 394.449 746.238 394.449C746.238 394.449 744.775 392.849 741.248 390.343C738.209 388.232 735.517 386.218 733.486 384.648C739.214 384.587 748.152 381.679 750.98 369.385C757.347 372.154 760.915 365.706 758.876 361.594C764.316 362.575 790.02 351.113 770.877 330.505C774.78 328.259 774.156 325.919 771.48 323.573C774.805 319.636 783.066 294.536 759.574 282.662C760.681 282.034 763.412 281.332 769.847 282.364Z" fill="#B2B2F1"/>
<path d="M599.649 633.072C607.425 619.889 606.393 607.346 606.393 607.346C606.393 607.346 603.255 612.248 590.324 615.892C578.169 619.318 577.841 632.578 577.802 633.426C577.751 633.05 576.942 629.596 561.224 622.196C544.489 614.358 537.792 624.448 537.792 624.448C537.792 624.448 546.506 626.233 549.917 635.929C552.361 642.995 556.808 647.266 561.311 649.959C548.482 649.222 531.637 657.987 536.693 685.353C525.809 688.532 516.56 692.757 524.536 706.746C523.811 707.341 498.582 735.04 517.474 757.224C516.867 757.842 516.496 758.504 516.383 759.094C516.203 760.037 516.658 760.858 518.08 761.74C512.621 765.343 502.057 811.731 548.673 818.792C547.712 819.342 545.738 820.065 541.758 820.406C534.056 821.014 529.26 824.988 529.26 824.988C529.26 824.988 531.975 825.506 537.428 828.991C542.667 832.313 547.351 828.929 547.913 828.547C547.469 828.952 544.129 832.348 549.283 839.321C553.769 845.31 556.034 848.187 556.034 848.187C556.034 848.187 558.558 848.424 558.66 841.477C558.756 836.483 558.633 830.715 558.651 827.418C563.298 840.895 572.607 848.538 594.308 842.534C595.067 845.612 603.241 850.227 607.598 844.703C609.183 847.939 636.465 856.933 649.555 839.63C650.904 840.254 652.181 840.62 653.361 840.845C657.139 841.566 660.096 840.174 661.413 834.558C683.659 831.469 694.122 826.01 696.109 805.977C702.001 805.878 704.244 803.74 701.344 798.419C702.148 798.695 702.834 798.948 703.66 799.106C716.292 801.516 734.447 789.09 723.69 767.236C730.328 774.126 737.794 776.039 737.794 776.039C737.794 776.039 739.301 770.704 735.726 763.788C731.578 756.03 726.671 752.893 726.671 752.893C726.671 752.893 734.019 754.784 737.421 742.721C740.684 730.754 741.651 728.25 741.651 728.25C741.651 728.25 738.621 729.383 733.184 732.868C728.568 735.898 724.278 738.502 720.972 740.438C724.082 732.476 725.04 718.48 709.598 707.71C716.98 700.441 710.044 691.906 703.213 692.436C707.605 685.451 706.07 643.478 666.866 658.488C665.934 651.832 662.347 651.392 657.608 653.788C654.011 646.99 623.869 621.56 594.334 647.459C594.081 645.578 594.633 641.405 599.649 633.072Z" fill="#B2B2F1"/>
<path d="M296.76 453.846C316.415 456.723 330.978 449.329 330.978 449.329C330.978 449.329 323.549 447.964 312.828 434.215C302.749 421.292 286.656 427.403 285.618 427.771C286.045 427.526 289.799 424.859 290.979 402.345C292.186 378.392 276.779 375.295 276.779 375.295C276.779 375.295 278.909 386.64 268.933 395.495C261.641 401.899 258.691 409.336 257.664 416.067C252.256 400.292 233.463 384.353 203.063 403.852C193.904 392.334 184.291 383.295 171.395 399.74C170.325 399.16 124.668 382.435 107.282 416.017C106.242 415.59 105.264 415.469 104.501 415.623C103.279 415.87 102.516 416.819 102.154 418.961C95.1467 414.169 34.2305 424.232 48.6139 483.704C47.4815 482.819 45.6441 480.802 43.2824 476.187C38.7733 467.232 31.6458 463.419 31.6458 463.419C31.6458 463.419 32.3553 466.935 30.8429 475.196C29.4215 483.121 35.7854 487.088 36.5197 487.576C35.8162 487.241 30.0972 484.894 24.2479 494.507C19.2519 502.835 16.9067 506.968 16.9067 506.968C16.9067 506.968 17.8599 510.117 26.2575 506.831C32.3039 504.498 39.1741 501.52 43.1438 499.924C29.2318 512.119 24.6149 527.052 42.4746 550.181C39.1482 552.602 37.6125 564.687 46.3878 567.213C43.2773 570.704 45.8533 607.896 73.0647 615.135C72.9767 617.062 73.1633 618.775 73.4718 620.304C74.4589 625.196 77.5813 628.067 84.9745 626.894C99.5988 652.107 111.291 662 136.336 654.56C139.344 661.591 143.014 663.237 147.984 657.143C148.047 658.244 148.079 659.192 148.295 660.262C151.596 676.622 175.431 692.339 196.411 668.694C191.39 680.05 192.754 689.958 192.754 689.958C192.754 689.958 199.903 689.152 206.459 681.465C213.746 672.675 215.107 665.24 215.107 665.24C215.107 665.24 216.439 674.996 232.602 673.167C248.581 671.216 252.064 671.15 252.064 671.15C252.064 671.15 249.217 668.065 242.362 663.242C236.457 659.183 231.224 655.306 227.276 652.283C238.368 652.114 255.654 646.399 261.018 622.563C273.374 627.866 280.226 615.346 276.239 607.399C286.785 609.249 336.463 586.815 299.197 547.075C306.737 542.69 305.506 538.165 300.303 533.645C306.706 525.989 322.474 477.3 276.867 454.518C279.004 453.292 284.288 451.907 296.76 453.846Z" fill="#B2B2F1"/>
<path d="M177.978 479.458C177.978 479.458 157.61 466.625 137.377 464.054C117.144 461.483 98.1414 473.446 98.1414 473.446C99.4224 476.646 101.073 479.685 103.059 482.502C105.41 485.63 108.028 488.548 110.884 491.222C106.857 494.226 103.149 497.636 99.8177 501.397C97.0015 504.826 94.6697 508.626 92.8877 512.69C98.9538 516.299 105.681 518.655 112.672 519.621C123.963 521.077 138.051 518.514 138.051 518.514L177.978 479.458Z" fill="#4824D6"/>
<path d="M168.234 477.998H167.279C138.063 477.998 114.379 501.687 114.379 530.91V539.555C114.379 568.777 138.063 592.467 167.279 592.467H168.234C197.45 592.467 221.135 568.777 221.135 539.555V530.91C221.135 501.687 197.45 477.998 168.234 477.998Z" fill="white"/>
<path d="M147.311 549.1C147.311 549.1 152.707 558.674 167.343 559.04C181.98 559.405 188.204 549.1 188.204 549.1" stroke="#2B2C34" stroke-width="3" stroke-linecap="round"/>
<path d="M166.09 522.938C166.09 522.938 160.929 533.266 162.318 537.149C163.706 541.031 171.643 538.471 171.643 538.471" stroke="#2B2C34" stroke-width="3" stroke-linecap="round"/>
<path d="M635.8 698.686C635.8 698.686 617.481 687.144 599.285 684.832C581.088 682.519 563.997 693.279 563.997 693.279C565.149 696.157 566.634 698.89 568.42 701.424C570.534 704.237 572.889 706.861 575.457 709.267C571.836 711.968 568.501 715.035 565.505 718.417C562.972 721.501 560.875 724.919 559.272 728.574C564.728 731.82 570.778 733.939 577.066 734.808C587.221 736.117 599.891 733.812 599.891 733.812L635.8 698.686Z" fill="#4824D6"/>
<path d="M627.037 697.373H626.178C599.901 697.373 578.6 718.679 578.6 744.961V752.736C578.6 779.018 599.901 800.324 626.178 800.324H627.037C653.313 800.324 674.614 779.018 674.614 752.736V744.961C674.614 718.679 653.313 697.373 627.037 697.373Z" fill="white"/>
<path d="M608.219 761.321C608.219 761.321 613.072 769.931 626.236 770.26C639.4 770.589 644.997 761.321 644.997 761.321" stroke="#2B2C34" stroke-width="3" stroke-linecap="round"/>
<path d="M625.108 737.792C625.108 737.792 620.467 747.08 621.716 750.572C622.965 754.064 630.103 751.762 630.103 751.762" stroke="#2B2C34" stroke-width="3" stroke-linecap="round"/>
<path d="M714.513 291.434C714.513 291.434 702.951 284.15 691.467 282.691C679.982 281.231 669.196 288.022 669.196 288.022C669.923 289.838 670.86 291.563 671.987 293.162C673.322 294.938 674.808 296.594 676.429 298.112C674.143 299.817 672.038 301.752 670.147 303.887C668.549 305.834 667.225 307.991 666.214 310.298C669.657 312.346 673.475 313.684 677.444 314.232C683.853 315.058 691.849 313.603 691.849 313.603L714.513 291.434Z" fill="#4824D6"/>
<path d="M708.982 290.606H708.44C691.856 290.606 678.412 304.052 678.412 320.64V325.546C678.412 342.134 691.856 355.581 708.44 355.581H708.982C725.566 355.581 739.009 342.134 739.009 325.546V320.64C739.009 304.052 725.566 290.606 708.982 290.606Z" fill="white"/>
<path d="M697.105 330.965C697.105 330.965 700.168 336.399 708.476 336.607C716.784 336.814 720.317 330.965 720.317 330.965" stroke="#2B2C34" stroke-width="3" stroke-linecap="round"/>
<path d="M707.765 316.115C707.765 316.115 704.835 321.977 705.623 324.181C706.412 326.385 710.917 324.932 710.917 324.932" stroke="#2B2C34" stroke-width="3" stroke-linecap="round"/>
<path d="M328.59 77.6361C328.59 77.6361 314.36 68.6708 300.225 66.8745C286.09 65.0782 272.814 73.4359 272.814 73.4359C273.709 75.6716 274.862 77.795 276.25 79.7629C277.892 81.9483 279.721 83.9868 281.716 85.8553C278.903 87.9539 276.312 90.3357 273.985 92.9633C272.017 95.359 270.388 98.0139 269.143 100.853C273.381 103.374 278.081 105.021 282.966 105.696C290.854 106.712 300.696 104.922 300.696 104.922L328.59 77.6361Z" fill="#4824D6"/>
<path d="M321.783 76.6162H321.115C300.704 76.6162 284.158 93.1664 284.158 113.582V119.622C284.158 140.037 300.704 156.588 321.115 156.588H321.783C342.194 156.588 358.74 140.037 358.74 119.622V113.582C358.74 93.1664 342.194 76.6162 321.783 76.6162Z" fill="white"/>
<path d="M307.165 126.29C307.165 126.29 310.935 132.979 321.16 133.234C331.386 133.49 335.734 126.29 335.734 126.29" stroke="#2B2C34" stroke-width="3" stroke-linecap="round"/>
<path d="M320.285 108.013C320.285 108.013 316.679 115.228 317.649 117.941C318.619 120.653 324.164 118.865 324.164 118.865" stroke="#2B2C34" stroke-width="3" stroke-linecap="round"/>
</svg>
