<svg width="39" height="41" viewBox="0 0 39 41" fill="none" xmlns="http://www.w3.org/2000/svg">
<g clip-path="url(#clip0_280_181)">
<path d="M0 20.5865C0 8.41913 8.05689 0 19.5584 0C31.3518 0 38.8248 7.78481 38.8248 19.8945V22.7778L9.22455 22.8354C9.92515 29.6976 13.6033 33.1575 20.0254 33.1575C25.3383 33.1575 28.8413 31.1392 29.9506 27.4487H38.9416C37.2485 35.9255 30.1257 41.0577 19.8503 41.0577C8.17365 41 0 32.6385 0 20.5865ZM9.45808 16.7229H29.1916C29.1916 11.3601 25.4551 7.84248 19.6168 7.84248C13.8952 7.84248 10.4506 10.8987 9.45808 16.7229Z" fill="url(#paint0_linear_280_181)"/>
</g>
<defs>
<linearGradient id="paint0_linear_280_181" x1="35.6953" y1="36.8358" x2="7.65325" y2="7.43065" gradientUnits="userSpaceOnUse">
<stop offset="5.94866e-07" stop-color="#B1B1D5"/>
<stop offset="0.0120756" stop-color="#A9A7D0"/>
<stop offset="0.0636143" stop-color="#8A83BC"/>
<stop offset="0.1215" stop-color="#6E63AA"/>
<stop offset="0.1856" stop-color="#57479B"/>
<stop offset="0.2579" stop-color="#45318F"/>
<stop offset="0.3424" stop-color="#362086"/>
<stop offset="0.4468" stop-color="#2C1580"/>
<stop offset="0.5933" stop-color="#270E7C"/>
<stop offset="1" stop-color="#250C7B"/>
</linearGradient>
<clipPath id="clip0_280_181">
<rect width="39" height="41" fill="white"/>
</clipPath>
</defs>
</svg>
