<svg id="Group_12038" data-name="Group 12038" xmlns="http://www.w3.org/2000/svg" width="87.901" height="30.633" viewBox="0 0 87.901 30.633">
  <path id="Path_1613" data-name="Path 1613" d="M241.639,488.482a5.55,5.55,0,0,1-1.951,4.294,12.681,12.681,0,0,1-1.093.826,12.227,12.227,0,0,1-3.757,1.708,11.81,11.81,0,0,1-2.993.384c-.289,0-.575-.011-.86-.032a12.4,12.4,0,0,1-8.226-4.073,9.769,9.769,0,0,0-.338,2.561,8.983,8.983,0,0,0,4.992,8.251,7.406,7.406,0,0,0,6.153.024c.035-.014.068-.03.1-.046l.027-.012a4.446,4.446,0,0,1,1.781-.372,4.755,4.755,0,0,1,4.058,2.413,12.326,12.326,0,0,1-8.816,4.03l-.2,0a11.847,11.847,0,0,1-4.295-.8,12.6,12.6,0,0,1-3.482-2.057,14.8,14.8,0,0,1-5.177-11.429,15.424,15.424,0,0,1,1.453-6.583,11.878,11.878,0,0,1-8.046-1.04,13.947,13.947,0,0,1,3.184-3.808,14.221,14.221,0,0,1-2.191-3,11.983,11.983,0,0,1,6.475-1.911q.434,0,.86.032a12.181,12.181,0,0,1,6.906,2.82l.011.008.006,0a11.952,11.952,0,0,1,1.7-.517h0a11.839,11.839,0,0,1,5.88.179h0a12.838,12.838,0,0,1,6.491,4.458.011.011,0,0,1,0,.005q.226.286.437.585l0,.006A5.71,5.71,0,0,1,241.639,488.482Z" transform="translate(-210.971 -477.806)" fill="#4824d6"/>
  <path id="Path_2620" data-name="Path 2620" d="M8.5,11.711V-3.083h3.623v-3.85H8.5v-5.812h-4.6v5.812H.308v3.85H3.893V11.711Zm11.1,0V1.521c0-2.793,1.7-4.831,4.6-4.831,2.34,0,3.887,1.51,3.887,4.642V11.711h4.6V.238c0-4.831-2.415-7.737-7.02-7.737a7,7,0,0,0-6.038,2.981v-11.85H14.989V11.711Zm23.173.491c2.906,0,5.435-1.321,6.227-3.246l.34,2.755h4.038V.389c0-5.17-3.095-7.888-8.114-7.888-5.057,0-8.378,2.642-8.378,6.68H40.8c0-1.963,1.51-3.095,4.227-3.095,2.34,0,3.85,1.019,3.85,3.548V.049L43.294.464c-4.416.34-6.906,2.491-6.906,5.925C36.388,9.9,38.8,12.2,42.766,12.2Zm1.51-3.472c-2.076,0-3.208-.83-3.208-2.529,0-1.51,1.094-2.453,3.963-2.717l3.887-.3v.981A4.263,4.263,0,0,1,44.276,8.729Z" transform="translate(34.53 17.452)" fill="#4824d6"/>
</svg>
