<svg width="739" height="650" viewBox="0 0 739 650" fill="none" xmlns="http://www.w3.org/2000/svg">
<path d="M610.5 540.574L158.5 491L387.369 160.747L610.5 540.574Z" stroke="#B2B2F1" stroke-width="2"/>
<path d="M536.896 108.841C559.776 115.201 578.157 108.616 578.157 108.616C578.157 108.616 569.552 105.883 558.898 87.968C548.884 71.1282 528.88 75.9619 527.593 76.2433C528.137 76.0164 532.989 73.4167 537.766 46.8906C542.791 18.6637 524.982 12.6792 524.982 12.6792C524.982 12.6792 525.806 26.4542 512.646 35.4598C503.037 41.9611 498.422 50.3394 496.195 58.1685C492.148 38.6471 472.249 16.9238 433.268 35.4903C424.133 20.4556 414.088 8.29213 396.327 25.862C395.144 25.014 343.503 -1.67112 317.845 35.549C316.676 34.8869 315.534 34.5968 314.605 34.665C313.119 34.7741 312.072 35.7857 311.321 38.2715C303.729 31.537 229.971 34.3334 238.108 107.027C236.898 105.807 235.021 103.141 232.913 97.3124C228.908 86.0143 221.027 80.4229 221.027 80.4229C221.027 80.4229 221.341 84.7001 218.308 94.2711C215.433 103.457 222.386 109.116 223.183 109.805C222.399 109.302 215.969 105.661 207.589 116.185C200.414 125.312 197.013 129.862 197.013 129.862C197.013 129.862 197.671 133.74 208.124 131.103C215.645 129.242 224.24 126.742 229.188 125.444C210.858 137.82 203.142 154.84 220.855 184.95C216.546 187.323 212.912 201.425 222.941 205.737C218.728 209.412 216.204 253.908 247.391 266.577C246.998 268.849 246.962 270.908 247.099 272.768C247.536 278.719 250.808 282.592 259.753 282.309C273.315 314.407 285.699 327.895 316.518 322.828C319.031 331.618 323.137 334.121 329.946 327.638C329.856 328.954 329.752 330.083 329.847 331.385C331.308 351.283 357.22 373.5 385.65 348.603C377.991 361.318 378.122 373.274 378.122 373.274C378.122 373.274 386.722 373.391 395.651 365.257C405.612 355.925 408.342 347.311 408.342 347.311C408.342 347.311 408.459 359.082 427.902 359.337C447.146 359.42 451.288 359.864 451.288 359.864C451.288 359.864 448.373 355.778 440.967 349.03C434.572 343.329 428.947 337.946 424.718 333.769C437.9 335.232 459.258 331.047 469.196 303.581C483.055 311.726 493.06 297.903 489.523 287.88C501.754 291.656 564.038 272.501 525.801 219.779C535.402 215.708 534.621 210.157 529.127 204.016C537.87 195.896 563.876 140.514 513.202 106.653C515.92 105.519 522.395 104.67 536.896 108.841Z" fill="#B2B2F1"/>
<path d="M401.078 109.796C401.078 109.796 374.304 92.9274 347.708 89.5476C321.112 86.1677 296.133 101.893 296.133 101.893C297.817 106.1 299.987 110.095 302.598 113.798C305.688 117.909 309.129 121.745 312.883 125.261C307.59 129.209 302.715 133.691 298.337 138.634C294.635 143.142 291.57 148.137 289.227 153.48C297.201 158.223 306.044 161.321 315.234 162.591C330.076 164.504 348.595 161.135 348.595 161.135L401.078 109.796Z" fill="#4824D6"/>
<path d="M388.27 107.877H387.014C348.61 107.877 317.477 139.017 317.477 177.43V188.793C317.477 227.206 348.61 258.346 387.014 258.346H388.27C426.674 258.346 457.807 227.206 457.807 188.793V177.43C457.807 139.017 426.674 107.877 388.27 107.877Z" fill="white"/>
<path d="M360.766 201.341C360.766 201.341 367.858 213.925 387.098 214.406C406.339 214.886 414.52 201.341 414.52 201.341" stroke="#2B2C34" stroke-width="3" stroke-linecap="round"/>
<path d="M385.451 166.951C385.451 166.951 378.667 180.527 380.492 185.63C382.318 190.734 392.75 187.369 392.75 187.369" stroke="#2B2C34" stroke-width="3" stroke-linecap="round"/>
<path d="M169.179 590.864C160.653 604.119 161.217 617.065 161.217 617.065C161.217 617.065 164.64 612.146 178.089 608.911C190.731 605.87 191.596 592.239 191.67 591.368C191.707 591.758 192.403 595.344 208.28 603.582C225.187 612.312 232.479 602.198 232.479 602.198C232.479 602.198 223.584 600.015 220.46 589.903C218.226 582.535 213.821 577.964 209.295 575.014C222.466 576.283 240.145 567.935 236.031 539.577C247.357 536.739 257.04 532.76 249.391 518.049C250.161 517.466 277.22 489.97 258.664 466.394C259.313 465.783 259.722 465.116 259.861 464.514C260.084 463.55 259.648 462.688 258.22 461.724C263.98 458.234 276.694 410.927 229.012 401.808C230.023 401.28 232.083 400.614 236.191 400.422C244.14 400.102 249.233 396.204 249.233 396.204C249.233 396.204 246.46 395.563 240.988 391.761C235.73 388.134 230.776 391.43 230.183 391.801C230.656 391.402 234.227 388.041 229.201 380.662C224.824 374.321 222.608 371.271 222.608 371.271C222.608 371.271 220.02 370.926 219.639 378.071C219.341 383.204 219.238 389.144 219.09 392.535C214.844 378.485 205.57 370.251 183.003 375.565C182.345 372.368 174.119 367.294 169.416 372.805C167.914 369.412 140.201 359.073 126.045 376.356C124.682 375.66 123.383 375.233 122.178 374.954C118.319 374.062 115.221 375.376 113.644 381.102C90.6321 383.396 79.6497 388.597 76.8084 409.13C70.7426 408.996 68.3493 411.108 71.1217 416.697C70.3056 416.381 69.61 416.094 68.766 415.899C55.8649 412.916 36.6916 424.979 46.8907 447.892C40.3343 440.54 32.7292 438.274 32.7292 438.274C32.7292 438.274 30.9661 443.703 34.369 450.961C38.3281 459.109 43.2527 462.531 43.2527 462.531C43.2527 462.531 35.7681 460.293 31.7872 472.569C27.9548 484.752 26.86 487.29 26.86 487.29C26.86 487.29 30.0229 486.245 35.7554 482.876C40.6252 479.941 45.1425 477.433 48.6209 475.572C45.1045 483.641 43.5626 498.003 59.0223 509.698C51.1375 516.884 57.9347 525.941 64.9837 525.667C60.1875 532.679 60.0975 575.926 101.03 562.041C101.725 568.927 105.398 569.522 110.369 567.245C113.8 574.383 143.801 601.746 175.219 576.273C175.404 578.219 174.671 582.49 169.179 590.864Z" fill="#B2B2F1"/>
<path d="M170.977 438.157C170.977 438.157 151.98 426.188 133.11 423.79C114.24 421.392 96.5166 432.55 96.5166 432.55C97.7113 435.534 99.2507 438.369 101.103 440.996C103.296 443.914 105.737 446.635 108.401 449.129C104.645 451.931 101.187 455.111 98.08 458.618C95.4534 461.817 93.2787 465.361 91.6167 469.151C97.2743 472.517 103.548 474.715 110.069 475.616C120.6 476.973 133.739 474.583 133.739 474.583L170.977 438.157Z" fill="#4824D6"/>
<path d="M161.889 436.795H160.998C133.75 436.795 111.66 458.89 111.66 486.144V494.207C111.66 521.461 133.75 543.556 160.998 543.556H161.889C189.138 543.556 211.227 521.461 211.227 494.207V486.144C211.227 458.89 189.138 436.795 161.889 436.795Z" fill="white"/>
<path d="M142.375 503.11C142.375 503.11 147.407 512.039 161.058 512.38C174.709 512.72 180.514 503.11 180.514 503.11" stroke="#2B2C34" stroke-width="3" stroke-linecap="round"/>
<path d="M159.89 478.709C159.89 478.709 155.076 488.342 156.371 491.963C157.666 495.584 165.068 493.196 165.068 493.196" stroke="#2B2C34" stroke-width="3" stroke-linecap="round"/>
<path d="M620.346 447.698C628.637 439.748 630.432 430.477 630.432 430.477C630.432 430.477 627.172 433.383 617.091 433.396C607.614 433.408 604.691 442.922 604.49 443.527C604.53 443.245 604.645 440.585 594.789 432.054C584.285 423 577.402 428.933 577.402 428.933C577.402 428.933 583.336 431.988 583.836 439.684C584.171 445.286 586.518 449.272 589.226 452.13C580.106 448.998 566.16 451.918 564.268 472.714C555.759 472.806 548.221 473.984 551.149 485.707C550.505 485.99 526.664 500.891 535.819 520.747C535.255 521.07 534.852 521.474 534.652 521.877C534.33 522.522 534.493 523.207 535.342 524.133C530.667 525.63 513.635 557.004 545.885 571.551C545.079 571.754 543.506 571.877 540.561 571.316C534.873 570.195 530.603 572.095 530.603 572.095C530.603 572.095 532.46 573.019 535.693 576.642C538.806 580.104 542.875 578.608 543.359 578.446C542.956 578.648 539.855 580.425 542.166 586.507C544.193 591.743 545.247 594.281 545.247 594.281C545.247 594.281 547.022 594.964 548.504 589.965C549.585 586.377 550.665 582.184 551.346 579.806C551.973 590.484 557.15 597.893 574.046 597.952C573.97 600.33 578.94 605.32 583.208 602.212C583.698 604.871 601.586 616.898 614.55 607.048C615.398 607.773 616.246 608.295 617.054 608.697C619.637 609.984 622.056 609.578 624.144 605.787C640.843 608.063 649.509 606.238 655.004 592.167C659.281 593.29 661.335 592.199 660.318 587.767C660.843 588.129 661.287 588.451 661.852 588.733C670.49 593.034 686.125 587.735 682.781 569.765C686.181 576.088 691.188 578.983 691.188 578.983C691.188 578.983 693.358 575.434 692.176 569.713C690.752 563.267 687.841 560.007 687.841 560.007C687.841 560.007 692.767 562.862 697.67 554.836C702.452 546.85 703.658 545.237 703.658 545.237C703.658 545.237 701.239 545.442 696.605 546.858C692.655 548.112 689.028 549.124 686.248 549.853C690.108 544.73 693.636 534.812 684.661 523.903C691.468 520.146 688.186 512.574 683.143 511.573C687.732 507.416 695.127 476.779 663.761 479.681C664.437 474.683 661.934 473.638 658.024 474.409C656.803 468.768 640.179 444.288 613.591 457.016C613.79 455.605 615.034 452.702 620.346 447.698Z" fill="#B2B2F1"/>
<path d="M622.446 508.002C622.446 508.002 611.129 500.872 599.887 499.443C588.645 498.014 578.087 504.661 578.087 504.661C578.799 506.439 579.716 508.128 580.82 509.693C582.126 511.431 583.58 513.052 585.167 514.539C582.93 516.208 580.869 518.102 579.018 520.192C577.454 522.097 576.158 524.208 575.168 526.467C578.538 528.472 582.276 529.781 586.161 530.318C592.434 531.126 600.262 529.702 600.262 529.702L622.446 508.002Z" fill="#4824D6"/>
<path d="M617.033 507.19H616.502C600.268 507.19 587.109 520.353 587.109 536.59V541.393C587.109 557.63 600.268 570.792 616.502 570.792H617.033C633.266 570.792 646.425 557.63 646.425 541.393V536.59C646.425 520.353 633.266 507.19 617.033 507.19Z" fill="white"/>
<path d="M605.407 546.697C605.407 546.697 608.405 552.016 616.537 552.219C624.67 552.422 628.128 546.697 628.128 546.697" stroke="#2B2C34" stroke-width="2" stroke-linecap="round"/>
<path d="M615.841 532.161C615.841 532.161 612.973 537.899 613.745 540.056C614.517 542.213 618.926 540.791 618.926 540.791" stroke="#2B2C34" stroke-width="2" stroke-linecap="round"/>
</svg>
