<svg xmlns="http://www.w3.org/2000/svg" width="144" height="38.406" viewBox="0 0 144 38.406">
  <g id="aivalable-on-the-app-store-2" transform="translate(-12.796 -6.219)">
    <g id="Group_13245" data-name="Group 13245" transform="translate(12.796 6.219)">
      <path id="Path_475" data-name="Path 475" d="M176.323,92.462a7.63,7.63,0,0,1,3.634-6.4,7.815,7.815,0,0,0-6.155-3.327c-2.589-.272-5.1,1.549-6.419,1.549-1.345,0-3.376-1.523-5.565-1.478a8.194,8.194,0,0,0-6.9,4.207c-2.983,5.164-.758,12.752,2.1,16.926,1.429,2.045,3.1,4.327,5.286,4.246,2.139-.087,2.938-1.362,5.519-1.362,2.557,0,3.308,1.362,5.537,1.311,2.3-.036,3.741-2.053,5.12-4.116a16.876,16.876,0,0,0,2.342-4.769A7.382,7.382,0,0,1,176.323,92.462Zm-4.212-12.475A7.511,7.511,0,0,0,173.83,74.6a7.651,7.651,0,0,0-4.947,2.559,7.147,7.147,0,0,0-1.764,5.183,6.319,6.319,0,0,0,4.991-2.36Z" transform="translate(-153.504 -74.604)" fill="#212121"/>
      <g id="Group_273" data-name="Group 273" transform="translate(39.058 15.508)">
        <path id="Path_477" data-name="Path 477" d="M523.948,233.766h-2.989l-1.637-5.145H513.63l-1.56,5.145h-2.91l5.64-17.517h3.483Zm-5.12-7.3-1.481-4.574q-.235-.7-.883-3.3h-.052q-.261,1.118-.832,3.3l-1.456,4.574Zm19.6.833a7.152,7.152,0,0,1-1.751,5.093,5.133,5.133,0,0,1-3.893,1.664,3.9,3.9,0,0,1-3.607-1.791v6.627h-2.806v-13.6q0-2.024-.1-4.151h2.468l.157,2h.053a4.992,4.992,0,0,1,7.991-.5A6.985,6.985,0,0,1,538.424,227.3Zm-2.859.1a5.207,5.207,0,0,0-.832-3.042,2.875,2.875,0,0,0-2.443-1.246,2.918,2.918,0,0,0-1.884.688,3.193,3.193,0,0,0-1.1,1.807,3.668,3.668,0,0,0-.13.854v2.107a3.38,3.38,0,0,0,.845,2.327,2.805,2.805,0,0,0,2.2.949,2.876,2.876,0,0,0,2.468-1.221A5.377,5.377,0,0,0,535.565,227.4Zm17.386-.1a7.153,7.153,0,0,1-1.751,5.093,5.136,5.136,0,0,1-3.895,1.664,3.9,3.9,0,0,1-3.606-1.791v6.627h-2.806v-13.6q0-2.024-.1-4.151h2.468l.157,2h.053a4.994,4.994,0,0,1,7.992-.5A6.991,6.991,0,0,1,552.952,227.3Zm-2.86.1a5.207,5.207,0,0,0-.833-3.042,2.87,2.87,0,0,0-2.44-1.246,2.93,2.93,0,0,0-1.886.688,3.191,3.191,0,0,0-1.1,1.807,3.746,3.746,0,0,0-.132.854v2.107a3.391,3.391,0,0,0,.844,2.327,2.811,2.811,0,0,0,2.2.949,2.873,2.873,0,0,0,2.468-1.221A5.375,5.375,0,0,0,550.092,227.4Zm19.1,1.454a4.679,4.679,0,0,1-1.557,3.639,6.9,6.9,0,0,1-4.771,1.533,8.328,8.328,0,0,1-4.536-1.091l.649-2.339a7.808,7.808,0,0,0,4.054,1.092,3.824,3.824,0,0,0,2.468-.715,2.335,2.335,0,0,0,.886-1.909,2.446,2.446,0,0,0-.729-1.794,6.762,6.762,0,0,0-2.417-1.35q-4.6-1.716-4.6-5.018a4.43,4.43,0,0,1,1.624-3.534,6.423,6.423,0,0,1,4.3-1.378,8.5,8.5,0,0,1,3.976.832l-.7,2.288a6.953,6.953,0,0,0-3.366-.806,3.423,3.423,0,0,0-2.322.728,2.083,2.083,0,0,0-.7,1.587,2.145,2.145,0,0,0,.807,1.715,9.09,9.09,0,0,0,2.546,1.35,8.63,8.63,0,0,1,3.326,2.13A4.438,4.438,0,0,1,569.194,228.852Zm9.3-5.611H575.4v6.132q0,2.34,1.638,2.338a4.939,4.939,0,0,0,1.247-.13l.077,2.131a6.353,6.353,0,0,1-2.182.311,3.363,3.363,0,0,1-2.6-1.015,4.976,4.976,0,0,1-.936-3.405v-6.367H570.8V221.13h1.843v-2.313l2.756-.832v3.145H578.5Zm13.928,4.105a6.928,6.928,0,0,1-1.664,4.782,5.93,5.93,0,0,1-4.625,1.923,5.653,5.653,0,0,1-4.432-1.843,6.718,6.718,0,0,1-1.651-4.652,6.873,6.873,0,0,1,1.7-4.807,5.9,5.9,0,0,1,4.589-1.872,5.772,5.772,0,0,1,4.469,1.845A6.631,6.631,0,0,1,592.425,227.346Zm-2.909.065a5.655,5.655,0,0,0-.752-2.98,2.778,2.778,0,0,0-2.522-1.5,2.818,2.818,0,0,0-2.573,1.5,5.749,5.749,0,0,0-.753,3.033,5.64,5.64,0,0,0,.753,2.981,2.878,2.878,0,0,0,5.072-.025A5.679,5.679,0,0,0,589.516,227.411ZM601.55,223.6a4.875,4.875,0,0,0-.884-.078,2.648,2.648,0,0,0-2.288,1.119,4.213,4.213,0,0,0-.7,2.494v6.627h-2.806v-8.653q0-2.182-.082-3.976h2.444l.1,2.417h.078a4.332,4.332,0,0,1,1.4-2,3.393,3.393,0,0,1,2.028-.677,4.5,4.5,0,0,1,.7.051Zm12.552,3.25a6.581,6.581,0,0,1-.1,1.273H605.58a3.664,3.664,0,0,0,1.221,2.862,4.176,4.176,0,0,0,2.754.882,9.311,9.311,0,0,0,3.407-.6l.44,1.947a10.532,10.532,0,0,1-4.234.781,6.139,6.139,0,0,1-4.615-1.727,6.385,6.385,0,0,1-1.675-4.639,7.235,7.235,0,0,1,1.561-4.754,5.378,5.378,0,0,1,4.416-2.026,4.707,4.707,0,0,1,4.134,2.026A6.817,6.817,0,0,1,614.1,226.853Zm-2.676-.728a3.8,3.8,0,0,0-.545-2.157,2.451,2.451,0,0,0-2.235-1.172,2.66,2.66,0,0,0-2.234,1.144,4.19,4.19,0,0,0-.831,2.182Z" transform="translate(-509.16 -215.99)" fill="#212121"/>
      </g>
      <g id="Group_274" data-name="Group 274" transform="translate(40.103 0.442)">
        <path id="Path_478" data-name="Path 478" d="M525.958,87.692h-1.47l-.8-2.529h-2.8l-.767,2.529h-1.431l2.772-8.61h1.711ZM523.441,84.1l-.728-2.248c-.076-.23-.217-.766-.434-1.622h-.026c-.089.37-.217.907-.409,1.622l-.715,2.248Zm9.448-2.618-2.351,6.207H529.2l-2.274-6.207H528.4l1.061,3.283c.179.549.332,1.073.446,1.57h.038c.1-.446.255-.97.446-1.57l1.048-3.283Zm5,6.207-.1-.715h-.038a2.117,2.117,0,0,1-1.814.856,1.807,1.807,0,0,1-1.9-1.827c0-1.532,1.328-2.325,3.628-2.325v-.115c0-.817-.434-1.227-1.29-1.227a2.9,2.9,0,0,0-1.622.461l-.28-.907a3.975,3.975,0,0,1,2.134-.537c1.622,0,2.44.856,2.44,2.568v2.286a9.208,9.208,0,0,0,.089,1.482ZM537.7,84.6c-1.533,0-2.3.371-2.3,1.252a.879.879,0,0,0,.945.97,1.32,1.32,0,0,0,1.354-1.264Zm4.416-4.138a.825.825,0,1,1,.869-.831A.81.81,0,0,1,542.117,80.462Zm.716,7.23h-1.38V81.484h1.38Zm3.83,0h-1.38V78.636h1.38v9.056Zm5.863,0-.1-.715h-.038a2.117,2.117,0,0,1-1.814.856,1.807,1.807,0,0,1-1.9-1.827c0-1.532,1.328-2.325,3.627-2.325v-.115c0-.817-.434-1.227-1.29-1.227a2.9,2.9,0,0,0-1.622.461l-.282-.908a3.974,3.974,0,0,1,2.134-.537c1.622,0,2.44.856,2.44,2.568V86.21a9.565,9.565,0,0,0,.088,1.482h-1.238Zm-.192-3.092c-1.533,0-2.3.371-2.3,1.252a.879.879,0,0,0,.945.97,1.32,1.32,0,0,0,1.355-1.264Zm6.931,3.233a2.107,2.107,0,0,1-1.952-1.1h-.028l-.079.958h-1.175c.038-.5.051-1.061.051-1.673V78.636h1.381v3.757h.026a2.13,2.13,0,0,1,1.98-1.035c1.5,0,2.543,1.278,2.543,3.142C562.013,86.427,560.849,87.833,559.266,87.833Zm-.28-5.391a1.587,1.587,0,0,0-1.52,1.648v1.086a1.521,1.521,0,0,0,1.5,1.558c1.033,0,1.648-.842,1.648-2.184C560.608,83.3,559.968,82.441,558.985,82.441Zm6.446,5.251h-1.378V78.636h1.378Zm7.509-2.772H568.8a1.782,1.782,0,0,0,1.955,1.839,4.656,4.656,0,0,0,1.673-.294l.215.958a5.175,5.175,0,0,1-2.081.383,2.882,2.882,0,0,1-3.092-3.129,3.032,3.032,0,0,1,2.937-3.334c1.583,0,2.581,1.175,2.581,2.951A2.611,2.611,0,0,1,572.94,84.92Zm-1.265-.983c0-.958-.486-1.635-1.367-1.635a1.638,1.638,0,0,0-1.508,1.635Zm9.627,3.9a2.954,2.954,0,0,1-2.989-3.193,3.024,3.024,0,0,1,3.093-3.283,2.932,2.932,0,0,1,2.989,3.181A3.042,3.042,0,0,1,581.3,87.833Zm.053-5.468c-1,0-1.635.932-1.635,2.235,0,1.278.651,2.21,1.622,2.21s1.62-1,1.62-2.236C582.963,83.31,582.324,82.365,581.354,82.365Zm10.456,5.327h-1.378V84.127c0-1.1-.421-1.648-1.252-1.648A1.434,1.434,0,0,0,587.8,84v3.692h-1.378V83.259c0-.549-.014-1.137-.051-1.776h1.214l.065.958h.038a2.227,2.227,0,0,1,1.966-1.086c1.3,0,2.157,1,2.157,2.618v3.718Zm9.026-5.173h-1.518v3.014q0,1.151.8,1.15a2.728,2.728,0,0,0,.613-.064l.038,1.048a3.074,3.074,0,0,1-1.072.154c-1.087,0-1.736-.6-1.736-2.172v-3.13h-.905V81.484h.905V80.347l1.353-.409v1.545h1.518Zm7.305,5.173H606.76V84.154c0-1.111-.421-1.673-1.252-1.673a1.351,1.351,0,0,0-1.378,1.469v3.742H602.75V78.636h1.381v3.729h.026a2.089,2.089,0,0,1,1.865-1.01c1.315,0,2.119,1.021,2.119,2.644Zm7.049-2.772h-4.14A1.78,1.78,0,0,0,613,86.759a4.653,4.653,0,0,0,1.673-.294l.216.958a5.183,5.183,0,0,1-2.082.383,2.882,2.882,0,0,1-3.092-3.129,3.032,3.032,0,0,1,2.936-3.334c1.584,0,2.581,1.175,2.581,2.951A2.691,2.691,0,0,1,615.19,84.92Zm-1.265-.983c0-.958-.484-1.635-1.366-1.635a1.636,1.636,0,0,0-1.508,1.635Z" transform="translate(-518.688 -78.636)" fill="#212121"/>
      </g>
    </g>
  </g>
</svg>
