<svg xmlns="http://www.w3.org/2000/svg" width="32" height="32" viewBox="0 0 32 32">
  <path id="play" d="M16,32A16,16,0,0,1,4.686,4.685a15.99,15.99,0,0,1,24.6,20.2,1.25,1.25,0,1,1-2.078-1.389,13.41,13.41,0,1,0-4.227,4.063,1.25,1.25,0,1,1,1.3,2.138A15.974,15.974,0,0,1,16,32ZM14.641,21.892l6.231-3.61a2.64,2.64,0,0,0,0-4.566l-6.231-3.61a2.634,2.634,0,0,0-3.954,2.283v7.22a2.628,2.628,0,0,0,3.954,2.283Zm-1.253-9.624,6.231,3.61a.14.14,0,0,1,0,.24l-6.231,3.61a.12.12,0,0,1-.132,0,.126.126,0,0,1-.069-.12v-7.22a.126.126,0,0,1,.069-.12.133.133,0,0,1,.067-.02.126.126,0,0,1,.065.02Zm0,0" transform="translate(0 0.001)" fill="#212121"/>
</svg>
