<svg xmlns="http://www.w3.org/2000/svg" xmlns:xlink="http://www.w3.org/1999/xlink" width="164.577" height="38.648" viewBox="0 0 164.577 38.648">
  <defs>
    <linearGradient id="linear-gradient" x1="0.908" y1="1.032" x2="-0.383" y2="0.36" gradientUnits="objectBoundingBox">
      <stop offset="0" stop-color="#00a0ff"/>
      <stop offset="0.007" stop-color="#00a1ff"/>
      <stop offset="0.26" stop-color="#00beff"/>
      <stop offset="0.512" stop-color="#00d2ff"/>
      <stop offset="0.76" stop-color="#00dfff"/>
      <stop offset="1" stop-color="#00e3ff"/>
    </linearGradient>
    <linearGradient id="linear-gradient-2" x1="1.077" y1="0.729" x2="-1.307" y2="0.729" gradientUnits="objectBoundingBox">
      <stop offset="0" stop-color="#ffe000"/>
      <stop offset="0.409" stop-color="#ffbd00"/>
      <stop offset="0.775" stop-color="orange"/>
      <stop offset="1" stop-color="#ff9c00"/>
    </linearGradient>
    <linearGradient id="linear-gradient-3" x1="0.864" y1="-0.023" x2="-0.499" y2="-1.789" gradientUnits="objectBoundingBox">
      <stop offset="0" stop-color="#ff3a44"/>
      <stop offset="1" stop-color="#c31162"/>
    </linearGradient>
    <linearGradient id="linear-gradient-4" x1="-0.186" y1="2.701" x2="0.423" y2="1.909" gradientUnits="objectBoundingBox">
      <stop offset="0" stop-color="#32a071"/>
      <stop offset="0.069" stop-color="#2da771"/>
      <stop offset="0.476" stop-color="#15cf74"/>
      <stop offset="0.801" stop-color="#06e775"/>
      <stop offset="1" stop-color="#00f076"/>
    </linearGradient>
  </defs>
  <g id="Group_13244" data-name="Group 13244" transform="translate(0 0.1)">
    <path id="Path_481" data-name="Path 481" d="M49.935,11.594a3.874,3.874,0,0,1-1,2.845A4.41,4.41,0,0,1,41.4,11.31,4.182,4.182,0,0,1,42.68,8.18,4.182,4.182,0,0,1,45.81,6.9a3.787,3.787,0,0,1,1.707.427,3.1,3.1,0,0,1,1.28,1l-.711.711a2.653,2.653,0,0,0-2.276-1,2.83,2.83,0,0,0-2.276,1,2.93,2.93,0,0,0-1,2.418,2.93,2.93,0,0,0,1,2.418,3.663,3.663,0,0,0,2.276,1,3.12,3.12,0,0,0,2.418-1,2.356,2.356,0,0,0,.711-1.707H45.81V11.025h4.125Zm6.543-3.556H52.637v2.7h3.556v1H52.637v2.7h3.841v1.138H51.5V7.042h4.979Zm4.694,7.539H60.034V8.038H57.616v-1H63.59v1H61.172Zm6.543,0V7.042h1.138v8.535Zm5.974,0H72.552V8.038H70.133v-1h5.832v1H73.547v7.539ZM87.2,14.439a4.41,4.41,0,0,1-7.539-3.129,4.182,4.182,0,0,1,1.28-3.129,4.465,4.465,0,0,1,6.259,0,4.182,4.182,0,0,1,1.28,3.129A4.182,4.182,0,0,1,87.2,14.439ZM81.8,13.728a3.357,3.357,0,0,0,2.276,1,2.83,2.83,0,0,0,2.276-1,3.432,3.432,0,0,0,1-2.418,2.93,2.93,0,0,0-1-2.418,3.357,3.357,0,0,0-2.276-1,2.83,2.83,0,0,0-2.276,1,3.432,3.432,0,0,0-1,2.418A2.93,2.93,0,0,0,81.8,13.728Zm8.25,1.849V7.042h1.28l4.125,6.686V7.042h1.138v8.535H95.453l-4.41-6.97v6.97Z" transform="translate(3.265 -6.9)" fill="#fff" stroke="#fff" stroke-width="0.2"/>
    <path id="Path_482" data-name="Path 482" d="M79.506,23.786A5.984,5.984,0,0,0,73.39,29.9a6.071,6.071,0,0,0,6.117,6.117A5.984,5.984,0,0,0,85.623,29.9,5.9,5.9,0,0,0,79.506,23.786Zm0,9.673a3.531,3.531,0,0,1-3.414-3.7,3.531,3.531,0,0,1,3.414-3.7,3.446,3.446,0,0,1,3.414,3.7A3.531,3.531,0,0,1,79.506,33.458ZM66.277,23.786A5.984,5.984,0,0,0,60.161,29.9a6.071,6.071,0,0,0,6.117,6.117A5.984,5.984,0,0,0,72.394,29.9,5.9,5.9,0,0,0,66.277,23.786Zm0,9.673a3.531,3.531,0,0,1-3.414-3.7,3.531,3.531,0,0,1,3.414-3.7,3.446,3.446,0,0,1,3.414,3.7A3.531,3.531,0,0,1,66.277,33.458ZM50.488,25.635V28.2H56.6a5.379,5.379,0,0,1-1.422,3.272,6.3,6.3,0,0,1-4.694,1.849A6.623,6.623,0,0,1,43.8,26.488a6.71,6.71,0,0,1,6.686-6.828,7.053,7.053,0,0,1,4.694,1.849l1.849-1.849a9.115,9.115,0,0,0-6.4-2.56,9.6,9.6,0,0,0-9.53,9.388,9.6,9.6,0,0,0,9.53,9.388,8.186,8.186,0,0,0,6.543-2.7A8.563,8.563,0,0,0,59.45,27.2a5.334,5.334,0,0,0-.142-1.565Zm64.579,1.991a5.527,5.527,0,0,0-5.121-3.841c-3.129,0-5.69,2.418-5.69,6.117a5.953,5.953,0,0,0,5.974,6.117,5.835,5.835,0,0,0,4.979-2.7l-1.991-1.422a3.467,3.467,0,0,1-2.987,1.707,3.086,3.086,0,0,1-2.987-1.849l8.108-3.414Zm-8.25,1.991a3.456,3.456,0,0,1,3.129-3.556,2.516,2.516,0,0,1,2.276,1.28Zm-6.685,5.832h2.7V17.669h-2.7ZM95.864,25.066a4.684,4.684,0,0,0-3.272-1.422,6.112,6.112,0,0,0-5.832,6.117,5.89,5.89,0,0,0,5.832,5.974,4.084,4.084,0,0,0,3.129-1.422h.142v.853c0,2.276-1.28,3.556-3.272,3.556a3.16,3.16,0,0,1-2.987-2.134l-2.276,1a5.868,5.868,0,0,0,5.405,3.556c3.129,0,5.69-1.849,5.69-6.259V24.07h-2.56Zm-3.129,8.392a3.531,3.531,0,0,1-3.414-3.7,3.531,3.531,0,0,1,3.414-3.7,3.422,3.422,0,0,1,3.272,3.7A3.422,3.422,0,0,1,92.735,33.458Zm34.708-15.789h-6.4V35.45h2.7V28.764h3.7a5.554,5.554,0,1,0,0-11.1Zm.142,8.535h-3.841V20.087h3.841a3.124,3.124,0,0,1,3.129,2.987,3.255,3.255,0,0,1-3.129,3.129Zm16.358-2.56c-1.991,0-3.983.853-4.694,2.7l2.418,1a2.513,2.513,0,0,1,2.418-1.28,2.673,2.673,0,0,1,2.845,2.276v.142a5.642,5.642,0,0,0-2.7-.711c-2.56,0-5.121,1.422-5.121,3.983a4.167,4.167,0,0,0,4.41,3.983,4,4,0,0,0,3.414-1.707h.142V35.45h2.56V28.622A5.383,5.383,0,0,0,143.943,23.643Zm-.284,9.815c-.853,0-2.134-.427-2.134-1.565,0-1.422,1.565-1.849,2.845-1.849a5.5,5.5,0,0,1,2.418.569A3.313,3.313,0,0,1,143.658,33.458Zm14.936-9.388-2.987,7.681h-.142l-3.129-7.681h-2.845l4.694,10.811-2.7,5.974h2.7l7.254-16.785ZM134.7,35.45h2.7V17.669h-2.7Z" transform="translate(3.138 -2.591)" fill="#fff"/>
    <path id="Path_483" data-name="Path 483" d="M10.569,7.5A2.781,2.781,0,0,0,10,9.491V40.928a2.814,2.814,0,0,0,.711,1.991l.142.142L28.492,25.423v-.284Z" transform="translate(-10 -6.647)" fill="url(#linear-gradient)"/>
    <path id="Path_484" data-name="Path 484" d="M28.732,27.891,22.9,22.059v-.427L28.732,15.8l.142.142,6.97,3.983c1.991,1.138,1.991,2.987,0,4.125Z" transform="translate(-4.55 -3.14)" fill="url(#linear-gradient-2)"/>
    <path id="Path_485" data-name="Path 485" d="M34.155,25.974,28.181,20,10.4,37.781c.711.711,1.707.711,2.987.142Z" transform="translate(-9.831 -1.366)" fill="url(#linear-gradient-3)"/>
    <path id="Path_486" data-name="Path 486" d="M34.155,19.445,13.387,7.639c-1.28-.711-2.276-.569-2.987.142L28.181,25.419Z" transform="translate(-9.831 -6.785)" fill="url(#linear-gradient-4)"/>
    <path id="Path_487" data-name="Path 487" d="M34.013,24.1,13.387,35.764a2.326,2.326,0,0,1-2.845,0l-.142.142.142.142a2.326,2.326,0,0,0,2.845,0Z" transform="translate(-9.831 0.366)" opacity="0.2"/>
    <path id="Path_488" data-name="Path 488" d="M10.569,37.5A2.781,2.781,0,0,1,10,35.5v.142a2.814,2.814,0,0,0,.711,1.991V37.5ZM41.294,21.849l-7.112,3.983.142.142,6.97-3.983A2.365,2.365,0,0,0,42.716,20C42.716,20.711,42.147,21.28,41.294,21.849Z" transform="translate(-10 -1.366)" opacity="0.12"/>
    <path id="Path_489" data-name="Path 489" d="M13.556,7.791,41.294,23.58c.853.569,1.422,1.138,1.422,1.849a2.365,2.365,0,0,0-1.422-1.991L13.556,7.649C11.565,6.511,10,7.365,10,9.64v.142C10,7.649,11.565,6.653,13.556,7.791Z" transform="translate(-10 -6.796)" fill="#fff" opacity="0.25"/>
  </g>
</svg>
