<svg xmlns="http://www.w3.org/2000/svg" width="44.571" height="29.898" viewBox="0 0 44.571 29.898">
  <path id="Path_490" data-name="Path 490" d="M3.65-126.121a10.05,10.05,0,0,0,10.1,10.019,10.033,10.033,0,0,0,10.019-10.019,10.05,10.05,0,0,0-10.019-10.1,7.948,7.948,0,0,0-1.972.237H11.3a2.121,2.121,0,0,1-2.13-2.13,2.659,2.659,0,0,1,.394-1.341,19.367,19.367,0,0,1,13.884-5.917V-146a19.78,19.78,0,0,0-14.2,6.074A19.581,19.581,0,0,0,3.65-126.121ZM38.124-116.1a10.05,10.05,0,0,0,10.1-10.019,10.067,10.067,0,0,0-10.1-10.1,8.425,8.425,0,0,0-1.972.237h-.473a2.121,2.121,0,0,1-2.13-2.13,2.142,2.142,0,0,1,.473-1.341,19.231,19.231,0,0,1,13.884-5.917V-146a19.962,19.962,0,0,0-14.279,6.074,19.924,19.924,0,0,0-5.6,13.805A10.1,10.1,0,0,0,38.124-116.1Z" transform="translate(-3.65 146)" fill="#676767"/>
</svg>
